<?xml version="1.0" encoding="utf-8"?>
<!-- Generator: Adobe Illustrator 22.0.0, SVG Export Plug-In . SVG Version: 6.00 Build 0)  -->
<svg version="1.0" id="Capa_1" xmlns="http://www.w3.org/2000/svg" xmlns:xlink="http://www.w3.org/1999/xlink" x="0px" y="0px"
	 viewBox="0 0 50 37" enable-background="new 0 0 50 37" xml:space="preserve">
<g>
	<path fill="#FFFFFF" d="M50,3.1v30.4c0,0.8-0.4,1.3-1.1,1.6c-0.2,0.1-0.5,0.1-0.7,0.1c-0.5,0-0.9-0.2-1.3-0.5L35.7,23.5v4.6
		c0,2.2-0.8,4.1-2.4,5.7c-1.6,1.6-3.5,2.4-5.7,2.4H8c-2.2,0-4.1-0.8-5.7-2.4C0.8,32.2,0,30.3,0,28.1V8.5c0-2.2,0.8-4.1,2.4-5.7
		C3.9,1.2,5.8,0.4,8,0.4h19.6c2.2,0,4.1,0.8,5.7,2.4c1.6,1.6,2.4,3.5,2.4,5.7v4.6L47,1.9c0.3-0.4,0.8-0.5,1.3-0.5
		c0.2,0,0.5,0,0.7,0.1C49.6,1.8,50,2.3,50,3.1z"/>
</g>
</svg>
