<?xml version="1.0" encoding="utf-8"?>
<!-- Generator: Adobe Illustrator 22.0.0, SVG Export Plug-In . SVG Version: 6.00 Build 0)  -->
<svg version="1.1" id="Capa_1" xmlns="http://www.w3.org/2000/svg" xmlns:xlink="http://www.w3.org/1999/xlink" x="0px" y="0px"
	 viewBox="0 0 16 16" enable-background="new 0 0 16 16" xml:space="preserve">
<path fill="#1C2C35" d="M21.3,8.5c0-0.2-0.1-0.4-0.2-0.5l-1.4-1.7V6H24l3.4,7.4l3-7.4h4.1v0.3l-1.2,1.1c-0.1,0.1-0.2,0.2-0.1,0.3
	v8.4c0,0.1,0,0.3,0.1,0.3l1.2,1.1V18h-5.9v-0.3l1.2-1.2c0.1-0.1,0.1-0.2,0.1-0.3V9.4l-3.4,8.6h-0.5l-3.9-8.6v5.7
	c0,0.2,0,0.5,0.2,0.7l1.6,1.9v0.3h-4.5v-0.2l1.6-1.9c0.2-0.2,0.2-0.4,0.2-0.7V8.5z"/>
<path fill="#1C2C35" d="M4.3,9.9H2.8V0.5h1.5V9.9z M7.3,2.7H5.8v12.8h1.5V2.7z M10.2,2.7H8.7v12.8h1.5V2.7z M13.2,2.7h-1.5V10h1.5
	V2.7z"/>
</svg>
