<?xml version="1.0" encoding="utf-8"?>
<!-- Generator: Adobe Illustrator 22.0.0, SVG Export Plug-In . SVG Version: 6.00 Build 0)  -->
<svg version="1.1" id="Capa_1" xmlns="http://www.w3.org/2000/svg" xmlns:xlink="http://www.w3.org/1999/xlink" x="0px" y="0px"
	 viewBox="0 0 131 121.5" style="enable-background:new 0 0 131 121.5;" xml:space="preserve">
<style type="text/css">
	.st0{fill:#00CC7D;}
</style>
<g>
	<g>
		<g>
			<path class="st0" d="M-86.4-14.3c-4.5,0-8.5-3.1-9.6-7.5l-2.3-8.8c-0.1-0.4,0.1-0.8,0.6-1c0.1,0,0.1,0,0.2,0
				c0.4,0,0.7,0.2,0.8,0.6l2.3,8.8c1,3.7,4.3,6.3,8.1,6.3c0.6,0,1.3-0.1,1.9-0.2l11.4-2.6l0.1,0c2.5-0.9,4.4-2.5,5.4-4.7
				c1.1-2.3,1-5,0.5-6.4l-11.6-30.9l-15.9,4.5c-4.6,1.3-7.2,6-6,10.6l1.8,7c0.1,0.4-0.1,0.8-0.6,1c-0.1,0-0.1,0-0.2,0
				c-0.4,0-0.7-0.2-0.8-0.6l-1.8-7c-0.7-2.6-0.3-5.3,1-7.7c1.3-2.3,3.5-4,6.1-4.8l16.5-4.7l6.5-3.4v-16.9c0-3.5,2.8-6.3,6.3-6.3h4.8
				c3.5,0,6.3,2.8,6.3,6.3v7.7l5.3-2.8v-18.8c0-3.9,3.2-7.1,7.1-7.1h3.2c3.9,0,7.1,3.2,7.1,7.1v38.7l1.1-0.1
				c1.2-0.1,2.3-0.3,3.4-0.6l0.7-0.2v-55c0-3.9,3.2-7,7-7h3.3c3.9,0,7,3.2,7,7v5.3c0,0.4-0.4,0.8-0.8,0.8c-0.4,0-0.8-0.4-0.8-0.8
				v-5.3c0-3-2.4-5.5-5.5-5.5h-3.3c-3,0-5.5,2.4-5.5,5.5v54.4l1.4-0.6c3.7-1.7,12-8.2,12.4-8.5l0.4-0.3v-32.3c0-0.4,0.4-0.8,0.8-0.8
				c0.4,0,0.8,0.4,0.8,0.8v31.4l1.6-1.3c0,0,2.5-2,5.6-2c1.9,0,3.6,0.8,5.2,2.3c0.8,0.8,2.3,3,2.3,5.7c-0.1,2-1,3.9-2.9,5.5
				l-19,15.6c-2.5,2-5.4,3.5-8.5,4.2l-40.1,9.8l0.2,0.9c0.5,2.3,0.1,4.7-1,6.8c-1.4,2.5-3.8,4.4-6.6,5C-73-17.1-83-14.3-86.4-14.3z
				 M-44.1-78.3c-0.7,0-1.5,0.2-2.1,0.5l-31,16.5L-66-31.4l40.3-9.9c2.9-0.7,5.6-2.1,7.9-3.9l19-15.6c3.7-3.7,2-7.3,0.5-8.9
				c-1.1-1.2-2.7-1.8-4.3-1.8c-1.2,0-2.5,0.4-3.5,1.1l-14.5,10.2c-3.6,2.5-7.9,3.9-12.3,3.9l-13,0c-1.3,0-2.4-0.8-2.8-2
				c-0.4-1.2-0.1-2.5,0.9-3.3l3.2-2.6c2.6-2.1,4.2-5,5-8.6c0.4-1.8-0.3-3.4-1.7-4.5C-42.2-78-43.1-78.3-44.1-78.3z M-44.1-79.9
				c1.3,0,2.6,0.4,3.6,1.2c1.9,1.4,2.8,3.8,2.3,6.1c-0.8,4-2.7,7.3-5.5,9.6l-3.2,2.6c-0.1,0.1-0.9,0.8-0.6,1.7
				c0.1,0.3,0.5,0.9,1.5,0.9l12.3,0v-38.7c0-3-2.5-5.5-5.5-5.5h-3.2c-3,0-5.5,2.5-5.5,5.5v17.8l1.4-0.6
				C-45.8-79.7-44.9-79.9-44.1-79.9z M-70.5-66.7l14.2-7.5v-8.5c0-2.6-2.1-4.7-4.7-4.7h-4.8c-2.6,0-4.7,2.1-4.7,4.7h0V-66.7z"/>
			<path class="st0" d="M-82-22.3c-3.3,0-6-2.7-6-6c0-3.3,2.7-6,6-6c3.3,0,6,2.7,6,6C-75.9-25-78.6-22.3-82-22.3z M-82-32.8
				c-2.5,0-4.5,2-4.5,4.5c0,2.5,2,4.5,4.5,4.5c2.5,0,4.5-2,4.5-4.5C-77.5-30.8-79.5-32.8-82-32.8z"/>
			<path class="st0" d="M-98.5-78.4c-1.5,0-2.8-0.9-3.3-1.4c-0.8-0.8-1.3-2-1.3-3.2c0-1.2,0.5-2.3,1.3-3.2l28.8-29
				c0.9-0.9,2-1.3,3.2-1.3c0.7,0,1.4,0.2,2.1,0.5l6.6,3.4l13.3-12.8l-2.8,0.3c0,0-0.1,0-0.3,0c-1.8,0-4.8-0.6-4.8-4.5
				c0-2.5,2-4.5,4.5-4.5h14.3c2.1,0,4.5,1.2,4.5,4.4l0,14.4c0,2.5-2,4.5-4.5,4.5c-1.3,0-2.3-0.4-3-1.2c-1.6-1.7-1.5-4.7-1.5-4.8
				l0.1-2.5l-15.9,15.3c-0.8,0.8-1.9,1.3-3.1,1.3c-0.7,0-1.4-0.2-2.1-0.5l-6.5-3.4l-26.5,26.7C-96.4-78.9-98.5-78.4-98.5-78.4z
				 M-70-115c-1,0-1.6,0.6-1.9,0.9l-28.8,29c-1.1,1.1-1.1,3,0,4.1c0.2,0.2,1,0.9,2.1,0.9c0.5,0,1.3-0.2,2-0.9l26.9-27.1
				c0.1-0.1,0.3-0.2,0.6-0.2c0.1,0,0.2,0,0.4,0.1l7,3.6c0.4,0.2,0.9,0.3,1.3,0.3c0.8,0,1.5-0.3,2-0.8l17.1-16.5
				c0.1-0.1,0.3-0.2,0.5-0.2c0.1,0,0.2,0,0.3,0.1c0.3,0.1,0.5,0.4,0.5,0.7v5.7c0,1.6,1.3,2.9,2.9,2.9c1.6,0,2.9-1.3,2.9-2.9v-14.4
				c0-0.9-0.3-3-2.9-3h-14.3c-1.6,0-2.9,1.3-2.9,2.9c0,1.6,1.3,2.9,2.9,2.9h5.1c0.3,0,0.6,0.2,0.7,0.5c0.1,0.3,0,0.6-0.2,0.9
				l-14.9,14.3c-0.1,0.1-0.3,0.2-0.5,0.2c-0.1,0-0.2,0-0.4-0.1l-7.1-3.7C-69.1-114.9-69.6-115-70-115z"/>
		</g>
	</g>
	<g>
		<path class="st0" d="M-13.2-108.4c0,1.5,1.2,2.8,2.8,2.8c1.5,0,2.8-1.2,2.8-2.8c0-1.5-1.2-2.8-2.8-2.8
			C-11.9-111.2-13.2-109.9-13.2-108.4z"/>
		<g>
			<image style="overflow:visible;" width="79" height="78" xlink:href="F7F3C9A9.png"  transform="matrix(1 0 0 1 -50 -147.5)">
			</image>
		</g>
	</g>
	<g>
		<path class="st0" d="M-100.3-31.4c0,1.5,1.2,2.8,2.8,2.8c1.5,0,2.8-1.2,2.8-2.8c0-1.5-1.2-2.8-2.8-2.8
			C-99.1-34.2-100.3-32.9-100.3-31.4z"/>
		<g>
			<image style="overflow:visible;" width="79" height="78" xlink:href="F7F3C9AA.png"  transform="matrix(1 0 0 1 -137 -70.5)">
			</image>
		</g>
	</g>
	<g>
		<path class="st0" d="M-49.8-125.9c0,1.5,1.2,2.8,2.8,2.8s2.8-1.2,2.8-2.8c0-1.5-1.2-2.8-2.8-2.8S-49.8-127.5-49.8-125.9z"/>
		<g>
			<image style="overflow:visible;" width="78" height="79" xlink:href="F7F3C9AB.png"  transform="matrix(1 0 0 1 -86 -165.5)">
			</image>
		</g>
	</g>
	<g>
		<path class="st0" d="M-80.3-61.7c0,1.5,1.2,2.8,2.8,2.8c1.5,0,2.8-1.2,2.8-2.8c0-1.5-1.2-2.8-2.8-2.8
			C-79-64.4-80.3-63.2-80.3-61.7z"/>
		<g>
			<image style="overflow:visible;" width="79" height="78" xlink:href="F7F3C9B8.png"  transform="matrix(1 0 0 1 -117 -100.5)">
			</image>
		</g>
	</g>
	<g>
		<path class="st0" d="M-84.7-28.4c0,1.5,1.2,2.8,2.8,2.8c1.5,0,2.8-1.2,2.8-2.8c0-1.5-1.2-2.8-2.8-2.8
			C-83.5-31.1-84.7-29.9-84.7-28.4z"/>
		<g>
			<image style="overflow:visible;" width="78" height="78" xlink:href="F7F3C9B9.png"  transform="matrix(1 0 0 1 -121 -67.5)">
			</image>
		</g>
	</g>
	<g>
		<path class="st0" d="M-87.3-91.8c0,1.5,1.2,2.8,2.8,2.8c1.5,0,2.8-1.2,2.8-2.8c0-1.5-1.2-2.8-2.8-2.8
			C-86.1-94.6-87.3-93.4-87.3-91.8z"/>
		<g>
			<image style="overflow:visible;" width="79" height="79" xlink:href="F7F3C9BE.png"  transform="matrix(1 0 0 1 -124 -131.5)">
			</image>
		</g>
	</g>
	<g>
		<path class="st0" d="M-23-42.7c0,1.5,1.2,2.8,2.8,2.8c1.5,0,2.8-1.2,2.8-2.8c0-1.5-1.2-2.8-2.8-2.8C-21.8-45.5-23-44.3-23-42.7z"
			/>
		<g>
			<image style="overflow:visible;" width="79" height="79" xlink:href="F7F3C9BF.png"  transform="matrix(1 0 0 1 -60 -82.5)">
			</image>
		</g>
	</g>
</g>
<g>
	<g>
		<g>
			<path class="st0" d="M39.6,120.7c-4.5,0-8.5-3.1-9.6-7.5l-2.3-8.8c-0.1-0.4,0.1-0.8,0.6-1c0.1,0,0.1,0,0.2,0
				c0.4,0,0.7,0.2,0.8,0.6l2.3,8.8c1,3.7,4.3,6.3,8.1,6.3c0.6,0,1.3-0.1,1.9-0.2l11.4-2.6l0.1,0c2.5-0.9,4.4-2.5,5.4-4.7
				c1.1-2.3,1-5,0.5-6.4L47.3,74.3l-15.9,4.5c-4.6,1.3-7.2,6-6,10.6l1.8,7c0.1,0.4-0.1,0.8-0.6,1c-0.1,0-0.1,0-0.2,0
				c-0.4,0-0.7-0.2-0.8-0.6l-1.8-7c-0.7-2.6-0.3-5.3,1-7.7c1.3-2.3,3.5-4,6.1-4.8l16.5-4.7l6.5-3.4V52.2c0-3.5,2.8-6.3,6.3-6.3H65
				c3.5,0,6.3,2.8,6.3,6.3V60l5.3-2.8V38.4c0-3.9,3.2-7.1,7.1-7.1h3.2c3.9,0,7.1,3.2,7.1,7.1v38.7l1.1-0.1c1.2-0.1,2.3-0.3,3.4-0.6
				l0.7-0.2v-55c0-3.9,3.2-7,7-7h3.3c3.9,0,7,3.2,7,7v5.3c0,0.4-0.4,0.8-0.8,0.8c-0.4,0-0.8-0.4-0.8-0.8v-5.3c0-3-2.4-5.5-5.5-5.5
				h-3.3c-3,0-5.5,2.4-5.5,5.5v54.4l1.4-0.6c3.7-1.7,12-8.2,12.4-8.5l0.4-0.3V33.8c0-0.4,0.4-0.8,0.8-0.8c0.4,0,0.8,0.4,0.8,0.8
				v31.4l1.6-1.3c0,0,2.5-2,5.6-2c1.9,0,3.6,0.8,5.2,2.3c0.8,0.8,2.3,3,2.3,5.7c-0.1,2-1,3.9-2.9,5.5l-19,15.6
				c-2.5,2-5.4,3.5-8.5,4.2l-40.1,9.8l0.2,0.9c0.5,2.3,0.1,4.7-1,6.8c-1.4,2.5-3.8,4.4-6.6,5C53,117.9,43,120.7,39.6,120.7z
				 M81.9,56.7c-0.7,0-1.5,0.2-2.1,0.5l-31,16.5L60,103.6l40.3-9.9c2.9-0.7,5.6-2.1,7.9-3.9l19-15.6c3.7-3.7,2-7.3,0.5-8.9
				c-1.1-1.2-2.7-1.8-4.3-1.8c-1.2,0-2.5,0.4-3.5,1.1l-14.5,10.2c-3.6,2.5-7.9,3.9-12.3,3.9l-13,0c-1.3,0-2.4-0.8-2.8-2
				c-0.4-1.2-0.1-2.5,0.9-3.3l3.2-2.6c2.6-2.1,4.2-5,5-8.6c0.4-1.8-0.3-3.4-1.7-4.5C83.8,57,82.9,56.7,81.9,56.7z M81.9,55.1
				c1.3,0,2.6,0.4,3.6,1.2c1.9,1.4,2.8,3.8,2.3,6.1c-0.8,4-2.7,7.3-5.5,9.6l-3.2,2.6c-0.1,0.1-0.9,0.8-0.6,1.7
				c0.1,0.3,0.5,0.9,1.5,0.9l12.3,0V38.4c0-3-2.5-5.5-5.5-5.5h-3.2c-3,0-5.5,2.5-5.5,5.5v17.8l1.4-0.6
				C80.2,55.3,81.1,55.1,81.9,55.1z M55.5,68.3l14.2-7.5v-8.5c0-2.6-2.1-4.7-4.7-4.7h-4.8c-2.6,0-4.7,2.1-4.7,4.7h0V68.3z"/>
			<path class="st0" d="M44,112.7c-3.3,0-6-2.7-6-6c0-3.3,2.7-6,6-6c3.3,0,6,2.7,6,6C50.1,110,47.4,112.7,44,112.7z M44,102.2
				c-2.5,0-4.5,2-4.5,4.5c0,2.5,2,4.5,4.5,4.5c2.5,0,4.5-2,4.5-4.5C48.5,104.2,46.5,102.2,44,102.2z"/>
			<path class="st0" d="M27.5,56.6c-1.5,0-2.8-0.9-3.3-1.4c-0.8-0.8-1.3-2-1.3-3.2c0-1.2,0.5-2.3,1.3-3.2l28.8-29
				c0.9-0.9,2-1.3,3.2-1.3c0.7,0,1.4,0.2,2.1,0.5l6.6,3.4L78.1,9.6l-2.8,0.3c0,0-0.1,0-0.3,0c-1.8,0-4.8-0.6-4.8-4.5
				c0-2.5,2-4.5,4.5-4.5h14.3c2.1,0,4.5,1.2,4.5,4.4l0,14.4c0,2.5-2,4.5-4.5,4.5c-1.3,0-2.3-0.4-3-1.2c-1.6-1.7-1.5-4.7-1.5-4.8
				l0.1-2.5L68.6,31.1c-0.8,0.8-1.9,1.3-3.1,1.3c-0.7,0-1.4-0.2-2.1-0.5L57,28.5L30.5,55.2C29.6,56.1,27.5,56.6,27.5,56.6z M56,20
				c-1,0-1.6,0.6-1.9,0.9l-28.8,29c-1.1,1.1-1.1,3,0,4.1c0.2,0.2,1,0.9,2.1,0.9c0.5,0,1.3-0.2,2-0.9L56.3,27
				c0.1-0.1,0.3-0.2,0.6-0.2c0.1,0,0.2,0,0.4,0.1l7,3.6c0.4,0.2,0.9,0.3,1.3,0.3c0.8,0,1.5-0.3,2-0.8l17.1-16.5
				c0.1-0.1,0.3-0.2,0.5-0.2c0.1,0,0.2,0,0.3,0.1c0.3,0.1,0.5,0.4,0.5,0.7v5.7c0,1.6,1.3,2.9,2.9,2.9c1.6,0,2.9-1.3,2.9-2.9V5.4
				c0-0.9-0.3-3-2.9-3H74.7c-1.6,0-2.9,1.3-2.9,2.9c0,1.6,1.3,2.9,2.9,2.9h5.1c0.3,0,0.6,0.2,0.7,0.5c0.1,0.3,0,0.6-0.2,0.9
				L65.4,23.9c-0.1,0.1-0.3,0.2-0.5,0.2c-0.1,0-0.2,0-0.4-0.1l-7.1-3.7C56.9,20.1,56.4,20,56,20z"/>
		</g>
	</g>
	<g>
		<path class="st0" d="M112.8,26.6c0,1.5,1.2,2.8,2.8,2.8c1.5,0,2.8-1.2,2.8-2.8c0-1.5-1.2-2.8-2.8-2.8
			C114.1,23.8,112.8,25.1,112.8,26.6z"/>
		<g>
			<image style="overflow:visible;" width="79" height="78" xlink:href="F7F3C9B4.png"  transform="matrix(1 0 0 1 76 -12.5)">
			</image>
		</g>
	</g>
	<g>
		<path class="st0" d="M25.7,103.6c0,1.5,1.2,2.8,2.8,2.8c1.5,0,2.8-1.2,2.8-2.8c0-1.5-1.2-2.8-2.8-2.8
			C26.9,100.8,25.7,102.1,25.7,103.6z"/>
		<g>
			<image style="overflow:visible;" width="79" height="78" xlink:href="F7F3C9B5.png"  transform="matrix(1 0 0 1 -11 64.5)">
			</image>
		</g>
	</g>
	<g>
		<path class="st0" d="M76.2,9.1c0,1.5,1.2,2.8,2.8,2.8s2.8-1.2,2.8-2.8c0-1.5-1.2-2.8-2.8-2.8S76.2,7.5,76.2,9.1z"/>
		<g>
			<image style="overflow:visible;" width="78" height="79" xlink:href="D63C2505.png"  transform="matrix(1 0 0 1 40 -30.5)">
			</image>
		</g>
	</g>
	<g>
		<path class="st0" d="M45.7,73.3c0,1.5,1.2,2.8,2.8,2.8c1.5,0,2.8-1.2,2.8-2.8s-1.2-2.8-2.8-2.8C47,70.6,45.7,71.8,45.7,73.3z"/>
		<g>
			<image style="overflow:visible;" width="79" height="78" xlink:href="D63C2506.png"  transform="matrix(1 0 0 1 9 34.5)">
			</image>
		</g>
	</g>
	<g>
		<path class="st0" d="M41.3,106.6c0,1.5,1.2,2.8,2.8,2.8c1.5,0,2.8-1.2,2.8-2.8c0-1.5-1.2-2.8-2.8-2.8
			C42.5,103.9,41.3,105.1,41.3,106.6z"/>
		<g>
			<image style="overflow:visible;" width="78" height="78" xlink:href="D63C2504.png"  transform="matrix(1 0 0 1 5 67.5)">
			</image>
		</g>
	</g>
	<g>
		<path class="st0" d="M38.7,43.2c0,1.5,1.2,2.8,2.8,2.8c1.5,0,2.8-1.2,2.8-2.8c0-1.5-1.2-2.8-2.8-2.8
			C39.9,40.4,38.7,41.6,38.7,43.2z"/>
		<g>
			<image style="overflow:visible;" width="79" height="79" xlink:href="D63C251C.png"  transform="matrix(1 0 0 1 2 3.5)">
			</image>
		</g>
	</g>
	<g>
		<path class="st0" d="M103,92.3c0,1.5,1.2,2.8,2.8,2.8c1.5,0,2.8-1.2,2.8-2.8c0-1.5-1.2-2.8-2.8-2.8C104.2,89.5,103,90.7,103,92.3z
			"/>
		<g>
			<image style="overflow:visible;" width="79" height="79" xlink:href="D63C251F.png"  transform="matrix(1 0 0 1 66 52.5)">
			</image>
		</g>
	</g>
</g>
</svg>
