<?xml version="1.0" encoding="utf-8"?>
<!-- Generator: Adobe Illustrator 22.0.0, SVG Export Plug-In . SVG Version: 6.00 Build 0)  -->
<svg version="1.1" baseProfile="tiny" id="Capa_1" xmlns="http://www.w3.org/2000/svg" xmlns:xlink="http://www.w3.org/1999/xlink"
	 x="0px" y="0px" viewBox="0 0 40 40" xml:space="preserve">
<g>
	<path fill="#FFFFFF" d="M37.3,10c1.8,2.2,2.7,4.6,2.7,7.2c0,2.6-0.9,5-2.7,7.2c-1.8,2.2-4.2,3.9-7.3,5.2c-3.1,1.3-6.4,1.9-10,1.9
		c-1,0-2.1-0.1-3.2-0.2c-2.9,2.6-6.4,4.4-10.3,5.4C5.8,36.9,4.9,37,4,37.1c-0.3,0-0.5,0-0.7-0.2c-0.2-0.2-0.3-0.4-0.4-0.6v0
		c0-0.1,0-0.1,0-0.3c0-0.1,0.1-0.2,0-0.2c0,0,0-0.1,0.1-0.2c0.1-0.1,0.1-0.2,0.1-0.2c0,0,0.1-0.1,0.2-0.2C3.4,35.1,3.5,35,3.5,35
		c0.1-0.1,0.3-0.4,0.7-0.8c0.4-0.4,0.6-0.7,0.8-0.8c0.2-0.2,0.4-0.5,0.7-0.9c0.3-0.4,0.5-0.8,0.7-1.1C6.5,31,6.7,30.6,7,30
		c0.2-0.5,0.4-1.1,0.6-1.7c-2.3-1.3-4.2-3-5.5-4.9c-1.3-1.9-2-4-2-6.3c0-1.9,0.5-3.8,1.6-5.5C2.6,9.8,4.1,8.3,5.8,7
		c1.8-1.3,3.9-2.3,6.4-3c2.5-0.8,5.1-1.1,7.8-1.1c3.6,0,7,0.6,10,1.9C33.1,6,35.5,7.8,37.3,10z"/>
</g>
</svg>
