<?xml version="1.0" encoding="utf-8"?>
<!-- Generator: Adobe Illustrator 22.0.0, SVG Export Plug-In . SVG Version: 6.00 Build 0)  -->
<svg version="1.1" id="Capa_1" xmlns="http://www.w3.org/2000/svg" xmlns:xlink="http://www.w3.org/1999/xlink" x="0px" y="0px"
	 viewBox="0 0 16 16" enable-background="new 0 0 16 16" xml:space="preserve">
<path fill="#1C2C35" d="M2.3,4.5c0-0.2-0.1-0.4-0.2-0.5L0.7,2.3V2H5l3.4,7.4l3-7.4h4.1v0.3l-1.2,1.1c-0.1,0.1-0.2,0.2-0.1,0.3v8.4
	c0,0.1,0,0.3,0.1,0.3l1.2,1.1V14H9.6v-0.3l1.2-1.2c0.1-0.1,0.1-0.2,0.1-0.3V5.4l-3.4,8.6H7.1L3.2,5.4v5.7c0,0.2,0,0.5,0.2,0.7
	L5,13.7v0.3H0.5v-0.2l1.6-1.9c0.2-0.2,0.2-0.4,0.2-0.7V4.5z"/>
</svg>
