<?xml version="1.0" encoding="utf-8"?>
<!-- Generator: Adobe Illustrator 22.0.0, SVG Export Plug-In . SVG Version: 6.00 Build 0)  -->
<svg version="1.1" baseProfile="tiny" id="Capa_1" xmlns="http://www.w3.org/2000/svg" xmlns:xlink="http://www.w3.org/1999/xlink"
	 x="0px" y="0px" viewBox="0 0 40 40" xml:space="preserve">
<g>
	<g>
		<g>
			<g>
				
					<path fill="#FFFFFF" stroke="#FFFFFF" stroke-width="2" stroke-linecap="round" stroke-linejoin="round" stroke-miterlimit="10" d="
					M20.1,27.8L20.1,27.8c-4.6,0-8.3-3.7-8.3-8.3V9.8c0-4.6,3.7-8.3,8.3-8.3h0c4.6,0,8.3,3.7,8.3,8.3v9.7
					C28.3,24.1,24.6,27.8,20.1,27.8z"/>
			</g>
		</g>
		<g>
			<g>
				
					<path fill="#FFFFFF" stroke="#FFFFFF" stroke-width="2" stroke-linecap="round" stroke-linejoin="round" stroke-miterlimit="10" d="
					M20.1,32.8c-6.7,0-12.2-5.5-12.2-12.2c0-0.3,0.3-0.6,0.6-0.6C8.8,20,9,20.3,9,20.6c0,6.1,5,11,11,11c6.5,0,11-4.5,11-11
					c0-0.3,0.3-0.6,0.6-0.6s0.6,0.3,0.6,0.6C32.3,27.8,27.2,32.8,20.1,32.8z"/>
			</g>
		</g>
		<g>
			<g>
				
					<rect x="19.5" y="32.2" fill="#FFFFFF" stroke="#FFFFFF" stroke-width="2" stroke-linecap="round" stroke-linejoin="round" stroke-miterlimit="10" width="1.2" height="6"/>
			</g>
		</g>
		<g>
			<g>
				
					<path fill="#FFFFFF" stroke="#FFFFFF" stroke-width="2" stroke-linecap="round" stroke-linejoin="round" stroke-miterlimit="10" d="
					M27.3,38.5H12.8c-0.3,0-0.6-0.3-0.6-0.6c0-0.3,0.3-0.6,0.6-0.6h14.4c0.3,0,0.6,0.3,0.6,0.6C27.9,38.2,27.6,38.5,27.3,38.5z"/>
			</g>
		</g>
	</g>
</g>
</svg>
