<?xml version="1.0" encoding="utf-8"?>
<!-- Generator: Adobe Illustrator 22.0.0, SVG Export Plug-In . SVG Version: 6.00 Build 0)  -->
<svg version="1.1" id="Layer_1" xmlns="http://www.w3.org/2000/svg" xmlns:xlink="http://www.w3.org/1999/xlink" x="0px" y="0px"
	 viewBox="0 0 26 22" enable-background="new 0 0 26 22" xml:space="preserve">
<path id="XMLID_497_" fill="#FFFFFF" stroke="#1C2C35" stroke-miterlimit="10" d="M37.7,0.4l5.6,2.1l2.2,6.9c0.1,0.4,0.7,0.6,1,0.3
	l3.1-2.5c0.3-0.3,0.8-0.3,1.1,0l5.6,4.1c0.4,0.3,0.9,0.1,1-0.4l4.1-19.7c0.1-0.5-0.4-0.9-0.9-0.7L37.7-0.8
	C37.2-0.6,37.2,0.2,37.7,0.4z M45.1,1.4L56-5.3c0.2-0.1,0.4,0.1,0.2,0.3l-9,8.3c-0.3,0.3-0.5,0.7-0.6,1.1l-0.3,2.3
	c0,0.3-0.5,0.3-0.5,0l-1.2-4.1C44.5,2.2,44.7,1.7,45.1,1.4z"/>
<g>
	<polygon fill="#1C2C35" points="-12.6,-8.9 -21,-5.4 -22.9,-10.6 -12.6,-15.4 	"/>
	<path id="XMLID_2_" fill="#FFFFFF" stroke="#FFFFFF" stroke-miterlimit="10" d="M-29-11.7l5.6,2.1l2.2,6.9c0.1,0.4,0.7,0.6,1,0.3
		l3.1-2.5c0.3-0.3,0.8-0.3,1.1,0l5.6,4.1c0.4,0.3,0.9,0.1,1-0.4L-5.4-21c0.1-0.5-0.4-0.9-0.9-0.7L-29-12.9
		C-29.6-12.7-29.6-11.9-29-11.7z M-21.7-10.7l10.9-6.7c0.2-0.1,0.4,0.1,0.2,0.3l-9,8.3c-0.3,0.3-0.5,0.7-0.6,1.1l-0.3,2.3
		c0,0.3-0.5,0.3-0.5,0l-1.2-4.1C-22.3-10-22.1-10.5-21.7-10.7z"/>
</g>
<path id="XMLID_1_" fill="#FFFFFF" stroke="#1C2C35" stroke-miterlimit="10" d="M24.5,28.3l5.6,2.1l2.2,6.9c0.1,0.4,0.7,0.6,1,0.3
	l3.1-2.5c0.3-0.3,0.8-0.3,1.1,0l5.6,4.1c0.4,0.3,0.9,0.1,1-0.4L48.2,19c0.1-0.5-0.4-0.9-0.9-0.7l-22.8,8.8
	C23.9,27.3,23.9,28.1,24.5,28.3z M31.9,29.3l10.9-6.7c0.2-0.1,0.4,0.1,0.2,0.3l-9,8.3c-0.3,0.3-0.5,0.7-0.6,1.1l-0.3,2.3
	c0,0.3-0.5,0.3-0.5,0l-1.2-4.1C31.2,30,31.4,29.5,31.9,29.3z"/>
<g>
	<path id="XMLID_3_" fill="#1C2C35" stroke="#1C2C35" stroke-miterlimit="10" d="M24.3,0.6l-23,8.7c-0.9,0.3-0.8,1.6,0.1,1.8
		l8.1,2.3c0.1,0,0.2,0.1,0.3,0.2l9.5,7.6c0.9,0.8,2.3,0.3,2.5-0.9l3.6-18.8C25.5,0.8,24.9,0.3,24.3,0.6z"/>
	<path fill="#1C2C35" stroke="#1C2C35" stroke-miterlimit="10" d="M11,20l2.9-3.1l-3.4-2.7l-0.7,6.2C10.2,20.4,10.7,20.3,11,20z"/>
	<path fill="#FFFFFF" stroke="#1C2C35" stroke-miterlimit="10" d="M20.2,4.5L6.9,12.6L9,19.5c0.1,0.4,0.4,0.6,0.7,0.8l0.7-6.2
		l10-9.3C20.6,4.7,20.4,4.4,20.2,4.5z"/>
</g>
</svg>
