<?xml version="1.0" standalone="no"?>
<!DOCTYPE svg PUBLIC "-//W3C//DTD SVG 20010904//EN"
 "http://www.w3.org/TR/2001/REC-SVG-20010904/DTD/svg10.dtd">
<svg version="1.0" xmlns="http://www.w3.org/2000/svg"
 width="560.000000pt" height="560.000000pt" viewBox="0 0 560.000000 560.000000"
 preserveAspectRatio="xMidYMid meet">
<metadata>
Created by potrace 1.11, written by Peter Selinger 2001-2013
</metadata>
<g transform="translate(0.000000,560.000000) scale(0.100000,-0.100000)"
fill="#000000" stroke="none">
<path d="M50 3648 l0 -763 130 -78 c72 -43 130 -82 130 -85 0 -4 -45 -33 -100
-66 -55 -32 -102 -62 -105 -66 -2 -4 43 -36 100 -71 58 -35 105 -67 105 -70 0
-4 -21 -20 -47 -35 -27 -15 -65 -38 -85 -51 l-37 -23 34 -80 c97 -227 270
-444 479 -600 150 -112 373 -211 576 -255 114 -25 382 -31 505 -12 244 39 467
132 655 274 39 29 74 53 78 53 4 0 79 -120 166 -265 88 -146 162 -265 166
-265 4 0 78 119 166 265 87 145 162 265 166 265 4 0 39 -24 78 -53 188 -142
411 -235 655 -274 123 -19 391 -13 505 12 476 104 870 424 1055 855 l34 80
-37 23 c-20 13 -58 36 -84 51 -27 15 -48 31 -48 34 0 4 47 36 105 71 58 35
103 67 100 71 -3 4 -50 34 -105 66 -55 33 -100 62 -100 66 0 4 59 42 130 85
l130 78 0 762 0 763 -31 0 c-17 0 -316 -20 -665 -45 -349 -25 -710 -50 -801
-55 -91 -6 -209 -19 -264 -30 -261 -53 -513 -185 -713 -371 -82 -77 -217 -244
-251 -310 -9 -17 -20 -29 -25 -27 -4 2 -36 46 -71 98 -80 120 -253 294 -374
376 -248 169 -479 244 -808 264 -91 5 -452 30 -801 55 -349 25 -648 45 -665
45 l-31 0 0 -762z m1679 125 c471 -95 806 -567 742 -1047 -53 -398 -332 -712
-717 -808 -126 -31 -332 -31 -458 0 -633 158 -925 896 -570 1444 96 149 230
265 395 342 197 91 390 114 608 69z m2570 -9 c352 -88 618 -369 693 -734 16
-78 19 -119 15 -225 -11 -256 -97 -454 -272 -631 -453 -459 -1216 -344 -1520
229 -69 129 -96 237 -102 397 -11 286 77 520 266 711 245 245 581 338 920 253z"/>
<path d="M1413 3315 c-163 -45 -290 -166 -342 -322 -28 -84 -28 -207 -1 -297
42 -133 156 -256 287 -307 88 -34 237 -38 323 -9 279 93 418 407 296 664 -39
81 -38 80 -77 57 -66 -41 -160 -17 -194 48 -17 34 -20 103 -5 131 9 16 5 21
-27 30 -64 19 -202 22 -260 5z"/>
<path d="M3960 3320 c-78 -17 -171 -70 -236 -134 -187 -187 -192 -482 -12
-672 63 -67 124 -106 208 -134 86 -29 235 -25 323 9 133 52 246 175 288 312
38 126 15 312 -50 397 l-17 24 -38 -22 c-55 -33 -117 -24 -165 24 -32 33 -36
42 -36 89 0 28 4 59 8 68 6 13 1 19 -25 29 -43 16 -191 22 -248 10z"/>
</g>
</svg>
