<?xml version="1.0" encoding="utf-8"?>
<!-- Generator: Adobe Illustrator 22.0.0, SVG Export Plug-In . SVG Version: 6.00 Build 0)  -->
<svg version="1.1" id="Capa_1" xmlns="http://www.w3.org/2000/svg" xmlns:xlink="http://www.w3.org/1999/xlink" x="0px" y="0px"
	 viewBox="0 0 300 300" style="enable-background:new 0 0 300 300;" xml:space="preserve">
<style type="text/css">
	.st0{fill:#7D7E81;}
</style>
<g>
	<g>
		<path class="st0" d="M231.1,65.2l-46-44c-4.6-4.6-10-8.2-16-10.6c-11.6-4.7-24.8-4.7-36.4,0c-6,2.4-11.4,6-16,10.6l-94.6,94.6
			c-4.6,4.6-8.2,10-10.6,16c-2.3,5.8-3.5,11.9-3.5,18.2c0,6.3,1.2,12.4,3.5,18.2c2.4,6,6,11.4,10.6,16l94.6,94.6
			c4.6,4.6,10,8.2,16,10.6c11.6,4.7,24.8,4.7,36.4,0c6-2.4,11.4-6,16-10.6c1.4-1.4,3.6-1.4,5,0c1.4,1.4,1.4,3.6,0,5
			c-5.3,5.3-11.5,9.4-18.3,12.2c-6.6,2.7-13.7,4.1-20.8,4.1c-7.2,0-14.2-1.4-20.8-4.1c-6.9-2.8-13-6.9-18.3-12.2l-94.6-94.6
			c-5.3-5.3-9.4-11.5-12.2-18.3C2.4,164.2,1,157.1,1,149.9c0-7.2,1.4-14.2,4.1-20.8c2.8-6.9,6.9-13,12.2-18.3l94.6-94.6
			c5.3-5.3,11.5-9.4,18.3-12.2c13.3-5.4,28.4-5.4,41.7,0c6.9,2.8,13,6.9,18.3,12.2L235,61"/>
	</g>
</g>
</svg>
