<?xml version="1.0" encoding="utf-8"?>
<!-- Generator: Adobe Illustrator 22.0.0, SVG Export Plug-In . SVG Version: 6.00 Build 0)  -->
<svg version="1.1" id="Capa_1" xmlns="http://www.w3.org/2000/svg" xmlns:xlink="http://www.w3.org/1999/xlink" x="0px" y="0px"
	 viewBox="0 0 120 148.3" style="enable-background:new 0 0 120 148.3;" xml:space="preserve">
<style type="text/css">
	.st0{fill:#7D7E81;}
</style>
<g>
	<g>
		<path class="st0" d="M9.1,2l0,0.5l45.1,0c0.9,0,1.8,0.4,2.5,1c0.7,0.7,1,1.6,1,2.5l0,66.9c0,6.5,1.3,12.8,3.8,18.8
			c2.4,5.7,5.9,10.9,10.4,15.4c4.4,4.4,9.6,7.9,15.4,10.4c6,2.5,12.3,3.8,18.8,3.8c2,0,3.5,1.6,3.5,3.5c0,1-0.4,1.9-1,2.5
			c-0.6,0.6-1.5,1-2.5,1c-7.5,0-14.7-1.5-21.6-4.4c-6.6-2.8-12.5-6.8-17.6-11.9c-5.1-5.1-9.1-11-11.9-17.6
			c-2.9-6.8-4.4-14.1-4.4-21.6l0-63.3H5.5C3.6,9.6,2,8,2,6.1L2,2"/>
	</g>
	<g>
		<path class="st0" d="M117.2,127.5c0,0-0.1,0.1-0.1,0.1l-21.3,19.4c-1.4,1.3-3.7,1.2-5-0.2c-1.3-1.4-1.2-3.7,0.2-5l18.7-17.1
			l-17.1-18.7c-1.3-1.4-1.3-3.6,0.2-5c1.4-1.3,3.7-1.2,5,0.2l19.5,21.3c0.6,0.7,1,1.6,0.9,2.6C118.2,126.1,117.8,126.9,117.2,127.5z
			"/>
	</g>
</g>
</svg>
