<?xml version="1.0" encoding="utf-8"?>
<!-- Generator: Adobe Illustrator 22.0.0, SVG Export Plug-In . SVG Version: 6.00 Build 0)  -->
<svg version="1.1" id="Capa_1" xmlns="http://www.w3.org/2000/svg" xmlns:xlink="http://www.w3.org/1999/xlink" x="0px" y="0px"
	 viewBox="0 0 61 55" style="enable-background:new 0 0 61 55;" xml:space="preserve">
<style type="text/css">
	.st0{fill:#94CC00;}
</style>
<g>
	<g>
		<path class="st0" d="M60,15.2c-0.8-1.4-2.1-2.5-3.6-3c-1.6-0.5-3.2-0.3-4.7,0.5c-1.4,0.8-2.5,2.1-3,3.6c-0.3,1-0.3,2.1-0.1,3.2
			L42,23c-2-2.8-5.2-4.8-8.8-5.3v-5.7c2.6-0.7,4.5-3.1,4.5-5.9C37.7,2.8,35,0,31.6,0c-3.4,0-6.1,2.8-6.1,6.2c0,2.8,1.9,5.2,4.5,5.9
			v5.7c-4.6,0.6-8.5,3.6-10.2,7.8l-7.3-2c0-1.1-0.3-2.1-0.8-3.1c-0.8-1.4-2.1-2.4-3.7-2.9c-3.3-0.9-6.7,1.1-7.5,4.3
			c-0.4,1.6-0.2,3.2,0.6,4.7c0.8,1.4,2.1,2.4,3.7,2.9c0.5,0.1,1.1,0.2,1.6,0.2c1.1,0,2.1-0.3,3.1-0.8c0.9-0.5,1.7-1.3,2.2-2.2l7.3,2
			c-0.1,0.6-0.1,1.2-0.1,1.7c0,2.9,1,5.6,2.7,7.8l-5.3,5.3c-2.3-1.3-5.4-1-7.4,1c-2.4,2.4-2.4,6.3,0,8.7c1.2,1.2,2.8,1.8,4.3,1.8
			c1.6,0,3.1-0.6,4.3-1.8c2-2,2.3-5.1,1-7.4l5.3-5.3c2.2,1.7,4.9,2.7,7.8,2.7c2.9,0,5.6-1,7.8-2.7l5.3,5.3c-1.4,2.4-1,5.4,1,7.4
			c1.2,1.2,2.8,1.8,4.3,1.8c1.6,0,3.1-0.6,4.3-1.8c2.4-2.4,2.4-6.3,0-8.7c-2-2-5.1-2.3-7.4-1l-5.3-5.3c1.7-2.2,2.7-4.9,2.7-7.8
			c0-1.6-0.3-3.1-0.8-4.6l6.6-3.6c0.7,0.8,1.6,1.4,2.7,1.7c0.6,0.2,1.2,0.3,1.8,0.3c1,0,2-0.2,2.9-0.7c1.4-0.8,2.5-2.1,3-3.6
			C61,18.3,60.8,16.6,60,15.2L60,15.2z M56,20.7c-0.7,0.4-1.5,0.5-2.2,0.2c-0.8-0.2-1.4-0.7-1.7-1.4c-0.4-0.7-0.5-1.5-0.2-2.2
			c0.2-0.8,0.7-1.4,1.4-1.7c0.4-0.2,0.9-0.4,1.4-0.4c0.3,0,0.6,0,0.9,0.1c0.8,0.2,1.4,0.7,1.7,1.4c0.4,0.7,0.5,1.5,0.2,2.2
			C57.2,19.7,56.7,20.3,56,20.7L56,20.7z M41.1,30.4c0,5.3-4.3,9.5-9.5,9.5c-5.3,0-9.5-4.3-9.5-9.5c0-5.3,4.3-9.5,9.5-9.5
			C36.9,20.8,41.1,25.1,41.1,30.4L41.1,30.4z M28.6,6.2c0-1.6,1.3-3,2.9-3c1.6,0,2.9,1.3,2.9,3c0,1.6-1.3,2.9-2.9,2.9
			C30,9.1,28.6,7.8,28.6,6.2L28.6,6.2z M5.6,26.5c-0.8-0.2-1.4-0.7-1.8-1.4c-0.4-0.7-0.5-1.5-0.3-2.2c0.4-1.6,2-2.5,3.6-2.1
			C7.9,21,8.6,21.4,9,22.1c0.4,0.7,0.5,1.5,0.3,2.2C8.8,25.9,7.2,26.9,5.6,26.5L5.6,26.5z M15.2,50.9c-1.1,1.1-3,1.1-4.2,0
			c-1.1-1.2-1.1-3,0-4.2c0.6-0.6,1.3-0.9,2.1-0.9c0.8,0,1.5,0.3,2.1,0.9C16.4,47.9,16.4,49.8,15.2,50.9L15.2,50.9z M52.1,46.8
			c1.2,1.2,1.2,3,0,4.2c-1.1,1.1-3,1.1-4.2,0c-1.2-1.2-1.2-3,0-4.2c0.6-0.6,1.3-0.9,2.1-0.9S51.6,46.2,52.1,46.8L52.1,46.8z
			 M52.1,46.8"/>
	</g>
</g>
</svg>
