<?xml version="1.0" encoding="utf-8"?>
<!-- Generator: Adobe Illustrator 22.0.0, SVG Export Plug-In . SVG Version: 6.00 Build 0)  -->
<svg version="1.1" id="Capa_1" xmlns="http://www.w3.org/2000/svg" xmlns:xlink="http://www.w3.org/1999/xlink" x="0px" y="0px"
	 viewBox="0 0 220 220" style="enable-background:new 0 0 220 220;" xml:space="preserve">
<style type="text/css">
	.st0{fill:none;stroke:#FFFFFF;stroke-width:4;stroke-miterlimit:10;}
	.st1{fill:#FFFFFF;stroke:#FFFFFF;stroke-miterlimit:10;}
</style>
<g>
	<g>
		
			<image style="overflow:visible;opacity:0.15;" width="222" height="222" xlink:href="864E4F0.png"  transform="matrix(1 0 0 1 3 3)">
		</image>
		<g>
			<path class="st0" d="M198,138.9L138.9,198c-15.9,15.9-41.8,15.9-57.7,0L22,138.9C6,122.9,6,97.1,22,81.1L81.1,22
				C97.1,6,122.9,6,138.9,22L198,81.1C214,97.1,214,122.9,198,138.9z"/>
		</g>
	</g>
	<g>
		
			<image style="overflow:visible;opacity:0.15;" width="104" height="96" xlink:href="864E4F1.png"  transform="matrix(1 0 0 1 62 59)">
		</image>
		<g>
			<g>
				<g>
					<path class="st1" d="M150.8,86.3c-1.1-2-2.9-3.5-5-4.1c-2.2-0.7-4.5-0.4-6.5,0.6c-2,1.1-3.5,2.9-4.1,5
						c-0.4,1.4-0.5,2.9-0.1,4.4l-9.2,4.9c-2.8-3.9-7.1-6.6-12.1-7.3v-7.8c3.6-1,6.3-4.3,6.3-8.2c0-4.7-3.8-8.5-8.5-8.5
						c-4.7,0-8.5,3.8-8.5,8.5c0,3.9,2.7,7.2,6.3,8.2v7.8c-6.4,0.8-11.7,5-14.1,10.8l-10-2.7c0-1.5-0.4-2.9-1.1-4.2
						c-1.1-2-3-3.4-5.1-4c-4.5-1.2-9.2,1.5-10.4,6c-0.6,2.2-0.3,4.5,0.8,6.4c1.1,2,3,3.4,5.1,4c0.7,0.2,1.5,0.3,2.2,0.3
						c1.5,0,2.9-0.4,4.2-1.1c1.3-0.8,2.4-1.8,3.1-3.1l10,2.7c-0.1,0.8-0.2,1.6-0.2,2.4c0,4.1,1.4,7.8,3.7,10.8l-7.4,7.4
						c-3.2-1.9-7.5-1.4-10.2,1.3c-3.3,3.3-3.3,8.7,0,12c1.7,1.7,3.8,2.5,6,2.5c2.2,0,4.3-0.8,6-2.5c2.8-2.8,3.2-7,1.3-10.2l7.4-7.4
						c3,2.3,6.7,3.7,10.8,3.7c4.1,0,7.8-1.4,10.8-3.7l7.4,7.4c-1.9,3.2-1.4,7.5,1.3,10.2c1.7,1.7,3.8,2.5,6,2.5c2.2,0,4.3-0.8,6-2.5
						c3.3-3.3,3.3-8.7,0-12c-2.8-2.8-7-3.2-10.2-1.3l-7.4-7.4c2.3-3,3.7-6.7,3.7-10.8c0-2.2-0.4-4.3-1.2-6.3l9.2-4.9
						c1,1.1,2.3,1.9,3.7,2.3c0.8,0.2,1.6,0.4,2.5,0.4c1.4,0,2.7-0.3,4-1c2-1.1,3.5-2.9,4.1-5C152,90.6,151.8,88.3,150.8,86.3
						L150.8,86.3z M145.2,93.9c-1,0.5-2.1,0.6-3.1,0.3c-1-0.3-1.9-1-2.4-2c-0.5-1-0.6-2.1-0.3-3.1c0.3-1,1-1.9,2-2.4
						c0.6-0.3,1.3-0.5,1.9-0.5c0.4,0,0.8,0.1,1.2,0.2c1,0.3,1.9,1,2.4,2c0.5,1,0.6,2.1,0.3,3.1C146.9,92.5,146.1,93.4,145.2,93.9
						L145.2,93.9z M124.7,107.3c0,7.3-5.9,13.2-13.2,13.2c-7.3,0-13.2-5.9-13.2-13.2c0-7.3,5.9-13.2,13.2-13.2
						C118.8,94.2,124.7,100.1,124.7,107.3L124.7,107.3z M107.4,73.9c0-2.2,1.8-4.1,4.1-4.1c2.2,0,4.1,1.8,4.1,4.1
						c0,2.2-1.8,4.1-4.1,4.1C109.3,77.9,107.4,76.1,107.4,73.9L107.4,73.9z M75.7,101.9c-1-0.3-1.9-1-2.5-1.9
						c-0.5-0.9-0.7-2-0.4-3.1c0.6-2.2,2.8-3.5,5-2.9c1,0.3,1.9,1,2.5,1.9c0.5,0.9,0.7,2,0.4,3.1C80.1,101.2,77.8,102.5,75.7,101.9
						L75.7,101.9z M88.9,135.7c-1.6,1.6-4.2,1.6-5.8,0c-1.6-1.6-1.6-4.2,0-5.8c0.8-0.8,1.8-1.2,2.9-1.2c1,0,2.1,0.4,2.9,1.2
						C90.5,131.5,90.5,134.1,88.9,135.7L88.9,135.7z M139.9,129.9c1.6,1.6,1.6,4.2,0,5.8c-1.6,1.6-4.2,1.6-5.8,0
						c-1.6-1.6-1.6-4.2,0-5.8c0.8-0.8,1.8-1.2,2.9-1.2C138,128.7,139.1,129.1,139.9,129.9L139.9,129.9z M139.9,129.9"/>
				</g>
			</g>
		</g>
	</g>
</g>
</svg>
