<?xml version="1.0" encoding="utf-8"?>
<!-- Generator: Adobe Illustrator 22.0.0, SVG Export Plug-In . SVG Version: 6.00 Build 0)  -->
<svg version="1.1" id="Capa_1" xmlns="http://www.w3.org/2000/svg" xmlns:xlink="http://www.w3.org/1999/xlink" x="0px" y="0px"
	 viewBox="0 0 22 20" style="enable-background:new 0 0 22 20;" xml:space="preserve">
<style type="text/css">
	.st0{fill:#FFFFFF;}
	.st1{fill:#94CC00;}
</style>
<g id="XMLID_21_">
	<path id="XMLID_23_" class="st0" d="M17.9,20H4.1c-2.1,0-3.8-1.6-3.8-3.6V3.6C0.3,1.6,2,0,4.1,0h13.8c2.1,0,3.8,1.6,3.8,3.6v12.9
		C21.7,18.4,20,20,17.9,20z"/>
	<path id="XMLID_22_" class="st1" d="M9.4,16H12V9.9h1.8l0.2-2h-2c0,0,0-0.8,0-1.2c0-0.5,0.1-0.7,0.6-0.7c0.4,0,1.4,0,1.4,0V4
		c0,0-1.5,0-1.8,0c-1.9,0-2.8,0.8-2.8,2.3c0,1.3,0,1.6,0,1.6H8V10h1.4V16z"/>
</g>
</svg>
