<?xml version="1.0" encoding="utf-8"?>
<!-- Generator: Adobe Illustrator 22.0.0, SVG Export Plug-In . SVG Version: 6.00 Build 0)  -->
<svg version="1.1" id="Capa_1" xmlns="http://www.w3.org/2000/svg" xmlns:xlink="http://www.w3.org/1999/xlink" x="0px" y="0px"
	 viewBox="0 0 220 220" style="enable-background:new 0 0 220 220;" xml:space="preserve">
<style type="text/css">
	.st0{fill:none;stroke:#94CC00;stroke-width:4;stroke-miterlimit:10;}
	.st1{fill:#94CC00;}
</style>
<g>
	<g>
		
			<image style="overflow:visible;opacity:0.15;" width="222" height="222" xlink:href="39FDF4CB.png"  transform="matrix(1 0 0 1 3 3)">
		</image>
		<g>
			<path class="st0" d="M198,138.9L138.9,198c-15.9,15.9-41.8,15.9-57.7,0L22,138.9C6,122.9,6,97.1,22,81.1L81.1,22
				C97.1,6,122.9,6,138.9,22L198,81.1C214,97.1,214,122.9,198,138.9z"/>
		</g>
	</g>
	<g>
		
			<image style="overflow:visible;opacity:0.15;" width="106" height="98" xlink:href="39FDF4C9.png"  transform="matrix(1 0 0 1 61 65)">
		</image>
		<g>
			<g>
				<path class="st1" d="M150.1,106.4h-14.6c-1.7,0-3.1,1.4-3.1,3.1c0,1.7,1.4,3.1,3.1,3.1h14.6c1.7,0,3.1-1.4,3.1-3.1
					C153.2,107.8,151.8,106.4,150.1,106.4L150.1,106.4z M150.1,106.4"/>
				<path class="st1" d="M113.3,106.4H69.9c-1.7,0-3.1,1.4-3.1,3.1c0,1.7,1.4,3.1,3.1,3.1h43.4c1.7,0,3.1-1.4,3.1-3.1
					C116.4,107.8,115,106.4,113.3,106.4L113.3,106.4z M113.3,106.4"/>
				<path class="st1" d="M124.4,95.3c-7.8,0-14.2,6.4-14.2,14.2c0,7.8,6.4,14.2,14.2,14.2c7.8,0,14.2-6.4,14.2-14.2
					C138.5,101.7,132.2,95.3,124.4,95.3L124.4,95.3z M124.4,117.5c-4.4,0-8-3.6-8-8c0-4.4,3.6-8,8-8c4.4,0,8,3.6,8,8
					C132.4,113.9,128.8,117.5,124.4,117.5L124.4,117.5z M124.4,117.5"/>
				<path class="st1" d="M84.5,131.9H69.9c-1.7,0-3.1,1.4-3.1,3.1c0,1.7,1.4,3.1,3.1,3.1h14.6c1.7,0,3.1-1.4,3.1-3.1
					C87.5,133.2,86.2,131.9,84.5,131.9L84.5,131.9z M84.5,131.9"/>
				<path class="st1" d="M150.1,131.9h-43.4c-1.7,0-3.1,1.4-3.1,3.1c0,1.7,1.4,3.1,3.1,3.1h43.4c1.7,0,3.1-1.4,3.1-3.1
					C153.2,133.2,151.8,131.9,150.1,131.9L150.1,131.9z M150.1,131.9"/>
				<path class="st1" d="M95.6,120.8c-7.8,0-14.2,6.4-14.2,14.2c0,7.8,6.4,14.2,14.2,14.2c7.8,0,14.2-6.4,14.2-14.2
					C109.8,127.1,103.4,120.8,95.6,120.8L95.6,120.8z M95.6,142.9c-4.4,0-8-3.6-8-8c0-4.4,3.6-8,8-8c4.4,0,8,3.6,8,8
					C103.6,139.3,100,142.9,95.6,142.9L95.6,142.9z M95.6,142.9"/>
				<path class="st1" d="M84.5,82H69.9c-1.7,0-3.1,1.4-3.1,3.1c0,1.7,1.4,3.1,3.1,3.1h14.6c1.7,0,3.1-1.4,3.1-3.1
					C87.5,83.4,86.2,82,84.5,82L84.5,82z M84.5,82"/>
				<path class="st1" d="M150.1,82h-43.4c-1.7,0-3.1,1.4-3.1,3.1c0,1.7,1.4,3.1,3.1,3.1h43.4c1.7,0,3.1-1.4,3.1-3.1
					C153.2,83.4,151.8,82,150.1,82L150.1,82z M150.1,82"/>
				<path class="st1" d="M95.6,70.9c-7.8,0-14.2,6.4-14.2,14.2c0,7.8,6.4,14.2,14.2,14.2c7.8,0,14.2-6.4,14.2-14.2
					C109.8,77.3,103.4,70.9,95.6,70.9L95.6,70.9z M95.6,93.1c-4.4,0-8-3.6-8-8c0-4.4,3.6-8,8-8c4.4,0,8,3.6,8,8
					C103.6,89.5,100,93.1,95.6,93.1L95.6,93.1z M95.6,93.1"/>
			</g>
		</g>
	</g>
</g>
</svg>
