<?xml version="1.0" encoding="utf-8"?>
<!-- Generator: Adobe Illustrator 22.0.0, SVG Export Plug-In . SVG Version: 6.00 Build 0)  -->
<svg version="1.1" id="Capa_1" xmlns="http://www.w3.org/2000/svg" xmlns:xlink="http://www.w3.org/1999/xlink" x="0px" y="0px"
	 viewBox="0 0 220 220" style="enable-background:new 0 0 220 220;" xml:space="preserve">
<style type="text/css">
	.st0{fill:none;stroke:#FFFFFF;stroke-width:4;stroke-miterlimit:10;}
	.st1{fill:#FFFFFF;}
</style>
<g>
	
		<image style="overflow:visible;opacity:0.15;" width="222" height="222" xlink:href="DB098658.png"  transform="matrix(1 0 0 1 2 2)">
	</image>
	<g>
		<path class="st0" d="M197,137.9L137.9,197c-15.9,15.9-41.8,15.9-57.7,0L21,137.9C5,121.9,5,96.1,21,80.1L80.1,21
			C96.1,5,121.9,5,137.9,21L197,80.1C213,96.1,213,121.9,197,137.9z"/>
	</g>
</g>
<g>
	
		<image style="overflow:visible;opacity:0.15;" width="106" height="98" xlink:href="DB098659.png"  transform="matrix(1 0 0 1 60 64)">
	</image>
	<g>
		<g>
			<path class="st1" d="M149.1,105.4h-14.6c-1.7,0-3.1,1.4-3.1,3.1c0,1.7,1.4,3.1,3.1,3.1h14.6c1.7,0,3.1-1.4,3.1-3.1
				C152.2,106.8,150.8,105.4,149.1,105.4L149.1,105.4z M149.1,105.4"/>
			<path class="st1" d="M112.3,105.4H68.9c-1.7,0-3.1,1.4-3.1,3.1c0,1.7,1.4,3.1,3.1,3.1h43.4c1.7,0,3.1-1.4,3.1-3.1
				C115.4,106.8,114,105.4,112.3,105.4L112.3,105.4z M112.3,105.4"/>
			<path class="st1" d="M123.4,94.3c-7.8,0-14.2,6.4-14.2,14.2c0,7.8,6.4,14.2,14.2,14.2c7.8,0,14.2-6.4,14.2-14.2
				C137.5,100.7,131.2,94.3,123.4,94.3L123.4,94.3z M123.4,116.5c-4.4,0-8-3.6-8-8c0-4.4,3.6-8,8-8c4.4,0,8,3.6,8,8
				C131.4,112.9,127.8,116.5,123.4,116.5L123.4,116.5z M123.4,116.5"/>
			<path class="st1" d="M83.5,130.9H68.9c-1.7,0-3.1,1.4-3.1,3.1c0,1.7,1.4,3.1,3.1,3.1h14.6c1.7,0,3.1-1.4,3.1-3.1
				C86.5,132.2,85.2,130.9,83.5,130.9L83.5,130.9z M83.5,130.9"/>
			<path class="st1" d="M149.1,130.9h-43.4c-1.7,0-3.1,1.4-3.1,3.1c0,1.7,1.4,3.1,3.1,3.1h43.4c1.7,0,3.1-1.4,3.1-3.1
				C152.2,132.2,150.8,130.9,149.1,130.9L149.1,130.9z M149.1,130.9"/>
			<path class="st1" d="M94.6,119.8c-7.8,0-14.2,6.4-14.2,14.2c0,7.8,6.4,14.2,14.2,14.2c7.8,0,14.2-6.4,14.2-14.2
				C108.8,126.1,102.4,119.8,94.6,119.8L94.6,119.8z M94.6,141.9c-4.4,0-8-3.6-8-8c0-4.4,3.6-8,8-8c4.4,0,8,3.6,8,8
				C102.6,138.3,99,141.9,94.6,141.9L94.6,141.9z M94.6,141.9"/>
			<path class="st1" d="M83.5,81H68.9c-1.7,0-3.1,1.4-3.1,3.1c0,1.7,1.4,3.1,3.1,3.1h14.6c1.7,0,3.1-1.4,3.1-3.1
				C86.5,82.4,85.2,81,83.5,81L83.5,81z M83.5,81"/>
			<path class="st1" d="M149.1,81h-43.4c-1.7,0-3.1,1.4-3.1,3.1c0,1.7,1.4,3.1,3.1,3.1h43.4c1.7,0,3.1-1.4,3.1-3.1
				C152.2,82.4,150.8,81,149.1,81L149.1,81z M149.1,81"/>
			<path class="st1" d="M94.6,69.9c-7.8,0-14.2,6.4-14.2,14.2c0,7.8,6.4,14.2,14.2,14.2c7.8,0,14.2-6.4,14.2-14.2
				C108.8,76.3,102.4,69.9,94.6,69.9L94.6,69.9z M94.6,92.1c-4.4,0-8-3.6-8-8c0-4.4,3.6-8,8-8c4.4,0,8,3.6,8,8
				C102.6,88.5,99,92.1,94.6,92.1L94.6,92.1z M94.6,92.1"/>
		</g>
	</g>
</g>
</svg>
