<?xml version="1.0" encoding="utf-8"?>
<!-- Generator: Adobe Illustrator 22.0.0, SVG Export Plug-In . SVG Version: 6.00 Build 0)  -->
<svg version="1.1" id="Capa_1" xmlns="http://www.w3.org/2000/svg" xmlns:xlink="http://www.w3.org/1999/xlink" x="0px" y="0px"
	 viewBox="0 0 61 55" style="enable-background:new 0 0 61 55;" xml:space="preserve">
<style type="text/css">
	.st0{fill:#94CC00;}
</style>
<g>
	<path class="st0" d="M53.7,25.4h-8.4c-1,0-1.8,0.8-1.8,1.8c0,1,0.8,1.8,1.8,1.8h8.4c1,0,1.8-0.8,1.8-1.8
		C55.5,26.2,54.7,25.4,53.7,25.4L53.7,25.4z M53.7,25.4"/>
	<path class="st0" d="M32.4,25.4H7.3c-1,0-1.8,0.8-1.8,1.8c0,1,0.8,1.8,1.8,1.8h25.1c1,0,1.8-0.8,1.8-1.8
		C34.2,26.2,33.4,25.4,32.4,25.4L32.4,25.4z M32.4,25.4"/>
	<path class="st0" d="M38.8,19c-4.5,0-8.2,3.7-8.2,8.2c0,4.5,3.7,8.2,8.2,8.2c4.5,0,8.2-3.7,8.2-8.2C47,22.7,43.3,19,38.8,19
		L38.8,19z M38.8,31.8c-2.6,0-4.6-2.1-4.6-4.6c0-2.6,2.1-4.6,4.6-4.6c2.6,0,4.6,2.1,4.6,4.6C43.4,29.8,41.4,31.8,38.8,31.8
		L38.8,31.8z M38.8,31.8"/>
	<path class="st0" d="M15.7,40.1H7.3c-1,0-1.8,0.8-1.8,1.8c0,1,0.8,1.8,1.8,1.8h8.4c1,0,1.8-0.8,1.8-1.8
		C17.5,40.9,16.7,40.1,15.7,40.1L15.7,40.1z M15.7,40.1"/>
	<path class="st0" d="M53.7,40.1H28.6c-1,0-1.8,0.8-1.8,1.8c0,1,0.8,1.8,1.8,1.8h25.1c1,0,1.8-0.8,1.8-1.8
		C55.5,40.9,54.7,40.1,53.7,40.1L53.7,40.1z M53.7,40.1"/>
	<path class="st0" d="M22.2,33.7c-4.5,0-8.2,3.7-8.2,8.2c0,4.5,3.7,8.2,8.2,8.2c4.5,0,8.2-3.7,8.2-8.2
		C30.4,37.4,26.7,33.7,22.2,33.7L22.2,33.7z M22.2,46.6c-2.6,0-4.6-2.1-4.6-4.6c0-2.6,2.1-4.6,4.6-4.6c2.6,0,4.6,2.1,4.6,4.6
		C26.8,44.5,24.7,46.6,22.2,46.6L22.2,46.6z M22.2,46.6"/>
	<path class="st0" d="M15.7,11.3H7.3c-1,0-1.8,0.8-1.8,1.8c0,1,0.8,1.8,1.8,1.8h8.4c1,0,1.8-0.8,1.8-1.8
		C17.5,12.1,16.7,11.3,15.7,11.3L15.7,11.3z M15.7,11.3"/>
	<path class="st0" d="M53.7,11.3H28.6c-1,0-1.8,0.8-1.8,1.8c0,1,0.8,1.8,1.8,1.8h25.1c1,0,1.8-0.8,1.8-1.8
		C55.5,12.1,54.7,11.3,53.7,11.3L53.7,11.3z M53.7,11.3"/>
	<path class="st0" d="M22.2,4.9c-4.5,0-8.2,3.7-8.2,8.2c0,4.5,3.7,8.2,8.2,8.2c4.5,0,8.2-3.7,8.2-8.2C30.4,8.6,26.7,4.9,22.2,4.9
		L22.2,4.9z M22.2,17.7c-2.6,0-4.6-2.1-4.6-4.6c0-2.6,2.1-4.6,4.6-4.6c2.6,0,4.6,2.1,4.6,4.6C26.8,15.6,24.7,17.7,22.2,17.7
		L22.2,17.7z M22.2,17.7"/>
</g>
</svg>
