<?xml version="1.0" encoding="utf-8"?>
<!-- Generator: Adobe Illustrator 22.0.0, SVG Export Plug-In . SVG Version: 6.00 Build 0)  -->
<svg version="1.1" id="Capa_1" xmlns="http://www.w3.org/2000/svg" xmlns:xlink="http://www.w3.org/1999/xlink" x="0px" y="0px"
	 viewBox="0 0 35 32.9" style="enable-background:new 0 0 35 32.9;" xml:space="preserve">
<style type="text/css">
	.st0{fill:#94CC00;}
	.st1{fill:#FFFFFF;}
</style>
<g id="XMLID_67_">
	<path id="XMLID_73_" class="st0" d="M28.8,33H6.2C2.8,33,0,30.4,0,27.2V5.9C0,2.7,2.8,0,6.2,0h22.5C32.2,0,35,2.7,35,5.9v21.2
		C35,30.4,32.2,33,28.8,33z"/>
	<g id="XMLID_68_">
		<g id="XMLID_70_">
			<rect id="XMLID_72_" x="9.6" y="12.9" class="st1" width="3.6" height="11"/>
			<path id="XMLID_71_" class="st1" d="M11.4,11.4c1.2,0,2.1-0.9,2.1-2s-1-2-2.1-2c-1.2,0-2.1,0.9-2.1,2S10.2,11.4,11.4,11.4z"/>
		</g>
		<path id="XMLID_69_" class="st1" d="M19,18.1c0-1.6,0.8-2.5,2.2-2.5c1.3,0,2,0.9,2,2.5c0,1.6,0,5.8,0,5.8h3.6c0,0,0-4,0-7
			c0-3-1.8-4.4-4.3-4.4c-2.5,0-3.5,1.8-3.5,1.8v-1.5h-3.5v11H19C19,23.9,19,19.8,19,18.1z"/>
	</g>
</g>
</svg>
