<?xml version="1.0" encoding="utf-8"?>
<!-- Generator: Adobe Illustrator 22.0.0, SVG Export Plug-In . SVG Version: 6.00 Build 0)  -->
<svg version="1.1" id="Capa_1" xmlns="http://www.w3.org/2000/svg" xmlns:xlink="http://www.w3.org/1999/xlink" x="0px" y="0px"
	 viewBox="0 0 22 20" style="enable-background:new 0 0 22 20;" xml:space="preserve">
<style type="text/css">
	.st0{fill:#FFFFFF;}
	.st1{fill:#626467;}
</style>
<g id="XMLID_1_">
	<path id="XMLID_20_" class="st0" d="M17.9,20H4.1c-2.1,0-3.8-1.6-3.8-3.6V3.6C0.3,1.6,2,0,4.1,0h13.8c2.1,0,3.8,1.6,3.8,3.6v12.9
		C21.7,18.4,20,20,17.9,20z"/>
	<g id="XMLID_2_">
		<g id="XMLID_17_">
			<rect id="XMLID_19_" x="6.1" y="7.8" class="st1" width="2.2" height="6.7"/>
			<path id="XMLID_18_" class="st1" d="M7.2,6.9c0.7,0,1.3-0.6,1.3-1.2S8,4.4,7.2,4.4C6.5,4.4,5.9,5,5.9,5.7S6.5,6.9,7.2,6.9z"/>
		</g>
		<path id="XMLID_16_" class="st1" d="M11.9,10.9c0-0.9,0.5-1.5,1.4-1.5c0.8,0,1.2,0.5,1.2,1.5c0,1,0,3.5,0,3.5h2.2c0,0,0-2.4,0-4.2
			c0-1.8-1.1-2.7-2.6-2.7c-1.5,0-2.2,1.1-2.2,1.1V7.8H9.8v6.7h2.1C11.9,14.5,11.9,12,11.9,10.9z"/>
	</g>
</g>
</svg>
