<?xml version="1.0" encoding="utf-8"?>
<!-- Generator: Adobe Illustrator 22.0.0, SVG Export Plug-In . SVG Version: 6.00 Build 0)  -->
<svg version="1.1" id="Capa_1" xmlns="http://www.w3.org/2000/svg" xmlns:xlink="http://www.w3.org/1999/xlink" x="0px" y="0px"
	 viewBox="0 0 61 55" style="enable-background:new 0 0 61 55;" xml:space="preserve">
<style type="text/css">
	.st0{fill:#FFFFFF;}
</style>
<g>
	<g>
		<path class="st0" d="M55.5,24.6L55.5,24.6c-0.1-0.8-0.5-1.5-1.1-2l-2.8-2.2l1.1-3.5c0.2-0.8,0.1-1.6-0.3-2.3
			c-0.4-0.7-1.1-1.2-1.8-1.4L47,12.4l-0.5-3.7c-0.1-0.8-0.5-1.5-1.2-2c-0.6-0.5-1.4-0.6-2.2-0.5L39.5,7l-1.9-3.1
			c-0.8-1.3-2.3-1.7-3.7-1.1c-0.1,0-0.2,0.1-0.3,0.2l-3.1,2.2l-3-2.1c-0.6-0.4-1.5-0.6-2.2-0.5c-0.8,0.2-1.4,0.6-1.9,1.3L21.5,7
			l-3.6-0.7c-0.8-0.1-1.6,0-2.2,0.5c-0.6,0.5-1.1,1.2-1.2,2L14,12.4l-3.8,0.9L10,13.4H9.9c-1.4,0.6-2.1,2.1-1.6,3.5l1.1,3.5l-3,2.3
			l-0.2,0.1v0.1c-1,1.1-1,2.7-0.1,3.8l2.3,2.8L6.6,33l-0.1,0.2v0.1C6,34.6,6.7,36.1,8,36.8l3.3,1.6L11,42c-0.1,0.8,0.2,1.6,0.7,2.2
			c0.5,0.6,1.3,0.9,2.1,0.9l3.7,0.1l1.2,3.5c0.3,0.7,0.8,1.4,1.5,1.7s1.5,0.3,2.3,0l3.4-1.4l2.7,2.8l0.1,0.1h0.1
			c0.5,0.4,1.1,0.6,1.7,0.6c0.8,0,1.5-0.3,2.1-0.9l2.5-2.7l3.4,1.4c0.7,0.3,1.6,0.3,2.3,0s1.3-0.9,1.5-1.7l1.2-3.5l3.9-0.1h0.2h0.1
			c1.5-0.3,2.5-1.6,2.3-3.1l-0.3-3.7l3.3-1.6c0.7-0.3,1.3-1,1.5-1.7s0.2-1.6-0.2-2.3l-1.8-3.2l2.3-2.8
			C55.3,26.2,55.6,25.4,55.5,24.6L55.5,24.6z M49.7,28.3c-0.5,0.5-0.5,1.3-0.2,2l2.1,3.9l-4,1.9c-0.7,0.3-1,1-1,1.7l0.4,4.4
			l-4.4,0.1c-0.7,0-1.4,0.5-1.6,1.2l-1.5,4.2L35.4,46c-0.7-0.3-1.4-0.1-1.9,0.4l-3,3.2l-3-3.2c-0.3-0.4-0.8-0.5-1.3-0.5
			c-0.2,0-0.5,0-0.7,0.1l-4.1,1.7L20,43.4c-0.2-0.7-0.9-1.1-1.6-1.2L14,42.1l0.4-4.4c0.1-0.7-0.3-1.4-1-1.7l-4-1.9l2.1-3.9
			c0.3-0.6,0.3-1.4-0.2-2l-2.8-3.4l3.5-2.7c0.6-0.4,0.8-1.2,0.6-1.9L11.3,16l4.3-1c0.7-0.2,1.2-0.8,1.3-1.5l0.6-4.4l4.4,0.8
			c0.7,0.1,1.4-0.2,1.8-0.8L26,5.3L29.5,8c0.6,0.4,1.4,0.4,2,0l3.6-2.5l2.3,3.8c0.4,0.6,1.1,0.9,1.8,0.8l4.4-0.8l0.6,4.4
			c0.1,0.7,0.6,1.3,1.3,1.5l4.3,1l-1.3,4.2c-0.2,0.7,0,1.4,0.6,1.9l3.5,2.7L49.7,28.3z"/>
	</g>
	<path class="st0" d="M30.7,15c-6.9,0-12.5,5.6-12.5,12.5S23.8,40,30.7,40s12.5-5.6,12.5-12.5C43.1,20.6,37.5,15,30.7,15L30.7,15z
		 M30.7,37c-5.3,0-9.5-4.3-9.5-9.5c0-5.3,4.3-9.5,9.5-9.5c5.3,0,9.5,4.3,9.5,9.5C40.2,32.8,35.9,37,30.7,37L30.7,37z"/>
	<path class="st0" d="M34.2,23.6l-5.8,5.8l-1.6-1.6c-0.6-0.6-1.5-0.6-2.1,0s-0.6,1.5,0,2.1l2.6,2.6c0.3,0.3,0.7,0.4,1,0.4
		c0.4,0,0.8-0.1,1-0.4l6.8-6.8c0.6-0.6,0.6-1.5,0-2.1C35.7,23.1,34.8,23.1,34.2,23.6L34.2,23.6z"/>
</g>
</svg>
