<?xml version="1.0" encoding="utf-8"?>
<!-- Generator: Adobe Illustrator 22.0.0, SVG Export Plug-In . SVG Version: 6.00 Build 0)  -->
<svg version="1.1" id="Capa_1" xmlns="http://www.w3.org/2000/svg" xmlns:xlink="http://www.w3.org/1999/xlink" x="0px" y="0px"
	 viewBox="0 0 220 220" style="enable-background:new 0 0 220 220;" xml:space="preserve">
<style type="text/css">
	.st0{fill:none;stroke:#FFFFFF;stroke-width:4;stroke-miterlimit:10;}
	.st1{fill:#FFFFFF;}
</style>
<g>
	<g>
		
			<image style="overflow:visible;opacity:0.15;" width="222" height="222" xlink:href="9F85D859.png"  transform="matrix(1 0 0 1 3 3)">
		</image>
		<g>
			<path class="st0" d="M195.6,145.5L132,200c-17.1,14.7-42.9,12.7-57.5-4.4L20,132C5.3,114.9,7.3,89.1,24.4,74.5L88,20
				c17.1-14.7,42.9-12.7,57.5,4.4L200,88C214.7,105.1,212.7,130.9,195.6,145.5z"/>
		</g>
	</g>
	<g>
		
			<image style="overflow:visible;opacity:0.15;" width="108" height="108" xlink:href="9F85D85F.png"  transform="matrix(1 0 0 1 60 60)">
		</image>
		<g>
			<g>
				<g>
					<path class="st1" d="M154.4,104.9L154.4,104.9c-0.1-1.4-0.9-2.7-2-3.5l-5.1-3.9l1.9-6.3c0.4-1.3,0.2-2.8-0.5-4
						c-0.7-1.2-1.9-2.1-3.2-2.4l-6.4-1.5l-0.8-6.5c-0.2-1.4-0.9-2.7-2.1-3.5c-1.1-0.8-2.6-1.1-3.9-0.9l-6.4,1.2l-3.4-5.6
						c-1.3-2.2-4.2-3.1-6.6-2c-0.2,0.1-0.3,0.2-0.5,0.3l-5.6,3.9l-5.4-3.7c-1.1-0.8-2.6-1.1-4-0.8c-1.4,0.3-2.6,1.1-3.3,2.3L94,73.7
						l-6.4-1.2c-1.4-0.3-2.8,0.1-3.9,0.9c-1.1,0.8-1.9,2.1-2.1,3.5l-0.8,6.5l-6.7,1.6l-0.3,0.1L73.6,85c-2.4,1.1-3.7,3.7-2.9,6.2
						l1.9,6.3l-5.3,4.1l-0.3,0.3l-0.1,0.1c-1.8,1.9-1.8,4.9-0.2,6.8l4.1,4.9l-3.3,6.1l-0.1,0.3l0,0.1c-0.8,2.5,0.3,5.2,2.6,6.3
						l5.9,2.8l-0.6,6.5c-0.1,1.4,0.4,2.8,1.3,3.8c0.9,1,2.3,1.7,3.7,1.7l6.5,0.1l2.1,6.2c0.5,1.3,1.5,2.4,2.7,3c1.3,0.6,2.7,0.6,4,0
						l6-2.5l4.7,5l0.2,0.2l0.1,0.1c0.9,0.7,2,1,3.1,1c1.4,0,2.7-0.5,3.7-1.6l4.5-4.8l6,2.5c1.3,0.5,2.8,0.5,4,0
						c1.3-0.6,2.3-1.7,2.7-3l2.1-6.2l6.9-0.1l0.3,0l0.1,0c2.6-0.5,4.4-2.9,4.1-5.4l-0.6-6.5l5.9-2.8c1.3-0.6,2.2-1.7,2.7-3
						c0.4-1.3,0.3-2.8-0.4-4l-3.2-5.7l4.1-4.9C154.1,107.7,154.5,106.3,154.4,104.9L154.4,104.9z M144.1,111.4c-0.8,1-1,2.4-0.3,3.5
						l3.8,6.9l-7.1,3.3c-1.2,0.5-1.9,1.8-1.8,3l0.7,7.9l-7.9,0.2c-1.3,0-2.4,0.9-2.8,2.1l-2.6,7.4l-7.3-3.1
						c-1.2-0.5-2.6-0.2-3.4,0.7l-5.4,5.8l-5.4-5.8c-0.6-0.6-1.4-1-2.2-1c-0.4,0-0.8,0.1-1.2,0.2l-7.3,3.1l-2.6-7.4
						c-0.4-1.2-1.6-2-2.8-2.1l-7.9-0.2l0.7-7.9c0.1-1.3-0.6-2.5-1.8-3l-7.1-3.3l3.8-6.9c0.6-1.1,0.5-2.5-0.3-3.5l-5-6l6.1-4.8
						c1-0.8,1.4-2.1,1.1-3.3l-2.3-7.5l7.7-1.8c1.2-0.3,2.2-1.3,2.3-2.6l1-7.8l7.7,1.5c1.3,0.2,2.5-0.3,3.2-1.4l4.1-6.7l6.5,4.5
						c1,0.7,2.5,0.7,3.5,0l6.5-4.5l4.1,6.7c0.7,1.1,1.9,1.7,3.2,1.4l7.7-1.5l1,7.8c0.2,1.3,1.1,2.3,2.3,2.6l7.7,1.8l-2.3,7.5
						c-0.4,1.2,0.1,2.5,1.1,3.3l6.1,4.8L144.1,111.4z M144.1,111.4"/>
				</g>
				<path class="st1" d="M110.3,87.9c-12.2,0-22.1,9.9-22.1,22.1c0,12.2,9.9,22.1,22.1,22.1c12.2,0,22.1-9.9,22.1-22.1
					C132.4,97.8,122.5,87.9,110.3,87.9L110.3,87.9z M110.3,126.9c-9.3,0-16.9-7.6-16.9-16.9c0-9.3,7.6-16.9,16.9-16.9
					c9.3,0,16.9,7.6,16.9,16.9C127.2,119.3,119.6,126.9,110.3,126.9L110.3,126.9z M110.3,126.9"/>
				<path class="st1" d="M116.6,103.1l-10.3,10.3l-2.8-2.8c-1-1-2.7-1-3.7,0c-1,1-1,2.7,0,3.7l4.6,4.6c0.5,0.5,1.2,0.8,1.8,0.8
					s1.3-0.3,1.8-0.8l12.1-12.1c1-1,1-2.7,0-3.7C119.3,102.1,117.6,102.1,116.6,103.1L116.6,103.1z M116.6,103.1"/>
			</g>
		</g>
	</g>
</g>
</svg>
