<?xml version="1.0" encoding="utf-8"?>
<!-- Generator: Adobe Illustrator 22.0.0, SVG Export Plug-In . SVG Version: 6.00 Build 0)  -->
<svg version="1.1" id="Capa_1" xmlns="http://www.w3.org/2000/svg" xmlns:xlink="http://www.w3.org/1999/xlink" x="0px" y="0px"
	 viewBox="0 0 124 150" style="enable-background:new 0 0 124 150;" xml:space="preserve">
<style type="text/css">
	.st0{fill:#94CC00;}
	.st1{fill:#FFFFFF;stroke:#FFFFFF;stroke-width:2;stroke-miterlimit:10;}
	.st2{fill:#FFFFFF;}
</style>
<g>
	<path class="st0" d="M104.8,105.2L62,148l-42.8-42.8c-23.6-23.6-23.6-61.9,0-85.6l0,0c23.6-23.6,61.9-23.6,85.6,0l0,0
		C128.4,43.3,128.4,81.6,104.8,105.2z"/>
	<g>
		<g>
			<g>
				<path class="st1" d="M91,95H85V57.9c0-0.5-0.4-0.9-0.9-0.9H74c-0.5,0-0.9,0.4-0.9,0.9V95h-7.1V68.9c0-0.5-0.4-0.9-0.9-0.9H55
					c-0.5,0-0.9,0.4-0.9,0.9V95h-7.1V73.9c0-0.5-0.4-0.9-0.9-0.9H36c-0.5,0-0.9,0.4-0.9,0.9V95h-6.1c-0.5,0-0.9,0.4-0.9,0.9
					s0.4,0.9,0.9,0.9H91c0.5,0,0.9-0.4,0.9-0.9C92,95.4,91.6,95,91,95z M45,95h-8.1V74.8H45L45,95L45,95z M64.1,95h-8.1V69.8h8.1V95
					z M83.1,95h-8.1V58.8h8.1V95L83.1,95z"/>
			</g>
		</g>
		<g>
			<g>
				<path class="st2" d="M73.6,48.9c3.8-2.9,7.3-6.3,10.5-9.9c0.1,1.6,1.4,2.8,2.9,2.8c1.6,0,2.9-1.3,2.9-2.9v-8
					c0-0.8-0.4-1.6-1-2.2c-0.6-0.6-1.5-0.8-2.3-0.7l-8,1c-1.6,0.2-2.8,1.7-2.6,3.3c0.2,1.6,1.7,2.8,3.3,2.6l0.7-0.1
					C70.2,46.1,58.5,52,50.3,55c-10.3,3.7-18.3,4-18.4,4c-1.6,0.1-2.9,1.4-2.8,3c0,1.6,1.3,2.9,2.9,2.9c0,0,0.1,0,0.1,0
					c0.4,0,8.9-0.3,20.1-4.3c6-2.1,11.7-5,16.9-8.4L73.6,48.9z"/>
			</g>
		</g>
	</g>
</g>
</svg>
