<?xml version="1.0" encoding="utf-8"?>
<!-- Generator: Adobe Illustrator 22.0.0, SVG Export Plug-In . SVG Version: 6.00 Build 0)  -->
<svg version="1.1" id="Capa_1" xmlns="http://www.w3.org/2000/svg" xmlns:xlink="http://www.w3.org/1999/xlink" x="0px" y="0px"
	 viewBox="0 0 124 150" style="enable-background:new 0 0 124 150;" xml:space="preserve">
<style type="text/css">
	.st0{fill:#94CC00;}
	.st1{fill:#FFFFFF;}
</style>
<g>
	<path class="st0" d="M104.8,105.2L62,148l-42.8-42.8c-23.6-23.6-23.6-61.9,0-85.6l0,0c23.6-23.6,61.9-23.6,85.6,0l0,0
		C128.4,43.3,128.4,81.6,104.8,105.2z"/>
	<path class="st1" d="M101.7,44.3v0.2c0-2.4-2-4.4-4.4-4.4H31.4c-2.4,0-4.4,2-4.4,4.4v-0.2c0,2.4,2,4.4,4.4,4.4h1.5v28.7
		c-3.4,1-5.9,4.1-5.9,7.8c0,7.2,8.9,10.8,13.9,5.5c3.2,3.4,8.5,3.4,11.7,0c5,5.3,13.9,1.7,13.9-5.5c0-3.7-2.5-6.8-5.9-7.8V48.7H69
		l18.3,26.8c-4.1,5.2-0.4,13,6.4,13c4.4,0,8.1-3.6,8.1-8.1c0-5.6-5.6-9.5-10.9-7.6L74.4,48.7h23C99.7,48.7,101.7,46.7,101.7,44.3
		L101.7,44.3z M93.6,76.8c2,0,3.7,1.6,3.7,3.7c0,2-1.6,3.7-3.7,3.7c-2,0-3.7-1.6-3.7-3.7C90,78.5,91.6,76.8,93.6,76.8z M35,88.8
		c-2,0-3.7-1.6-3.7-3.7c0-2,1.6-3.7,3.7-3.7s3.7,1.6,3.7,3.7C38.7,87.2,37.1,88.8,35,88.8z M40.9,79.6c-1-1-2.2-1.8-3.7-2.2V48.7
		h7.3v28.7C43.1,77.8,41.9,78.6,40.9,79.6z M46.8,88.8c-2,0-3.7-1.6-3.7-3.7c0-2,1.6-3.7,3.7-3.7s3.7,1.6,3.7,3.7
		C50.4,87.2,48.8,88.8,46.8,88.8z M52.6,79.6c-1-1-2.2-1.8-3.7-2.2V48.7h7.3v28.7C54.9,77.8,53.6,78.6,52.6,79.6z M62.1,85.2
		c0,2-1.6,3.7-3.7,3.7s-3.7-1.6-3.7-3.7c0-2,1.6-3.7,3.7-3.7S62.1,83.1,62.1,85.2z"/>
</g>
</svg>
