<?xml version="1.0" encoding="utf-8"?>
<!-- Generator: Adobe Illustrator 22.0.0, SVG Export Plug-In . SVG Version: 6.00 Build 0)  -->
<svg version="1.1" id="Capa_1" xmlns="http://www.w3.org/2000/svg" xmlns:xlink="http://www.w3.org/1999/xlink" x="0px" y="0px"
	 viewBox="0 0 124 150" style="enable-background:new 0 0 124 150;" xml:space="preserve">
<style type="text/css">
	.st0{fill:#94CC00;}
	.st1{fill:#FFFFFF;}
	.st2{fill:#FFFFFF;stroke:#FFFFFF;stroke-width:1.8311;stroke-miterlimit:10;}
</style>
<g>
	<path class="st0" d="M104.8,105.2L62,148l-42.8-42.8c-23.6-23.6-23.6-61.9,0-85.6l0,0c23.6-23.6,61.9-23.6,85.6,0l0,0
		C128.4,43.3,128.4,81.6,104.8,105.2z"/>
	<g>
		<path id="XMLID_149_" class="st1" d="M50.6,77c-0.8,0-1.4,0.6-1.4,1.4v2.8c0,0.8,0.6,1.4,1.4,1.4c0.8,0,1.4-0.6,1.4-1.4v-2.8
			C51.9,77.6,51.3,77,50.6,77z"/>
		<path id="XMLID_666_" class="st1" d="M56.1,77c-0.8,0-1.4,0.6-1.4,1.4v2.8c0,0.8,0.6,1.4,1.4,1.4s1.4-0.6,1.4-1.4v-2.8
			C57.4,77.6,56.8,77,56.1,77z"/>
		<path id="XMLID_1082_" class="st1" d="M61.6,77c-0.8,0-1.4,0.6-1.4,1.4v2.8c0,0.8,0.6,1.4,1.4,1.4s1.4-0.6,1.4-1.4v-2.8
			C62.9,77.6,62.3,77,61.6,77z"/>
		<path id="XMLID_1380_" class="st1" d="M67.1,77c-0.8,0-1.4,0.6-1.4,1.4v2.8c0,0.8,0.6,1.4,1.4,1.4c0.8,0,1.4-0.6,1.4-1.4v-2.8
			C68.4,77.6,67.8,77,67.1,77z"/>
		<path id="XMLID_1437_" class="st1" d="M72.6,77c-0.8,0-1.4,0.6-1.4,1.4v2.8c0,0.8,0.6,1.4,1.4,1.4S74,82,74,81.2v-2.8
			C74,77.6,73.3,77,72.6,77z"/>
		<path id="XMLID_1608_" class="st2" d="M95.4,70.8h-5.5v-3c0-0.8-0.6-1.4-1.4-1.4h-6.3v-9.4h1c0.8,0,1.4-0.6,1.4-1.4
			s-0.6-1.4-1.4-1.4h-3.9v-7.2c0.7-0.1,1.2-0.7,1.2-1.4c0-0.8-0.6-1.4-1.4-1.4h-1.2h-2.2v-1.2c0-7.4-5.6-13.5-12.8-14.1v-5.8
			c0-0.8-0.6-1.4-1.4-1.4c-0.8,0-1.4,0.6-1.4,1.4v5.8c-7.2,0.7-12.8,6.8-12.8,14.1v1.2h-2.2H44c-0.8,0-1.4,0.6-1.4,1.4
			c0,0.7,0.5,1.3,1.2,1.4v7.2H40c-0.8,0-1.4,0.6-1.4,1.4s0.6,1.4,1.4,1.4h1v9.4h-6.3c-0.8,0-1.4,0.6-1.4,1.4v3h-5.5
			c-0.8,0-1.4,0.6-1.4,1.4v18.7c0,0.8,0.6,1.4,1.4,1.4h67.7c0.8,0,1.4-0.6,1.4-1.4V72.2C96.8,71.4,96.2,70.8,95.4,70.8z M50.1,43.2
			c0-6.3,5.1-11.5,11.5-11.5S73,36.9,73,43.2v1.2H50.1V43.2z M43.7,57.1h35.8v9.4H43.7V57.1z M36,72.2v-3h51.2v3v17.3H36V72.2z"/>
	</g>
</g>
</svg>
