<?xml version="1.0" encoding="utf-8"?>
<!-- Generator: Adobe Illustrator 22.0.0, SVG Export Plug-In . SVG Version: 6.00 Build 0)  -->
<svg version="1.1" id="Capa_1" xmlns="http://www.w3.org/2000/svg" xmlns:xlink="http://www.w3.org/1999/xlink" x="0px" y="0px"
	 viewBox="0 0 1664 1792" style="enable-background:new 0 0 1664 1792;" xml:space="preserve">
<style type="text/css">
	.st0{fill:#94CC00;}
</style>
<path class="st0" d="M768,960v384c0,53.3-18.7,98.7-56,136s-82.7,56-136,56H192c-53.3,0-98.7-18.7-136-56s-56-82.7-56-136V640
	c0-69.3,13.5-135.5,40.5-198.5S104,324,150,278s100.5-82.5,163.5-109.5S442.7,128,512,128h64c17.3,0,32.3,6.3,45,19s19,27.7,19,45
	v128c0,17.3-6.3,32.3-19,45s-27.7,19-45,19h-64c-70.7,0-131,25-181,75s-75,110.3-75,181v32c0,26.7,9.3,49.3,28,68s41.3,28,68,28h224
	c53.3,0,98.7,18.7,136,56S768,906.7,768,960z M1664,960v384c0,53.3-18.7,98.7-56,136s-82.7,56-136,56h-384c-53.3,0-98.7-18.7-136-56
	s-56-82.7-56-136V640c0-69.3,13.5-135.5,40.5-198.5S1000,324,1046,278s100.5-82.5,163.5-109.5S1338.7,128,1408,128h64
	c17.3,0,32.3,6.3,45,19s19,27.7,19,45v128c0,17.3-6.3,32.3-19,45s-27.7,19-45,19h-64c-70.7,0-131,25-181,75s-75,110.3-75,181v32
	c0,26.7,9.3,49.3,28,68s41.3,28,68,28h224c53.3,0,98.7,18.7,136,56S1664,906.7,1664,960z"/>
</svg>
