<?xml version="1.0" encoding="utf-8"?>
<!-- Generator: Adobe Illustrator 22.0.0, SVG Export Plug-In . SVG Version: 6.00 Build 0)  -->
<svg version="1.1" id="Capa_1" xmlns="http://www.w3.org/2000/svg" xmlns:xlink="http://www.w3.org/1999/xlink" x="0px" y="0px"
	 viewBox="0 0 22 20" style="enable-background:new 0 0 22 20;" xml:space="preserve">
<style type="text/css">
	.st0{fill:#FFFFFF;}
	.st1{fill:#626467;}
</style>
<g id="XMLID_21_">
	<path id="XMLID_23_" class="st0" d="M17.9,20H4.1c-2.1,0-3.8-1.6-3.8-3.6V3.6C0.3,1.6,2,0,4.1,0h13.8c2.1,0,3.8,1.6,3.8,3.6v12.9
		C21.7,18.4,20,20,17.9,20z"/>
</g>
<g id="XMLID_24_">
	<path id="XMLID_26_" class="st0" d="M17.9,20H4.1c-2.1,0-3.8-1.6-3.8-3.6V3.6C0.3,1.6,2,0,4.1,0h13.8c2.1,0,3.8,1.6,3.8,3.6v12.9
		C21.7,18.4,20,20,17.9,20z"/>
	<path id="XMLID_25_" class="st1" d="M5.3,13.3c1,0.6,2.3,1,3.6,1c4.4,0,6.8-3.4,6.7-6.5c0.5-0.3,0.9-0.7,1.2-1.1
		C16.3,6.9,15.8,7,15.4,7c0.5-0.3,0.9-0.7,1-1.2c-0.5,0.3-1,0.4-1.5,0.5c-0.4-0.4-1-0.7-1.7-0.7c-1.5,0-2.6,1.3-2.3,2.7
		c-2-0.1-3.7-1-4.8-2.3C5.5,7.1,5.8,8.3,6.8,9C6.4,9,6.1,8.9,5.7,8.7c0,1,0.8,2,1.9,2.2c-0.3,0.1-0.7,0.1-1.1,0
		c0.3,0.9,1.2,1.5,2.2,1.5C7.8,13.2,6.5,13.5,5.3,13.3z"/>
</g>
</svg>
