<svg xmlns="http://www.w3.org/2000/svg" viewBox="0 0 51.44 62.28"><defs><style>.a{fill:#fff;}</style></defs><title>avena-icon-white</title><path class="a" d="M13.93,56.5a10.8,10.8,0,0,0,5.43,5.73.73.73,0,0,0,.56,0,.72.72,0,0,0,.41-.39A10.73,10.73,0,0,0,20.24,54a8.44,8.44,0,0,0-2.08-3.07.76.76,0,0,0-1.07,0,.76.76,0,0,0-.2.54.75.75,0,0,0,.24.52,7,7,0,0,1,1.72,2.53,9.48,9.48,0,0,1,.38,5.83l0,.11-.1-.06a9.47,9.47,0,0,1-3.78-4.45,7.08,7.08,0,0,1-.53-3,.75.75,0,0,0-.71-.79h0a.76.76,0,0,0-.75.72A8.44,8.44,0,0,0,13.93,56.5Z"/><path class="a" d="M25,46.65a8.44,8.44,0,0,0,1.92,3.16,10.75,10.75,0,0,0,7.14,3.36A.72.72,0,0,0,34.6,53a.75.75,0,0,0,.24-.52,10.74,10.74,0,0,0-3-7.31A8.44,8.44,0,0,0,28.82,43a.75.75,0,0,0-1,.42.73.73,0,0,0,0,.58.76.76,0,0,0,.41.4,7,7,0,0,1,2.52,1.73,9.45,9.45,0,0,1,2.48,5.29l0,.11-.11,0A9.55,9.55,0,0,1,28,48.78a7.18,7.18,0,0,1-1.59-2.61.75.75,0,0,0-1-.48A.76.76,0,0,0,25,46.65Z"/><path class="a" d="M34.54,36.78a8.44,8.44,0,0,0,3,2.19,10.75,10.75,0,0,0,7.88.37.78.78,0,0,0,.4-.4.8.8,0,0,0,0-.57,10.76,10.76,0,0,0-5.54-5.61A8.4,8.4,0,0,0,36.68,32a.76.76,0,0,0-.53.23.76.76,0,0,0,0,1.06.79.79,0,0,0,.54.22,6.93,6.93,0,0,1,3,.63A9.51,9.51,0,0,1,44,38.06l.06.1-.11,0a9.56,9.56,0,0,1-5.82-.59,7,7,0,0,1-2.46-1.81.77.77,0,0,0-1.07-.07A.76.76,0,0,0,34.54,36.78Z"/><path class="a" d="M39.69,23.82a.72.72,0,0,0,.33.47,8.55,8.55,0,0,0,3.5,1.22,10.77,10.77,0,0,0,7.64-2,.73.73,0,0,0,.27-.5.72.72,0,0,0-.14-.55,10.78,10.78,0,0,0-6.94-3.75,8.46,8.46,0,0,0-3.69.33.76.76,0,0,0-.48,1,.75.75,0,0,0,.94.49,7.07,7.07,0,0,1,3.05-.28,9.54,9.54,0,0,1,5.28,2.5l.09.08-.1.05A9.46,9.46,0,0,1,43.71,24a6.87,6.87,0,0,1-2.89-1,.8.8,0,0,0-.4-.11.5.5,0,0,0-.17,0,.72.72,0,0,0-.47.33A.71.71,0,0,0,39.69,23.82Z"/><path class="a" d="M20.28,49.16a8.37,8.37,0,0,0-.85-3.6,10.72,10.72,0,0,0-5.75-5.4.62.62,0,0,0-.23,0,.73.73,0,0,0-.33.08.75.75,0,0,0-.39.41,10.73,10.73,0,0,0,.56,7.87,8.55,8.55,0,0,0,2.26,2.94.76.76,0,0,0,1.06-.1h0a.74.74,0,0,0,.17-.55.76.76,0,0,0-.27-.51,7.07,7.07,0,0,1-1.87-2.43A9.5,9.5,0,0,1,13.92,42l0-.12L14,42a9.45,9.45,0,0,1,4,4.22,7.08,7.08,0,0,1,.71,3,.75.75,0,0,0,.22.53.78.78,0,0,0,.54.21.75.75,0,0,0,.53-.22A.74.74,0,0,0,20.28,49.16Z"/><path class="a" d="M28.84,41.72a.77.77,0,0,0,.35.46.76.76,0,0,0,.57.08.77.77,0,0,0,.46-.35.76.76,0,0,0,.08-.57,8.49,8.49,0,0,0-1.7-3.29,10.74,10.74,0,0,0-6.89-3.84h-.06a.78.78,0,0,0-.48.17.74.74,0,0,0-.27.5,10.75,10.75,0,0,0,2.44,7.5,8.71,8.71,0,0,0,2.91,2.3.75.75,0,0,0,1-.36h0a.73.73,0,0,0-.35-1,7,7,0,0,1-2.39-1.9A9.5,9.5,0,0,1,22.39,36v-.11l.12,0A9.5,9.5,0,0,1,27.44,39,7,7,0,0,1,28.84,41.72Z"/><path class="a" d="M37.53,28.85a8.47,8.47,0,0,0-3-2.19,10.82,10.82,0,0,0-4.4-.93,10.24,10.24,0,0,0-3.48.58.78.78,0,0,0-.4.4.75.75,0,0,0,0,.57,10.8,10.8,0,0,0,5.55,5.61,8.4,8.4,0,0,0,3.62.75.75.75,0,0,0,0-1.5h0a7.17,7.17,0,0,1-3-.63,9.49,9.49,0,0,1-4.33-3.93l-.06-.1.11,0a9.61,9.61,0,0,1,5.82.58,6.92,6.92,0,0,1,2.47,1.8.79.79,0,0,0,.52.26.76.76,0,0,0,.54-.19A.75.75,0,0,0,37.53,28.85Z"/><path class="a" d="M42.33,9.93A8.62,8.62,0,0,0,42,6.24,10.71,10.71,0,0,0,37.08.08.81.81,0,0,0,36.74,0a.66.66,0,0,0-.23,0,.73.73,0,0,0-.44.35,10.8,10.8,0,0,0-.57,7.87,8.52,8.52,0,0,0,1.82,3.23.76.76,0,0,0,1.06,0,.75.75,0,0,0,0-1.06,7.07,7.07,0,0,1-1.49-2.67A9.52,9.52,0,0,1,37,2l0-.11.09.07a9.49,9.49,0,0,1,3.39,4.76,7,7,0,0,1,.28,3,.74.74,0,0,0,.14.56.78.78,0,0,0,.5.29.8.8,0,0,0,.56-.15A.76.76,0,0,0,42.33,9.93Z"/><path class="a" d="M40.84,18.21a.74.74,0,0,0-.25-.52,8.68,8.68,0,0,0-3.24-1.81,10.85,10.85,0,0,0-3.15-.47,10.42,10.42,0,0,0-4.71,1.08.76.76,0,0,0-.31,1,10.76,10.76,0,0,0,6.18,4.89,8.52,8.52,0,0,0,3.7.32.76.76,0,0,0,.35-1.35.8.8,0,0,0-.56-.15A6.94,6.94,0,0,1,35.8,21,9.51,9.51,0,0,1,31,17.58L31,17.49l.11,0a9.55,9.55,0,0,1,5.84-.13,7.07,7.07,0,0,1,2.67,1.49.79.79,0,0,0,.55.19.75.75,0,0,0,.71-.79Z"/><path class="a" d="M.62,55.07a.62.62,0,0,1,0-1.24A39.68,39.68,0,0,0,40.06,14a.63.63,0,0,1,1.25,0A41,41,0,0,1,29.4,43.05,40.24,40.24,0,0,1,.62,55.07Z"/></svg>