<svg xmlns="http://www.w3.org/2000/svg" viewBox="0 0 60.65 61.14"><defs><style>.a{fill:#fff;}</style></defs><title>cil-icon-white</title><path class="a" d="M44.33,22.33a3.24,3.24,0,0,0-2.35-2,3.27,3.27,0,0,0-3,.88l-2.13,2.13a.86.86,0,0,1-1.22,0,.72.72,0,0,1-.2-.53.75.75,0,0,1,.26-.53l5.39-4.79a2.71,2.71,0,0,0-.92-4.59,2.76,2.76,0,0,0-2.55.39l-1.08.81a.85.85,0,0,1-.76.13.8.8,0,0,1-.53-.48.72.72,0,0,1,.19-.79l3.39-3.18a2.58,2.58,0,0,0,.81-1.82,2.53,2.53,0,0,0-.73-1.86A2.63,2.63,0,0,0,35.23,6l-1,.94.19-2.56A4,4,0,0,0,32.75.79a4.13,4.13,0,0,0-4.85,0,4,4,0,0,0-1.64,3.54l.2,2.56-1-.94a2.63,2.63,0,0,0-3.64.11,2.53,2.53,0,0,0-.73,1.86,2.58,2.58,0,0,0,.81,1.82l3.39,3.18a.73.73,0,0,1,.19.8.81.81,0,0,1-.53.47.86.86,0,0,1-.76-.13l-1.08-.81a2.76,2.76,0,0,0-2.55-.39,2.71,2.71,0,0,0-.93,4.59L25,22.25a.72.72,0,0,1,.25.51.73.73,0,0,1-.2.54.82.82,0,0,1-.6.27.89.89,0,0,1-.62-.24L21.7,21.2a3.25,3.25,0,0,0-2.32-1,3.51,3.51,0,0,0-.71.08,3.21,3.21,0,0,0-1.07,5.85L20,27.73l-.62.48a3,3,0,0,0-1.09,1.7V30a2.93,2.93,0,0,0,2.14,3.49l2.14.55a9.29,9.29,0,0,1,7.11,9V60.48a.64.64,0,1,0,1.27,0V43a9.89,9.89,0,0,1,7.55-9.11l1.7-.43A2.93,2.93,0,0,0,42.35,30v-.06a3,3,0,0,0-1.09-1.7l-.62-.48,2.42-1.56A3.21,3.21,0,0,0,44.33,22.33Zm-1.95,2.72-4.6,3a.65.65,0,0,0-.22.88.63.63,0,0,0,.83.27l.18-.09a1.8,1.8,0,0,1,1.6,0,1.67,1.67,0,0,1,.93,1.15v.06a1.59,1.59,0,0,1-1.2,1.9l-1.7.43a11.45,11.45,0,0,0-6,3.77l-.26.34L31,38V17.55a.64.64,0,1,0-1.27,0V37.73l-1-1.26a10.81,10.81,0,0,0-5.81-3.74l-2.14-.55a1.6,1.6,0,0,1-1.21-1.9l0-.06a1.66,1.66,0,0,1,.94-1.15,1.81,1.81,0,0,1,1.59,0l.18.09a.63.63,0,0,0,.83-.27.65.65,0,0,0-.22-.88l-4.6-3a1.85,1.85,0,0,1-.76-2.24,1.89,1.89,0,0,1,1.42-1.2,2,2,0,0,1,1.88.53l2.13,2.13a2.18,2.18,0,0,0,1.54.62A2.14,2.14,0,0,0,26,24.2a2,2,0,0,0,.54-1.5,2.06,2.06,0,0,0-.69-1.45l-5.4-4.8A1.33,1.33,0,0,1,20,15.06a1.44,1.44,0,0,1,.92-1,1.5,1.5,0,0,1,1.4.21l1.08.81a2.09,2.09,0,0,0,1.86.33,2.09,2.09,0,0,0,.83-3.52L22.72,8.76a1.22,1.22,0,0,1-.4-.87A1.25,1.25,0,0,1,22.68,7a1.37,1.37,0,0,1,2.07.13l2,2.76a.61.61,0,0,0,.73.21.65.65,0,0,0,.42-.66l-.4-5.22a2.65,2.65,0,0,1,1.1-2.35,2.9,2.9,0,0,1,3.39,0,2.66,2.66,0,0,1,1.1,2.35l-.4,5.22a.65.65,0,0,0,.42.66.63.63,0,0,0,.73-.21l2-2.76a1.36,1.36,0,0,1,1-.54A1.39,1.39,0,0,1,38,7a1.25,1.25,0,0,1,.36.89,1.22,1.22,0,0,1-.4.87l-3.38,3.18A2.06,2.06,0,0,0,34,14.2a2.09,2.09,0,0,0,3.21.93l1.08-.81a1.5,1.5,0,0,1,1.4-.21,1.44,1.44,0,0,1,.92.94,1.36,1.36,0,0,1-.42,1.4l-5.4,4.8a2.06,2.06,0,0,0-.69,1.45,2,2,0,0,0,.54,1.5,2.09,2.09,0,0,0,3,.07l2.13-2.13a2.05,2.05,0,0,1,1.88-.54,1.92,1.92,0,0,1,1.42,1.21A1.85,1.85,0,0,1,42.38,25.05Z"/><path class="a" d="M60.57,29a2.88,2.88,0,0,0-3.12-2.16l-1.76.19,2.12-2.35a5.43,5.43,0,0,0,1-5.72,5.57,5.57,0,0,0-5.86-3.32,5.49,5.49,0,0,0-4.53,3.66l-1.13,3.29a.66.66,0,0,0,.39.84.61.61,0,0,0,.48,0,.69.69,0,0,0,.33-.38l1.13-3.29A4.27,4.27,0,0,1,53.08,17a4.32,4.32,0,0,1,4.54,2.55,4,4,0,0,1-.75,4.3l-2.34,2.6a1.18,1.18,0,0,0,1,2l2-.22a1.6,1.6,0,0,1,1.75,1.18,1.47,1.47,0,0,1-.16,1.12,1.68,1.68,0,0,1-1,.73l-4.12,1a2,2,0,0,0-1.54,1.64A2,2,0,0,0,53,35.57a2.08,2.08,0,0,0,1.76.64l.39-.05a2.4,2.4,0,0,1,2,.72,2.21,2.21,0,0,1,.62,1.87,2.31,2.31,0,0,1-.9,1.5,2.38,2.38,0,0,1-1.85.45l-3.81-.6A2.2,2.2,0,0,0,50,44.24l2.36,1.14a1.11,1.11,0,0,1,.61,1.33,1.12,1.12,0,0,1-.61.69,1.25,1.25,0,0,1-.91.07l-4.17-1.28a10.34,10.34,0,0,0-6.39.1l-1.54.52,5.6-8.58a.67.67,0,0,0-.18-.92.61.61,0,0,0-.47-.09.62.62,0,0,0-.41.28l-5.86,9L37.78,45a9.81,9.81,0,0,0-1.58-4.11.63.63,0,0,0-.41-.27h-.12a.56.56,0,0,0-.35.11.67.67,0,0,0-.17.92A8.37,8.37,0,0,1,35.8,50c-.13.26-.25.48-.37.71a.74.74,0,0,1-.06.11,21.8,21.8,0,0,0-2.27,9.71.64.64,0,0,0,.63.66.65.65,0,0,0,.64-.66,20.5,20.5,0,0,1,2.16-9.14,9.07,9.07,0,0,1,10.34-3.89l4.18,1.28a2.43,2.43,0,0,0,1.9-.18,2.47,2.47,0,0,0,1.2-1.45,2.43,2.43,0,0,0-1.29-2.91l-2.35-1.14A.85.85,0,0,1,50,42.1a.92.92,0,0,1,1.07-.7L54.9,42a3.69,3.69,0,0,0,2.8-.7A3.59,3.59,0,0,0,58.13,36,3.65,3.65,0,0,0,55,34.86l-.38,0a.77.77,0,0,1-.69-.24.69.69,0,0,1-.19-.59.76.76,0,0,1,.58-.6l4.12-1a2.92,2.92,0,0,0,1.8-1.32A2.87,2.87,0,0,0,60.57,29Z"/><path class="a" d="M16.41,47.05A9,9,0,0,1,24.1,51.3a20.55,20.55,0,0,1,2.18,9.18.64.64,0,1,0,1.28,0,21.71,21.71,0,0,0-2.27-9.68.93.93,0,0,0-.05-.1c-.13-.26-.25-.48-.36-.69a8.49,8.49,0,0,1,.73-8.5.68.68,0,0,0-.15-.93.61.61,0,0,0-.47-.11.63.63,0,0,0-.41.26A9.73,9.73,0,0,0,22.89,45l-.21,1.48-6-9.23a.6.6,0,0,0-.41-.28.61.61,0,0,0-.47.09.68.68,0,0,0-.18.92l5.74,8.79-1.53-.52a10.44,10.44,0,0,0-6.4-.1L9.24,47.47a1.21,1.21,0,0,1-1-.09,1.1,1.1,0,0,1,0-2l2.36-1.14A2.2,2.2,0,0,0,9.37,40.1l-3.81.6a2.39,2.39,0,0,1-1.85-.45,2.31,2.31,0,0,1-.9-1.5,2.21,2.21,0,0,1,.62-1.87,2.43,2.43,0,0,1,2.05-.72l.39.05a2.08,2.08,0,0,0,1.76-.64,2,2,0,0,0,.52-1.73,2,2,0,0,0-1.54-1.65l-4.12-1a1.63,1.63,0,0,1-1-.73,1.43,1.43,0,0,1-.17-1.12,1.6,1.6,0,0,1,1.75-1.18l2.06.22a1.17,1.17,0,0,0,1.18-.65,1.18,1.18,0,0,0-.18-1.33l-2.35-2.6A4,4,0,0,1,3,19.51a4.32,4.32,0,0,1,8,.25l1.13,3.29a.69.69,0,0,0,.33.38.61.61,0,0,0,.48,0,.66.66,0,0,0,.39-.84l-1.13-3.29a5.49,5.49,0,0,0-4.53-3.66A5.57,5.57,0,0,0,1.87,19a5.41,5.41,0,0,0,1,5.72L5,27.05,3.2,26.86A2.9,2.9,0,0,0,.08,29,2.86,2.86,0,0,0,2.2,32.48l4.12,1a.76.76,0,0,1,.58.59.69.69,0,0,1-.19.6A.79.79,0,0,1,6,34.9l-.38,0A3.63,3.63,0,0,0,2.53,36a3.55,3.55,0,0,0-1,3A3.59,3.59,0,0,0,3,41.31a3.64,3.64,0,0,0,2.8.7l3.81-.6a.94.94,0,0,1,1.07.69.87.87,0,0,1-.49.95L7.79,44.19A2.42,2.42,0,0,0,6.51,47.1a2.37,2.37,0,0,0,1.2,1.45h0a2.4,2.4,0,0,0,1.89.18l4.18-1.28A9,9,0,0,1,16.41,47.05Z"/></svg>