<svg xmlns="http://www.w3.org/2000/svg" viewBox="0 0 76.74 75.99"><defs><style>.a{fill:#fff;stroke:#54c0e8;stroke-miterlimit:10;stroke-width:0.75px;}</style></defs><title>cilan-icon</title><path class="a" d="M48.61,42.66l2.09-.52a4.22,4.22,0,0,0,3.13-5V37a4.37,4.37,0,0,0-1.59-2.43l2.17-1.36a4.55,4.55,0,0,0,1.84-5.46,4.7,4.7,0,0,0-3.38-2.85,4.78,4.78,0,0,0-4.36,1.25l-2.62,2.57a.37.37,0,0,1-.27.1.34.34,0,0,1-.25-.11.16.16,0,0,1-.06-.15.21.21,0,0,1,.08-.16L52,22.64a3.92,3.92,0,0,0,1.2-4A4,4,0,0,0,50.65,16a4.12,4.12,0,0,0-3.77.57l-1.33,1a.35.35,0,0,1-.33.05.27.27,0,0,1-.2-.17.2.2,0,0,1,.07-.23l4.16-3.84a3.74,3.74,0,0,0,1.21-2.68,3.67,3.67,0,0,0-1.09-2.72A3.93,3.93,0,0,0,46.3,6.76a4,4,0,0,0-2.36,1l.11-1.41a5.45,5.45,0,0,0-2.29-4.87,5.83,5.83,0,0,0-6.78,0,5.49,5.49,0,0,0-2.3,4.87l.11,1.41a4,4,0,0,0-5.43.17,3.75,3.75,0,0,0-1.09,2.72,3.79,3.79,0,0,0,1.22,2.68l4.16,3.84a.21.21,0,0,1,.07.23.3.3,0,0,1-.21.17.35.35,0,0,1-.33-.05l-1.33-1A4.11,4.11,0,0,0,26.09,16a4,4,0,0,0-2.57,2.64,3.91,3.91,0,0,0,1.19,4l6.65,5.8a.21.21,0,0,1,.08.16.22.22,0,0,1-.06.15.38.38,0,0,1-.26.11.36.36,0,0,1-.26-.1l-2.62-2.57a4.78,4.78,0,0,0-4.36-1.25,4.68,4.68,0,0,0-3.38,2.85,4.55,4.55,0,0,0,1.84,5.46l2.16,1.36A4.3,4.3,0,0,0,22.92,37l0,.08a4.22,4.22,0,0,0,3.14,5l2.63.66A10.61,10.61,0,0,1,36.9,53V74.15a1.47,1.47,0,0,0,2.94,0V53A11.3,11.3,0,0,1,48.61,42.66ZM29.38,40l-2.63-.66a1.27,1.27,0,0,1-1-1.49l0-.08a1.42,1.42,0,0,1,.78-.94,1.56,1.56,0,0,1,.67-.15,1.66,1.66,0,0,1,.69.16l.22.11a1.47,1.47,0,0,0,1.43-2.56l-5.66-3.58a1.56,1.56,0,0,1-.67-1.9,1.7,1.7,0,0,1,1.26-1,1.81,1.81,0,0,1,1.68.47l2.62,2.57a3.32,3.32,0,0,0,4.73-.1,3.15,3.15,0,0,0-.24-4.54l-6.65-5.79a1,1,0,0,1-.3-1,1.06,1.06,0,0,1,.69-.69,1.18,1.18,0,0,1,1.09.16l1.33,1a3.28,3.28,0,0,0,2.89.5,3.2,3.2,0,0,0,2.12-1.92A3.15,3.15,0,0,0,33.65,15l-4.17-3.84a.86.86,0,0,1-.27-.59.82.82,0,0,1,.24-.58,1,1,0,0,1,1.51.09l2.5,3.33a1.47,1.47,0,0,0,2.64-1l-.49-6.3a2.56,2.56,0,0,1,1.08-2.25,2.93,2.93,0,0,1,3.35,0A2.52,2.52,0,0,1,41.12,6.1l-.48,6.3a1.47,1.47,0,0,0,.94,1.49,1.49,1.49,0,0,0,1.7-.49l2.5-3.33a1,1,0,0,1,.72-.38,1,1,0,0,1,.78.29.83.83,0,0,1,.25.58.87.87,0,0,1-.28.59L43.09,15a3.15,3.15,0,0,0-.81,3.46,3.18,3.18,0,0,0,2.12,1.92,3.28,3.28,0,0,0,2.89-.5l1.33-1a1.18,1.18,0,0,1,1.09-.16,1.06,1.06,0,0,1,.69.69,1,1,0,0,1-.31,1l-6.64,5.79a3.15,3.15,0,0,0-.24,4.54,3.32,3.32,0,0,0,2.34,1,3.27,3.27,0,0,0,2.38-.94l2.63-2.57a1.8,1.8,0,0,1,1.68-.47,1.7,1.7,0,0,1,1.26,1,1.58,1.58,0,0,1-.67,1.9l-5.67,3.58a1.47,1.47,0,0,0,1.43,2.56l.22-.11a1.6,1.6,0,0,1,1.37,0,1.45,1.45,0,0,1,.78.94v.08a1.26,1.26,0,0,1-1,1.49l-2.09.52a14.65,14.65,0,0,0-7.72,4.78l-.34.42V22.26a1.47,1.47,0,0,0-2.94,0V44.71A13.9,13.9,0,0,0,29.38,40Z"/><path class="a" d="M16.66,40.68a1.44,1.44,0,0,0-.43,1,1.46,1.46,0,0,0,.43,1,1.48,1.48,0,0,0,1,.43,1.52,1.52,0,0,0,1-.43,1.5,1.5,0,0,0,.43-1,1.48,1.48,0,0,0-.43-1,1.52,1.52,0,0,0-1-.43A1.48,1.48,0,0,0,16.66,40.68Z"/><path class="a" d="M76.24,36a4.25,4.25,0,0,0-4.58-3.12l-.38,0,1.4-1.52A7.13,7.13,0,0,0,74,23.73a7.58,7.58,0,0,0-7.94-4.43,7.44,7.44,0,0,0-6.13,4.88l-1.39,4a1.47,1.47,0,0,0,2.78,1l1.39-4a4.54,4.54,0,0,1,3.73-2.93,4.62,4.62,0,0,1,4.86,2.67,4.15,4.15,0,0,1-.79,4.48l-2.89,3.14A2.11,2.11,0,0,0,69.44,36L72,35.76a1.3,1.3,0,0,1,1.42.92,1.08,1.08,0,0,1-.13.84,1.31,1.31,0,0,1-.81.58l-5.06,1.2A3.18,3.18,0,0,0,65,41.83a3.07,3.07,0,0,0,.82,2.67,3.27,3.27,0,0,0,2.75,1l.47-.06a2.29,2.29,0,0,1,1.95.67,2,2,0,0,1,.58,1.69,2.09,2.09,0,0,1-.84,1.37,2.38,2.38,0,0,1-1.76.43l-4.69-.73a3.38,3.38,0,0,0-3.86,2.61,3.31,3.31,0,0,0,1.84,3.66l2.9,1.38a.66.66,0,0,1,.39.8.81.81,0,0,1-1,.48l-5.13-1.56a13.79,13.79,0,0,0-8.29.13l5.8-8.73a1.48,1.48,0,0,0-.42-2,1.46,1.46,0,0,0-2,.42l-6.22,9.36a12.45,12.45,0,0,0-2.06-5.25,1.47,1.47,0,0,0-2.43,1.66,9.32,9.32,0,0,1,.76,9.36q-.24.42-.45.84h0a.76.76,0,0,0-.09.18,26.6,26.6,0,0,0-2.86,12,1.47,1.47,0,0,0,2.94,0A23.75,23.75,0,0,1,46.61,63.4,10.53,10.53,0,0,1,58.52,59l5.14,1.56a3.74,3.74,0,0,0,4.67-2.42,3.59,3.59,0,0,0-1.93-4.32l-2.91-1.39a.37.37,0,0,1-.23-.39.46.46,0,0,1,.54-.32l4.69.73a5.23,5.23,0,0,0,4-1A4.95,4.95,0,0,0,73.06,44a5.23,5.23,0,0,0-4.4-1.53l-.47.06a.29.29,0,0,1-.27-.09.12.12,0,0,1,0-.14.23.23,0,0,1,.19-.17L73.13,41a4.26,4.26,0,0,0,2.64-1.91A4,4,0,0,0,76.24,36Z"/><path class="a" d="M32.7,62h0c-.14-.27-.28-.54-.43-.81a9.43,9.43,0,0,1,.86-9.56,1.47,1.47,0,0,0-2.39-1.71,12.22,12.22,0,0,0-2.2,5.5l-6.41-9.65a1.47,1.47,0,1,0-2.45,1.63l6,9a13.8,13.8,0,0,0-8.29-.13l-5.13,1.56a.82.82,0,0,1-1-.48.68.68,0,0,1,.39-.8l2.91-1.38a3.32,3.32,0,0,0,1.84-3.66,3.39,3.39,0,0,0-3.86-2.61l-4.69.73A2.36,2.36,0,0,1,6,49.15a2.11,2.11,0,0,1-.83-1.37,2,2,0,0,1,.57-1.69,2.31,2.31,0,0,1,2-.67l.47.06a3.28,3.28,0,0,0,2.76-1,3.07,3.07,0,0,0,.82-2.67A3.18,3.18,0,0,0,9.35,39.3L4.29,38.1a1.29,1.29,0,0,1-.81-.58,1.08,1.08,0,0,1-.13-.84,1.29,1.29,0,0,1,1.41-.92L7.29,36a2.13,2.13,0,0,0,2.15-1.16,2.1,2.1,0,0,0-.33-2.36L6.22,29.37a4.15,4.15,0,0,1-.79-4.48,4.62,4.62,0,0,1,4.86-2.67A4.55,4.55,0,0,1,14,25.15l1.39,4a1.47,1.47,0,0,0,2.78-1l-1.4-4a7.42,7.42,0,0,0-6.12-4.88,7.58,7.58,0,0,0-7.94,4.43,7.15,7.15,0,0,0,1.32,7.63l1.4,1.52-.37,0A4.25,4.25,0,0,0,.5,36,4,4,0,0,0,1,39.05,4.21,4.21,0,0,0,3.61,41l5.06,1.2a.23.23,0,0,1,.2.17.17.17,0,0,1,0,.14.29.29,0,0,1-.27.09l-.47-.06A5.25,5.25,0,0,0,3.67,44a4.94,4.94,0,0,0,.62,7.48,5.22,5.22,0,0,0,4,1l4.69-.73a.46.46,0,0,1,.53.32.36.36,0,0,1-.22.39l-2.91,1.39a3.58,3.58,0,0,0-1.93,4.32,3.74,3.74,0,0,0,4.67,2.42L18.21,59A10.54,10.54,0,0,1,30.13,63.4a23.75,23.75,0,0,1,2.58,10.75,1.47,1.47,0,0,0,2.94,0,26.6,26.6,0,0,0-2.86-12Z"/><path class="a" d="M59,43.19a1.48,1.48,0,0,0,1-.43,1.5,1.5,0,0,0,.43-1,1.47,1.47,0,1,0-2.94,0,1.5,1.5,0,0,0,.43,1A1.48,1.48,0,0,0,59,43.19Z"/></svg>