<svg xmlns="http://www.w3.org/2000/svg" viewBox="0 0 205.33 53.52"><defs><style>.a{fill:#fff;}</style></defs><title>enter-btn_1</title><path class="a" d="M79.05,30.9c0,.72.63,1.08,1.87,1.08a3.75,3.75,0,0,0,2.38-.86V30a7.34,7.34,0,0,0-2.09-.28Q79.05,29.73,79.05,30.9Z"/><path class="a" d="M109.27,30.9c0,.72.63,1.08,1.87,1.08a3.75,3.75,0,0,0,2.38-.86V30a7.34,7.34,0,0,0-2.09-.28Q109.27,29.73,109.27,30.9Z"/><path class="a" d="M0,0V53.52H205.33V0ZM39.36,34.62H26.81V17.82H38.88v3.46H30.46v2.95h4.7v3.46h-4.7v3.45h8.9Zm13.62,0H49.5V28.24a4,4,0,0,0-.44-2.15,1.68,1.68,0,0,0-1.5-.66,2,2,0,0,0-1.65.67,3.48,3.48,0,0,0-.51,2.09v6.43H41.92V22.36H45.4v1.13a4.06,4.06,0,0,1,3.33-1.42,4.46,4.46,0,0,1,3,1.08A4.35,4.35,0,0,1,53,26.65Zm9.84-.26a6.31,6.31,0,0,1-2.79.55q-3.09,0-3.09-3.36V25.41H55.26V22.36h1.68V19l3.45-1.66v5.07h2.67v3.05H60.39v5.8a.64.64,0,0,0,.21.52.71.71,0,0,0,.49.18,5.06,5.06,0,0,0,2.11-.48Zm10.91-8.09a3.34,3.34,0,0,0-2.19-.84c-1.4,0-2.11.85-2.11,2.54v6.65H66V22.36h3.48v1.1a2.67,2.67,0,0,1,.87-.93,2.35,2.35,0,0,1,1.46-.46,3.19,3.19,0,0,1,2.42,1Zm13,8.35H83.3v-.91a3.94,3.94,0,0,1-3,1.2,5.11,5.11,0,0,1-3.32-1,3.64,3.64,0,0,1-1.29-3A3.33,3.33,0,0,1,77.13,28a6,6,0,0,1,3.48-1,6.89,6.89,0,0,1,2.69.43V26.7a1.57,1.57,0,0,0-.53-1.28A2.18,2.18,0,0,0,81.31,25a7.09,7.09,0,0,0-3.94,1.3l-1.08-2.66a9.1,9.1,0,0,1,5.26-1.54q5.2,0,5.21,4.8Zm11.06-8.35a3.34,3.34,0,0,0-2.18-.84c-1.41,0-2.11.85-2.11,2.54v6.65H90.05V22.36h3.48v1.1a2.73,2.73,0,0,1,.86-.93,2.38,2.38,0,0,1,1.47-.46,3.21,3.21,0,0,1,2.42,1ZM117,34.62h-3.46v-.91a3.94,3.94,0,0,1-3,1.2,5.11,5.11,0,0,1-3.32-1,3.64,3.64,0,0,1-1.29-3A3.33,3.33,0,0,1,107.35,28a6,6,0,0,1,3.48-1,6.89,6.89,0,0,1,2.69.43V26.7a1.57,1.57,0,0,0-.53-1.28,2.18,2.18,0,0,0-1.46-.45,7.09,7.09,0,0,0-3.94,1.3l-1.08-2.66a9.07,9.07,0,0,1,5.26-1.54q5.2,0,5.21,4.8Zm6.82,0h-3.48V18.93l3.48-1.64Zm17.7-.72a5.81,5.81,0,0,1-3.58,1,6.85,6.85,0,0,1-2.91-.64,5,5,0,0,1-2.13-1.69l2.23-1.89a5.88,5.88,0,0,0,1.29.93,3.32,3.32,0,0,0,1.61.43c1.14,0,1.7-.32,1.7-1a.8.8,0,0,0-.44-.7,10.73,10.73,0,0,0-1.64-.74A10.48,10.48,0,0,1,134.31,28a3.06,3.06,0,0,1-1-2.46A3,3,0,0,1,134.59,23a5.41,5.41,0,0,1,3.25-.94,5.92,5.92,0,0,1,4.61,2L140.19,26a3.44,3.44,0,0,0-2.35-1c-1,0-1.44.26-1.44.79s.8.94,2.4,1.34a14.87,14.87,0,0,1,1.43.54,8,8,0,0,1,1.24.72,3.19,3.19,0,0,1,1,1.17,3.55,3.55,0,0,1,.34,1.6A3.32,3.32,0,0,1,141.5,33.9Zm7.55.72h-3.48V22.36h3.48Zm-.31-14a1.87,1.87,0,0,1-1.41.59,1.93,1.93,0,0,1-1.42-.59,1.89,1.89,0,0,1-.6-1.4,1.85,1.85,0,0,1,.59-1.39,2,2,0,0,1,2.84,0,1.89,1.89,0,0,1,.58,1.4A2,2,0,0,1,148.74,20.59ZM159,34.36a6.26,6.26,0,0,1-2.78.55q-3.11,0-3.1-3.36V25.41h-1.68V22.36h1.68V19l3.46-1.66v5.07h2.66v3.05H156.6v5.8a.64.64,0,0,0,.2.52.72.72,0,0,0,.49.18,5,5,0,0,0,2.11-.48Zm6.59.26h-3.48V22.36h3.48Zm-.31-14a1.86,1.86,0,0,1-1.41.59,1.93,1.93,0,0,1-1.42-.59,1.93,1.93,0,0,1,0-2.79,2,2,0,0,1,1.43-.58,1.92,1.92,0,0,1,1.41.57,1.85,1.85,0,0,1,.58,1.4A1.91,1.91,0,0,1,165.3,20.59Zm13,12.62a5.9,5.9,0,0,1-8.29,0,6.81,6.81,0,0,1-1.53-4.71A6.84,6.84,0,0,1,170,23.8a5.81,5.81,0,0,1,8.27,0,6.88,6.88,0,0,1,1.52,4.7A6.85,6.85,0,0,1,178.28,33.21Z"/><path class="a" d="M174.15,25.43a1.89,1.89,0,0,0-1.61.82,3.71,3.71,0,0,0-.6,2.25,3.71,3.71,0,0,0,.6,2.25,1.92,1.92,0,0,0,1.61.8,1.86,1.86,0,0,0,1.6-.8,3.94,3.94,0,0,0,.56-2.25,3.94,3.94,0,0,0-.56-2.25A1.83,1.83,0,0,0,174.15,25.43Z"/></svg>