<svg xmlns="http://www.w3.org/2000/svg" viewBox="0 0 253.23 49.6"><title>logo-belsh</title><path d="M0,.85H28.86c5,0,9,1,11.94,3.09S45.17,9,45.17,13a10.54,10.54,0,0,1-1.11,5,11.11,11.11,0,0,1-2.71,3.45A12.65,12.65,0,0,1,38,23.57a16.92,16.92,0,0,1-3.06,1v.61a22.81,22.81,0,0,1,3.34.59A11.17,11.17,0,0,1,42,27.41a10.16,10.16,0,0,1,3,3.33,10.72,10.72,0,0,1,1.27,5.56,11.15,11.15,0,0,1-1.43,5.83A11.29,11.29,0,0,1,41.11,46a17.6,17.6,0,0,1-5.57,2.12,32.63,32.63,0,0,1-6.68.65H0V38.64H3.69V11H0Zm24.25,20.2a3.56,3.56,0,0,0,2.68-.93,4.26,4.26,0,0,0,.88-3V14.89a4.23,4.23,0,0,0-.88-3A3.55,3.55,0,0,0,24.25,11H20.92V21.05Zm.43,17.59a3.58,3.58,0,0,0,2.68-.92,4.25,4.25,0,0,0,.9-3V32a4.31,4.31,0,0,0-.9-3,3.59,3.59,0,0,0-2.68-.93H20.92V38.64Z"/><path d="M83.45,11H76v9.72h5.41v7H76v11h7.44V28.93h13.8V48.74H55.08V38.64h3.7V11h-3.7V.85H97.25V19.44H83.45Z"/><path d="M106.47.85h26.58V11H127.4V38.64h5.52V33h12.25V48.74h-38.7V38.64h3.7V11h-3.7Z"/><path d="M171.57,37.72a5.28,5.28,0,0,0,2.9-.61,2.14,2.14,0,0,0,.85-1.85,2,2,0,0,0-.7-1.51,10.44,10.44,0,0,0-2.87-1.5c-3-1.16-5.68-2.25-8-3.29a25.15,25.15,0,0,1-5.66-3.48A12.2,12.2,0,0,1,154.77,21a15.49,15.49,0,0,1-1.1-6.18,16.78,16.78,0,0,1,1.07-6.19A11.33,11.33,0,0,1,158.25,4,17,17,0,0,1,164.71,1a41.79,41.79,0,0,1,9.94-1,45.9,45.9,0,0,1,10.09,1.08,28.89,28.89,0,0,1,7.88,2.86V15H179.7a2.68,2.68,0,0,0-1-2.43,4.2,4.2,0,0,0-2.4-.65,6,6,0,0,0-2.92.52,1.92,1.92,0,0,0-.9,1.81,1.61,1.61,0,0,0,.95,1.54,21.32,21.32,0,0,0,2.87,1.12c2.38.78,4.63,1.59,6.75,2.45a22.59,22.59,0,0,1,5.56,3.2,14.22,14.22,0,0,1,3.79,4.62,14.65,14.65,0,0,1,1.39,6.64q0,8-5.18,11.9T173.48,49.6a59.56,59.56,0,0,1-10.9-1,41.54,41.54,0,0,1-8.36-2.33V34.09h13.53a4.32,4.32,0,0,0,.74,2.75C169,37.43,170,37.72,171.57,37.72Z"/><path d="M229.17.85h24.06V11h-3.68V38.64h3.68v10.1H229.17V38.64h3.14V28.5h-9.23V38.64h3.14v10.1H202.16V38.64h3.68V11h-3.68V.85h24.06V11h-3.14V20.3h9.23V11h-3.14Z"/></svg>