<svg xmlns="http://www.w3.org/2000/svg" viewBox="0 0 229.93 45.03"><defs><style>.a{fill:#fff;}</style></defs><title>logo-belsh-white</title><path class="a" d="M0,.77H26.21q6.85,0,10.84,2.81a9.4,9.4,0,0,1,4,8.21,9.58,9.58,0,0,1-1,4.57,10.44,10.44,0,0,1-2.46,3.14,11.91,11.91,0,0,1-3,1.9,14.92,14.92,0,0,1-2.78.9v.55a22.08,22.08,0,0,1,3,.54,10.29,10.29,0,0,1,3.4,1.5,9.22,9.22,0,0,1,2.77,3A9.76,9.76,0,0,1,42.08,33a10.11,10.11,0,0,1-1.29,5.29,10.25,10.25,0,0,1-3.47,3.49,15.91,15.91,0,0,1-5,1.93,29.6,29.6,0,0,1-6.06.59H0V35.08H3.35V10H0ZM22,19.11a3.24,3.24,0,0,0,2.44-.84,3.87,3.87,0,0,0,.8-2.74v-2a3.82,3.82,0,0,0-.8-2.73A3.2,3.2,0,0,0,22,10H19v9.15Zm.4,16a3.27,3.27,0,0,0,2.44-.83,3.9,3.9,0,0,0,.81-2.74V29.05a3.89,3.89,0,0,0-.81-2.73,3.27,3.27,0,0,0-2.44-.85H19v9.61Z"/><path class="a" d="M75.77,10H69v8.82h4.91v6.36H69v9.94h6.76V26.26H88.3v18H50V35.08h3.36V10H50V.77H88.3V17.65H75.77Z"/><path class="a" d="M96.67.77h24.14V10h-5.14V35.08h5V30h11.12V44.26H96.67V35.08H100V10H96.67Z"/><path class="a" d="M155.78,34.25a4.81,4.81,0,0,0,2.63-.55,2,2,0,0,0,.78-1.68,1.78,1.78,0,0,0-.64-1.37,9.65,9.65,0,0,0-2.6-1.37c-2.77-1.05-5.16-2-7.24-3a22.27,22.27,0,0,1-5.14-3.16,10.94,10.94,0,0,1-3-4.05,13.9,13.9,0,0,1-1-5.61,15.1,15.1,0,0,1,1-5.62,10.24,10.24,0,0,1,3.19-4.26A15.47,15.47,0,0,1,149.55.92a37.85,37.85,0,0,1,9-.92,42,42,0,0,1,9.16,1,26.22,26.22,0,0,1,7.15,2.6v10H163.17a2.44,2.44,0,0,0-.9-2.2,3.84,3.84,0,0,0-2.18-.59,5.51,5.51,0,0,0-2.66.47,1.75,1.75,0,0,0-.82,1.64,1.46,1.46,0,0,0,.87,1.4,18.74,18.74,0,0,0,2.61,1c2.16.7,4.19,1.44,6.12,2.22a20.92,20.92,0,0,1,5.06,2.91,12.7,12.7,0,0,1,3.43,4.2,13.2,13.2,0,0,1,1.26,6c0,4.85-1.56,8.44-4.69,10.81S163.55,45,157.52,45a54.1,54.1,0,0,1-9.9-.88A37.23,37.23,0,0,1,140,42V31h12.28a3.89,3.89,0,0,0,.68,2.5A3.64,3.64,0,0,0,155.78,34.25Z"/><path class="a" d="M208.08.77h21.85V10h-3.35V35.08h3.35v9.18H208.08V35.08h2.85V25.87h-8.38v9.21h2.85v9.18H183.56V35.08h3.34V10h-3.34V.77H205.4V10h-2.85v8.47h8.38V10h-2.85Z"/></svg>