<svg xmlns="http://www.w3.org/2000/svg" viewBox="0 0 99.05 197.6"><defs><style>.a{fill:#ffd600;fill-rule:evenodd;}</style></defs><title>logo-piss</title><path class="a" d="M0,4v189.7a3.63,3.63,0,0,0,4,3.95H63.23c15.83,0,26.7-5.74,32-16.74q-7.29-.13-14.57-.11a36.25,36.25,0,0,1,9-.8h2.22c-3-11.34-7.32-22.11-13.89-31.85A60.39,60.39,0,0,0,63.71,133.2c-2.36-1.74-4.63-3.58-8-2.81.6,1.61,1.34,3.3,1.83,5.07a82.19,82.19,0,0,1,2.28,9.73A14.27,14.27,0,0,1,56,157.34a43.77,43.77,0,0,0-7.41,12.4,1.69,1.69,0,0,0,.74,2.47q2,1.14,4.06,2.18c1.32.66,2.73,1.18,4,2s2.21,1.35,3.61.53c.27-.16,1.21.17,1.23.35a12.66,12.66,0,0,1,.23,3.7c-10.37.15-20.71.32-31.08.25.05-.32.09-.64.11-1,.21-2.86,2-4.47,3.1-6.66a14.38,14.38,0,0,0,1.13-5.24c.37-4.6.22-9.29,2-13.63C39,151.78,40.5,149,42,146c-3.92-1.91-6.34-6-9.5-9.27A24.74,24.74,0,0,0,28.08,133c-6-3.86-6.33-10.17-4.53-15.43a63.25,63.25,0,0,0,2.6-7.61c1-5.11-.72-9.88-2.5-14.57C22,91,20.07,86.76,18.72,82.31c-2.16-7.14-1.7-14,3.13-20.16A25.57,25.57,0,0,1,25.17,59c2.1-1.85,2.11-3.07-.19-4.71a42.28,42.28,0,0,0-4.39-2.61c-2.91-1.56-3.86-4-3.62-7.16.09-1.29.74-1.45,1.56-.65,1.2,1.14,1.75.31,1.89-.68a11.61,11.61,0,0,0,0-4C19,32.8,21.86,27.46,28,25.17a3.71,3.71,0,0,0,2-1.59c1.81-4,6.63-5.58,11.54-4.12a16.76,16.76,0,0,1,4.17,1.92c1.84,1.17,3.32,2.83,5.88,2.73.91,0,2,1.23,2.8,2.08a67.71,67.71,0,0,1,5.14,5.72c.94,1.2,2,2.71,2.05,4.11a7.64,7.64,0,0,0,3.17,6.35c3.15,2.37,2.26,7.72-.6,9.6a3.73,3.73,0,0,1-1.45.75c-1.95.2-2.94,1.64-4.19,2.86C57,57,55.21,58.15,53.63,59.47a3.86,3.86,0,0,0-1.12,1.6,4.37,4.37,0,0,0,0,1.8c.2,1.53.12,2.57-2,2.71-1,.06-2.13,1.09-2.94,1.94-1.66,1.69-3.36,3.15-6.15,3.16.82,1.36,1.49,2.53,2.23,3.65a26.18,26.18,0,0,1,4,9.32,34,34,0,0,0,4.58,11.23c3.26,5.29,3.5,11,2.4,16.87a4.67,4.67,0,0,0,.35,2.46,17.32,17.32,0,0,0,1.48,2.56,8.88,8.88,0,0,1,1.32,6.62,5.81,5.81,0,0,0,.89,4.35c1.3,2.2,3.36,3.24,5.1,4.44,11.35,7.83,18.62,18.41,23.75,31,2.06,5.07,3.5,10.39,5.14,15.62a1.73,1.73,0,0,0,1.77,1.49c.31,0,.64,0,1,.06,2.35-5.05,3.57-11.19,3.57-18.36V116.59c0-9.14-6.67-16.06-15.57-17.54v-.49c8.9-1.48,15.57-8.4,15.57-17.54V35.57C99.05,12.35,86.45,0,63.23,0H4C1.48,0,0,1.24,0,4"/></svg>