<svg xmlns="http://www.w3.org/2000/svg" viewBox="0 0 54.22 62.46"><defs><style>.a{fill:#fff;}</style></defs><title>lupulo-icon-white</title><path class="a" d="M54.21,27.82a21.66,21.66,0,0,0-4.32-11.4A21.22,21.22,0,0,0,42,10.28,33.35,33.35,0,0,0,30,7.44l-.5,0a34.85,34.85,0,0,0-4.57,0l-.79.05c-4.65.27-13.31,1.67-19,7.93a.75.75,0,0,0-.21.57.82.82,0,0,0,.26.55.8.8,0,0,0,1.13-.06C12.16,10.06,21.46,9.1,25.2,9c1.25,0,2.51,0,3.75,0a32.92,32.92,0,0,1,12.34,2.74C48.05,14.86,51.86,20.33,52.62,28a1.22,1.22,0,0,1-.29,1,2.81,2.81,0,0,1-2.06.47A20.35,20.35,0,0,1,40,26.24a13.6,13.6,0,0,1-4.53-4.58.78.78,0,0,0-.53-.39.8.8,0,0,0-.67.15c-.28.21-.29.55-.3.91v.09a9.5,9.5,0,0,1-1.77,5.13,11.1,11.1,0,0,1-3.77,3.32l-.64.32a1.44,1.44,0,0,1-1.15,0c-.17-.07-.34-.16-.5-.24l-.22-.12a10.23,10.23,0,0,1-5.56-8.79.82.82,0,0,0-.44-.75.79.79,0,0,0-1.06.33,13.72,13.72,0,0,1-4.52,4.57A21,21,0,0,1,3,29.5,1.39,1.39,0,0,1,1.6,28a21,21,0,0,1,2.74-8.75.82.82,0,0,0-.18-1.08A.8.8,0,0,0,3.53,18a.82.82,0,0,0-.53.37,22.57,22.57,0,0,0-3,9.46A3,3,0,0,0,.69,30a2.93,2.93,0,0,0,2,1.08h.11l0,.11a14.42,14.42,0,0,0,.68,11.24,3,3,0,0,0,2.32,1.63h.08v.07a13.44,13.44,0,0,0,7.7,12,3,3,0,0,0,2.64,0,14,14,0,0,0,2.55-1.6l.1-.08,0,.11a13.65,13.65,0,0,0,6.9,7.55,3.05,3.05,0,0,0,2.64,0,13.65,13.65,0,0,0,6.9-7.55l0-.11.1.08A14.36,14.36,0,0,0,38,56.18a3,3,0,0,0,2.64,0,14,14,0,0,0,4.69-3.7.81.81,0,0,0,0-1,.79.79,0,0,0-.61-.3h0a.8.8,0,0,0-.61.3A12.63,12.63,0,0,1,40,54.76a1.42,1.42,0,0,1-1.24,0,12.2,12.2,0,0,1-6.23-7,11.46,11.46,0,0,1-.55-2.65V45h0a13.46,13.46,0,0,0,3.62-5.89l0-.16.11.13a15.16,15.16,0,0,0,4.85,3.67,14.38,14.38,0,0,0,6.09,1.42h.09v.09a11.24,11.24,0,0,1-.87,4.24.82.82,0,0,0,.35,1,.8.8,0,0,0,1.11-.39,13.11,13.11,0,0,0,1-5v-.07h.07a3,3,0,0,0,2.32-1.63,14.42,14.42,0,0,0,.68-11.24l0-.11h.12a2.9,2.9,0,0,0,1.91-.95A3,3,0,0,0,54.21,27.82ZM6,42.49a1.39,1.39,0,0,1-1.08-.76h0a13,13,0,0,1-.37-10.66l0-.05h.14a23.12,23.12,0,0,0,7.59-1.87,18.94,18.94,0,0,0,6.54-4.79l.11-.14,0,.18a11.19,11.19,0,0,0,1.68,3.89v0A13.56,13.56,0,0,1,9.26,42.43,12.59,12.59,0,0,1,6,42.49Zm12.74,10a12.42,12.42,0,0,1-3.21,2.24h0a1.32,1.32,0,0,1-.62.15,1.35,1.35,0,0,1-.62-.15,11.87,11.87,0,0,1-6.81-10.5v-.09h.09a15.41,15.41,0,0,0,2-.15,15.17,15.17,0,0,0,8.94-4.88l.16-.18.05.15A13.46,13.46,0,0,0,22.25,45l0,0v.05c0,.27-.05.52-.09.76A11.89,11.89,0,0,1,18.71,52.51Zm15.18.61,0,0,.12.13,0,0v0a12.16,12.16,0,0,1-6.34,7.37,1.44,1.44,0,0,1-.62.14,1.48,1.48,0,0,1-.62-.14,12.16,12.16,0,0,1-6.34-7.37v0l0,0,.1-.12,0-.05A13.38,13.38,0,0,0,23.59,47c.05-.24.09-.43.12-.62l0-.14.11.08c.3.21.6.41.92.59s.68.39,1,.56a3.05,3.05,0,0,0,2.64,0,15.22,15.22,0,0,0,1.94-1.15l.11-.08,0,.14s.09.46.13.63A13.29,13.29,0,0,0,33.89,53.12Zm.47-15.69a11.9,11.9,0,0,1-3.77,6.67A12.57,12.57,0,0,1,27.73,46a1.44,1.44,0,0,1-1.24,0,12.9,12.9,0,0,1-2.86-1.92,12,12,0,0,1-3.53-5.62c-.1-.36-.19-.77-.26-1.18v0l0,0c.33-.51.91-1.61.91-1.62a15,15,0,0,0,1.45-5.26l0-.19.13.13a13.11,13.11,0,0,0,3,2.09,4.25,4.25,0,0,0,1.76.53,3.84,3.84,0,0,0,1.81-.53,13.28,13.28,0,0,0,3-2.09l.15-.14v.2a15.23,15.23,0,0,0,1.45,5.26c.13.27.74,1.36.91,1.62l0,0Zm15,4.3c-.37.74-1.13.78-1.81.82h0l-.66,0a13.39,13.39,0,0,1-10.55-5.36,13.62,13.62,0,0,1-2.74-7.73,11.37,11.37,0,0,1,0-1.16v0a11.19,11.19,0,0,0,1.68-3.89l0-.18.11.14a15.32,15.32,0,0,0,1.26,1.3,19.4,19.4,0,0,0,7.09,4.19A23.7,23.7,0,0,0,49.54,31h.14l0,.05A13,13,0,0,1,49.33,41.73Z"/><path class="a" d="M28.93,6.4h-.11a.64.64,0,0,1-.52-.74L29,1.84a.48.48,0,0,0-.11-.4.47.47,0,0,0-.36-.17h-3.7a.48.48,0,0,0-.37.17.48.48,0,0,0-.11.4l.7,3.81a.64.64,0,1,1-1.25.23l-.7-3.82A1.75,1.75,0,0,1,24.83,0h3.7a1.73,1.73,0,0,1,1.34.63,1.76,1.76,0,0,1,.38,1.43l-.7,3.82A.63.63,0,0,1,28.93,6.4Z"/></svg>