<svg xmlns="http://www.w3.org/2000/svg" viewBox="0 0 57.18 62.25"><defs><style>.a{fill:#fff;}</style></defs><title>malta-icon-white</title><path class="a" d="M9,13a.73.73,0,0,0,.35-1,8.16,8.16,0,0,1-.75-3.49,11.14,11.14,0,0,1,2.13-6.47l.19-.26.19.26a11.07,11.07,0,0,1,2.13,6.47A8.16,8.16,0,0,1,12.48,12a.73.73,0,0,0,0,.56.74.74,0,0,0,.93.44.75.75,0,0,0,.42-.38,9.78,9.78,0,0,0,.88-4.11A12.18,12.18,0,0,0,11.42.2a.75.75,0,0,0-1,0A12.23,12.23,0,0,0,7.13,8.55,9.64,9.64,0,0,0,8,12.66.73.73,0,0,0,9,13Z"/><path class="a" d="M13.4,22.6a.73.73,0,0,0-.58.85.75.75,0,0,0,.86.58,10.3,10.3,0,0,0,5.51-2.93c3.53-3.65,2.5-8.64,2.46-8.85a.73.73,0,0,0-.71-.57,12.2,12.2,0,0,0-8.16,3.72,9.89,9.89,0,0,0-1.66,2.25l-.21.38-.2-.38A10.19,10.19,0,0,0,9.05,15.4,12.24,12.24,0,0,0,.89,11.68a.75.75,0,0,0-.72.57c0,.21-1.07,5.19,2.47,8.85A10.23,10.23,0,0,0,8.15,24,.73.73,0,0,0,9,23.45a.71.71,0,0,0-.58-.85,8.73,8.73,0,0,1-4.73-2.51A8.63,8.63,0,0,1,1.5,13.44v-.25l.25,0A11,11,0,0,1,8,16.42a7.82,7.82,0,0,1,2.27,4.65v7l-.42-.54A11.21,11.21,0,0,0,9,26.64,12.2,12.2,0,0,0,.89,22.92a.75.75,0,0,0-.72.57c0,.21-1.07,5.2,2.47,8.85a10.23,10.23,0,0,0,5.51,2.93A.72.72,0,0,0,9,34.69a.71.71,0,0,0-.58-.85,8.73,8.73,0,0,1-4.73-2.51,8.68,8.68,0,0,1-2.2-6.65l0-.25.25,0A11.1,11.1,0,0,1,8,27.66a7.82,7.82,0,0,1,2.27,4.65v7.3l-.42-.53A8.69,8.69,0,0,0,9,38.15,12.19,12.19,0,0,0,.89,34.42.75.75,0,0,0,.17,35c0,.21-1.07,5.2,2.47,8.85a10.28,10.28,0,0,0,5.51,2.92A.72.72,0,0,0,9,46.19a.69.69,0,0,0-.11-.54.76.76,0,0,0-.47-.31,8.67,8.67,0,0,1-4.73-2.51,8.68,8.68,0,0,1-2.2-6.65l0-.25.25,0A11.1,11.1,0,0,1,8,39.16a7.87,7.87,0,0,1,2.27,4.66V61.05a.71.71,0,0,0,.66.72.72.72,0,0,0,.62-.72V43.8a7.76,7.76,0,0,1,2.27-4.64A11.07,11.07,0,0,1,20.06,36l.25,0,0,.25a8.71,8.71,0,0,1-2.19,6.65,8.73,8.73,0,0,1-4.74,2.51.74.74,0,0,0-.58.85.72.72,0,0,0,.86.58,10.24,10.24,0,0,0,5.5-2.93c3.54-3.64,2.51-8.63,2.47-8.84a.73.73,0,0,0-.71-.58,12.19,12.19,0,0,0-8.16,3.73,10,10,0,0,0-.81.93l-.42.53V32.32a7.73,7.73,0,0,1,2.27-4.66,11.1,11.1,0,0,1,6.23-3.2l.25,0,0,.25a8.71,8.71,0,0,1-2.19,6.65,8.8,8.8,0,0,1-4.74,2.51.73.73,0,1,0,.28,1.43,10.3,10.3,0,0,0,5.51-2.93c3.53-3.65,2.5-8.64,2.46-8.85a.73.73,0,0,0-.71-.57,12.2,12.2,0,0,0-8.16,3.72c-.29.3-.56.62-.81.93l-.42.54v-7a7.73,7.73,0,0,1,2.27-4.66,11,11,0,0,1,6.23-3.2l.25,0,0,.25a8.71,8.71,0,0,1-2.19,6.65A8.8,8.8,0,0,1,13.4,22.6Z"/><path class="a" d="M44.35,13.49a.71.71,0,0,0,.37-.41.72.72,0,0,0,0-.56A8.21,8.21,0,0,1,44,9a11.14,11.14,0,0,1,2.13-6.46l.19-.26.19.26A11.06,11.06,0,0,1,48.59,9a8.21,8.21,0,0,1-.75,3.5.73.73,0,0,0,.36,1,.7.7,0,0,0,.55,0,.71.71,0,0,0,.42-.38A9.75,9.75,0,0,0,50.05,9,12.2,12.2,0,0,0,46.78.67a.76.76,0,0,0-1,0A12.23,12.23,0,0,0,42.49,9a9.61,9.61,0,0,0,.89,4.11A.73.73,0,0,0,44.35,13.49Z"/><path class="a" d="M57,35.47a.73.73,0,0,0-.72-.57,12.2,12.2,0,0,0-8.15,3.72,11.46,11.46,0,0,0-.81.93l-.42.54v-7.3a7.73,7.73,0,0,1,2.27-4.66,11,11,0,0,1,6.23-3.19l.25,0,0,.25A8.7,8.7,0,0,1,53.5,31.8a8.73,8.73,0,0,1-4.74,2.51.74.74,0,0,0-.58.85.72.72,0,0,0,.86.58,10.29,10.29,0,0,0,5.5-2.92C58.08,29.17,57.05,24.18,57,24a.73.73,0,0,0-.72-.58,12.19,12.19,0,0,0-8.15,3.73,11.72,11.72,0,0,0-.81.93l-.42.53v-7a7.75,7.75,0,0,1,2.27-4.67,11.07,11.07,0,0,1,6.23-3.19l.25,0,0,.25a8.7,8.7,0,0,1-2.19,6.65,8.73,8.73,0,0,1-4.74,2.51.74.74,0,0,0-.58.85.73.73,0,0,0,.86.58,10.29,10.29,0,0,0,5.5-2.92c3.54-3.65,2.51-8.64,2.47-8.85a.73.73,0,0,0-.71-.58,12.19,12.19,0,0,0-8.16,3.73,9.84,9.84,0,0,0-1.66,2.24l-.21.39-.2-.39a10.14,10.14,0,0,0-1.66-2.24,12.22,12.22,0,0,0-8.16-3.73.75.75,0,0,0-.72.58c0,.21-1.07,5.19,2.47,8.85a10.29,10.29,0,0,0,5.5,2.92.73.73,0,0,0,.86-.58.69.69,0,0,0-.11-.54.76.76,0,0,0-.47-.31,8.67,8.67,0,0,1-4.73-2.51,8.67,8.67,0,0,1-2.2-6.65l0-.25.25,0a11.07,11.07,0,0,1,6.24,3.19,7.87,7.87,0,0,1,2.27,4.66v7l-.42-.53a10,10,0,0,0-.81-.93,12.19,12.19,0,0,0-8.15-3.73.75.75,0,0,0-.72.58c0,.21-1.08,5.18,2.47,8.85a10.29,10.29,0,0,0,5.5,2.92.72.72,0,0,0,.86-.58.74.74,0,0,0-.58-.85,8.31,8.31,0,0,1-6.93-9.16l0-.25.25,0a11.07,11.07,0,0,1,6.24,3.19,7.87,7.87,0,0,1,2.27,4.66v7.3l-.42-.54a11.21,11.21,0,0,0-.81-.93,12.2,12.2,0,0,0-8.15-3.72.75.75,0,0,0-.72.57c0,.21-1.07,5.19,2.47,8.85a10.3,10.3,0,0,0,5.5,2.93.74.74,0,0,0,.86-.58.71.71,0,0,0-.58-.85,8.31,8.31,0,0,1-6.93-9.16l0-.26.25,0a11.06,11.06,0,0,1,6.24,3.2,7.82,7.82,0,0,1,2.27,4.65V61.52a.65.65,0,1,0,1.28,0V44.28a7.71,7.71,0,0,1,2.27-4.64,11,11,0,0,1,6.23-3.2l.25,0,0,.26a8.29,8.29,0,0,1-6.93,9.16.73.73,0,0,0-.58.85.74.74,0,0,0,.86.58,10.3,10.3,0,0,0,5.5-2.93C58.08,40.67,57.05,35.68,57,35.47Z"/></svg>