<svg xmlns="http://www.w3.org/2000/svg" viewBox="0 0 77.81 77.81"><defs><style>.a{fill:#fff;stroke:#54c0e8;stroke-miterlimit:10;stroke-width:0.25px;}</style></defs><title>naranja-icon</title><path class="a" d="M38.9,77.68a38.78,38.78,0,0,1-27.42-66.2,38.8,38.8,0,0,1,43.88-7.7,1.14,1.14,0,0,1-1,2.06A36.51,36.51,0,0,0,2.4,38.9,36.51,36.51,0,0,0,64.72,64.72a36.54,36.54,0,0,0,6-43.68,36.86,36.86,0,0,0-12.32-13,1.14,1.14,0,0,1,1.22-1.92,38.77,38.77,0,0,1,18,32.77A38.75,38.75,0,0,1,38.9,77.68Z"/><path class="a" d="M38.9,72.38a33.28,33.28,0,0,1-23.67-9.8c-.67-.68-1.33-1.39-1.94-2.11a1.15,1.15,0,0,1,.14-1.61A1.14,1.14,0,0,1,15,59c.57.68,1.18,1.34,1.81,2a31,31,0,1,0-4.34-5.41,1.14,1.14,0,1,1-1.92,1.22A33.51,33.51,0,1,1,38.9,72.38Z"/><path class="a" d="M32.49,31l-6.42-6.42a6.89,6.89,0,0,1-1.89-6.3,6.68,6.68,0,0,1,4.21-4.91,7,7,0,0,1,6.46.72,6.74,6.74,0,0,1,3,5.62v9.08a3,3,0,0,1-1.93,2.89,3.58,3.58,0,0,1-3.4-.68ZM29.22,15.43A4.75,4.75,0,0,0,26.4,18.7a4.62,4.62,0,0,0,1.28,4.22l6.42,6.42a.83.83,0,0,0,.92.19.82.82,0,0,0,.52-.79V19.66a4.47,4.47,0,0,0-2-3.74,5,5,0,0,0-4.35-.49Z"/><path class="a" d="M41.93,31.63A3,3,0,0,1,40,28.74V19.66a6.89,6.89,0,0,1,3.11-5.79,6.71,6.71,0,0,1,6.46-.49,7,7,0,0,1,4.05,5.08,6.71,6.71,0,0,1-1.88,6.07L45.33,31a3.36,3.36,0,0,1-3.4.68Zm2.43-15.86a4.64,4.64,0,0,0-2.08,3.89v9.08a.82.82,0,0,0,.52.79.83.83,0,0,0,.92-.19l6.42-6.42a4.47,4.47,0,0,0,1.26-4,4.82,4.82,0,0,0-2.74-3.42,4.63,4.63,0,0,0-4.3.31Z"/><path class="a" d="M58.14,37.82a1.14,1.14,0,0,1,0-2.28,4.47,4.47,0,0,0,3.75-2,4.67,4.67,0,0,0,.48-4.35,4.43,4.43,0,0,0-3.26-2.82,4.61,4.61,0,0,0-4.22,1.28L48.47,34.1a.84.84,0,0,0,.59,1.44h4.46a1.14,1.14,0,0,1,0,2.28H49.06a3.12,3.12,0,0,1-2.2-5.33l6.42-6.42a6.89,6.89,0,0,1,6.3-1.89,6.68,6.68,0,0,1,4.91,4.21,7,7,0,0,1-.72,6.46,6.74,6.74,0,0,1-5.63,3Z"/><path class="a" d="M53.25,51.75l-6.42-6.42A3.12,3.12,0,0,1,49,40h9.08a6.88,6.88,0,0,1,5.79,3.11,6.71,6.71,0,0,1,.49,6.46h0a6.76,6.76,0,0,1-5.07,4.05,7.06,7.06,0,0,1-6.08-1.88ZM49,42.28a.85.85,0,0,0-.6,1.44l6.42,6.42a4.48,4.48,0,0,0,4,1.26,4.69,4.69,0,0,0,3.41-2.73A4.48,4.48,0,0,0,62,44.36a4.63,4.63,0,0,0-3.89-2.08Z"/><path class="a" d="M43,63.8a6.72,6.72,0,0,1-3-5.63V49.09a3.13,3.13,0,0,1,5.33-2.21l6.42,6.43a6.87,6.87,0,0,1,1.89,6.29,5.8,5.8,0,0,1-4.22,4.92A7.79,7.79,0,0,1,43,63.8Zm-.17-15.49a.79.79,0,0,0-.52.78v9.08a4.48,4.48,0,0,0,2,3.75,4.67,4.67,0,0,0,4.35.48,4.46,4.46,0,0,0,2.82-3.26,4.63,4.63,0,0,0-1.28-4.23l-6.42-6.42a.8.8,0,0,0-.92-.18Z"/><path class="a" d="M28.24,64.4a6.51,6.51,0,0,1-4-5.07,6.72,6.72,0,0,1,1.88-6.08l6.42-6.42A3.13,3.13,0,0,1,37.82,49v9.08a6.89,6.89,0,0,1-3.12,5.79,6.73,6.73,0,0,1-6.46.49Zm5.86-16-6.42,6.42a4.48,4.48,0,0,0-1.26,4,4.68,4.68,0,0,0,2.74,3.41,4.47,4.47,0,0,0,4.3-.31,4.63,4.63,0,0,0,2.08-3.89V49a.79.79,0,0,0-.52-.78.87.87,0,0,0-.92.18Z"/><path class="a" d="M19.61,53.75c-3.82-.18-5.46-2.16-6.32-4.36A7,7,0,0,1,14,42.93a6.73,6.73,0,0,1,5.63-3h9.08a3.11,3.11,0,0,1,2.2,5.32L24.5,51.71a6.91,6.91,0,0,1-4.89,2Zm-4.2-5.19a4.46,4.46,0,0,0,3.26,2.82,4.62,4.62,0,0,0,4.23-1.27l6.42-6.42a.82.82,0,0,0,.18-.93.8.8,0,0,0-.78-.52H19.64a4.48,4.48,0,0,0-3.75,2,4.67,4.67,0,0,0-.48,4.35Z"/><path class="a" d="M28.77,37.82H19.69A6.89,6.89,0,0,1,13.9,34.7a6.71,6.71,0,0,1-.49-6.46,6.93,6.93,0,0,1,5.07-4,6.73,6.73,0,0,1,6.08,1.88L31,32.49a3.13,3.13,0,0,1-2.21,5.33ZM15.49,29.16a4.44,4.44,0,0,0,.31,4.3,4.63,4.63,0,0,0,3.89,2.08h9.08a.84.84,0,0,0,.6-1.44L23,27.68a4.48,4.48,0,0,0-4.05-1.26,4.68,4.68,0,0,0-3.41,2.74Z"/></svg>