<svg xmlns="http://www.w3.org/2000/svg" viewBox="0 0 61.73 61.73"><defs><style>.a{fill:#fff;}</style></defs><title>orange-white-icon</title><path class="a" d="M30.86,0A30.87,30.87,0,0,0,9,52.69,30.87,30.87,0,0,0,57.79,15.76a31.05,31.05,0,0,0-10.42-11,.69.69,0,0,0-.73,1.16A29.48,29.48,0,0,1,60.36,30.86,29.49,29.49,0,0,1,10,51.72,29.5,29.5,0,0,1,43.38,4.15a.63.63,0,0,0,.52,0A.68.68,0,0,0,44,2.91h0A30.6,30.6,0,0,0,30.86,0Z"/><path class="a" d="M12.05,49.68a26.44,26.44,0,1,0-3.7-4.61.69.69,0,0,0,1.16-.73,25.25,25.25,0,1,1,46.6-13.48A25.24,25.24,0,0,1,13,48.71c-.5-.5-1-1-1.46-1.59a.7.7,0,0,0-.53-.24.66.66,0,0,0-.44.16.69.69,0,0,0-.24.46.69.69,0,0,0,.16.5C11,48.58,11.51,49.15,12.05,49.68Z"/><path class="a" d="M27.49,11.12a5.3,5.3,0,0,0-3-.93,5.5,5.5,0,0,0-2,.37,5.13,5.13,0,0,0-3.24,3.78,5.28,5.28,0,0,0,1.45,4.84l5.15,5.15a2.61,2.61,0,0,0,2.5.48,2.12,2.12,0,0,0,1.39-2.09V15.44A5.14,5.14,0,0,0,27.49,11.12Zm.91,11.6a.88.88,0,0,1-.56.83.86.86,0,0,1-1-.19L21.7,18.21a3.93,3.93,0,0,1-1.08-3.59A4,4,0,0,1,23,11.84a4.19,4.19,0,0,1,3.69.41,3.81,3.81,0,0,1,1.69,3.19Z"/><path class="a" d="M32,15.44v7.28a2.19,2.19,0,0,0,1.4,2.1,2.46,2.46,0,0,0,2.49-.49L41,19.18a5.15,5.15,0,0,0,1.45-4.67,5.34,5.34,0,0,0-3.12-3.9,5.41,5.41,0,0,0-2.17-.47,5.12,5.12,0,0,0-2.79.84A5.31,5.31,0,0,0,32,15.44Zm3.15-3.31a3.91,3.91,0,0,1,3.67-.26,4,4,0,0,1,2.31,2.9A3.8,3.8,0,0,1,40,18.21l-5.14,5.15a.9.9,0,0,1-.63.27.83.83,0,0,1-.36-.08.87.87,0,0,1-.56-.83V15.44A3.94,3.94,0,0,1,35.12,12.13Z"/><path class="a" d="M46.29,29.77a5.15,5.15,0,0,0,4.32-2.28,5.36,5.36,0,0,0,.56-5,5.14,5.14,0,0,0-3.78-3.24,5.28,5.28,0,0,0-4.84,1.45L37.4,25.88A2.28,2.28,0,0,0,39,29.77h3.57a.69.69,0,0,0,.69-.69.68.68,0,0,0-.69-.68H39a.91.91,0,0,1-.64-1.55l5.15-5.15a3.92,3.92,0,0,1,2.79-1.16,3.56,3.56,0,0,1,.8.08A3.81,3.81,0,0,1,49.89,23a4,4,0,0,1-.41,3.69,3.81,3.81,0,0,1-3.19,1.69.68.68,0,0,0-.69.68A.69.69,0,0,0,46.29,29.77Z"/><path class="a" d="M46.27,32H39a2.28,2.28,0,0,0-1.61,3.89L42.53,41a5.46,5.46,0,0,0,4.67,1.45,5.33,5.33,0,0,0,3.52-8.08A5.29,5.29,0,0,0,46.27,32Zm3.57,6.81h0a4,4,0,0,1-2.9,2.32,3.61,3.61,0,0,1-.73.07A3.78,3.78,0,0,1,43.5,40l-5.15-5.14a.88.88,0,0,1-.2-1,.89.89,0,0,1,.84-.56h7.28a4,4,0,0,1,3.31,1.78A3.78,3.78,0,0,1,49.84,38.78Z"/><path class="a" d="M35.85,37.42a2.27,2.27,0,0,0-1.6-.67A2.3,2.3,0,0,0,32,39v7.28a5.15,5.15,0,0,0,2.28,4.32,6,6,0,0,0,5,.56,4.47,4.47,0,0,0,3.24-3.78A5.31,5.31,0,0,0,41,42.57Zm5.26,9.71a3.79,3.79,0,0,1-2.4,2.78,4.08,4.08,0,0,1-1.47.28A3.89,3.89,0,0,1,35,49.5a3.81,3.81,0,0,1-1.69-3.19V39a.87.87,0,0,1,.58-.84.9.9,0,0,1,1,.2L40,43.54A3.93,3.93,0,0,1,41.11,47.13Z"/><path class="a" d="M28.36,36.89a2.31,2.31,0,0,0-.88-.18,2.25,2.25,0,0,0-1.6.67l-5.15,5.15a5.15,5.15,0,0,0-1.44,4.67,5,5,0,0,0,3.12,3.9,5.18,5.18,0,0,0,5-.38,5.29,5.29,0,0,0,2.4-4.45V39A2.24,2.24,0,0,0,28.36,36.89Zm0,9.38a4,4,0,0,1-1.78,3.31,3.73,3.73,0,0,1-2.05.61,4,4,0,0,1-3.93-3.25A3.81,3.81,0,0,1,21.7,43.5l5.15-5.15a.94.94,0,0,1,1-.2.86.86,0,0,1,.58.84Z"/><path class="a" d="M24.8,33.35a2.24,2.24,0,0,0-2.1-1.41H15.42a5.17,5.17,0,0,0-4.33,2.28,5.35,5.35,0,0,0-.55,5,5,5,0,0,0,4.87,3.35A5.25,5.25,0,0,0,19.16,41l5.15-5.14A2.25,2.25,0,0,0,24.8,33.35Zm-1.46,1.51L18.19,40a3.89,3.89,0,0,1-2.79,1.17,4.26,4.26,0,0,1-.8-.08,3.79,3.79,0,0,1-2.78-2.4,4,4,0,0,1,.41-3.7,3.83,3.83,0,0,1,3.19-1.68H22.7a.87.87,0,0,1,.83.56A.89.89,0,0,1,23.34,34.86Z"/><path class="a" d="M19.2,20.73a5.18,5.18,0,0,0-3.67-1.54,5.65,5.65,0,0,0-1,.1,5.32,5.32,0,0,0-3.9,3.12,5.15,5.15,0,0,0,.38,5,5.29,5.29,0,0,0,4.45,2.4h7.28a2.28,2.28,0,0,0,1.61-3.89Zm4.37,7.11a.87.87,0,0,1-.83.56H15.46a3.94,3.94,0,0,1-3.31-1.78A3.81,3.81,0,0,1,11.88,23a4,4,0,0,1,2.91-2.32,3.82,3.82,0,0,1,3.44,1.06l5.15,5.15A.87.87,0,0,1,23.57,27.84Z"/></svg>