<svg xmlns="http://www.w3.org/2000/svg" viewBox="0 0 55.51 60.67"><defs><style>.a{fill:#fff;}</style></defs><title>trigo-icon-white</title><path class="a" d="M55.27,18.4h0A12.4,12.4,0,0,0,53,17.19L52.52,17l.21-.41c1.25-2.36.6-5.67.59-5.7a.56.56,0,0,0-.66-.46c-.15,0-3.86.71-5.45,3a3,3,0,0,0-.53,1.35l-.13.91L46,15a12.22,12.22,0,0,0-2.22-2,.58.58,0,0,0-.79.15A11.7,11.7,0,0,0,41.28,17l-.1.52-.48-.23a.56.56,0,0,0-.71.18,11.52,11.52,0,0,0-1.67,3.84l-.11.52-.47-.23a.56.56,0,0,0-.72.18,11.6,11.6,0,0,0-1.67,3.84l-.1.51-.48-.23a.56.56,0,0,0-.71.18,11.35,11.35,0,0,0-1.67,3.84l-.11.52-.47-.23a.56.56,0,0,0-.72.18c-.09.13-2.23,3.23-1.72,6a.56.56,0,0,0,.66.46.57.57,0,0,0,.46-.66,7.13,7.13,0,0,1,1-4.2l.24-.46.39.34a7.11,7.11,0,0,1,2.41,3.58,2.13,2.13,0,0,1-.4,1.63l-6,8.66a17.65,17.65,0,0,0-1.67,3L26,50l-.25-1.31a27,27,0,0,0-2.12-6.42L17,28.49c-.13-.28-.36-.76-.51-1.1a2.31,2.31,0,0,1-.17-1.73,7.18,7.18,0,0,1,2.94-3.15l.44-.28.17.49A7.19,7.19,0,0,1,20.2,27a.58.58,0,0,0,.35.72.57.57,0,0,0,.73-.34c.94-2.67-.7-6.05-.77-6.19a.55.55,0,0,0-.67-.3l-.51.16,0-.53a11.33,11.33,0,0,0-1-4.05.55.55,0,0,0-.68-.29l-.5.15,0-.53a11.42,11.42,0,0,0-1-4.05.58.58,0,0,0-.68-.29l-.51.15,0-.53a11.56,11.56,0,0,0-1.05-4,.56.56,0,0,0-.67-.29l-.51.16,0-.53A11.48,11.48,0,0,0,11.5,2.35a.57.57,0,0,0-.75-.27A12.54,12.54,0,0,0,8.54,3.49l-.36.28-.24-.39C6.54,1.17,3.42.08,3.29,0a.58.58,0,0,0-.72.34c0,.15-1.33,3.68-.11,6.24a3.14,3.14,0,0,0,.91,1.13l.72.57-.9.16a12.34,12.34,0,0,0-2.87.91.57.57,0,0,0-.27.75,11.91,11.91,0,0,0,2.5,3.36l.39.35-.44.3a.56.56,0,0,0-.19.71A11.52,11.52,0,0,0,4.8,18.21l.4.35-.44.29a.57.57,0,0,0-.2.72,11.52,11.52,0,0,0,2.49,3.36l.4.35L7,23.57a.57.57,0,0,0-.2.71A11.63,11.63,0,0,0,9.3,27.64l.4.35-.44.3a.57.57,0,0,0-.19.71c.06.15,1.66,3.54,4.33,4.49A3.25,3.25,0,0,0,17,32.42l.41-.53,5.17,10.82a25.76,25.76,0,0,1,2.49,10.91l0,6.48a.58.58,0,0,0,.57.57.57.57,0,0,0,.57-.57V55.52a16.14,16.14,0,0,1,2.85-9.17L34.87,38l.32.59a3.11,3.11,0,0,0,1,1.11,3.21,3.21,0,0,0,2.38.51c2.77-.51,4.9-3.62,5-3.75a.55.55,0,0,0-.09-.73l-.38-.37.44-.28a11.42,11.42,0,0,0,3-2.93.55.55,0,0,0-.08-.73L46,31l.45-.28a11.57,11.57,0,0,0,3-2.93.56.56,0,0,0-.08-.73L49,26.71l.44-.29a11.42,11.42,0,0,0,3-2.93.55.55,0,0,0-.08-.73L52,22.4l.45-.28a11.64,11.64,0,0,0,3-2.93A.58.58,0,0,0,55.27,18.4ZM17,17.79l.44-.27.16.49a7.86,7.86,0,0,1,.44,3.81l0,.15-.12.1a9.12,9.12,0,0,0-1.6,1.46l-.13.14H16a2.24,2.24,0,0,1-.67-.11,2.1,2.1,0,0,1-1.16-1A2,2,0,0,1,14.1,21,7.21,7.21,0,0,1,17,17.79Zm-2.26-4.71h0l.44-.28.17.49a7.66,7.66,0,0,1,.44,3.81l0,.1-.09.11a9.75,9.75,0,0,0-1.64,1.5L14,19h-.19a1.92,1.92,0,0,1-.67-.11,2.06,2.06,0,0,1-1.25-2.61A7.24,7.24,0,0,1,14.78,13.08ZM12.53,8.36,13,8.09l.16.48a7.57,7.57,0,0,1,.45,3.82l0,.15-.07.06a9.83,9.83,0,0,0-1.65,1.49l-.12.15h-.19a1.89,1.89,0,0,1-.67-.12,2,2,0,0,1-1.25-2.61A7.18,7.18,0,0,1,12.53,8.36ZM10.28,3.64l.43-.27.17.49a7.76,7.76,0,0,1,.45,3.81l0,.09-.1.12a9.72,9.72,0,0,0-1.64,1.5l-.12.14h-.2a2,2,0,0,1-.67-.12A2,2,0,0,1,7.34,6.8,7.21,7.21,0,0,1,10.28,3.64ZM3.49,6.12a7.2,7.2,0,0,1-.15-4.31h0l.12-.5.46.22A7.43,7.43,0,0,1,7.21,4.41l.11.23-.16.2a5.65,5.65,0,0,0-.9,1.58,3.76,3.76,0,0,0-.13.48l0,.26-.26.06a2,2,0,0,1-.49.06A2,2,0,0,1,3.49,6.12ZM1.62,10.6h0l-.27-.44L1.83,10a7.16,7.16,0,0,1,4.3-.3A2.06,2.06,0,0,1,7.38,12.3a2.06,2.06,0,0,1-.34.59L6.92,13H6.74a9.57,9.57,0,0,0-2.15.32l-.09,0-.2-.06A7.6,7.6,0,0,1,1.62,10.6Zm2.25,4.72-.28-.44.49-.17a7.16,7.16,0,0,1,4.3-.3,2,2,0,0,1,1.17,1A2.06,2.06,0,0,1,9.63,17a2.19,2.19,0,0,1-.33.6l-.12.15H9a9.53,9.53,0,0,0-2.14.33l-.1,0-.14,0A7.68,7.68,0,0,1,3.87,15.32ZM6.12,20l-.27-.43.49-.17a7.15,7.15,0,0,1,4.3-.31,2,2,0,0,1,1.24,2.61,2,2,0,0,1-.33.6l-.12.15h-.19a9.45,9.45,0,0,0-2.14.33l-.09,0-.15,0A7.7,7.7,0,0,1,6.12,20Zm2.25,4.72-.27-.44.49-.16a7.15,7.15,0,0,1,4.3-.31,2,2,0,0,1,1.16,1.05,2,2,0,0,1,.08,1.56,1.77,1.77,0,0,1-.33.6l-.11.14H13.5a10.18,10.18,0,0,0-2.15.32l-.09,0-.14,0A7.65,7.65,0,0,1,8.37,24.75Zm8,6.42a2.06,2.06,0,0,1-1.93,1.36,2,2,0,0,1-.68-.12,7.13,7.13,0,0,1-3.15-2.94L10.35,29l.49-.17a7.16,7.16,0,0,1,4.3-.3A2.05,2.05,0,0,1,16.39,31.17Zm31.75-17a7.23,7.23,0,0,1,3.66-2.28l.5-.15,0,.51a7.52,7.52,0,0,1-.85,4.29l-.15.21-.25,0a5.76,5.76,0,0,0-1.81,0,3.24,3.24,0,0,0-.49.13l-.24.08-.19-.19a2.06,2.06,0,0,1-.21-2.57Zm-4.81.61.24-.46.39.34a7.21,7.21,0,0,1,2.41,3.57A2,2,0,0,1,46,19.72a2.06,2.06,0,0,1-1.31.86l-.37,0-.32,0-.18,0-.1-.17a10,10,0,0,0-1.35-1.69l-.07-.07-.05-.14A7.67,7.67,0,0,1,43.33,14.74Zm-3,4.3h0l.25-.45.38.34A7.17,7.17,0,0,1,43.4,22.5,2,2,0,0,1,43.07,24a2,2,0,0,1-1.31.85,2.22,2.22,0,0,1-.37,0,1.67,1.67,0,0,1-.31,0l-.18,0-.11-.16c-.09-.16-.18-.29-.26-.41A10.38,10.38,0,0,0,39.44,23l-.06-.06-.05-.14A7.79,7.79,0,0,1,40.36,19Zm-3,4.31h0l.24-.45.39.33a10.87,10.87,0,0,1,1.57,1.71,5,5,0,0,1,.84,1.86,2.05,2.05,0,0,1-1.64,2.39,2.31,2.31,0,0,1-.37,0l-.32,0-.18,0-.1-.17a10,10,0,0,0-1.35-1.69l-.07-.07,0-.14A7.61,7.61,0,0,1,37.4,23.35ZM35.46,33.53a1.63,1.63,0,0,1-.31,0l-.19,0-.1-.16a8.85,8.85,0,0,0-1.35-1.69l-.06-.07-.05-.14a7.79,7.79,0,0,1,1-3.76l.24-.45.39.34a7.12,7.12,0,0,1,2.41,3.57,2,2,0,0,1-.33,1.53,2,2,0,0,1-1.31.85A2.21,2.21,0,0,1,35.46,33.53Zm6.47,3.1A7.17,7.17,0,0,1,38.36,39a2.43,2.43,0,0,1-.38,0,2,2,0,0,1-1.15-.36,2.05,2.05,0,0,1-.53-2.84A2,2,0,0,1,37.62,35a7.15,7.15,0,0,1,4.2,1l.45.24Zm3-4.31a7.75,7.75,0,0,1-3.09,2.29l-.09,0-.14,0a9.56,9.56,0,0,0-2.12-.68l-.19,0-.09-.16a1.92,1.92,0,0,1-.24-.64,2,2,0,0,1,.33-1.54,2,2,0,0,1,1.31-.85,7.22,7.22,0,0,1,4.2,1l.45.24Zm3-4.3a7.7,7.7,0,0,1-3.08,2.28l-.09,0-.15,0a9.4,9.4,0,0,0-2.12-.68l-.18,0-.1-.16a2,2,0,0,1-.23-.64,2,2,0,0,1,.32-1.53,2,2,0,0,1,1.32-.85,7.1,7.1,0,0,1,4.19,1l.46.24Zm3-4.31A7.75,7.75,0,0,1,47.74,26l-.09,0-.2-.05a10.2,10.2,0,0,0-2.06-.66l-.19,0-.09-.17a1.84,1.84,0,0,1-.24-.64,2,2,0,0,1,1.64-2.38,7.2,7.2,0,0,1,4.2,1l.46.24Zm3-4.3a7.91,7.91,0,0,1-3.08,2.28l-.09,0-.15,0A9.4,9.4,0,0,0,48.35,21l-.18,0-.1-.16a2.14,2.14,0,0,1-.23-.64,2,2,0,0,1,.32-1.53,2,2,0,0,1,1.32-.85,7.15,7.15,0,0,1,4.2,1l.45.24Z"/></svg>