<svg xmlns="http://www.w3.org/2000/svg" viewBox="0 0 70.1 72.49"><defs><style>.a{fill:#fff;stroke:#54c0e8;stroke-miterlimit:10;stroke-width:0.25px;}</style></defs><title>trigo-icon</title><path class="a" d="M10.85,15.63a1.1,1.1,0,0,0,.54-1.47,9.3,9.3,0,0,1-.84-3.91A12.43,12.43,0,0,1,13,3a12.43,12.43,0,0,1,2.4,7.29,9.15,9.15,0,0,1-.84,3.91,1.11,1.11,0,0,0,2,.94,11.51,11.51,0,0,0,1-4.85A14.39,14.39,0,0,0,13.73.43,1.07,1.07,0,0,0,13,.13a1.11,1.11,0,0,0-.78.3,14.39,14.39,0,0,0-3.85,9.82A11.52,11.52,0,0,0,9.38,15.1,1.11,1.11,0,0,0,10.85,15.63Z"/><path class="a" d="M15.78,39.11a1.11,1.11,0,0,0,.2,2.2l.21,0a12.2,12.2,0,0,0,6.49-3.45c4.17-4.31,3-10.19,2.91-10.44a1.11,1.11,0,0,0-1.09-.87h0a14.38,14.38,0,0,0-9.59,4.37A13.29,13.29,0,0,0,14,32V24.7a8.65,8.65,0,0,1,2.54-5.2,12.44,12.44,0,0,1,7-3.6,9.8,9.8,0,0,1-2.45,7.45,9.82,9.82,0,0,1-5.31,2.81,1.11,1.11,0,0,0,.2,2.2.75.75,0,0,0,.21,0,12,12,0,0,0,6.49-3.45c4.17-4.3,3-10.18,2.91-10.43a1.11,1.11,0,0,0-1.09-.88h0A14.38,14.38,0,0,0,14.92,18a11.65,11.65,0,0,0-2,2.64A12,12,0,0,0,11,18a14.4,14.4,0,0,0-9.59-4.38h0a1.11,1.11,0,0,0-1.08.88c-.06.25-1.26,6.12,2.91,10.43a12,12,0,0,0,6.48,3.45.75.75,0,0,0,.21,0,1.11,1.11,0,0,0,.21-2.2,9.79,9.79,0,0,1-5.31-2.81A9.76,9.76,0,0,1,2.38,15.9a12.49,12.49,0,0,1,7,3.6A8.71,8.71,0,0,1,12,24.7V32A13.46,13.46,0,0,0,11,30.9a14.36,14.36,0,0,0-9.59-4.37h0a1.1,1.1,0,0,0-1.08.87c-.06.25-1.26,6.13,2.91,10.44a12.14,12.14,0,0,0,6.48,3.45l.21,0a1.11,1.11,0,0,0,.21-2.2A9.79,9.79,0,0,1,4.83,36.3a9.78,9.78,0,0,1-2.45-7.46,12.52,12.52,0,0,1,7,3.61A8.71,8.71,0,0,1,12,37.65h0v7.58A13.46,13.46,0,0,0,11,44.15a14.36,14.36,0,0,0-9.59-4.37h0a1.1,1.1,0,0,0-1.08.88c-.06.24-1.26,6.12,2.91,10.43a12.07,12.07,0,0,0,6.48,3.45l.21,0a1.11,1.11,0,0,0,.21-2.2,9.79,9.79,0,0,1-5.31-2.81,9.78,9.78,0,0,1-2.45-7.46,12.52,12.52,0,0,1,7,3.61A8.71,8.71,0,0,1,12,50.9h0V70.72a1.1,1.1,0,0,0,1,1.1,1.11,1.11,0,0,0,1-1.1V50.91h0a8.65,8.65,0,0,1,2.54-5.2,12.47,12.47,0,0,1,7-3.61,9.82,9.82,0,0,1-2.45,7.46,9.82,9.82,0,0,1-5.31,2.81,1.11,1.11,0,0,0,.2,2.2l.21,0a12.2,12.2,0,0,0,6.49-3.45c4.17-4.31,3-10.19,2.91-10.43a1.1,1.1,0,0,0-1.09-.88h0a14.38,14.38,0,0,0-9.59,4.37A13.29,13.29,0,0,0,14,45.24V37.66h0a8.65,8.65,0,0,1,2.54-5.2,12.47,12.47,0,0,1,7-3.61,9.82,9.82,0,0,1-2.45,7.46A9.82,9.82,0,0,1,15.78,39.11Z"/><path class="a" d="M55,16.18a1.1,1.1,0,0,0,.54-1.47,9.35,9.35,0,0,1-.84-3.92A12.48,12.48,0,0,1,57.14,3.5a12.49,12.49,0,0,1,2.4,7.29,9.2,9.2,0,0,1-.84,3.92,1.11,1.11,0,0,0,2,.93,11.45,11.45,0,0,0,1-4.85A14.36,14.36,0,0,0,57.91,1a1.08,1.08,0,0,0-.77-.31,1.12,1.12,0,0,0-.78.31,14.36,14.36,0,0,0-3.85,9.81,11.45,11.45,0,0,0,1.05,4.85A1.1,1.1,0,0,0,55,16.18Z"/><path class="a" d="M60,39.66a1.11,1.11,0,0,0,.21,2.2l.21,0a12.17,12.17,0,0,0,6.48-3.45C71,34.08,69.82,28.2,69.77,28a1.11,1.11,0,0,0-1.09-.87h0a14.35,14.35,0,0,0-9.58,4.37,11.75,11.75,0,0,0-1,1.09V25.26h0a8.65,8.65,0,0,1,2.54-5.2,12.43,12.43,0,0,1,7-3.6,9.81,9.81,0,0,1-2.45,7.45A9.82,9.82,0,0,1,60,26.71a1.11,1.11,0,0,0,.21,2.2l.21,0a12.11,12.11,0,0,0,6.48-3.45c4.17-4.31,3-10.19,2.91-10.43a1.1,1.1,0,0,0-1.09-.88h0A14.35,14.35,0,0,0,59.1,18.5a11.7,11.7,0,0,0-2,2.65,11.7,11.7,0,0,0-2-2.65,14.36,14.36,0,0,0-9.59-4.37h0a1.1,1.1,0,0,0-1.08.88c0,.24-1.26,6.12,2.91,10.43a12.07,12.07,0,0,0,6.48,3.45l.21,0a1.11,1.11,0,0,0,.21-2.2A9.79,9.79,0,0,1,49,23.9a9.77,9.77,0,0,1-2.45-7.45,12.43,12.43,0,0,1,7,3.6,8.71,8.71,0,0,1,2.54,5.2h0v7.28a13.46,13.46,0,0,0-1-1.09,14.36,14.36,0,0,0-9.59-4.37h0a1.1,1.1,0,0,0-1.08.87c0,.25-1.26,6.13,2.91,10.44a12.14,12.14,0,0,0,6.48,3.45l.21,0A1.11,1.11,0,0,0,55.2,41a1.1,1.1,0,0,0-.88-1.29A9.8,9.8,0,0,1,49,36.84a9.75,9.75,0,0,1-2.45-7.45,12.49,12.49,0,0,1,7,3.6,8.73,8.73,0,0,1,2.54,5.21h0v7.58a13.46,13.46,0,0,0-1-1.09,14.36,14.36,0,0,0-9.59-4.37h0a1.1,1.1,0,0,0-1.08.87c0,.25-1.26,6.13,2.91,10.44a12.14,12.14,0,0,0,6.48,3.45l.21,0a1.11,1.11,0,0,0,.21-2.2,9.29,9.29,0,0,1-7.76-10.27,12.49,12.49,0,0,1,7,3.6,8.73,8.73,0,0,1,2.54,5.21h0v19.8a1,1,0,1,0,2,0V51.46h0a8.67,8.67,0,0,1,2.54-5.21,12.44,12.44,0,0,1,7-3.6A9.29,9.29,0,0,1,60,52.91a1.11,1.11,0,0,0,.2,2.2l.21,0a12.17,12.17,0,0,0,6.49-3.45c4.17-4.31,3-10.19,2.91-10.44a1.11,1.11,0,0,0-1.09-.87h0A14.35,14.35,0,0,0,59.1,44.7a11.75,11.75,0,0,0-1,1.09V38.21h0A8.67,8.67,0,0,1,60.69,33a12.49,12.49,0,0,1,7-3.6,9.79,9.79,0,0,1-2.45,7.45A9.83,9.83,0,0,1,60,39.66Z"/></svg>