<?xml version="1.0" encoding="utf-8"?>
<!-- Generator: Adobe Illustrator 22.0.0, SVG Export Plug-In . SVG Version: 6.00 Build 0)  -->
<svg version="1.1" id="Capa_1" xmlns="http://www.w3.org/2000/svg" xmlns:xlink="http://www.w3.org/1999/xlink" x="0px" y="0px"
	 viewBox="0 0 135 50" style="enable-background:new 0 0 135 50;" xml:space="preserve">
<style type="text/css">
	.st0{fill:#737373;}
	.st1{fill:#F25022;}
	.st2{fill:#7FBA00;}
	.st3{fill:#00A4EF;}
	.st4{fill:#FFB900;}
	.st5{fill:#00D27D;}
	.st6{fill:#006E3C;}
	.st7{fill:#00B43C;}
	.st8{fill:#626467;}
	.st9{fill:#94CC00;}
	.st10{fill:#FFFFFF;}
</style>
<g>
	<path class="st0" d="M207-195.8l-0.8,2.3h-0.1c-0.1-0.5-0.4-1.3-0.8-2.2l-4.2-10.6h-4.2v17h2.7v-10.6c0-0.7,0-1.4,0-2.3
		c0-0.5-0.1-0.8-0.1-1.1h0.1c0.1,0.7,0.3,1.1,0.4,1.4l5.1,12.4h1.9l5-12.5c0.1-0.3,0.2-0.9,0.3-1.3h0.2c-0.1,1.3-0.1,2.4-0.1,3.1
		v10.8h2.9v-17h-4L207-195.8z M218.1-201.7h2.9v12.2h-2.9V-201.7z M219.5-206.8c-0.5,0-0.9,0.2-1.2,0.5s-0.5,0.7-0.5,1.2
		c0,0.5,0.2,0.9,0.5,1.2s0.7,0.5,1.2,0.5s0.9-0.2,1.2-0.5c0.3-0.3,0.5-0.7,0.5-1.2c0-0.5-0.2-0.9-0.5-1.2
		C220.5-206.7,220-206.8,219.5-206.8 M231.1-201.8c-0.5-0.1-1.1-0.2-1.6-0.2c-1.3,0-2.5,0.3-3.5,0.9c-1,0.6-1.8,1.4-2.3,2.4
		c-0.5,1-0.8,2.2-0.8,3.5c0,1.2,0.3,2.2,0.8,3.1c0.5,0.9,1.2,1.7,2.2,2.2c0.9,0.5,2,0.8,3.1,0.8c1.4,0,2.5-0.3,3.5-0.8l0,0v-2.6
		l-0.1,0.1c-0.4,0.3-0.9,0.6-1.4,0.7c-0.5,0.2-1,0.3-1.4,0.3c-1.1,0-2-0.3-2.7-1.1c-0.7-0.7-1-1.7-1-2.9c0-1.3,0.3-2.2,1-3
		c0.7-0.7,1.6-1.1,2.7-1.1c0.9,0,1.9,0.3,2.7,0.9l0.1,0.1v-2.8l0,0C232.1-201.5,231.7-201.7,231.1-201.8 M240.5-201.9
		c-0.7,0-1.4,0.2-1.9,0.7c-0.5,0.4-0.8,1-1.1,1.6h0v-2.2h-2.9v12.2h2.9v-6.2c0-1.1,0.2-1.9,0.7-2.6c0.5-0.7,1.1-1,1.8-1
		c0.3,0,0.5,0.1,0.9,0.1c0.3,0.1,0.5,0.2,0.7,0.3l0.1,0.1v-2.8l-0.1,0C241.4-201.8,241-201.9,240.5-201.9 M248.3-201.9
		c-2,0-3.6,0.6-4.7,1.8c-1.1,1.2-1.7,2.8-1.7,4.8c0,1.9,0.6,3.4,1.7,4.6c1.1,1.1,2.6,1.7,4.5,1.7c2,0,3.5-0.6,4.6-1.8
		c1.1-1.2,1.7-2.8,1.7-4.7c0-1.9-0.5-3.5-1.6-4.6C251.7-201.4,250.2-201.9,248.3-201.9 M250.6-192.6c-0.5,0.7-1.4,1-2.4,1
		c-1,0-1.9-0.3-2.5-1.1c-0.6-0.7-0.9-1.7-0.9-2.9c0-1.3,0.3-2.3,0.9-3c0.6-0.7,1.4-1.1,2.4-1.1c1,0,1.8,0.3,2.4,1
		c0.6,0.7,0.9,1.7,0.9,3C251.4-194.3,251.2-193.3,250.6-192.6 M260.8-196.6c-0.9-0.4-1.5-0.7-1.7-0.9c-0.2-0.2-0.3-0.5-0.3-0.9
		c0-0.3,0.1-0.7,0.5-0.9c0.3-0.2,0.7-0.3,1.2-0.3c0.5,0,1,0.1,1.5,0.2c0.5,0.1,0.9,0.3,1.3,0.6l0.1,0.1v-2.7l-0.1,0
		c-0.3-0.1-0.8-0.3-1.3-0.4c-0.5-0.1-1-0.1-1.4-0.1c-1.4,0-2.5,0.3-3.4,1.1c-0.9,0.7-1.3,1.6-1.3,2.7c0,0.6,0.1,1.1,0.3,1.5
		c0.2,0.4,0.5,0.8,0.9,1.1c0.4,0.3,1,0.7,1.8,1c0.7,0.3,1.2,0.5,1.5,0.7c0.3,0.2,0.5,0.4,0.7,0.5c0.1,0.2,0.2,0.4,0.2,0.7
		c0,0.8-0.6,1.2-1.9,1.2c-0.5,0-1-0.1-1.6-0.3c-0.6-0.2-1.1-0.5-1.6-0.8l-0.1-0.1v2.8l0.1,0c0.4,0.2,0.9,0.3,1.5,0.5
		c0.6,0.1,1.2,0.2,1.6,0.2c1.5,0,2.7-0.3,3.5-1.1c0.9-0.7,1.3-1.6,1.3-2.8c0-0.8-0.2-1.5-0.7-2.1
		C262.7-195.6,261.9-196.2,260.8-196.6 M271.6-201.9c-2,0-3.6,0.6-4.7,1.8c-1.1,1.2-1.7,2.8-1.7,4.8c0,1.9,0.6,3.4,1.7,4.6
		c1.1,1.1,2.6,1.7,4.5,1.7c2,0,3.5-0.6,4.6-1.8c1.1-1.2,1.7-2.8,1.7-4.7c0-1.9-0.5-3.5-1.6-4.6C275-201.4,273.5-201.9,271.6-201.9
		 M273.8-192.6c-0.5,0.7-1.4,1-2.4,1c-1.1,0-1.9-0.3-2.5-1.1c-0.6-0.7-0.9-1.7-0.9-2.9c0-1.3,0.3-2.3,0.9-3c0.6-0.7,1.4-1.1,2.4-1.1
		c1,0,1.8,0.3,2.4,1c0.6,0.7,0.9,1.7,0.9,3C274.7-194.3,274.4-193.3,273.8-192.6 M292.9-199.3v-2.3H290v-3.6l-0.1,0l-2.7,0.8l-0.1,0
		v2.7l-4.3-0.1v-1.5c0-0.7,0.2-1.3,0.5-1.6s0.8-0.5,1.3-0.5c0.4,0,0.8,0.1,1.3,0.3l0.1,0.1v-2.4l-0.1,0c-0.4-0.1-0.9-0.2-1.6-0.2
		c-0.9,0-1.6,0.2-2.3,0.5c-0.7,0.4-1.2,0.9-1.5,1.5c-0.4,0.7-0.6,1.4-0.6,2.2v1.8h-2v2.3h2v9.8h2.9v-9.8h4.3v6.3
		c0,2.6,1.2,3.9,3.6,3.9c0.4,0,0.8-0.1,1.2-0.1c0.4-0.1,0.7-0.2,0.9-0.3l0,0v-2.5l-0.1,0.1c-0.2,0.1-0.3,0.2-0.6,0.3
		c-0.2,0.1-0.4,0.1-0.6,0.1c-0.6,0-1-0.1-1.2-0.5c-0.3-0.3-0.4-0.8-0.4-1.5v-5.6H292.9z"/>
	<path class="st1" d="M160.1-212.2h13.5v13.5h-13.5V-212.2z"/>
	<path class="st2" d="M174.9-212.2h13.5v13.5h-13.5V-212.2z"/>
	<path class="st3" d="M160.1-197.3h13.5v13.5h-13.5V-197.3z"/>
	<path class="st4" d="M174.9-197.3h13.5v13.5h-13.5V-197.3z"/>
</g>
<g>
	<path class="st5" d="M369-56.2h-1.7v-20.4c0-0.6,0.5-1.1,1.1-1.1h0.6V-56.2L369-56.2z"/>
	<path class="st5" d="M385.1-71.6h0.6c0.6,0,1.1,0.5,1.1,1.1v14.3h-1.7v-3.3c-1.2,2.4-3.6,3.9-6.5,3.9c-4.6,0-7.9-3.5-7.9-8.3
		s3.3-8.3,7.9-8.3c2.9,0,5.3,1.6,6.5,3.9V-71.6L385.1-71.6z M385.1-63.9c0-3.9-2.8-6.7-6.4-6.7c-3.8,0-6.4,2.9-6.4,6.7
		c0,3.9,2.7,6.7,6.4,6.7C382.3-57.2,385.1-60,385.1-63.9"/>
	<path class="st5" d="M391.2-77.8v9.5c1.2-2.4,3.6-3.9,6.5-3.9c4.6,0,7.9,3.5,7.9,8.3s-3.4,8.3-7.9,8.3c-2.9,0-5.3-1.6-6.5-3.9v3.2
		h-1.7v-20.4c0-0.6,0.5-1.1,1.1-1.1L391.2-77.8z M397.6-70.6c-3.8,0-6.4,2.9-6.4,6.6c0,3.9,2.7,6.6,6.4,6.6c3.7,0,6.4-2.8,6.4-6.6
		C404-67.7,401.3-70.6,397.6-70.6"/>
	<path class="st5" d="M406.4-61.2h1.7c0,2.4,2.1,4,5,4c2.7,0,4.5-1.4,4.5-3.1c0-4.3-10.8-1.6-10.8-7.3c0-2.7,2.5-4.6,5.7-4.6
		c3.7,0,6.3,2.2,6.3,5.1h-1.7c0-2.1-1.9-3.6-4.6-3.6c-2.3,0-4.1,1.3-4.1,2.9c0,4.1,10.8,1.6,10.8,7.2c0,2.8-2.6,4.8-6.2,4.8
		C409.2-55.6,406.4-58,406.4-61.2"/>
	<path class="st5" d="M316.9-56.2h-5.1v-18.6c0-1.7,1.3-2.9,2.9-2.9h2.1V-56.2z"/>
	<path class="st5" d="M354-59.9l4.8-15.6c0.4-1.2,1.6-2.1,2.9-2.1h3.1l-6.9,21.4h-7.7l-6.9-21.5h3.1c1.3,0,2.4,0.8,2.8,2L354-59.9z"
		/>
	<path class="st5" d="M331.5-78.5c-7.1,0-11.9,4.7-11.9,11.5s4.8,11.5,11.9,11.5c7,0,11.9-4.7,11.9-11.5
		C343.3-73.7,338.5-78.5,331.5-78.5 M331.5-59.8c-4,0-6.8-2.9-6.8-7.2c0-1.3,0.3-2.5,0.8-3.5l0,0c0,0,0,0,0-0.1c0,0,0,0,0-0.1
		c0,0,0.1-0.1,0.1-0.2c0,0,0-0.1,0.1-0.1c0-0.1,0.1-0.1,0.1-0.2c0.6-0.8,1.8-2.4,4.1-2.8h0.1h0.1c0.7-0.1,2.9-0.1,3.9,1.6
		c0,0,0,0,0,0.1c0.1,0.1,0.1,0.2,0.1,0.3c0,0,0,0.1,0.1,0.1c1.2,2.6-0.1,6.3-1.7,7.8c0,0,4.8-2.8,4.6-7c0.6,1.1,1,2.5,1,3.9
		C338.3-62.8,335.5-59.8,331.5-59.8"/>
</g>
<g>
	<path d="M179.8-4.3l0-18.1l3.7-0.5l0.6,2.8c1.2-1.9,3-2.9,5.3-2.9c0.5,0,0.9,0,1.2,0.1l-0.1,3.7c-0.4-0.1-0.9-0.1-1.4-0.1
		c-1.6,0-2.8,0.4-3.6,1.3c-0.8,0.9-1.2,2.1-1.2,3.6v10H179.8z"/>
	<path d="M198.9-3.9c-2.7,0-4.9-0.5-6.6-1.4l0.5-3.3c0.7,0.4,1.7,0.8,2.8,1.1s2.2,0.5,3.1,0.5c1,0,1.7-0.2,2.3-0.5
		c0.5-0.4,0.8-0.9,0.8-1.6c0-0.6-0.3-1.1-0.8-1.5c-0.5-0.4-1.5-0.8-2.9-1.4c-0.5-0.2-0.8-0.3-1-0.4c-1.7-0.7-2.9-1.4-3.7-2.2
		c-0.8-0.8-1.1-1.9-1.1-3.3c0-1.7,0.6-3,1.8-3.9c1.2-0.9,2.9-1.3,5.1-1.3c2.4,0,4.4,0.4,6.2,1.3l-1.1,3c-1.8-0.8-3.4-1.2-5-1.2
		c-0.9,0-1.6,0.1-2.1,0.4c-0.5,0.3-0.7,0.7-0.7,1.4c0,0.6,0.2,1,0.7,1.3c0.5,0.3,1.4,0.7,2.8,1.3c0,0,0.2,0.1,0.4,0.2
		c0.2,0.1,0.4,0.2,0.6,0.2c1.7,0.6,2.9,1.4,3.7,2.2c0.8,0.9,1.2,2,1.2,3.4c0,1.9-0.6,3.3-1.9,4.3C203-4.4,201.2-3.9,198.9-3.9"/>
	<polygon points="218.4,-14.8 226,-22.8 220.7,-22.8 213.2,-15 213.2,-28.8 208.8,-28 208.8,-4.3 213.2,-4.3 213.2,-4.3 213.2,-9.3 
		215.6,-11.8 221.1,-4.3 226.5,-4.3 	"/>
	<path class="st6" d="M154.6-25.4v-17.2c0,0-5.6,2.8-5.6,8.7C149-28.1,154.6-25.4,154.6-25.4"/>
	<path class="st7" d="M154.6-42.6c0,0,5.6,2.8,5.6,8.7c0,5.9-5.6,8.5-5.6,8.5V-42.6z"/>
	<path class="st6" d="M167.6-17.3l7.6-4.3c0,0-2.6-1.8-5.3-0.3C167.3-20.5,167.6-17.3,167.6-17.3"/>
	<path class="st7" d="M175.2-21.7c0,0,0.2,3.2-2.4,4.7c-2.6,1.5-5.2-0.3-5.2-0.3L175.2-21.7z"/>
	<path d="M175.6-22.4c-0.1-0.1-3.4-1.8-6.1-0.2c-2.2,1.3-2.6,3.8-2.7,4.8l-1,0.6c-0.5-0.5-1.2-0.8-1.9-0.8c-0.7,0-1.4,0.3-1.9,0.8
		l-4.6-2.7c0.1-0.2,0.1-0.4,0.1-0.7c0-1.3-0.9-2.3-2-2.7v-1.6c1.3-0.9,5.6-4,5.6-9c0-5.8-5.7-9.4-6-9.5l-0.4-0.3l-0.4,0.3
		c-0.2,0.1-6,3.8-6,9.5c0,5,4.3,8.1,5.6,9v1.6c-1.2,0.3-2,1.4-2,2.7c0,0.2,0,0.5,0.1,0.7l-4.6,2.7c-0.5-0.5-1.2-0.8-1.9-0.8
		c-1.5,0-2.8,1.3-2.8,2.8c0,1.3,0.9,2.3,2,2.7V-7c-1.2,0.3-2,1.4-2,2.7c0,1.5,1.3,2.8,2.8,2.8c0.8,0,1.6-0.4,2.1-0.9l4.5,2.6
		c-0.1,0.2-0.1,0.4-0.1,0.7c0,1.5,1.3,2.8,2.8,2.8s2.8-1.2,2.8-2.8c0-0.2,0-0.5-0.1-0.7l4.5-2.6c0.5,0.6,1.2,0.9,2.1,0.9
		c1.5,0,2.8-1.3,2.8-2.8c0-1.3-0.9-2.3-2-2.7v-5.5c1.2-0.3,2-1.4,2-2.7c0-0.2,0-0.4-0.1-0.7l1-0.6c0.6,0.3,1.7,0.7,3.1,0.7
		c0.8,0,1.7-0.2,2.5-0.6c2.7-1.6,2.9-5.2,2.9-5.4l0-0.5L175.6-22.4z M164.6-14.2c-0.2,0.2-0.5,0.3-0.8,0.3c-0.2,0-0.3,0-0.4-0.1
		c-0.1,0-0.2-0.1-0.3-0.2c-0.2-0.2-0.4-0.5-0.5-0.8c0-0.1,0-0.1,0-0.2c0-0.1,0-0.1,0-0.2c0.1-0.5,0.4-0.8,0.8-1
		c0.1-0.1,0.3-0.1,0.5-0.1c0.2,0,0.3,0,0.5,0.1c0.4,0.2,0.8,0.6,0.8,1.1c0,0.1,0,0.1,0,0.2C165-14.7,164.8-14.4,164.6-14.2
		 M165.1-4.3c0,0.7-0.6,1.2-1.2,1.2c-0.2,0-0.5-0.1-0.7-0.2c-0.4-0.2-0.6-0.6-0.6-1.1c0,0,0,0,0,0v0c0-0.1,0-0.3,0.1-0.4
		c0.1-0.2,0.2-0.4,0.4-0.6c0.2-0.1,0.3-0.2,0.6-0.2c0.1,0,0.1,0,0.2,0c0.3,0,0.6,0.1,0.8,0.3C164.9-5,165.1-4.7,165.1-4.3 M163.1-7
		c-0.4,0.1-0.7,0.3-1,0.5l-4.7-2.7v0c0-0.2,0.1-0.4,0.1-0.6c0-0.3,0-0.5-0.1-0.8l4.7-2.7c0.3,0.3,0.7,0.5,1.2,0.7V-7z M154.6,2.1
		c-0.6,0-1.1-0.5-1.2-1.1c0-0.1,0-0.1,0-0.2c0-0.5,0.3-1,0.8-1.2c0.1-0.1,0.3-0.1,0.5-0.1c0.2,0,0.3,0,0.5,0.1
		c0.5,0.2,0.8,0.6,0.8,1.2c0,0.1,0,0.1,0,0.2C155.7,1.6,155.2,2.1,154.6,2.1 M151.8-9.1l-4.7,2.7c-0.3-0.2-0.6-0.4-1-0.5v-5.5
		c0.4-0.1,0.8-0.4,1.2-0.7l4.6,2.7c-0.1,0.2-0.1,0.5-0.1,0.8C151.8-9.5,151.8-9.3,151.8-9.1L151.8-9.1z M146.6-4.3
		c0,0.4-0.2,0.8-0.6,1.1c-0.2,0.1-0.4,0.2-0.7,0.2c-0.7,0-1.2-0.6-1.2-1.2c0-0.4,0.2-0.7,0.5-1c0.2-0.2,0.5-0.3,0.8-0.3
		c0.1,0,0.1,0,0.2,0c0.2,0,0.4,0.1,0.6,0.2c0.2,0.1,0.3,0.3,0.4,0.6C146.5-4.6,146.6-4.4,146.6-4.3C146.6-4.3,146.6-4.3,146.6-4.3
		 M144.1-15.2c0-0.7,0.6-1.2,1.2-1.2c0.2,0,0.3,0,0.5,0.1c0.4,0.2,0.7,0.5,0.8,1c0,0.1,0,0.1,0,0.2c0,0.1,0,0.1,0,0.2
		c0,0.3-0.2,0.6-0.5,0.8c-0.1,0.1-0.2,0.1-0.3,0.2c-0.1,0.1-0.3,0.1-0.5,0.1c-0.3,0-0.6-0.1-0.8-0.3
		C144.3-14.4,144.1-14.8,144.1-15.2 M153.8-21.5c0.2-0.2,0.5-0.3,0.8-0.3s0.6,0.1,0.8,0.3c0.2,0.2,0.4,0.5,0.5,0.8
		c0,0.1,0,0.1,0,0.2c0,0.4-0.2,0.7-0.5,1c-0.1,0.1-0.2,0.1-0.3,0.2c-0.1,0.1-0.3,0.1-0.5,0.1s-0.3,0-0.5-0.1c-0.1,0-0.2-0.1-0.3-0.2
		c-0.3-0.2-0.5-0.6-0.5-1c0-0.1,0-0.1,0-0.2C153.4-21,153.6-21.3,153.8-21.5 M155.8-9.6c0,0.4-0.2,0.7-0.5,0.9
		c-0.1,0-0.1,0.1-0.2,0.1c-0.2,0.1-0.4,0.1-0.6,0.1c-0.2,0-0.4-0.1-0.6-0.1c-0.1,0-0.1-0.1-0.2-0.1c-0.3-0.2-0.5-0.6-0.5-0.9
		c0,0,0,0,0,0c0-0.1,0-0.2,0-0.3c0.1-0.3,0.2-0.5,0.4-0.7c0.1-0.1,0.3-0.2,0.5-0.2c0.1,0,0.2,0,0.3,0c0.1,0,0.2,0,0.3,0
		c0.2,0,0.3,0.1,0.4,0.2c0.2,0.2,0.4,0.4,0.4,0.6C155.8-9.9,155.8-9.8,155.8-9.6C155.8-9.7,155.8-9.7,155.8-9.6L155.8-9.6z
		 M161.1-15.8c-0.1,0.2-0.1,0.4-0.1,0.7c0,0.2,0,0.5,0.1,0.7l-4.7,2.7c-0.3-0.3-0.7-0.5-1.1-0.6v-5.5c0.4-0.1,0.8-0.4,1.2-0.7
		L161.1-15.8z M149.7-33.8c0-4.1,3.6-7.1,4.8-8c1.2,0.9,4.8,3.8,4.8,8c0,3.4-2.5,5.9-4.1,7.1v-6.5c0-0.4-0.3-0.8-0.8-0.8
		c-0.4,0-0.8,0.3-0.8,0.8v6.5C152.3-27.9,149.7-30.4,149.7-33.8 M152.6-18.5c0.3,0.3,0.7,0.5,1.2,0.7v5.5c-0.4,0.1-0.8,0.3-1.1,0.6
		l-4.7-2.7c0.1-0.2,0.1-0.4,0.1-0.7c0-0.2,0-0.5-0.1-0.7L152.6-18.5z M148.1-3.8c0-0.2,0-0.3,0-0.5c0-0.3,0-0.6-0.1-0.8l4.6-2.6
		c0.3,0.4,0.8,0.6,1.2,0.8v5.2c-0.4,0.1-0.8,0.4-1.2,0.7L148.1-3.8z M156.5-1.2c-0.3-0.3-0.7-0.5-1.2-0.7V-7
		c0.5-0.1,0.9-0.4,1.2-0.8l4.6,2.6c-0.1,0.3-0.1,0.6-0.1,0.9c0,0.2,0,0.3,0,0.5L156.5-1.2z M172.3-17.7c-1,0.6-2.2,0.5-3.1,0.2
		l1.5-0.9c0.4-0.2,0.5-0.7,0.3-1.1c-0.2-0.4-0.7-0.5-1.1-0.3l-1.5,0.9c0.2-0.9,0.7-1.9,1.7-2.5c1.5-0.8,3.3-0.3,4.1,0
		C174.3-20.3,173.8-18.5,172.3-17.7"/>
</g>
<g>
	<path class="st8" d="M12.7,31.8v11.1c0,3-1.9,5.5-5.9,5.5c-2.8,0-3.3-0.3-5-0.8L2,47c1.7,0.5,2.5,0.7,4.8,0.7
		c3.6,0,5.1-2.3,5.1-4.4v-0.5C10.6,43.7,9,44.3,7,44.3c-3.6,0-6.5-2.9-6.5-6.4c0-3.5,2.9-6.3,6.5-6.3c1.9,0,3.7,0.6,4.9,1.7v-1.4
		H12.7z M7,43.5c2,0,3.7-0.6,4.8-1.7v-7.6C10.7,33,9,32.4,7,32.4c-3.1,0-5.7,2.5-5.7,5.5C1.4,41,3.9,43.5,7,43.5"/>
	<path class="st8" d="M16.6,34.8c0.7-1.9,2.2-3.2,4.2-3.2c0.7,0,1.4,0.2,2.1,0.5l-0.2,0.8c-0.7-0.3-1.4-0.5-2-0.5
		c-2.5,0-4.1,2.3-4.1,5.2v6.5h-0.8V31.8h0.8V34.8z"/>
	<path class="st8" d="M36.2,31.8v12.4h-0.8v-1.6c-1.2,1.1-3,1.7-5.1,1.7c-3,0-5.3-1.9-5.3-5.5v-7h0.8v7c0,3,2,4.7,4.6,4.7
		c2.1,0,3.7-0.6,5-1.7v-10H36.2z"/>
	<path class="st8" d="M51.4,37.9c0,3.6-2.9,6.4-6.5,6.4c-2,0-3.7-0.6-4.9-1.6v5.5h-0.8V31.8h0.8v1.4c1.1-1,3-1.7,4.9-1.7
		C48.5,31.6,51.4,34.4,51.4,37.9 M50.6,37.9c0-3.1-2.6-5.5-5.7-5.5c-2,0-3.7,0.7-4.8,1.8v7.6c1.1,1.1,2.8,1.7,4.8,1.7
		C48.1,43.5,50.6,41,50.6,37.9"/>
	<path class="st8" d="M66.6,37.9c0,3.5-3,6.3-6.7,6.3c-3.7,0-6.7-2.9-6.7-6.3c0-3.5,3-6.4,6.7-6.4C63.6,31.6,66.6,34.4,66.6,37.9
		 M65.8,37.9c0-3.1-2.6-5.6-5.9-5.6c-3.3,0-5.9,2.5-5.9,5.6c0,3.1,2.6,5.5,5.9,5.5C63.1,43.5,65.8,41,65.8,37.9"/>
	<path class="st9" d="M70.9,40.8c1.5,0.7,2.7,1,4.3,1c1.5,0,2-0.6,2-1.2c0-0.7-0.7-1-2.6-1.4c-2.7-0.6-4.6-1.5-4.6-3.9
		c0-2.3,1.9-3.8,4.8-3.8c2,0,3.5,0.5,4.9,1l-1.1,2.3c-1.2-0.5-2.6-0.8-3.9-0.8c-1.2,0-1.8,0.4-1.8,1.1c0,0.7,0.8,1,2.8,1.4
		c2.9,0.6,4.6,1.6,4.6,3.9c0,2.4-1.8,3.9-5,3.9c-2.2,0-3.6-0.3-5.4-1.2L70.9,40.8z"/>
	<path class="st9" d="M94.4,31.7v12.5h-3.2v-0.9c-1,0.7-2.3,1.1-3.7,1.1c-3.9,0-6.2-3.1-6.2-6.5c0-3.3,2.3-6.5,6.2-6.5
		c1.3,0,2.6,0.4,3.7,1v-0.8H94.4z M91.2,35.4c-0.8-0.7-1.9-1.1-3.1-1.1c-2.3,0-3.7,1.7-3.7,3.6c0,1.9,1.4,3.6,3.7,3.6
		c1.2,0,2.3-0.4,3.1-1.1V35.4z"/>
	<path class="st9" d="M110.4,37.9c0,3.8-2.8,6.5-6.3,6.5c-1.3,0-2.6-0.4-3.6-1v0.8h-3.2V26.8h3.2v5.6c1.1-0.6,2.3-0.9,3.6-0.9
		C107.6,31.5,110.4,34,110.4,37.9 M107.3,37.9c0-2-1.6-3.6-3.7-3.6c-1.2,0-2.3,0.4-3.1,1.1v5c0.8,0.7,1.9,1.1,3.1,1.1
		C105.7,41.5,107.3,40,107.3,37.9"/>
	<path class="st9" d="M115.7,33.4c0.9-1.2,2.2-2,3.9-2c0.2,0,0.5,0,0.8,0.1v3.5c0,0-0.9-0.2-1.5-0.2c-2.3,0-3.2,1.6-3.2,3.3v6h-3.2
		V31.7h3.2V33.4z"/>
	<path class="st9" d="M134.5,31.7v12.5h-3.2v-0.9c-1,0.7-2.3,1.1-3.7,1.1c-3.9,0-6.2-3.1-6.2-6.5c0-3.3,2.3-6.5,6.2-6.5
		c1.3,0,2.6,0.4,3.7,1v-0.8H134.5z M131.3,35.4c-0.8-0.7-1.9-1.1-3.1-1.1c-2.3,0-3.7,1.7-3.7,3.6c0,1.9,1.4,3.6,3.7,3.6
		c1.2,0,2.3-0.4,3.1-1.1V35.4z"/>
	<path class="st9" d="M86.1,12L84.3,13l1.5,0.9l-1.5,0.9l1.2,0.7c-1.4,3.8-5.1,6.6-9.4,6.6c-2.5,0-4.7-0.9-6.5-2.4
		c-0.8-0.7-1.6-1.6-2.1-2.5l0,0c0,0-0.1-0.1-0.1-0.1c0,0,0,0,0,0c-0.6,1-1.3,1.9-2.2,2.7c-1.7,1.5-4,2.4-6.4,2.4
		c-2.7,0-5.1-1-6.9-2.8c-1.1-1.1-2-2.4-2.5-3.8l1.2-0.7L49.1,14l1.5-0.9L48.9,12c0-0.1,0-0.1,0-0.2l0-10.2l10,0.7
		c3.7,0,6.9,2.1,8.6,5.1c1.7-3,4.9-5.1,8.6-5.1l10-0.7l0,10.2C86.1,11.8,86.1,11.9,86.1,12"/>
	<polygon class="st8" points="65.3,19.8 67.5,23.5 69.7,19.8 67.5,17.1 	"/>
	<path class="st10" d="M65.3,12.2c0,3.5-2.9,6.4-6.4,6.4c-3.5,0-6.4-2.9-6.4-6.4c0-3.5,2.9-6.4,6.4-6.4C62.4,5.8,65.3,8.7,65.3,12.2
		"/>
	<path class="st8" d="M61.6,10.3c-0.3,0.4-0.9,0.4-1.3,0.1c-0.4-0.3-0.5-0.9-0.2-1.3c-0.4-0.1-0.8-0.2-1.2-0.2
		c-1.8,0-3.3,1.5-3.3,3.3c0,1.8,1.5,3.3,3.3,3.3c1.8,0,3.3-1.5,3.3-3.3C62.2,11.5,61.9,10.9,61.6,10.3"/>
	<path class="st10" d="M82.4,12.2c0,3.5-2.9,6.4-6.4,6.4c-3.5,0-6.4-2.9-6.4-6.4c0-3.5,2.9-6.4,6.4-6.4C79.6,5.8,82.4,8.7,82.4,12.2
		"/>
	<path class="st8" d="M78.7,10.3c-0.3,0.4-0.9,0.4-1.3,0.1c-0.4-0.3-0.5-0.9-0.2-1.3C76.8,9,76.4,8.9,76,8.9c-1.8,0-3.3,1.5-3.3,3.3
		c0,1.8,1.5,3.3,3.3,3.3s3.3-1.5,3.3-3.3C79.3,11.5,79.1,10.9,78.7,10.3"/>
</g>
</svg>
