<?xml version="1.0" encoding="utf-8"?>
<!-- Generator: Adobe Illustrator 22.0.0, SVG Export Plug-In . SVG Version: 6.00 Build 0)  -->
<svg version="1.1" id="Capa_1" xmlns="http://www.w3.org/2000/svg" xmlns:xlink="http://www.w3.org/1999/xlink" x="0px" y="0px"
	 viewBox="0 0 135 50" style="enable-background:new 0 0 135 50;" xml:space="preserve">
<style type="text/css">
	.st0{fill:#737373;}
	.st1{fill:#F25022;}
	.st2{fill:#7FBA00;}
	.st3{fill:#00A4EF;}
	.st4{fill:#FFB900;}
	.st5{fill:#00D27D;}
</style>
<g>
	<path class="st0" d="M207-195.8l-0.8,2.3h-0.1c-0.1-0.5-0.4-1.3-0.8-2.2l-4.2-10.6h-4.2v17h2.7v-10.6c0-0.7,0-1.4,0-2.3
		c0-0.5-0.1-0.8-0.1-1.1h0.1c0.1,0.7,0.3,1.1,0.4,1.4l5.1,12.4h1.9l5-12.5c0.1-0.3,0.2-0.9,0.3-1.3h0.2c-0.1,1.3-0.1,2.4-0.1,3.1
		v10.8h2.9v-17h-4L207-195.8z M218.1-201.7h2.9v12.2h-2.9V-201.7z M219.5-206.8c-0.5,0-0.9,0.2-1.2,0.5s-0.5,0.7-0.5,1.2
		c0,0.5,0.2,0.9,0.5,1.2s0.7,0.5,1.2,0.5s0.9-0.2,1.2-0.5c0.3-0.3,0.5-0.7,0.5-1.2c0-0.5-0.2-0.9-0.5-1.2
		C220.5-206.7,220-206.8,219.5-206.8 M231.1-201.8c-0.5-0.1-1.1-0.2-1.6-0.2c-1.3,0-2.5,0.3-3.5,0.9c-1,0.6-1.8,1.4-2.3,2.4
		c-0.5,1-0.8,2.2-0.8,3.5c0,1.2,0.3,2.2,0.8,3.1c0.5,0.9,1.2,1.7,2.2,2.2c0.9,0.5,2,0.8,3.1,0.8c1.4,0,2.5-0.3,3.5-0.8l0,0v-2.6
		l-0.1,0.1c-0.4,0.3-0.9,0.6-1.4,0.7c-0.5,0.2-1,0.3-1.4,0.3c-1.1,0-2-0.3-2.7-1.1c-0.7-0.7-1-1.7-1-2.9c0-1.3,0.3-2.2,1-3
		c0.7-0.7,1.6-1.1,2.7-1.1c0.9,0,1.9,0.3,2.7,0.9l0.1,0.1v-2.8l0,0C232.1-201.5,231.7-201.7,231.1-201.8 M240.5-201.9
		c-0.7,0-1.4,0.2-1.9,0.7c-0.5,0.4-0.8,1-1.1,1.6h0v-2.2h-2.9v12.2h2.9v-6.2c0-1.1,0.2-1.9,0.7-2.6c0.5-0.7,1.1-1,1.8-1
		c0.3,0,0.5,0.1,0.9,0.1c0.3,0.1,0.5,0.2,0.7,0.3l0.1,0.1v-2.8l-0.1,0C241.4-201.8,241-201.9,240.5-201.9 M248.3-201.9
		c-2,0-3.6,0.6-4.7,1.8c-1.1,1.2-1.7,2.8-1.7,4.8c0,1.9,0.6,3.4,1.7,4.6c1.1,1.1,2.6,1.7,4.5,1.7c2,0,3.5-0.6,4.6-1.8
		c1.1-1.2,1.7-2.8,1.7-4.7c0-1.9-0.5-3.5-1.6-4.6C251.7-201.4,250.2-201.9,248.3-201.9 M250.6-192.6c-0.5,0.7-1.4,1-2.4,1
		c-1,0-1.9-0.3-2.5-1.1c-0.6-0.7-0.9-1.7-0.9-2.9c0-1.3,0.3-2.3,0.9-3c0.6-0.7,1.4-1.1,2.4-1.1c1,0,1.8,0.3,2.4,1
		c0.6,0.7,0.9,1.7,0.9,3C251.4-194.3,251.2-193.3,250.6-192.6 M260.8-196.6c-0.9-0.4-1.5-0.7-1.7-0.9c-0.2-0.2-0.3-0.5-0.3-0.9
		c0-0.3,0.1-0.7,0.5-0.9c0.3-0.2,0.7-0.3,1.2-0.3c0.5,0,1,0.1,1.5,0.2c0.5,0.1,0.9,0.3,1.3,0.6l0.1,0.1v-2.7l-0.1,0
		c-0.3-0.1-0.8-0.3-1.3-0.4c-0.5-0.1-1-0.1-1.4-0.1c-1.4,0-2.5,0.3-3.4,1.1c-0.9,0.7-1.3,1.6-1.3,2.7c0,0.6,0.1,1.1,0.3,1.5
		c0.2,0.4,0.5,0.8,0.9,1.1c0.4,0.3,1,0.7,1.8,1c0.7,0.3,1.2,0.5,1.5,0.7c0.3,0.2,0.5,0.4,0.7,0.5c0.1,0.2,0.2,0.4,0.2,0.7
		c0,0.8-0.6,1.2-1.9,1.2c-0.5,0-1-0.1-1.6-0.3c-0.6-0.2-1.1-0.5-1.6-0.8l-0.1-0.1v2.8l0.1,0c0.4,0.2,0.9,0.3,1.5,0.5
		c0.6,0.1,1.2,0.2,1.6,0.2c1.5,0,2.7-0.3,3.5-1.1c0.9-0.7,1.3-1.6,1.3-2.8c0-0.8-0.2-1.5-0.7-2.1
		C262.7-195.6,261.9-196.2,260.8-196.6 M271.6-201.9c-2,0-3.6,0.6-4.7,1.8c-1.1,1.2-1.7,2.8-1.7,4.8c0,1.9,0.6,3.4,1.7,4.6
		c1.1,1.1,2.6,1.7,4.5,1.7c2,0,3.5-0.6,4.6-1.8c1.1-1.2,1.7-2.8,1.7-4.7c0-1.9-0.5-3.5-1.6-4.6C275-201.4,273.5-201.9,271.6-201.9
		 M273.8-192.6c-0.5,0.7-1.4,1-2.4,1c-1.1,0-1.9-0.3-2.5-1.1c-0.6-0.7-0.9-1.7-0.9-2.9c0-1.3,0.3-2.3,0.9-3c0.6-0.7,1.4-1.1,2.4-1.1
		c1,0,1.8,0.3,2.4,1c0.6,0.7,0.9,1.7,0.9,3C274.7-194.3,274.4-193.3,273.8-192.6 M292.9-199.3v-2.3H290v-3.6l-0.1,0l-2.7,0.8l-0.1,0
		v2.7l-4.3-0.1v-1.5c0-0.7,0.2-1.3,0.5-1.6s0.8-0.5,1.3-0.5c0.4,0,0.8,0.1,1.3,0.3l0.1,0.1v-2.4l-0.1,0c-0.4-0.1-0.9-0.2-1.6-0.2
		c-0.9,0-1.6,0.2-2.3,0.5c-0.7,0.4-1.2,0.9-1.5,1.5c-0.4,0.7-0.6,1.4-0.6,2.2v1.8h-2v2.3h2v9.8h2.9v-9.8h4.3v6.3
		c0,2.6,1.2,3.9,3.6,3.9c0.4,0,0.8-0.1,1.2-0.1c0.4-0.1,0.7-0.2,0.9-0.3l0,0v-2.5l-0.1,0.1c-0.2,0.1-0.3,0.2-0.6,0.3
		c-0.2,0.1-0.4,0.1-0.6,0.1c-0.6,0-1-0.1-1.2-0.5c-0.3-0.3-0.4-0.8-0.4-1.5v-5.6H292.9z"/>
	<path class="st1" d="M160.1-212.2h13.5v13.5h-13.5V-212.2z"/>
	<path class="st2" d="M174.9-212.2h13.5v13.5h-13.5V-212.2z"/>
	<path class="st3" d="M160.1-197.3h13.5v13.5h-13.5V-197.3z"/>
	<path class="st4" d="M174.9-197.3h13.5v13.5h-13.5V-197.3z"/>
</g>
<g>
	<path class="st5" d="M71,35.8h-1.7V15.4c0-0.6,0.5-1.1,1.1-1.1H71V35.8L71,35.8z"/>
	<path class="st5" d="M87.1,20.4h0.6c0.6,0,1.1,0.5,1.1,1.1v14.3h-1.7v-3.3c-1.2,2.4-3.6,3.9-6.5,3.9c-4.6,0-7.9-3.5-7.9-8.3
		s3.3-8.3,7.9-8.3c2.9,0,5.3,1.6,6.5,3.9L87.1,20.4L87.1,20.4z M87.1,28.1c0-3.9-2.8-6.7-6.4-6.7c-3.8,0-6.4,2.9-6.4,6.7
		s2.7,6.7,6.4,6.7C84.3,34.8,87.1,32,87.1,28.1"/>
	<path class="st5" d="M93.2,14.2v9.5c1.2-2.4,3.6-3.9,6.5-3.9c4.6,0,7.9,3.5,7.9,8.3s-3.4,8.3-7.9,8.3c-2.9,0-5.3-1.6-6.5-3.9v3.2
		h-1.7V15.4c0-0.6,0.5-1.1,1.1-1.1L93.2,14.2z M99.6,21.4c-3.8,0-6.4,2.9-6.4,6.6c0,3.9,2.7,6.6,6.4,6.6c3.7,0,6.4-2.8,6.4-6.6
		C106,24.3,103.3,21.4,99.6,21.4"/>
	<path class="st5" d="M108.4,30.8h1.7c0,2.4,2.1,4,5,4c2.7,0,4.5-1.4,4.5-3.1c0-4.3-10.8-1.6-10.8-7.3c0-2.7,2.5-4.6,5.7-4.6
		c3.7,0,6.3,2.2,6.3,5.1h-1.7c0-2.1-1.9-3.6-4.6-3.6c-2.3,0-4.1,1.3-4.1,2.9c0,4.1,10.8,1.6,10.8,7.2c0,2.8-2.6,4.8-6.2,4.8
		C111.2,36.4,108.4,34,108.4,30.8"/>
	<path class="st5" d="M18.9,35.8h-5.1V17.2c0-1.7,1.3-2.9,2.9-2.9h2.1V35.8z"/>
	<path class="st5" d="M56,32.1l4.8-15.6c0.4-1.2,1.6-2.1,2.9-2.1h3.1l-6.9,21.4h-7.7l-6.9-21.5h3.1c1.3,0,2.4,0.8,2.8,2L56,32.1z"/>
	<path class="st5" d="M33.5,13.5c-7.1,0-11.9,4.7-11.9,11.5s4.8,11.5,11.9,11.5c7,0,11.9-4.7,11.9-11.5
		C45.3,18.3,40.5,13.5,33.5,13.5 M33.5,32.2c-4,0-6.8-2.9-6.8-7.2c0-1.3,0.3-2.5,0.8-3.5l0,0c0,0,0,0,0-0.1c0,0,0,0,0-0.1
		c0,0,0.1-0.1,0.1-0.2c0,0,0-0.1,0.1-0.1c0-0.1,0.1-0.1,0.1-0.2c0.6-0.8,1.8-2.4,4.1-2.8H32h0.1C32.8,18,35,18,36,19.7
		c0,0,0,0,0,0.1c0.1,0.1,0.1,0.2,0.1,0.3c0,0,0,0.1,0.1,0.1c1.2,2.6-0.1,6.3-1.7,7.8c0,0,4.8-2.8,4.6-7c0.6,1.1,1,2.5,1,3.9
		C40.3,29.2,37.5,32.2,33.5,32.2"/>
</g>
</svg>
