<?xml version="1.0" encoding="utf-8"?>
<!-- Generator: Adobe Illustrator 22.0.0, SVG Export Plug-In . SVG Version: 6.00 Build 0)  -->
<svg version="1.1" id="Capa_1" xmlns="http://www.w3.org/2000/svg" xmlns:xlink="http://www.w3.org/1999/xlink" x="0px" y="0px"
	 viewBox="0 0 135 50" style="enable-background:new 0 0 135 50;" xml:space="preserve">
<style type="text/css">
	.st0{fill:#737373;}
	.st1{fill:#F25022;}
	.st2{fill:#7FBA00;}
	.st3{fill:#00A4EF;}
	.st4{fill:#FFB900;}
</style>
<g>
	<path class="st0" d="M48,27.2l-0.8,2.3h-0.1c-0.1-0.5-0.4-1.3-0.8-2.2l-4.2-10.6h-4.2v17h2.7V23.1c0-0.7,0-1.4,0-2.3
		c0-0.5-0.1-0.8-0.1-1.1h0.1c0.1,0.7,0.3,1.1,0.4,1.4l5.1,12.4H48l5-12.5c0.1-0.3,0.2-0.9,0.3-1.3h0.2c-0.1,1.3-0.1,2.4-0.1,3.1
		v10.8h2.9v-17h-4L48,27.2z M59.1,21.3H62v12.2h-2.9V21.3z M60.5,16.2c-0.5,0-0.9,0.2-1.2,0.5c-0.3,0.3-0.5,0.7-0.5,1.2
		c0,0.5,0.2,0.9,0.5,1.2c0.3,0.3,0.7,0.5,1.2,0.5s0.9-0.2,1.2-0.5c0.3-0.3,0.5-0.7,0.5-1.2s-0.2-0.9-0.5-1.2
		C61.5,16.3,61,16.2,60.5,16.2 M72.1,21.2C71.6,21.1,71,21,70.5,21c-1.3,0-2.5,0.3-3.5,0.9c-1,0.6-1.8,1.4-2.3,2.4
		c-0.5,1-0.8,2.2-0.8,3.5c0,1.2,0.3,2.2,0.8,3.1c0.5,0.9,1.2,1.7,2.2,2.2c0.9,0.5,2,0.8,3.1,0.8c1.4,0,2.5-0.3,3.5-0.8l0,0v-2.6
		l-0.1,0.1c-0.4,0.3-0.9,0.6-1.4,0.7c-0.5,0.2-1,0.3-1.4,0.3c-1.1,0-2-0.3-2.7-1.1c-0.7-0.7-1-1.7-1-2.9c0-1.3,0.3-2.2,1-3
		s1.6-1.1,2.7-1.1c0.9,0,1.9,0.3,2.7,0.9l0.1,0.1v-2.8l0,0C73.1,21.5,72.7,21.3,72.1,21.2 M81.5,21.1c-0.7,0-1.4,0.2-1.9,0.7
		c-0.5,0.4-0.8,1-1.1,1.6h0v-2.2h-2.9v12.2h2.9v-6.2c0-1.1,0.2-1.9,0.7-2.6c0.5-0.7,1.1-1,1.8-1c0.3,0,0.5,0.1,0.9,0.1
		c0.3,0.1,0.5,0.2,0.7,0.3l0.1,0.1v-2.8l-0.1,0C82.4,21.2,82,21.1,81.5,21.1 M89.3,21.1c-2,0-3.6,0.6-4.7,1.8
		c-1.1,1.2-1.7,2.8-1.7,4.8c0,1.9,0.6,3.4,1.7,4.6c1.1,1.1,2.6,1.7,4.5,1.7c2,0,3.5-0.6,4.6-1.8c1.1-1.2,1.7-2.8,1.7-4.7
		c0-1.9-0.5-3.5-1.6-4.6C92.7,21.6,91.2,21.1,89.3,21.1 M91.6,30.4c-0.5,0.7-1.4,1-2.4,1c-1,0-1.9-0.3-2.5-1.1
		c-0.6-0.7-0.9-1.7-0.9-2.9c0-1.3,0.3-2.3,0.9-3c0.6-0.7,1.4-1.1,2.4-1.1c1,0,1.8,0.3,2.4,1c0.6,0.7,0.9,1.7,0.9,3
		C92.4,28.7,92.2,29.7,91.6,30.4 M101.8,26.4c-0.9-0.4-1.5-0.7-1.7-0.9c-0.2-0.2-0.3-0.5-0.3-0.9c0-0.3,0.1-0.7,0.5-0.9
		c0.3-0.2,0.7-0.3,1.2-0.3c0.5,0,1,0.1,1.5,0.2c0.5,0.1,0.9,0.3,1.3,0.6l0.1,0.1v-2.7l-0.1,0c-0.3-0.1-0.8-0.3-1.3-0.4
		c-0.5-0.1-1-0.1-1.4-0.1c-1.4,0-2.5,0.3-3.4,1.1c-0.9,0.7-1.3,1.6-1.3,2.7c0,0.6,0.1,1.1,0.3,1.5c0.2,0.4,0.5,0.8,0.9,1.1
		c0.4,0.3,1,0.7,1.8,1c0.7,0.3,1.2,0.5,1.5,0.7c0.3,0.2,0.5,0.4,0.7,0.5c0.1,0.2,0.2,0.4,0.2,0.7c0,0.8-0.6,1.2-1.9,1.2
		c-0.5,0-1-0.1-1.6-0.3C98,31,97.5,30.7,97,30.4l-0.1-0.1v2.8l0.1,0c0.4,0.2,0.9,0.3,1.5,0.5c0.6,0.1,1.2,0.2,1.6,0.2
		c1.5,0,2.7-0.3,3.5-1.1c0.9-0.7,1.3-1.6,1.3-2.8c0-0.8-0.2-1.5-0.7-2.1C103.7,27.4,102.9,26.8,101.8,26.4 M112.6,21.1
		c-2,0-3.6,0.6-4.7,1.8c-1.1,1.2-1.7,2.8-1.7,4.8c0,1.9,0.6,3.4,1.7,4.6c1.1,1.1,2.6,1.7,4.5,1.7c2,0,3.5-0.6,4.6-1.8
		c1.1-1.2,1.7-2.8,1.7-4.7c0-1.9-0.5-3.5-1.6-4.6C116,21.6,114.5,21.1,112.6,21.1 M114.8,30.4c-0.5,0.7-1.4,1-2.4,1
		c-1.1,0-1.9-0.3-2.5-1.1c-0.6-0.7-0.9-1.7-0.9-2.9c0-1.3,0.3-2.3,0.9-3c0.6-0.7,1.4-1.1,2.4-1.1c1,0,1.8,0.3,2.4,1
		c0.6,0.7,0.9,1.7,0.9,3C115.7,28.7,115.4,29.7,114.8,30.4 M133.9,23.7v-2.3H131v-3.6l-0.1,0l-2.7,0.8l-0.1,0v2.7l-4.3-0.1v-1.5
		c0-0.7,0.2-1.3,0.5-1.6c0.3-0.4,0.8-0.5,1.3-0.5c0.4,0,0.8,0.1,1.3,0.3l0.1,0.1v-2.4l-0.1,0c-0.4-0.1-0.9-0.2-1.6-0.2
		c-0.9,0-1.6,0.2-2.3,0.5c-0.7,0.4-1.2,0.9-1.5,1.5c-0.4,0.7-0.6,1.4-0.6,2.2v1.8h-2v2.3h2v9.8h2.9v-9.8h4.3V30
		c0,2.6,1.2,3.9,3.6,3.9c0.4,0,0.8-0.1,1.2-0.1c0.4-0.1,0.7-0.2,0.9-0.3l0,0v-2.5l-0.1,0.1c-0.2,0.1-0.3,0.2-0.6,0.3
		c-0.2,0.1-0.4,0.1-0.6,0.1c-0.6,0-1-0.1-1.2-0.5c-0.3-0.3-0.4-0.8-0.4-1.5v-5.6H133.9z"/>
	<path class="st1" d="M1.1,10.8h13.5v13.5H1.1V10.8z"/>
	<path class="st2" d="M15.9,10.8h13.5v13.5H15.9V10.8z"/>
	<path class="st3" d="M1.1,25.7h13.5v13.5H1.1V25.7z"/>
	<path class="st4" d="M15.9,25.7h13.5v13.5H15.9V25.7z"/>
</g>
</svg>
