<?xml version="1.0" encoding="utf-8"?>
<!-- Generator: Adobe Illustrator 22.0.0, SVG Export Plug-In . SVG Version: 6.00 Build 0)  -->
<svg version="1.1" id="Capa_1" xmlns="http://www.w3.org/2000/svg" xmlns:xlink="http://www.w3.org/1999/xlink" x="0px" y="0px"
	 viewBox="0 0 135 50" style="enable-background:new 0 0 135 50;" xml:space="preserve">
<style type="text/css">
	.st0{fill:#737373;}
	.st1{fill:#F25022;}
	.st2{fill:#7FBA00;}
	.st3{fill:#00A4EF;}
	.st4{fill:#FFB900;}
	.st5{fill:#00D27D;}
	.st6{fill:#006E3C;}
	.st7{fill:#00B43C;}
</style>
<g>
	<path class="st0" d="M207-195.8l-0.8,2.3h-0.1c-0.1-0.5-0.4-1.3-0.8-2.2l-4.2-10.6h-4.2v17h2.7v-10.6c0-0.7,0-1.4,0-2.3
		c0-0.5-0.1-0.8-0.1-1.1h0.1c0.1,0.7,0.3,1.1,0.4,1.4l5.1,12.4h1.9l5-12.5c0.1-0.3,0.2-0.9,0.3-1.3h0.2c-0.1,1.3-0.1,2.4-0.1,3.1
		v10.8h2.9v-17h-4L207-195.8z M218.1-201.7h2.9v12.2h-2.9V-201.7z M219.5-206.8c-0.5,0-0.9,0.2-1.2,0.5s-0.5,0.7-0.5,1.2
		c0,0.5,0.2,0.9,0.5,1.2s0.7,0.5,1.2,0.5s0.9-0.2,1.2-0.5c0.3-0.3,0.5-0.7,0.5-1.2c0-0.5-0.2-0.9-0.5-1.2
		C220.5-206.7,220-206.8,219.5-206.8 M231.1-201.8c-0.5-0.1-1.1-0.2-1.6-0.2c-1.3,0-2.5,0.3-3.5,0.9c-1,0.6-1.8,1.4-2.3,2.4
		c-0.5,1-0.8,2.2-0.8,3.5c0,1.2,0.3,2.2,0.8,3.1c0.5,0.9,1.2,1.7,2.2,2.2c0.9,0.5,2,0.8,3.1,0.8c1.4,0,2.5-0.3,3.5-0.8l0,0v-2.6
		l-0.1,0.1c-0.4,0.3-0.9,0.6-1.4,0.7c-0.5,0.2-1,0.3-1.4,0.3c-1.1,0-2-0.3-2.7-1.1c-0.7-0.7-1-1.7-1-2.9c0-1.3,0.3-2.2,1-3
		c0.7-0.7,1.6-1.1,2.7-1.1c0.9,0,1.9,0.3,2.7,0.9l0.1,0.1v-2.8l0,0C232.1-201.5,231.7-201.7,231.1-201.8 M240.5-201.9
		c-0.7,0-1.4,0.2-1.9,0.7c-0.5,0.4-0.8,1-1.1,1.6h0v-2.2h-2.9v12.2h2.9v-6.2c0-1.1,0.2-1.9,0.7-2.6c0.5-0.7,1.1-1,1.8-1
		c0.3,0,0.5,0.1,0.9,0.1c0.3,0.1,0.5,0.2,0.7,0.3l0.1,0.1v-2.8l-0.1,0C241.4-201.8,241-201.9,240.5-201.9 M248.3-201.9
		c-2,0-3.6,0.6-4.7,1.8c-1.1,1.2-1.7,2.8-1.7,4.8c0,1.9,0.6,3.4,1.7,4.6c1.1,1.1,2.6,1.7,4.5,1.7c2,0,3.5-0.6,4.6-1.8
		c1.1-1.2,1.7-2.8,1.7-4.7c0-1.9-0.5-3.5-1.6-4.6C251.7-201.4,250.2-201.9,248.3-201.9 M250.6-192.6c-0.5,0.7-1.4,1-2.4,1
		c-1,0-1.9-0.3-2.5-1.1c-0.6-0.7-0.9-1.7-0.9-2.9c0-1.3,0.3-2.3,0.9-3c0.6-0.7,1.4-1.1,2.4-1.1c1,0,1.8,0.3,2.4,1
		c0.6,0.7,0.9,1.7,0.9,3C251.4-194.3,251.2-193.3,250.6-192.6 M260.8-196.6c-0.9-0.4-1.5-0.7-1.7-0.9c-0.2-0.2-0.3-0.5-0.3-0.9
		c0-0.3,0.1-0.7,0.5-0.9c0.3-0.2,0.7-0.3,1.2-0.3c0.5,0,1,0.1,1.5,0.2c0.5,0.1,0.9,0.3,1.3,0.6l0.1,0.1v-2.7l-0.1,0
		c-0.3-0.1-0.8-0.3-1.3-0.4c-0.5-0.1-1-0.1-1.4-0.1c-1.4,0-2.5,0.3-3.4,1.1c-0.9,0.7-1.3,1.6-1.3,2.7c0,0.6,0.1,1.1,0.3,1.5
		c0.2,0.4,0.5,0.8,0.9,1.1c0.4,0.3,1,0.7,1.8,1c0.7,0.3,1.2,0.5,1.5,0.7c0.3,0.2,0.5,0.4,0.7,0.5c0.1,0.2,0.2,0.4,0.2,0.7
		c0,0.8-0.6,1.2-1.9,1.2c-0.5,0-1-0.1-1.6-0.3c-0.6-0.2-1.1-0.5-1.6-0.8l-0.1-0.1v2.8l0.1,0c0.4,0.2,0.9,0.3,1.5,0.5
		c0.6,0.1,1.2,0.2,1.6,0.2c1.5,0,2.7-0.3,3.5-1.1c0.9-0.7,1.3-1.6,1.3-2.8c0-0.8-0.2-1.5-0.7-2.1
		C262.7-195.6,261.9-196.2,260.8-196.6 M271.6-201.9c-2,0-3.6,0.6-4.7,1.8c-1.1,1.2-1.7,2.8-1.7,4.8c0,1.9,0.6,3.4,1.7,4.6
		c1.1,1.1,2.6,1.7,4.5,1.7c2,0,3.5-0.6,4.6-1.8c1.1-1.2,1.7-2.8,1.7-4.7c0-1.9-0.5-3.5-1.6-4.6C275-201.4,273.5-201.9,271.6-201.9
		 M273.8-192.6c-0.5,0.7-1.4,1-2.4,1c-1.1,0-1.9-0.3-2.5-1.1c-0.6-0.7-0.9-1.7-0.9-2.9c0-1.3,0.3-2.3,0.9-3c0.6-0.7,1.4-1.1,2.4-1.1
		c1,0,1.8,0.3,2.4,1c0.6,0.7,0.9,1.7,0.9,3C274.7-194.3,274.4-193.3,273.8-192.6 M292.9-199.3v-2.3H290v-3.6l-0.1,0l-2.7,0.8l-0.1,0
		v2.7l-4.3-0.1v-1.5c0-0.7,0.2-1.3,0.5-1.6s0.8-0.5,1.3-0.5c0.4,0,0.8,0.1,1.3,0.3l0.1,0.1v-2.4l-0.1,0c-0.4-0.1-0.9-0.2-1.6-0.2
		c-0.9,0-1.6,0.2-2.3,0.5c-0.7,0.4-1.2,0.9-1.5,1.5c-0.4,0.7-0.6,1.4-0.6,2.2v1.8h-2v2.3h2v9.8h2.9v-9.8h4.3v6.3
		c0,2.6,1.2,3.9,3.6,3.9c0.4,0,0.8-0.1,1.2-0.1c0.4-0.1,0.7-0.2,0.9-0.3l0,0v-2.5l-0.1,0.1c-0.2,0.1-0.3,0.2-0.6,0.3
		c-0.2,0.1-0.4,0.1-0.6,0.1c-0.6,0-1-0.1-1.2-0.5c-0.3-0.3-0.4-0.8-0.4-1.5v-5.6H292.9z"/>
	<path class="st1" d="M160.1-212.2h13.5v13.5h-13.5V-212.2z"/>
	<path class="st2" d="M174.9-212.2h13.5v13.5h-13.5V-212.2z"/>
	<path class="st3" d="M160.1-197.3h13.5v13.5h-13.5V-197.3z"/>
	<path class="st4" d="M174.9-197.3h13.5v13.5h-13.5V-197.3z"/>
</g>
<g>
	<path class="st5" d="M369-56.2h-1.7v-20.4c0-0.6,0.5-1.1,1.1-1.1h0.6V-56.2L369-56.2z"/>
	<path class="st5" d="M385.1-71.6h0.6c0.6,0,1.1,0.5,1.1,1.1v14.3h-1.7v-3.3c-1.2,2.4-3.6,3.9-6.5,3.9c-4.6,0-7.9-3.5-7.9-8.3
		s3.3-8.3,7.9-8.3c2.9,0,5.3,1.6,6.5,3.9V-71.6L385.1-71.6z M385.1-63.9c0-3.9-2.8-6.7-6.4-6.7c-3.8,0-6.4,2.9-6.4,6.7
		c0,3.9,2.7,6.7,6.4,6.7C382.3-57.2,385.1-60,385.1-63.9"/>
	<path class="st5" d="M391.2-77.8v9.5c1.2-2.4,3.6-3.9,6.5-3.9c4.6,0,7.9,3.5,7.9,8.3s-3.4,8.3-7.9,8.3c-2.9,0-5.3-1.6-6.5-3.9v3.2
		h-1.7v-20.4c0-0.6,0.5-1.1,1.1-1.1L391.2-77.8z M397.6-70.6c-3.8,0-6.4,2.9-6.4,6.6c0,3.9,2.7,6.6,6.4,6.6c3.7,0,6.4-2.8,6.4-6.6
		C404-67.7,401.3-70.6,397.6-70.6"/>
	<path class="st5" d="M406.4-61.2h1.7c0,2.4,2.1,4,5,4c2.7,0,4.5-1.4,4.5-3.1c0-4.3-10.8-1.6-10.8-7.3c0-2.7,2.5-4.6,5.7-4.6
		c3.7,0,6.3,2.2,6.3,5.1h-1.7c0-2.1-1.9-3.6-4.6-3.6c-2.3,0-4.1,1.3-4.1,2.9c0,4.1,10.8,1.6,10.8,7.2c0,2.8-2.6,4.8-6.2,4.8
		C409.2-55.6,406.4-58,406.4-61.2"/>
	<path class="st5" d="M316.9-56.2h-5.1v-18.6c0-1.7,1.3-2.9,2.9-2.9h2.1V-56.2z"/>
	<path class="st5" d="M354-59.9l4.8-15.6c0.4-1.2,1.6-2.1,2.9-2.1h3.1l-6.9,21.4h-7.7l-6.9-21.5h3.1c1.3,0,2.4,0.8,2.8,2L354-59.9z"
		/>
	<path class="st5" d="M331.5-78.5c-7.1,0-11.9,4.7-11.9,11.5s4.8,11.5,11.9,11.5c7,0,11.9-4.7,11.9-11.5
		C343.3-73.7,338.5-78.5,331.5-78.5 M331.5-59.8c-4,0-6.8-2.9-6.8-7.2c0-1.3,0.3-2.5,0.8-3.5l0,0c0,0,0,0,0-0.1c0,0,0,0,0-0.1
		c0,0,0.1-0.1,0.1-0.2c0,0,0-0.1,0.1-0.1c0-0.1,0.1-0.1,0.1-0.2c0.6-0.8,1.8-2.4,4.1-2.8h0.1h0.1c0.7-0.1,2.9-0.1,3.9,1.6
		c0,0,0,0,0,0.1c0.1,0.1,0.1,0.2,0.1,0.3c0,0,0,0.1,0.1,0.1c1.2,2.6-0.1,6.3-1.7,7.8c0,0,4.8-2.8,4.6-7c0.6,1.1,1,2.5,1,3.9
		C338.3-62.8,335.5-59.8,331.5-59.8"/>
</g>
<g>
	<path d="M62.8,40.7l0-18.1l3.7-0.5l0.6,2.8c1.2-1.9,3-2.9,5.3-2.9c0.5,0,0.9,0,1.2,0.1l-0.1,3.7c-0.4-0.1-0.9-0.1-1.4-0.1
		c-1.6,0-2.8,0.4-3.6,1.3c-0.8,0.9-1.2,2.1-1.2,3.6v10H62.8z"/>
	<path d="M81.9,41.1c-2.7,0-4.9-0.5-6.6-1.4l0.5-3.3c0.7,0.4,1.7,0.8,2.8,1.1c1.1,0.3,2.2,0.5,3.1,0.5c1,0,1.7-0.2,2.3-0.5
		c0.5-0.4,0.8-0.9,0.8-1.6c0-0.6-0.3-1.1-0.8-1.5c-0.5-0.4-1.5-0.8-2.9-1.4c-0.5-0.2-0.8-0.3-1-0.4c-1.7-0.7-2.9-1.4-3.7-2.2
		c-0.8-0.8-1.1-1.9-1.1-3.3c0-1.7,0.6-3,1.8-3.9c1.2-0.9,2.9-1.3,5.1-1.3c2.4,0,4.4,0.4,6.2,1.3l-1.1,3c-1.8-0.8-3.4-1.2-5-1.2
		c-0.9,0-1.6,0.1-2.1,0.4c-0.5,0.3-0.7,0.7-0.7,1.4c0,0.6,0.2,1,0.7,1.3c0.5,0.3,1.4,0.7,2.8,1.3c0,0,0.2,0.1,0.4,0.2
		c0.2,0.1,0.4,0.2,0.6,0.2c1.7,0.6,2.9,1.4,3.7,2.2c0.8,0.9,1.2,2,1.2,3.4c0,1.9-0.6,3.3-1.9,4.3C86,40.6,84.2,41.1,81.9,41.1"/>
	<polygon points="101.4,30.2 109,22.2 103.7,22.2 96.2,30 96.2,16.2 91.8,17 91.8,40.7 96.2,40.7 96.2,40.7 96.2,35.7 98.6,33.2 
		104.1,40.7 109.5,40.7 	"/>
	<path class="st6" d="M37.6,19.6V2.4c0,0-5.6,2.8-5.6,8.7C32,16.9,37.6,19.6,37.6,19.6"/>
	<path class="st7" d="M37.6,2.4c0,0,5.6,2.8,5.6,8.7c0,5.9-5.6,8.5-5.6,8.5V2.4z"/>
	<path class="st6" d="M50.6,27.7l7.6-4.3c0,0-2.6-1.8-5.3-0.3C50.3,24.5,50.6,27.7,50.6,27.7"/>
	<path class="st7" d="M58.2,23.3c0,0,0.2,3.2-2.4,4.7c-2.6,1.5-5.2-0.3-5.2-0.3L58.2,23.3z"/>
	<path d="M58.6,22.6c-0.1-0.1-3.4-1.8-6.1-0.2c-2.2,1.3-2.6,3.8-2.7,4.8l-1,0.6c-0.5-0.5-1.2-0.8-1.9-0.8c-0.7,0-1.4,0.3-1.9,0.8
		l-4.6-2.7c0.1-0.2,0.1-0.4,0.1-0.7c0-1.3-0.9-2.3-2-2.7v-1.6c1.3-0.9,5.6-4,5.6-9c0-5.8-5.7-9.4-6-9.5l-0.4-0.3l-0.4,0.3
		c-0.2,0.1-6,3.8-6,9.5c0,5,4.3,8.1,5.6,9v1.6c-1.2,0.3-2,1.4-2,2.7c0,0.2,0,0.5,0.1,0.7l-4.6,2.7c-0.5-0.5-1.2-0.8-1.9-0.8
		c-1.5,0-2.8,1.3-2.8,2.8c0,1.3,0.9,2.3,2,2.7V38c-1.2,0.3-2,1.4-2,2.7c0,1.5,1.3,2.8,2.8,2.8c0.8,0,1.6-0.4,2.1-0.9l4.5,2.6
		c-0.1,0.2-0.1,0.4-0.1,0.7c0,1.5,1.3,2.8,2.8,2.8c1.5,0,2.8-1.2,2.8-2.8c0-0.2,0-0.5-0.1-0.7l4.5-2.6c0.5,0.6,1.2,0.9,2.1,0.9
		c1.5,0,2.8-1.3,2.8-2.8c0-1.3-0.9-2.3-2-2.7v-5.5c1.2-0.3,2-1.4,2-2.7c0-0.2,0-0.4-0.1-0.7l1-0.6c0.6,0.3,1.7,0.7,3.1,0.7
		c0.8,0,1.7-0.2,2.5-0.6c2.7-1.6,2.9-5.2,2.9-5.4l0-0.5L58.6,22.6z M47.6,30.8c-0.2,0.2-0.5,0.3-0.8,0.3c-0.2,0-0.3,0-0.4-0.1
		c-0.1,0-0.2-0.1-0.3-0.2c-0.2-0.2-0.4-0.5-0.5-0.8c0-0.1,0-0.1,0-0.2c0-0.1,0-0.1,0-0.2c0.1-0.5,0.4-0.8,0.8-1
		c0.1-0.1,0.3-0.1,0.5-0.1c0.2,0,0.3,0,0.5,0.1c0.4,0.2,0.8,0.6,0.8,1.1c0,0.1,0,0.1,0,0.2C48,30.3,47.8,30.6,47.6,30.8 M48.1,40.7
		c0,0.7-0.6,1.2-1.2,1.2c-0.2,0-0.5-0.1-0.7-0.2c-0.4-0.2-0.6-0.6-0.6-1.1c0,0,0,0,0,0v0c0-0.1,0-0.3,0.1-0.4
		c0.1-0.2,0.2-0.4,0.4-0.6c0.2-0.1,0.3-0.2,0.6-0.2c0.1,0,0.1,0,0.2,0c0.3,0,0.6,0.1,0.8,0.3C47.9,40,48.1,40.3,48.1,40.7 M46.1,38
		c-0.4,0.1-0.7,0.3-1,0.5l-4.7-2.7v0c0-0.2,0.1-0.4,0.1-0.6c0-0.3,0-0.5-0.1-0.8l4.7-2.7c0.3,0.3,0.7,0.5,1.2,0.7V38z M37.6,47.1
		c-0.6,0-1.1-0.5-1.2-1.1c0-0.1,0-0.1,0-0.2c0-0.5,0.3-1,0.8-1.2c0.1-0.1,0.3-0.1,0.5-0.1c0.2,0,0.3,0,0.5,0.1
		c0.5,0.2,0.8,0.6,0.8,1.2c0,0.1,0,0.1,0,0.2C38.7,46.6,38.2,47.1,37.6,47.1 M34.8,35.9l-4.7,2.7c-0.3-0.2-0.6-0.4-1-0.5v-5.5
		c0.4-0.1,0.8-0.4,1.2-0.7l4.6,2.7c-0.1,0.2-0.1,0.5-0.1,0.8C34.8,35.5,34.8,35.7,34.8,35.9L34.8,35.9z M29.6,40.7
		c0,0.4-0.2,0.8-0.6,1.1c-0.2,0.1-0.4,0.2-0.7,0.2c-0.7,0-1.2-0.6-1.2-1.2c0-0.4,0.2-0.7,0.5-1c0.2-0.2,0.5-0.3,0.8-0.3
		c0.1,0,0.1,0,0.2,0c0.2,0,0.4,0.1,0.6,0.2c0.2,0.1,0.3,0.3,0.4,0.6C29.5,40.4,29.6,40.6,29.6,40.7C29.6,40.7,29.6,40.7,29.6,40.7
		 M27.1,29.8c0-0.7,0.6-1.2,1.2-1.2c0.2,0,0.3,0,0.5,0.1c0.4,0.2,0.7,0.5,0.8,1c0,0.1,0,0.1,0,0.2c0,0.1,0,0.1,0,0.2
		c0,0.3-0.2,0.6-0.5,0.8c-0.1,0.1-0.2,0.1-0.3,0.2c-0.1,0.1-0.3,0.1-0.5,0.1c-0.3,0-0.6-0.1-0.8-0.3C27.3,30.6,27.1,30.2,27.1,29.8
		 M36.8,23.5c0.2-0.2,0.5-0.3,0.8-0.3c0.3,0,0.6,0.1,0.8,0.3c0.2,0.2,0.4,0.5,0.5,0.8c0,0.1,0,0.1,0,0.2c0,0.4-0.2,0.7-0.5,1
		c-0.1,0.1-0.2,0.1-0.3,0.2c-0.1,0.1-0.3,0.1-0.5,0.1c-0.2,0-0.3,0-0.5-0.1c-0.1,0-0.2-0.1-0.3-0.2c-0.3-0.2-0.5-0.6-0.5-1
		c0-0.1,0-0.1,0-0.2C36.4,24,36.6,23.7,36.8,23.5 M38.8,35.4c0,0.4-0.2,0.7-0.5,0.9c-0.1,0-0.1,0.1-0.2,0.1
		c-0.2,0.1-0.4,0.1-0.6,0.1c-0.2,0-0.4-0.1-0.6-0.1c-0.1,0-0.1-0.1-0.2-0.1c-0.3-0.2-0.5-0.6-0.5-0.9c0,0,0,0,0,0c0-0.1,0-0.2,0-0.3
		c0.1-0.3,0.2-0.5,0.4-0.7c0.1-0.1,0.3-0.2,0.5-0.2c0.1,0,0.2,0,0.3,0c0.1,0,0.2,0,0.3,0c0.2,0,0.3,0.1,0.4,0.2
		c0.2,0.2,0.4,0.4,0.4,0.6C38.8,35.1,38.8,35.2,38.8,35.4C38.8,35.3,38.8,35.3,38.8,35.4L38.8,35.4z M44.1,29.2
		c-0.1,0.2-0.1,0.4-0.1,0.7c0,0.2,0,0.5,0.1,0.7l-4.7,2.7c-0.3-0.3-0.7-0.5-1.1-0.6v-5.5c0.4-0.1,0.8-0.4,1.2-0.7L44.1,29.2z
		 M32.7,11.2c0-4.1,3.6-7.1,4.8-8c1.2,0.9,4.8,3.8,4.8,8c0,3.4-2.5,5.9-4.1,7.1v-6.5c0-0.4-0.3-0.8-0.8-0.8c-0.4,0-0.8,0.3-0.8,0.8
		v6.5C35.3,17.1,32.7,14.6,32.7,11.2 M35.6,26.5c0.3,0.3,0.7,0.5,1.2,0.7v5.5c-0.4,0.1-0.8,0.3-1.1,0.6L31,30.5
		c0.1-0.2,0.1-0.4,0.1-0.7c0-0.2,0-0.5-0.1-0.7L35.6,26.5z M31.1,41.2c0-0.2,0-0.3,0-0.5c0-0.3,0-0.6-0.1-0.8l4.6-2.6
		c0.3,0.4,0.8,0.6,1.2,0.8v5.2c-0.4,0.1-0.8,0.4-1.2,0.7L31.1,41.2z M39.5,43.8c-0.3-0.3-0.7-0.5-1.2-0.7V38
		c0.5-0.1,0.9-0.4,1.2-0.8l4.6,2.6c-0.1,0.3-0.1,0.6-0.1,0.9c0,0.2,0,0.3,0,0.5L39.5,43.8z M55.3,27.3c-1,0.6-2.2,0.5-3.1,0.2
		l1.5-0.9c0.4-0.2,0.5-0.7,0.3-1.1c-0.2-0.4-0.7-0.5-1.1-0.3l-1.5,0.9c0.2-0.9,0.7-1.9,1.7-2.5c1.5-0.8,3.3-0.3,4.1,0
		C57.3,24.7,56.8,26.5,55.3,27.3"/>
</g>
</svg>
