<?xml version="1.0" encoding="utf-8"?>
<!-- Generator: Adobe Illustrator 22.0.0, SVG Export Plug-In . SVG Version: 6.00 Build 0)  -->
<svg version="1.1" id="Capa_1" xmlns="http://www.w3.org/2000/svg" xmlns:xlink="http://www.w3.org/1999/xlink" x="0px" y="0px"
	 viewBox="0 0 130 130" style="enable-background:new 0 0 130 130;" xml:space="preserve">
<style type="text/css">
	.st0{fill:#EBEBEB;}
	.st1{fill:#008CFF;}
	.st2{fill:#FFFFFF;}
</style>
<g>
	<path class="st0" d="M69.1,9.8c-3.5,1.6-6,5.1-6,9.2v3.5h12V19C75.1,14.9,72.6,11.4,69.1,9.8z"/>
	<g>
		<path class="st1" d="M94.3,12.9L94.3,12.9c0-3.7-2.1-6.9-5.1-8.5C86.1,6.1,84,9.3,84,12.9v9.6h0.7C90,22.5,94.3,18.2,94.3,12.9z"
			/>
		<path class="st1" d="M49.9,4.5c-3,1.6-5,4.8-5,8.4l0,0c0,5.3,4.3,9.6,9.6,9.6h0.5v-9.6C54.9,9.3,52.9,6.1,49.9,4.5z"/>
	</g>
	<path class="st1" d="M119,22.5H40.3c-4.5,0-8.1,3.6-8.1,8.1v20.2h21.7h22.2h7.1h22.2h21.7V30.6C127.1,26.1,123.4,22.5,119,22.5z"/>
	<path class="st0" d="M120.2,121.3V50.8h-16.7H80.2h-3H53.8H36.1v70.5c0,3.4,2.8,6.2,6.2,6.2h71.8
		C117.5,127.5,120.2,124.7,120.2,121.3z"/>
	<rect x="54.9" y="22.5" class="st2" width="20.2" height="104.9"/>
	<path d="M119,20H94.5c1.4-2,2.3-4.4,2.3-7.1c0-6.7-5.4-12.1-12.1-12.1c-5.4,0-10,3.6-11.6,8.5c-2.2-1.8-5-3-8.1-3s-5.9,1.1-8.1,3
		c-1.5-4.9-6.1-8.5-11.6-8.5c-6.7,0-12.1,5.4-12.1,12.1c0,2.6,0.8,5.1,2.3,7.1H11C5.2,20,0.4,24.8,0.4,30.6v20.2
		c0,1.4,1.1,2.5,2.5,2.5h4.3v68c0,4.8,3.9,8.7,8.7,8.7h39h20.2h39c4.8,0,8.7-3.9,8.7-8.7V96.2c0-1.4-1.1-2.5-2.5-2.5
		c-1.4,0-2.5,1.1-2.5,2.5v25.1c0,2-1.6,3.7-3.7,3.7H77.6V53.3h40.1v23.5c0,1.4,1.1,2.5,2.5,2.5c1.4,0,2.5-1.1,2.5-2.5V53.3h4.3
		c1.4,0,2.5-1.1,2.5-2.5V30.6C129.6,24.8,124.8,20,119,20z M77.6,12.9c0-3.9,3.2-7.1,7.1-7.1s7.1,3.2,7.1,7.1S88.6,20,84.7,20h-7.1
		v-1V12.9z M65,11.4c4.2,0,7.6,3.4,7.6,7.6v1H57.4v-1C57.4,14.8,60.8,11.4,65,11.4z M38.3,12.9c0-3.9,3.2-7.1,7.1-7.1
		s7.1,3.2,7.1,7.1V19v1h-7.1C41.4,20,38.3,16.8,38.3,12.9z M5.5,30.6c0-3.1,2.5-5.5,5.5-5.5h41.2c-1.2,7-7.3,12.3-14.6,12.3
		c-1.4,0-2.5,1.1-2.5,2.5c0,1.4,1.1,2.5,2.5,2.5c5.9,0,11.2-2.6,14.9-6.7v12.5H9.8H5.5V30.6z M12.3,121.3v-68h40.1V125H15.9
		C13.9,125,12.3,123.3,12.3,121.3z M57.4,125V25.1h15.1V125H57.4z M124.5,48.3h-4.3H77.6V35.8c3.6,4.1,9,6.7,14.9,6.7
		c1.4,0,2.5-1.1,2.5-2.5c0-1.4-1.1-2.5-2.5-2.5c-7.3,0-13.4-5.3-14.6-12.3H119c3.1,0,5.5,2.5,5.5,5.5V48.3z"/>
	<path d="M44.8,74.2c-1.4,0-2.5,1.1-2.5,2.5v23.5c0,1.4,1.1,2.5,2.5,2.5c1.4,0,2.5-1.1,2.5-2.5V76.8C47.3,75.4,46.2,74.2,44.8,74.2z
		"/>
	<path d="M44.8,64.5c-1.4,0-2.5,1.1-2.5,2.5v0c0,1.4,1.1,2.5,2.5,2.5c1.4,0,2.5-1.1,2.5-2.5v0C47.3,65.6,46.2,64.5,44.8,64.5z"/>
	<path d="M120.2,83.6c-0.7,0-1.3,0.3-1.8,0.7c-0.5,0.5-0.7,1.1-0.7,1.8c0,0.7,0.3,1.3,0.7,1.8c0.5,0.5,1.1,0.7,1.8,0.7
		c0.7,0,1.3-0.3,1.8-0.7c0.5-0.5,0.7-1.1,0.7-1.8c0-0.7-0.3-1.3-0.7-1.8C121.6,83.8,120.9,83.6,120.2,83.6z"/>
	<path class="st2" d="M23.9,18.5H23c-1.1,0-2.1,0.4-2.8,1.2c-0.8,0.8-1.2,1.8-1.2,2.8v99.3c0.2,0,0.3,0,0.5,0l4.4-12.7V18.5z"/>
</g>
</svg>
