<?xml version="1.0" encoding="utf-8"?>
<!-- Generator: Adobe Illustrator 22.0.0, SVG Export Plug-In . SVG Version: 6.00 Build 0)  -->
<svg version="1.1" id="Capa_1" xmlns="http://www.w3.org/2000/svg" xmlns:xlink="http://www.w3.org/1999/xlink" x="0px" y="0px"
	 viewBox="0 0 130 130" style="enable-background:new 0 0 130 130;" xml:space="preserve">
<style type="text/css">
	.st0{fill:#EBEBEB;}
	.st1{fill:#008CFF;}
</style>
<g>
	<path class="st0" d="M108.4,104.3l15.7-15.7c1.9-1.9,3-4.5,3-7.1V47.8c0-2.4-1.1-4.6-2.9-6c-1.8,1.4-2.9,3.5-2.9,6v22.1l0,0
		c-2.6-2.4-6.5-2.6-9.3-0.6v0.6l0,0c-0.1-0.1-0.2-0.2-0.4-0.3c-0.2,0.2-0.5,0.4-0.7,0.6L93.9,87.1c-1.9,1.9-3,4.5-3,7.1v17.4h15.9
		v-3.7C106.9,106.5,107.4,105.3,108.4,104.3L108.4,104.3z M108.4,104.3"/>
	<rect x="89.5" y="111.6" class="st1" width="22.5" height="15.9"/>
	<path class="st1" d="M72.8,4.2C57.1,7.8,45.3,21.9,45.3,38.7s11.8,30.9,27.5,34.4c15.7-3.6,27.5-17.7,27.5-34.4S88.5,7.8,72.8,4.2
		L72.8,4.2z M72.8,4.2"/>
	<rect x="29.4" y="111.6" class="st1" width="24" height="15.9"/>
	<path class="st0" d="M45.4,87.1L28.5,70.2c-0.4-0.4-0.8-0.7-1.2-1c-0.3,0.2-0.6,0.4-0.9,0.7l0,0v-1.2c-2.7-1.3-6-0.9-8.3,1.2l0,0
		V47.8c0-2.6-1.4-5-3.4-6.3c-2.1,1.4-3.4,3.7-3.4,6.3v33.7c0,2.7,1.1,5.2,3,7.1L30,104.3c0.9,0.9,1.5,2.2,1.5,3.6v3.7h16.9V94.2
		C48.4,91.5,47.3,89,45.4,87.1L45.4,87.1z M45.4,87.1"/>
	<path d="M49.9,21c1.4,0,2.5-1.1,2.5-2.5c0-1.4-1.1-2.5-2.5-2.5c-1.4,0-2.5,1.1-2.5,2.5C47.3,19.9,48.5,21,49.9,21L49.9,21z
		 M49.9,21"/>
	<path d="M65,46.2c-1.1,0-2.2-0.7-3.3-1.9c-0.9-1.1-2.5-1.2-3.6-0.3c-1.1,0.9-1.2,2.5-0.3,3.6c1.3,1.6,2.9,2.7,4.6,3.3v2.9
		c0,1.4,1.1,2.5,2.5,2.5c1.4,0,2.5-1.1,2.5-2.5v-3c2.9-1,5-3.8,5-7.1c0-4.2-3.4-7.6-7.6-7.6c-1.4,0-2.5-1.1-2.5-2.5
		c0-1.4,1.1-2.5,2.5-2.5c0.9,0,1.8,0.5,2.7,1.3c1,1,2.6,0.9,3.6-0.1c1-1,0.9-2.6-0.1-3.6c-1.3-1.2-2.6-1.9-3.7-2.3v-2.9
		c0-1.4-1.1-2.5-2.5-2.5c-1.4,0-2.5,1.1-2.5,2.5v3c-2.9,1-5,3.8-5,7.1c0,4.2,3.4,7.6,7.6,7.6c1.4,0,2.5,1.1,2.5,2.5
		C67.5,45.1,66.4,46.2,65,46.2L65,46.2z M65,46.2"/>
	<path d="M119.5,37.7c-5.6,0-10.1,4.5-10.1,10.1v18c-3.4-0.9-7,0-9.7,2.6L82.8,85.3c-2.4,2.4-3.7,5.5-3.7,8.9v14.8h-2.5
		c-1.4,0-2.5,1.1-2.5,2.5v15.9c0,1.4,1.1,2.5,2.5,2.5h35.3c1.4,0,2.5-1.1,2.5-2.5v-15.9c0-1.4-1.1-2.5-2.5-2.5h-2.5v-1.2
		c0-0.7,0.3-1.3,0.7-1.8l15.7-15.7c2.4-2.4,3.7-5.6,3.7-8.9V47.8C129.6,42.2,125.1,37.7,119.5,37.7L119.5,37.7z M109.4,125H79.1
		v-10.8h30.3V125z M124.5,81.4c0,2-0.8,3.9-2.2,5.4l-15.7,15.7c-1.4,1.4-2.2,3.4-2.2,5.4v1.2H84.2V94.2c0-2,0.8-3.9,2.2-5.4
		l16.9-16.9c1.9-1.9,4.9-2,6.9-0.2c0,0,0,0,0,0c0.1,0,0.1,0.1,0.2,0.2c1,1,1.5,2.2,1.5,3.6s-0.5,2.6-1.5,3.6L97.9,91.6
		c-1,1-1,2.6,0,3.6c1,1,2.6,1,3.6,0L114,82.6c1.9-1.9,3-4.4,3-7.1c0-2.5-0.9-4.8-2.5-6.7V47.8c0-2.8,2.3-5,5-5c2.8,0,5,2.3,5,5V81.4
		z M124.5,81.4"/>
	<path d="M53.4,109.1h-2.5V94.2c0-3.4-1.3-6.5-3.7-8.9L30.3,68.4c-2.6-2.6-6.3-3.5-9.7-2.6v-18c0-5.6-4.5-10.1-10.1-10.1
		c-5.6,0-10.1,4.5-10.1,10.1v33.7c0,3.4,1.3,6.5,3.7,8.9l15.7,15.7c0.5,0.5,0.7,1.1,0.7,1.8v1.2h-2.5c-1.4,0-2.5,1.1-2.5,2.5v15.9
		c0,1.4,1.1,2.5,2.5,2.5h35.3c1.4,0,2.5-1.1,2.5-2.5v-15.9C55.9,110.2,54.8,109.1,53.4,109.1L53.4,109.1z M23.4,102.5L7.7,86.8
		c-1.4-1.4-2.2-3.3-2.2-5.4V47.8c0-2.8,2.3-5,5-5c2.8,0,5,2.3,5,5v21.1C13.9,70.7,13,73,13,75.5c0,2.7,1.1,5.2,3,7.1l12.6,12.6
		c1,1,2.6,1,3.6,0c1-1,1-2.6,0-3.6L19.6,79.1c-1-1-1.5-2.2-1.5-3.6s0.5-2.6,1.5-3.6c0.1-0.1,0.1-0.1,0.2-0.2l0,0
		c2-1.8,5-1.7,6.9,0.2l16.9,16.9c1.4,1.4,2.2,3.3,2.2,5.4v14.8H25.6v-1.2C25.6,105.9,24.8,103.9,23.4,102.5L23.4,102.5z M50.9,125
		H20.6v-10.8h30.3V125z M50.9,125"/>
	<path d="M102.8,38.7c0-20.9-17-37.8-37.8-37.8s-37.8,17-37.8,37.8s17,37.8,37.8,37.8S102.8,59.5,102.8,38.7L102.8,38.7z M65,71.5
		c-18.1,0-32.8-14.7-32.8-32.8S46.9,5.9,65,5.9s32.8,14.7,32.8,32.8S83.1,71.5,65,71.5L65,71.5z M65,71.5"/>
	<path d="M82.4,17.1c-6.6-5.3-15.2-7.3-23.6-5.5c-1.4,0.3-2.2,1.6-1.9,3c0.3,1.4,1.6,2.2,3,1.9c6.9-1.5,14,0.1,19.3,4.5
		c5.4,4.3,8.5,10.8,8.5,17.7c0,12.5-10.2,22.7-22.7,22.7c-12.5,0-22.7-10.2-22.7-22.7c0-3.7,0.9-7.4,2.7-10.7c0.7-1.2,0.2-2.8-1-3.4
		c-1.2-0.7-2.8-0.2-3.4,1c-2.1,4-3.3,8.5-3.3,13.1C37.3,54,49.7,66.4,65,66.4S92.7,54,92.7,38.7C92.7,30.3,89,22.4,82.4,17.1
		L82.4,17.1z M82.4,17.1"/>
</g>
</svg>
