<?xml version="1.0" encoding="utf-8"?>
<!-- Generator: Adobe Illustrator 22.0.0, SVG Export Plug-In . SVG Version: 6.00 Build 0)  -->
<svg version="1.1" id="Capa_1" xmlns="http://www.w3.org/2000/svg" xmlns:xlink="http://www.w3.org/1999/xlink" x="0px" y="0px"
	 viewBox="0 0 130 130" style="enable-background:new 0 0 130 130;" xml:space="preserve">
<style type="text/css">
	.st0{fill:#EBEBEB;}
	.st1{fill:#008CFF;}
	.st2{clip-path:url(#SVGID_2_);}
</style>
<g>
	<path class="st0" d="M114.4,93.4H99.3V71.9h15.1c3.6,0,6.5,2.9,6.5,6.5V87C120.8,90.5,117.9,93.4,114.4,93.4L114.4,93.4z
		 M114.4,93.4"/>
	<path class="st0" d="M9,58.1v-5.5c0-3.6,2.9-6.5,6.5-6.5h96.8v73.2l-12.9,0.2V59.1c-2.4,0-83.8,2.2-83.8-0.2L9,58.1z"/>
	<path class="st1" d="M12,127.8h48L34.5,59H12C10.3,59,9,56.1,9,52.5v68.9C9,125,10.3,127.8,12,127.8L12,127.8z M12,127.8"/>
	<path class="st1" d="M88.6,26.7C88.6,41,77,52.5,62.7,52.5S36.9,41,36.9,26.7c0-14.3,11.6-25.8,25.8-25.8S88.6,12.5,88.6,26.7
		L88.6,26.7z M88.6,26.7"/>
	<path class="st0" d="M77.5,5.5c7.1,10.3,5.9,24.2-2.9,33c-8.8,8.8-22.7,10.1-33,2.9c5.9,8.5,16.3,12.6,26.4,10.6
		C78.1,49.9,86,42,88,31.9C90.1,21.8,86,11.4,77.5,5.5L77.5,5.5z M77.5,5.5"/>
	<path class="st0" d="M92.9,102h21.5c3.6,0,6.5-2.9,6.5-6.5V78.4c0,3.6-2.9,6.5-6.5,6.5H92.9c-4.8,0-8.6,3.9-8.6,8.6
		C84.3,98.2,88.1,102,92.9,102L92.9,102z M92.9,102"/>
	<path d="M29.6,17.4c-1.9,6.9-1.7,14.2,0.7,20.9c0.4,1.2,1.8,1.8,2.9,1.3l0,0c1-0.5,1.5-1.6,1.2-2.7c-2.1-5.9-2.3-12.3-0.7-18.3
		c0.3-1.1-0.3-2.2-1.4-2.6l0,0C31.2,15.6,29.9,16.2,29.6,17.4z M30.3,15.2"/>
	<path d="M97.1,29C97.1,29,97.1,29,97.1,29c0.1-1.3-0.9-2.3-2.1-2.3h0c-1.1,0-2,0.9-2.1,2c0,0,0,0,0,0c-0.1,1.1,0.7,2.1,1.8,2.3l0,0
		C95.9,31.2,97,30.3,97.1,29z M96.9,31.3"/>
	<path d="M86.2,7.8c3.1,3.8,5.2,8.2,6.1,13c0.2,1.1,1.3,1.9,2.4,1.7l0,0c1.2-0.2,2.1-1.3,1.8-2.6C95.4,14.4,93,9.3,89.5,5
		c-0.8-1-2.2-1.1-3.1-0.2l0,0C85.5,5.6,85.4,6.9,86.2,7.8z M84.8,6.2"/>
	<g>
		<defs>
			<rect id="SVGID_1_" x="6.7" y="0.8" width="116.5" height="129.2"/>
		</defs>
		<clipPath id="SVGID_2_">
			<use xlink:href="#SVGID_1_"  style="overflow:visible;"/>
		</clipPath>
		<path class="st2" d="M56.3,41.8h4.3v-2.2h4.3v2.2h4.3v-2.3c3.1-0.4,5.7-2.8,6.3-5.9c0.6-3.1-0.7-6.3-3.4-7.9
			c1.3-1.8,1.7-4.1,1.2-6.3c-0.6-2.2-2-4-4.1-4.9v-2.9h-4.3v2.2h-4.3v-2.2h-4.3v2.2H52v4.3h2.2v17.2H52v4.3h4.3V41.8z M58.4,18.1H66
			c1.8,0,3.2,1.4,3.2,3.2c0,1.8-1.4,3.2-3.2,3.2h-7.5V18.1z M68.1,35.3h-9.7v-6.5h9.7c1.8,0,3.2,1.4,3.2,3.2
			C71.4,33.9,69.9,35.3,68.1,35.3L68.1,35.3z M68.1,35.3"/>
		<path class="st2" d="M9.3,46.5c-1.6,1.6-2.5,3.8-2.5,6.1v68.9c0,4.8,3.9,8.6,8.6,8.6h83.9c1.2,0,2.2-1,2.2-2.2v-6.5h10.8
			c1.2,0,2.2-1,2.2-2.2v-15.1c4.8,0,8.6-3.9,8.6-8.6V78.4c0-4.8-3.9-8.6-8.6-8.6V46.1c0-1.2-1-2.2-2.2-2.2H81.9
			c9.3-10.3,8.7-26.2-1.3-35.8c-10-9.7-25.9-9.7-35.9,0c-10,9.7-10.6,25.5-1.3,35.8H15.4C13.1,43.9,10.9,44.8,9.3,46.5L9.3,46.5z
			 M15.4,125.7c-2.4,0-4.3-1.9-4.3-4.3v-8.6h7.7l5.8,5.8c0.4,0.4,1,0.6,1.5,0.6h10.8v-4.3h-9.9l-5.8-5.8c-0.4-0.4-1-0.6-1.5-0.6
			h-8.6v-8.6h17.2v-4.3H11.1V87h23.7c0.6,0,1.1-0.2,1.5-0.6l8-8h12v2.2c0,1.2,1,2.2,2.2,2.2H67c1.2,0,2.2-1,2.2-2.2v-8.6
			c0-1.2-1-2.2-2.2-2.2h-8.6c-1.2,0-2.2,1-2.2,2.2v2.2H43.4c-0.6,0-1.1,0.2-1.5,0.6l-8,8H11.1v-8.6H24v-4.3H11.1V60
			c1.3,0.8,2.8,1.2,4.3,1.2h81.8v10.8h-7.7l-5.8-5.8c-0.4-0.4-1-0.6-1.5-0.6h-6.5v4.3h5.6l5.8,5.8c0.4,0.4,1,0.6,1.5,0.6h8.6v6.5
			h-4.3c-5.1,0-9.5,3.6-10.5,8.6H60.6v4.3h21.7c1,5,5.4,8.6,10.5,8.6h4.3v8.6H78.7l-8-8c-0.4-0.4-1-0.6-1.5-0.6H54.1V102
			c0-1.2-1-2.2-2.2-2.2h-8.6c-1.2,0-2.2,1-2.2,2.2v8.6c0,1.2,1,2.2,2.2,2.2H52c1.2,0,2.2-1,2.2-2.2v-2.2h14.2l8,8
			c0.4,0.4,1,0.6,1.5,0.6h19.4v8.6H15.4z M60.6,78.4v-4.3h4.3v4.3H60.6z M49.8,104.2v4.3h-4.3v-4.3H49.8z M110.1,117.1h-8.6v-12.9
			h8.6V117.1z M118.7,95.6c0,2.4-1.9,4.3-4.3,4.3H92.9c-3.6,0-6.5-2.9-6.5-6.5c0-3.6,2.9-6.5,6.5-6.5h21.5c1.5,0,3-0.4,4.3-1.2V95.6
			z M118.7,78.4c0,2.4-1.9,4.3-4.3,4.3v-8.6C116.8,74.1,118.7,76,118.7,78.4L118.7,78.4z M110.1,82.7h-8.6V59c0-1.2-1-2.2-2.2-2.2
			H15.4c-2.4,0-4.3-1.9-4.3-4.3c0-2.4,1.9-4.3,4.3-4.3h33.1c8.6,5.7,19.9,5.7,28.5,0h33.1V82.7z M62.7,5.2
			c11.9,0,21.5,9.6,21.5,21.5s-9.6,21.5-21.5,21.5s-21.5-9.6-21.5-21.5C41.2,14.8,50.9,5.2,62.7,5.2L62.7,5.2z M62.7,5.2"/>
	</g>
	<rect x="90.7" y="91.3" width="4.3" height="4.3"/>
	<rect x="28.3" y="69.8" width="4.3" height="4.3"/>
	<rect x="52" y="91.3" width="4.3" height="4.3"/>
	<rect x="32.6" y="95.6" width="4.3" height="4.3"/>
</g>
</svg>
