<svg xmlns="http://www.w3.org/2000/svg" viewBox="0 0 166.45 79.3"><defs><style>.cls-1{fill:#fff;}</style></defs><title>Recurso 3</title><g id="Capa_2" data-name="Capa 2"><g id="Capa_1-2" data-name="Capa 1"><path class="cls-1" d="M90.13,60.28V18.64l8.55-1L100,24.12a13.48,13.48,0,0,1,12.15-6.72,18.19,18.19,0,0,1,2.72.16l-.15,8.5a22.53,22.53,0,0,0-3.23-.23q-5.62,0-8.41,3t-2.77,8.31V60.28Z"/><polygon class="cls-1" points="131.3 2.68 131.3 10.99 121.08 10.99 121.08 3.39 131.3 2.68"/><rect class="cls-1" x="121.09" y="17.6" width="10.18" height="42.69"/><path class="cls-1" d="M144.35,60.28V24.35h-6.76v-5.7l6.76-1V15.23a26.67,26.67,0,0,1,.72-6.65,12.05,12.05,0,0,1,2.35-4.72A9.69,9.69,0,0,1,151.79,1,20.8,20.8,0,0,1,158.53,0a44.24,44.24,0,0,1,7.92.74l-.89,7.57a41.29,41.29,0,0,0-5-.43q-3.27,0-4.65,1.58c-.92,1-1.37,2.79-1.37,5.22V17.6h8.72l.65,6.75h-9.37V60.28Z"/><rect class="cls-1" y="43.07" width="5.26" height="5.26"/><polygon class="cls-1" points="10.79 48.33 16.04 48.33 16.08 43.07 10.79 43.07 10.79 48.33"/><rect class="cls-1" x="18.69" y="21.54" width="17.54" height="5.26"/><rect class="cls-1" x="30.97" y="10.79" width="5.26" height="5.26"/><rect class="cls-1" x="52.5" y="18.65" width="5.26" height="17.54"/><rect class="cls-1" x="21.54" y="43.07" width="5.26" height="17.54"/><rect class="cls-1" x="30.97" width="5.26" height="5.26"/><rect class="cls-1" x="63.29" y="30.93" width="5.26" height="5.26"/><rect class="cls-1" x="47.92" y="41.82" width="25.1" height="5.09"/><polygon class="cls-1" points="43.11 57.76 60.65 57.76 60.69 52.5 43.11 52.5 43.11 57.76"/><rect class="cls-1" x="74.04" y="30.97" width="5.26" height="5.26"/><rect class="cls-1" x="43.07" y="63.26" width="5.26" height="5.26"/><rect class="cls-1" x="6.28" y="32.39" width="25.1" height="5.09"/><rect class="cls-1" x="32.39" y="47.92" width="5.09" height="25.1"/><rect class="cls-1" x="43.07" y="74.04" width="5.26" height="5.26"/><rect class="cls-1" x="41.82" y="6.28" width="5.09" height="25.14"/></g></g></svg>