<?xml version="1.0" encoding="utf-8"?>
<!-- Generator: Adobe Illustrator 22.0.0, SVG Export Plug-In . SVG Version: 6.00 Build 0)  -->
<svg version="1.1" id="Capa_1" xmlns="http://www.w3.org/2000/svg" xmlns:xlink="http://www.w3.org/1999/xlink" x="0px" y="0px"
	 viewBox="0 0 300 50" style="enable-background:new 0 0 300 50;" xml:space="preserve">
<style type="text/css">
	.st0{fill:#FFFFFF;}
	.st1{fill:#626467;}
	.st2{fill:#94CC00;}
	.st3{fill:none;stroke:#FFFFFF;stroke-width:0.7597;stroke-miterlimit:10;}
</style>
<g>
	<path class="st0" d="M77.9,23.8c0-0.1,0-0.3,0-0.4c0-0.4,0-0.8,0-1.1l0-22.3l0,0v0l-22,1.6c-6.6,0-12.7,3.1-16.8,8.1
		c0,0-0.1,0.1-0.1,0.1c0,0-0.1-0.1-0.1-0.1c-4.1-5-10.2-8-16.8-8.1L0,0v0l0,0l0,22.3c0,0.4,0,0.8,0,1.1c0,0.1,0,0.3,0,0.4
		c0,0.2,0,0.3,0,0.3l0,0.2c0.1,1.4,0.2,2.8,0.6,4.1c0,0,0,0.1,0,0.1l0.1,0.5L1,30C1,30,1,30.1,1.1,30.2C3.9,39,12.2,45.4,22,45.4
		c4.4,0,8.6-1.3,12-3.6l4.9,8.2l0-0.1l0,0.1l4.9-8.2c3.5,2.3,7.6,3.6,12,3.6c9.8,0,18-6.4,20.9-15.2c0-0.1,0.1-0.2,0.1-0.3l0.3-0.9
		l0.1-0.5c0,0,0-0.1,0-0.1c0.3-1.3,0.5-2.7,0.6-4.1l0-0.2C77.9,24.1,77.9,24,77.9,23.8z"/>
	<g>
		<polygon class="st1" points="34.6,38.4 39,45.6 43.3,38.4 38.9,33.1 		"/>
		<path class="st2" d="M75.6,23l-3.5,2.1l3,1.8l-3,1.8l2.3,1.4c-2.7,7.5-9.9,12.9-18.4,12.9c-4.9,0-9.3-1.8-12.7-4.7
			c-1.7-1.4-3.1-3.1-4.2-5l0,0c-0.1-0.1-0.1-0.2-0.1-0.2c0,0,0,0,0,0c-1.1,2-2.6,3.8-4.4,5.3c-3.4,2.9-7.8,4.7-12.7,4.7
			c-5.2,0-10-2.1-13.5-5.4c-2.2-2.1-3.9-4.6-4.9-7.5l2.3-1.4l-3-1.8l3-1.8L2.3,23c0-0.1,0-0.3,0-0.4l0-20.1l19.6,1.4
			c7.3,0,13.7,4,17,10c3.3-5.9,9.7-10,17-10l19.6-1.4l0,20.1C75.6,22.7,75.6,22.9,75.6,23z"/>
		<circle class="st0" cx="22" cy="23.5" r="12.6"/>
		<path class="st1" d="M27.4,19.8c-0.6,0.7-1.7,0.8-2.5,0.3c-0.8-0.6-1-1.7-0.4-2.6c-0.7-0.3-1.5-0.4-2.3-0.4
			c-3.6,0-6.5,2.9-6.5,6.5s2.9,6.5,6.5,6.5c3.6,0,6.5-2.9,6.5-6.5C28.6,22.1,28.1,20.8,27.4,19.8z"/>
		<path class="st3" d="M7.6,24.5"/>
		<path class="st3" d="M70.3,24.5"/>
		<path class="st3" d="M70.3,28"/>
		<circle class="st0" cx="55.7" cy="23.5" r="12.6"/>
		<path class="st1" d="M61.1,19.8c-0.6,0.7-1.7,0.8-2.5,0.3c-0.8-0.6-1-1.7-0.4-2.6c-0.7-0.3-1.5-0.4-2.3-0.4
			c-3.6,0-6.5,2.9-6.5,6.5s2.9,6.5,6.5,6.5c3.6,0,6.5-2.9,6.5-6.5C62.3,22.1,61.9,20.8,61.1,19.8z"/>
	</g>
	<g>
		<path class="st0" d="M96.6,25.2c0.7,3.2,3.3,5.5,7,5.5c2.6,0,5-1.2,6.3-3l4,3.3c-2.3,3.1-6.3,5.1-11.1,5.1
			c-7.4,0-12.6-5.7-12.6-12.7c0-7.1,5.2-12.7,12.6-12.7c7.6,0,12,5.5,12,13.1c0,0.5,0,1,0,1.4H96.6z M96.6,21.2h12.2
			c-0.2-2.8-1.7-5.5-5.9-5.5C99.6,15.7,97.2,18.2,96.6,21.2z"/>
		<path class="st0" d="M120.6,35.7h-6.8l9-12.6l-8.9-12h7.1l5.4,7.2l5.4-7.2h7.1l-8.9,12l9,12.6H132l-5.7-7.2L120.6,35.7z"/>
		<path class="st0" d="M146.2,16.3V25c0,4.4,0.7,5.7,3.9,5.7c1.1,0,2-0.1,2.9-0.2v4.7c-0.3,0.1-2.2,0.9-5.7,0.9
			c-4.1,0-7.4-2.6-7.4-7.7v-12h-5.3v-5.2h5.3V1.6h6.3v9.6h6.9v5.2H146.2z"/>
		<path class="st0" d="M172.9,4.8c0-2,1.6-3.7,3.6-3.7s3.6,1.7,3.6,3.7s-1.6,3.7-3.6,3.7S172.9,6.8,172.9,4.8z M173.4,11.1h6.3v24.6
			h-6.3V11.1z"/>
		<path class="st0" d="M223.3,22v13.7H217V22c0-3.8-1.9-5.7-5.3-5.7c-2.1,0-3.6,0.7-4.9,1.9c0.2,0.7,0.3,1.6,0.3,3.8v13.6h-6.3V22
			c0-3.8-1.7-5.7-4.9-5.7c-2.2,0-4,0.7-5.3,1.9v17.4h-6.3V11.1h6.3v1.5c1.8-1.3,4-2,6.4-2c3.8,0,6.5,1,8.1,3.1
			c2.1-1.9,4.8-3.1,7.7-3.1C220,10.7,223.3,14,223.3,22z"/>
		<path class="st0" d="M226.9,4.8c0-2,1.6-3.7,3.6-3.7c2,0,3.6,1.7,3.6,3.7s-1.6,3.7-3.6,3.7C228.5,8.5,226.9,6.8,226.9,4.8z
			 M227.4,11.1h6.3v24.6h-6.3V11.1z"/>
		<path class="st0" d="M262.3,11.1v24.6h-6.3v-1.8c-2,1.4-4.5,2.2-7.2,2.2c-7.7,0-12.2-6.2-12.2-12.7c0-6.6,4.5-12.7,12.2-12.7
			c2.6,0,5.1,0.8,7.2,2v-1.5H262.3z M256.1,18.5c-1.5-1.3-3.7-2.1-6.1-2.1c-4.5,0-7.3,3.3-7.3,7c0,3.7,2.9,7.1,7.3,7.1
			c2.4,0,4.5-0.8,6.1-2.1V18.5z"/>
		<path class="st0" d="M290,22v13.7h-6.3V22c0-3.8-1.9-5.7-5.3-5.7c-2.2,0-4,0.7-5.4,1.9v17.4h-6.3V11.1h6.3v1.5
			c1.8-1.3,4.1-2,6.6-2C286.7,10.7,290,14,290,22z"/>
		<path class="st0" d="M170.3,10.7c-0.2,0-0.3,0-0.4,0c-3.5,0-6.1,1.6-7.7,3.9v-3.4h-6.3v24.6h6.3V23.9c0-3.2,1.7-6.4,6.2-6.4
			c0.6,0,1.4,0.1,1.9,0.2V10.7z"/>
	</g>
</g>
</svg>
