<?xml version="1.0" encoding="utf-8"?>
<!-- Generator: Adobe Illustrator 22.0.0, SVG Export Plug-In . SVG Version: 6.00 Build 0)  -->
<svg version="1.1" id="Capa_1" xmlns="http://www.w3.org/2000/svg" xmlns:xlink="http://www.w3.org/1999/xlink" x="0px" y="0px"
	 viewBox="0 0 95.7 47" style="enable-background:new 0 0 95.7 47;" xml:space="preserve">
<style type="text/css">
	.st0{fill:#0A0A0A;}
	.st1{fill:#008CFF;}
</style>
<g>
	<g>
		<g>
			<path class="st0" d="M49.8,34.3v-23l4.7-0.6l0.7,3.6c1.5-2.5,3.8-3.7,6.7-3.7c0.6,0,1.1,0,1.5,0.1l-0.1,4.7
				c-0.6-0.1-1.2-0.1-1.8-0.1c-2.1,0-3.6,0.6-4.6,1.7c-1,1.1-1.5,2.6-1.5,4.6v12.8H49.8z"/>
			<polygon class="st0" points="72.5,2.5 72.5,7.1 66.9,7.1 66.9,2.9 			"/>
			<rect x="66.9" y="10.7" class="st0" width="5.6" height="23.6"/>
			<path class="st0" d="M79.7,34.3V14.5H76v-3.1l3.7-0.6V9.4c0-1.4,0.1-2.7,0.4-3.7c0.3-1,0.7-1.9,1.3-2.6c0.6-0.7,1.4-1.3,2.4-1.6
				c1-0.4,2.2-0.5,3.7-0.5c1.4,0,2.9,0.1,4.4,0.4l-0.5,4.2c-1.2-0.2-2.1-0.2-2.8-0.2c-1.2,0-2.1,0.3-2.6,0.9
				c-0.5,0.6-0.8,1.5-0.8,2.9v1.6h4.8l0.4,3.7h-5.2v19.8H79.7z"/>
		</g>
		<g>
			<g>
				<g>
					<g>
						<rect y="24.8" class="st1" width="2.9" height="2.9"/>
						<polygon class="st1" points="6,27.7 8.9,27.7 8.9,24.8 6,24.8 						"/>
						<rect x="10.3" y="12.9" class="st1" width="9.7" height="2.9"/>
						<rect x="17.1" y="7" class="st1" width="2.9" height="2.9"/>
						<rect x="29" y="11.3" class="st1" width="2.9" height="9.7"/>
						<rect x="11.9" y="24.8" class="st1" width="2.9" height="9.7"/>
						<rect x="17.1" y="1" class="st1" width="2.9" height="2.9"/>
						<rect x="34.9" y="18.1" class="st1" width="2.9" height="2.9"/>
						<rect x="26.5" y="24.1" class="st1" width="13.9" height="2.8"/>
						<polygon class="st1" points="23.8,32.9 33.5,32.9 33.5,30 23.8,30 						"/>
						<rect x="40.9" y="18.1" class="st1" width="2.9" height="2.9"/>
						<rect x="23.8" y="35.9" class="st1" width="2.9" height="2.9"/>
						<rect x="3.5" y="18.9" class="st1" width="13.9" height="2.8"/>
						<rect x="17.9" y="27.5" class="st1" width="2.8" height="13.9"/>
						<rect x="23.8" y="41.9" class="st1" width="2.9" height="2.9"/>
						<rect x="23.1" y="4.5" class="st1" width="2.8" height="13.9"/>
					</g>
				</g>
			</g>
		</g>
	</g>
	<g>
		<g>
			<g>
				<g>
					<g>
						<g>
							<path class="st1" d="M53.9,43.7v1.1h-4.2v-5.9h4.1V40H51v1.3h2.5v1H51v1.4H53.9z"/>
						</g>
					</g>
				</g>
			</g>
		</g>
		<g>
			<path class="st1" d="M58.8,42.2v2.6h-1.2v-2.4c0-0.5-0.3-0.9-0.8-0.9c-0.5,0-0.9,0.4-0.9,0.9v2.4h-1.2v-4.2h1.2v0.6
				c0.3-0.5,0.8-0.7,1.3-0.7C58.1,40.4,58.8,41.2,58.8,42.2z"/>
			<path class="st1" d="M59.7,41.2l-0.6,0l0-1l0.6,0l0.1-1.1l1,0l0,1.1l0.9,0l0,1l-0.9,0l0,1.9c0,0.4,0.2,0.6,0.6,0.6
				c0.1,0,0.3,0,0.4-0.1l0,1c-0.2,0.1-0.6,0.1-0.8,0.1c-0.8,0-1.4-0.7-1.4-1.6L59.7,41.2z"/>
			<path class="st1" d="M70,40.5l0,1.1c-0.2-0.1-0.5-0.2-0.7-0.2c-0.5,0-0.8,0.5-0.8,1.1l0,2.3l-1.2,0l0-4.3l1.1,0l0,0.5
				c0.2-0.4,0.6-0.7,1.1-0.7C69.7,40.4,69.9,40.4,70,40.5z"/>
			<path class="st1" d="M78.2,40.5l0,1.1c-0.2-0.1-0.5-0.2-0.7-0.2c-0.5,0-0.8,0.5-0.8,1.1l0,2.3l-1.2,0l0-4.3l1.1,0l0,0.5
				c0.2-0.4,0.6-0.7,1.1-0.7C77.9,40.4,78,40.4,78.2,40.5z"/>
			<g>
				<path class="st1" d="M71.7,40.6v0.5c0.1-0.1,0.1-0.1,0.2-0.2c0.1-0.1,0.2-0.1,0.3-0.2c0.1-0.1,0.2-0.1,0.4-0.1
					c0.1,0,0.3-0.1,0.5-0.1c0.2,0,0.4,0,0.6,0.1c0.2,0.1,0.4,0.2,0.5,0.3s0.3,0.4,0.4,0.6c0.1,0.3,0.2,0.6,0.2,1
					c0,0.3,0,0.6-0.1,0.9c-0.1,0.3-0.2,0.5-0.3,0.7s-0.3,0.4-0.5,0.5c-0.2,0.1-0.5,0.2-0.7,0.2c-0.2,0-0.3,0-0.4,0
					c-0.1,0-0.2-0.1-0.3-0.1s-0.2-0.1-0.2-0.1c-0.1,0-0.1-0.1-0.2-0.1V46h-1.2v-5.4H71.7z M72.7,41.4c-0.2,0-0.3,0-0.4,0.1
					c-0.1,0.1-0.2,0.2-0.3,0.3c-0.1,0.1-0.1,0.2-0.2,0.4c0,0.1,0,0.3,0,0.4c0,0.1,0,0.3,0,0.4c0,0.2,0.1,0.3,0.2,0.4
					c0.1,0.1,0.2,0.2,0.3,0.3c0.1,0.1,0.3,0.1,0.5,0.1c0.2,0,0.3,0,0.4-0.1c0.1-0.1,0.2-0.2,0.2-0.3c0.1-0.1,0.1-0.3,0.1-0.4
					c0-0.2,0-0.3,0-0.4c0-0.2,0-0.3,0-0.5c0-0.1-0.1-0.3-0.1-0.4c-0.1-0.1-0.2-0.2-0.3-0.3C73,41.4,72.9,41.4,72.7,41.4z"/>
			</g>
			<path class="st1" d="M79.6,38.6c0.4,0,0.7,0.3,0.7,0.7c0,0.4-0.3,0.7-0.7,0.7c-0.4,0-0.7-0.3-0.7-0.7
				C78.9,38.9,79.2,38.6,79.6,38.6z M80.2,44.8l-1.2,0l0-4.2l1.2,0L80.2,44.8z"/>
			<path class="st1" d="M88.3,43.4l1,0.2c-0.2,0.7-1,1.2-2,1.2c-1.3,0-2.2-0.9-2.2-2.2c0-1.3,0.9-2.2,2.2-2.2c1.3,0,2.2,0.9,2.2,2.2
				c0,0.1,0,0.3,0,0.4l-3.2,0c0.1,0.6,0.5,0.9,1,0.9C87.8,44,88.1,43.7,88.3,43.4z M88.3,42.3c-0.1-0.5-0.5-0.9-1-0.9
				c-0.5,0-0.9,0.4-1,0.9H88.3z"/>
			<path class="st1" d="M65.5,43.4l1,0.2c-0.2,0.7-1,1.2-2,1.2c-1.3,0-2.2-0.9-2.2-2.2c0-1.3,0.9-2.2,2.2-2.2c1.3,0,2.2,0.9,2.2,2.2
				c0,0.1,0,0.3,0,0.4l-3.2,0c0.1,0.6,0.5,0.9,1,0.9C65,44,65.3,43.7,65.5,43.4z M65.5,42.3c-0.1-0.5-0.5-0.9-1-0.9
				c-0.5,0-0.9,0.4-1,0.9H65.5z"/>
			<path class="st1" d="M80.9,43.4h1c0,0.4,0.4,0.7,0.9,0.7c0.4,0,0.8-0.2,0.8-0.5c0-0.8-2.6,0-2.6-1.7c0-0.8,0.8-1.4,1.7-1.4
				c1.1,0,1.9,0.6,1.9,1.4h-1c0-0.3-0.4-0.6-0.8-0.6c-0.4,0-0.7,0.2-0.7,0.5c0,0.8,2.7,0.1,2.7,1.7c0,0.8-0.8,1.5-1.9,1.5
				C81.7,44.9,80.9,44.2,80.9,43.4z"/>
		</g>
	</g>
</g>
</svg>
