<?xml version="1.0" encoding="utf-8"?>
<!-- Generator: Adobe Illustrator 22.0.0, SVG Export Plug-In . SVG Version: 6.00 Build 0)  -->
<svg version="1.1" id="Layer_1" xmlns="http://www.w3.org/2000/svg" xmlns:xlink="http://www.w3.org/1999/xlink" x="0px" y="0px"
	 viewBox="0 0 700 450" style="enable-background:new 0 0 700 450;" xml:space="preserve">
<style type="text/css">
	.st0{fill:#008CFF;}
	.st1{fill:#0CBFE8;}
	.st2{fill:#141414;}
	.st3{fill:#77777A;}
	.st4{fill:#FFFFFF;}
	.st5{fill:#95D600;}
</style>
<title>RSK_EnterpriseCloud_Logo_AllVersions</title>
<g>
	<path class="st0" d="M76.4,138.3V32.5c0,0-34.2,17-34.2,53.3S76.4,138.3,76.4,138.3"/>
	<path class="st1" d="M76.4,32.5c0,0,34.2,17,34.2,53.3s-34.2,52.5-34.2,52.5S76.4,32.5,76.4,32.5z"/>
	<path class="st0" d="M156.3,188l47-26.8c0,0-16.2-10.9-32.4-1.7S156.3,188,156.3,188"/>
	<path class="st1" d="M203.4,161.3c0,0,1.1,19.5-15,28.7s-32.1-2-32.1-2L203.4,161.3z"/>
	<path d="M205.6,157c-0.8-0.4-20.7-10.9-37.4-1.2c-13.4,7.8-16.1,23.3-16.6,29.8l-6.2,3.6c-6.6-6.5-17.2-6.6-23.9-0.1l-28.4-16.4
		c2.2-9-3-18.1-11.9-20.6v-10.1c8.3-5.3,34.6-24.6,34.6-55.4c0-35.6-35.3-57.9-36.8-58.8l-2.5-1.6l-2.5,1.6
		c-1.5,0.9-36.8,23.2-36.8,58.8c0,30.8,26.3,50.1,34.6,55.4V152c-8.9,2.6-14.1,11.7-11.9,20.6L31.4,189c-3.2-3.1-7.4-4.8-11.9-4.8
		c-9.5,0-17.2,7.7-17.2,17.1c0,7.7,5.1,14.4,12.4,16.5V252C5.6,254.6,0.4,264.1,3,273.2c2.1,7.4,8.9,12.4,16.5,12.4
		c4.8,0,9.4-2.1,12.7-5.6l27.6,15.9c-0.3,1.3-0.5,2.7-0.5,4.1c0,9.5,7.7,17.2,17.2,17.2s17.2-7.7,17.2-17.2c0-1.4-0.2-2.8-0.5-4.1
		l27.6-15.9c3.2,3.6,7.8,5.6,12.7,5.6c9.5,0,17.1-7.7,17.1-17.2c0-7.6-5-14.3-12.3-16.4v-34.1c7.3-2.1,12.4-8.9,12.4-16.5
		c0-1.3-0.2-2.7-0.5-4l6.2-3.6c5.9,2.8,12.3,4.4,18.9,4.5c5.4,0.1,10.7-1.3,15.4-4c16.8-9.7,17.6-32.1,17.6-33l0.1-2.9L205.6,157z
		 M138.1,207.4c-1.4,1.1-3,1.7-4.8,1.7c-0.9,0-1.8-0.2-2.7-0.5c-0.7-0.3-1.4-0.7-2-1.1c-1.6-1.2-2.6-3-2.9-4.9
		c-0.1-0.4-0.1-0.7-0.1-1.1c0-0.3,0-0.7,0.1-1c0.5-4.2,4.3-7.2,8.5-6.7c3.9,0.4,6.9,3.8,6.8,7.7c0,0.4,0,0.8-0.1,1.3
		C140.7,204.5,139.7,206.2,138.1,207.4 M141.1,268.4c0,4.2-3.4,7.7-7.7,7.7h0c-1.4,0-2.8-0.4-4-1.1c-2.3-1.4-3.7-3.9-3.7-6.5
		c0-0.1,0-0.1,0-0.2l0,0c0-0.8,0.2-1.6,0.4-2.4c0.5-1.4,1.3-2.6,2.5-3.4c1-0.8,2.2-1.3,3.4-1.5c0.4-0.1,0.9-0.1,1.3-0.1
		C137.6,260.8,141.1,264.2,141.1,268.4C141.1,268.5,141.1,268.5,141.1,268.4 M128.6,252c-2.3,0.7-4.4,1.8-6.3,3.4l-29.1-16.8l0,0
		c0.2-1.1,0.3-2.2,0.3-3.4c0-1.6-0.2-3.2-0.7-4.8l28.7-16.5c2,1.9,4.4,3.3,7.1,4.1L128.6,252L128.6,252z M76.4,307.7
		c-3.8,0-7-2.8-7.6-6.5c-0.1-0.4-0.1-0.8-0.1-1.1c0.2-4.2,3.7-7.5,7.9-7.4c4,0.1,7.2,3.4,7.4,7.4c0,0.4,0,0.8-0.1,1.1
		C83.4,304.9,80.2,307.7,76.4,307.7 M59.6,238.6l-29.1,16.7c-1.8-1.5-4-2.7-6.3-3.3v-34.1c2.7-0.8,5.1-2.2,7.2-4.1L60,230.3
		c-0.5,1.6-0.7,3.2-0.7,4.9C59.3,236.3,59.4,237.4,59.6,238.6L59.6,238.6L59.6,238.6z M27.2,268.5c0,2.7-1.4,5.1-3.7,6.5
		c-1.2,0.7-2.6,1.1-4,1.1c-4.2,0.2-7.8-3.2-7.9-7.4c-0.2-4.2,3.2-7.8,7.4-7.9c0.2,0,0.4,0,0.6,0c0.4,0,0.9,0,1.3,0.1
		c2.7,0.5,5,2.4,5.9,5c0.3,0.8,0.4,1.6,0.4,2.4C27.1,268.4,27.1,268.4,27.2,268.5 M11.8,201.4c0.2-4.2,3.7-7.5,7.9-7.4
		c4,0.1,7.2,3.4,7.4,7.4c0,0.4,0,0.7-0.1,1.1c-0.3,1.9-1.3,3.7-2.8,4.9c-0.6,0.5-1.2,0.8-1.9,1.1c-0.9,0.4-1.9,0.6-2.8,0.6
		C15.2,209.1,11.8,205.7,11.8,201.4C11.8,201.4,11.8,201.4,11.8,201.4 M71.7,162.5c3.3-2.6,8.1-2.1,10.8,1.3
		c0.8,1.1,1.4,2.3,1.6,3.6c0.1,0.4,0.1,0.7,0.1,1.1c0,2.3-1.1,4.6-2.9,6c-0.6,0.5-1.2,0.8-1.9,1.1c-1.8,0.7-3.8,0.7-5.7,0
		c-0.7-0.3-1.3-0.6-1.9-1.1c-1.8-1.4-2.9-3.7-2.9-6c0-0.4,0-0.7,0.1-1.1C69.1,165.5,70.1,163.7,71.7,162.5 M84.1,235.4
		c-0.1,2.2-1.1,4.3-2.9,5.7c-0.4,0.3-0.7,0.5-1.1,0.7c-2.3,1.2-5,1.2-7.2,0c-0.4-0.2-0.8-0.5-1.2-0.7c-1.8-1.4-2.8-3.5-2.9-5.8
		c0-0.1,0-0.1,0-0.2c0-0.7,0.1-1.4,0.3-2c0.4-1.6,1.4-3,2.6-4c0.8-0.7,1.8-1.1,2.8-1.4c0.6-0.2,1.3-0.2,1.9-0.2c0.7,0,1.3,0.1,2,0.3
		c2.6,0.7,4.7,2.7,5.4,5.3c0.2,0.7,0.3,1.4,0.3,2.1C84.1,235.2,84.1,235.3,84.1,235.4L84.1,235.4L84.1,235.4z M116.7,197.3
		c-0.7,2.8-0.7,5.6,0,8.4l-28.9,16.7c-1.9-1.7-4.2-3-6.6-3.7V185c2.7-0.8,5.1-2.2,7.1-4.1L116.7,197.3z M46.6,86.5
		c0-25.2,22.2-43.5,29.8-49c7.6,5.5,29.9,23.7,29.9,49c0,21.1-15.6,36.4-25.1,43.7V90.4c0-2.6-2.1-4.8-4.8-4.8s-4.8,2.1-4.8,4.8l0,0
		v39.9C62.3,123,46.7,107.7,46.6,86.5 M64.6,180.9c2,1.9,4.5,3.4,7.2,4.1v33.6c-2.4,0.7-4.7,1.9-6.6,3.6l-29-16.7
		c0.7-2.7,0.7-5.6,0-8.3L64.6,180.9z M36.4,271.5c0.2-1,0.3-2,0.3-3c0-1.8-0.3-3.5-0.8-5.2L64,247c2.1,2.2,4.7,3.8,7.7,4.6v31.9
		c-2.7,0.8-5.2,2.2-7.2,4.2L36.4,271.5z M88.4,287.7c-2-2-4.5-3.4-7.2-4.2v-31.9c2.9-0.8,5.6-2.4,7.7-4.7l28.2,16.3
		c-0.6,1.7-0.8,3.5-0.8,5.3c0,1,0.1,2,0.3,3L88.4,287.7z M185.7,186.1c-6.3,3.6-13.4,3-18.8,1.5l9.5-5.5c2.3-1.2,3.2-4.1,2-6.4
		s-4.1-3.2-6.4-2c-0.1,0.1-0.2,0.1-0.3,0.2l-9.4,5.4c1.4-5.4,4.4-11.8,10.7-15.4c9.1-5.2,20.2-1.9,25.4,0.1
		C197.6,169.6,194.9,180.9,185.7,186.1"/>
	<path d="M231.5,268.8V157.4l22.9-2.8l3.5,17.5c7.5-12,18.3-18,32.5-18c2.4,0,4.9,0.1,7.3,0.4l-0.4,22.8c-2.9-0.4-5.7-0.6-8.6-0.6
		c-10.1,0-17.6,2.7-22.5,8c-5,5.3-7.4,12.8-7.4,22.3v62L231.5,268.8L231.5,268.8z"/>
	<path d="M349.9,270.9c-16.8,0-30.3-2.9-40.4-8.6l2.8-20.5c5.6,2.9,11.4,5.1,17.5,6.7c6.3,1.9,12.8,2.9,19.3,3
		c6,0,10.7-1.1,14.1-3.4c3.3-2.2,5.3-5.9,5.1-9.9c0.1-3.7-1.7-7.2-4.7-9.4c-3.2-2.3-9.2-5.1-18-8.5c-3-1.1-5-1.8-5.9-2.2
		c-10.5-4.1-18.1-8.6-22.8-13.7c-4.6-5-7-11.8-7-20.4c0-10.4,3.8-18.4,11.3-23.9s18-8.3,31.4-8.3c14.6,0,27.3,2.7,38.4,8.2
		l-6.8,18.8c-10.9-5.1-21.2-7.6-31.1-7.6c-5.5,0-9.8,0.9-12.8,2.8c-3,1.7-4.8,4.9-4.6,8.4c-0.1,3.4,1.6,6.5,4.5,8.3
		c3,2,8.8,4.6,17.5,7.7c0.3,0.1,1.2,0.4,2.7,0.9c1.5,0.6,2.7,1,3.5,1.4c10.5,3.8,18.2,8.4,23.1,13.7s7.4,12.2,7.4,20.7
		c-0.1,11.4-3.9,20.3-11.6,26.5C375,267.8,364,270.9,349.9,270.9z"/>
	<polygon points="470.2,203.7 516.7,154.5 484.3,154.5 437.8,202.4 437.8,117.3 410.6,122.3 410.6,268.8 437.8,268.8 437.8,268.8 
		437.8,237.9 452.9,222 486.8,268.8 519.8,268.8 	"/>
	<path class="st2" d="M250.4,311.9h-16.6v11.8h18.9v3.4h-22.6v-32.4h22.1v3.4h-18.4v10.6h16.6L250.4,311.9L250.4,311.9z"/>
	<path class="st2" d="M279.2,313.2v13.9h-3.5v-13.9c0-4.1-2.4-7-6.4-7c-4.1-0.1-7.5,3.2-7.6,7.3c0,0,0,0.1,0,0.1v13.6h-3.5v-23.3
		h3.5v3.3c1.8-2.7,4.8-4.2,8-4.2C275.6,302.9,279.2,307.3,279.2,313.2z"/>
	<path class="st2" d="M287.1,306.8h-3.8v-2.9h4l0.5-5.4h2.9v5.4h6v2.9h-6v14.5c-0.2,1.9,1.3,3.6,3.2,3.8c0.1,0,0.3,0,0.4,0
		c1,0,1.9-0.2,2.8-0.5v2.9c-1.2,0.3-2.4,0.5-3.7,0.5c-3.8,0-6.2-2.7-6.2-6.7L287.1,306.8L287.1,306.8z"/>
	<path class="st2" d="M321,320.2l3.1,1.1c-1.5,3.9-6.1,6.7-10.9,6.7c-7.3,0-12.5-5.4-12.5-12.8c-0.2-6.6,4.9-12.1,11.5-12.3
		c0.3,0,0.5,0,0.8,0c7.1,0,12.2,5.2,12.2,12.3c0,0.4,0,0.9,0,1.4h-20.9c0.5,4.9,4.1,8.2,8.7,8.2C316.5,324.8,319.9,322.8,321,320.2z
		 M321.6,313.6c-0.7-4.7-5.1-8-9.8-7.3c-3.8,0.6-6.8,3.5-7.3,7.3H321.6z"/>
	<path class="st2" d="M343.3,303.7v3.2c-1.1-0.5-2.3-0.7-3.5-0.7c-3.6,0-6,3.3-6,7.9v13h-3.5v-23.2h3.4v3.2c1.2-2.5,3.7-4,6.4-4
		C341.2,303.1,342.3,303.3,343.3,303.7z"/>
	<path class="st2" d="M351,337.7h-3.5v-33.8h3.4v4c2-3.1,5.6-5,9.3-4.9c6.9,0,12,5.3,12,12.6s-5,12.5-12,12.5
		c-3.7,0.1-7.2-1.7-9.2-4.8L351,337.7L351,337.7z M359.8,306.3c-5.1,0-8.9,3.9-8.9,9.2c0,4.9,4,8.9,8.9,8.9s8.9-4,8.9-8.9l0,0
		C368.7,310.1,364.9,306.3,359.8,306.3L359.8,306.3z"/>
	<path class="st2" d="M390.2,303.7v3.2c-1.1-0.5-2.3-0.7-3.5-0.7c-3.6,0-6,3.3-6,7.9v13h-3.5v-23.2h3.4v3.2c1.2-2.5,3.7-4,6.4-4
		C388.2,303.1,389.2,303.3,390.2,303.7z"/>
	<path class="st2" d="M396.7,294.8c1.3-0.1,2.3,0.9,2.4,2.2c0,0.1,0,0.1,0,0.2c0,1.3-1,2.4-2.2,2.4c0,0-0.1,0-0.1,0
		c-1.3,0.1-2.3-0.9-2.4-2.2c0-0.1,0-0.1,0-0.2c-0.1-1.2,0.9-2.3,2.2-2.4C396.6,294.8,396.7,294.8,396.7,294.8z M395,327.1v-23.2h3.5
		v23.2L395,327.1L395,327.1z"/>
	<path class="st2" d="M404.3,319.3h3.4c0,3.2,2.9,5.5,6.9,5.5c3.6,0,6.2-1.8,6.2-4.1c0-5.8-16-1.6-16-10.8c0-4,3.9-7,8.9-7
		c5.7,0,9.9,3.3,9.9,7.9h-3.5c0-2.7-2.8-4.6-6.6-4.6c-3,0-5.4,1.7-5.4,3.9c0,5.7,16,1.9,16,10.4c0,4.3-4,7.5-9.6,7.5
		C408.5,328,404.2,324.3,404.3,319.3z"/>
	<path class="st2" d="M448.3,320.2l3.1,1.1c-1.5,3.9-6.1,6.7-10.9,6.7c-7.3,0-12.5-5.4-12.5-12.8c-0.2-6.6,4.9-12.1,11.5-12.3
		c0.3,0,0.5,0,0.8,0c7.1,0,12.2,5.2,12.2,12.3c0,0.4,0,0.9,0,1.4h-20.9c0.5,4.9,4.1,8.2,8.7,8.2
		C443.8,324.8,447.2,322.8,448.3,320.2z M448.8,313.6c-0.7-4.7-5.1-8-9.8-7.3c-3.8,0.6-6.8,3.5-7.3,7.3H448.8z"/>
	<path class="st2" d="M502.2,317c-1.6,6.5-8,11.3-15.3,11.3c-9.8,0-16.8-7.3-16.8-17.3s7.1-17.4,16.8-17.4
		c7.2-0.1,13.5,4.8,15.3,11.8l-3.8,0.5c-1.4-5.3-6.1-8.9-11.5-8.9c-7.6,0-13,5.8-13,14s5.5,13.9,13,13.9c5.3,0.1,10.1-3.4,11.6-8.6
		L502.2,317z"/>
	<path class="st2" d="M507.7,327.1v-33.8h3.5v33.8H507.7z"/>
	<path class="st2" d="M528.6,328c-7.3,0-12.4-5.2-12.4-12.5s5.1-12.6,12.4-12.6s12.4,5.2,12.4,12.6S535.8,328,528.6,328z
		 M528.6,306.1c-5.2,0-8.9,3.9-8.9,9.3s3.7,9.3,8.9,9.3s8.9-4,8.9-9.3S533.7,306.1,528.6,306.1z"/>
	<path class="st2" d="M545.5,317.8v-13.9h3.5v13.9c0,4.1,2.3,7.1,6.5,7.1c4.1,0.1,7.5-3.2,7.5-7.3c0,0,0,0,0-0.1v-13.6h3.5v23.2
		h-3.5v-3.3c-1.8,2.7-4.8,4.2-8,4.2C549.2,328,545.5,323.7,545.5,317.8z"/>
	<path class="st2" d="M592.8,293.3h3.5v33.8h-3.4v-4c-2,3.1-5.5,5-9.3,4.9c-7,0-12-5.3-12-12.5s5.1-12.6,12-12.6
		c3.7-0.1,7.1,1.8,9.2,4.8L592.8,293.3L592.8,293.3z M584,324.6c4.8,0.1,8.8-3.7,8.9-8.5c0-0.2,0-0.4,0-0.6c0-5.3-3.7-9.2-8.9-9.2
		s-8.9,3.9-8.9,9.2S578.9,324.6,584,324.6L584,324.6z"/>
	<path class="st3" d="M232.2,409.2v6.4h-2V398h6.8c3.7,0,6.4,2.4,6.4,5.6s-2.7,5.6-6.4,5.6L232.2,409.2L232.2,409.2z M232.2,399.9
		v7.4h4.5c2.6,0,4.6-1.5,4.6-3.7s-1.9-3.7-4.6-3.7L232.2,399.9L232.2,399.9z"/>
	<path class="st3" d="M255.2,397.4c5.2,0,9.4,4.3,9.4,9.5s-4.3,9.4-9.5,9.4c-5.2,0-9.4-4.2-9.4-9.4c-0.2-5,3.7-9.2,8.7-9.4
		C254.7,397.4,254.9,397.4,255.2,397.4z M255.2,414.4c4.2,0.1,7.7-3.2,7.8-7.4c0.1-4.2-3.2-7.7-7.4-7.8c-4.2-0.1-7.7,3.2-7.8,7.4
		c0,0.1,0,0.1,0,0.2c-0.2,4,2.9,7.4,6.8,7.6C254.8,414.4,255,414.4,255.2,414.4z"/>
	<path class="st3" d="M277,398h3l4,16.2l4.5-16.2h2.1l-5,17.6h-3.3l-3.9-15.4l-3.9,15.4h-3.4l-5-17.6h2.2l4.5,16.2L277,398z"/>
	<path class="st3" d="M304.7,407.4h-9v6.4H306v1.9h-12.3V398h12v1.9h-10v5.8h9L304.7,407.4L304.7,407.4z"/>
	<path class="st3" d="M311.4,408.7v6.9h-2.1V398h7.8c3.7,0,6.4,2.3,6.4,5.4c-0.1,2.5-1.9,4.6-4.3,5l4.5,7.2h-2.4l-4.2-6.9
		L311.4,408.7L311.4,408.7z M311.4,399.9v7h5.5c2.6,0,4.4-1.4,4.4-3.4c0-2.2-1.9-3.6-4.4-3.6L311.4,399.9L311.4,399.9z"/>
	<path class="st3" d="M338.1,407.4h-9v6.4h10.2v1.9h-12.2V398h12v1.9h-10v5.8h9L338.1,407.4L338.1,407.4z"/>
	<path class="st3" d="M342.7,415.6V398h5.4c6.1,0,10.2,3.5,10.2,8.8s-4.1,8.8-10.2,8.8L342.7,415.6L342.7,415.6z M348,399.9h-3.3
		v13.9h3.3c4.9,0,8.2-2.7,8.2-6.9S352.9,399.9,348,399.9L348,399.9z"/>
	<path class="st3" d="M368.8,415.6V398h7.5c3.2,0,5.5,2,5.5,4.7c0,1.8-1.1,3.3-2.8,3.8c1.9,0.4,3.3,2.2,3.3,4.2c0,2.9-2.5,4.9-6,4.9
		L368.8,415.6L368.8,415.6z M370.9,399.9v5.8h5.1c2.1,0,3.7-1.2,3.7-2.9s-1.5-2.9-3.7-2.9H370.9z M370.9,407.5v6.3h5
		c2.5,0,4.2-1.4,4.2-3.2s-1.8-3.1-4.2-3.1H370.9z"/>
	<path class="st3" d="M391.2,415.6h-2.1v-6.5l-6.3-11.1h2.3l5.1,9.1l5-9.1h2.4l-6.3,11.1L391.2,415.6L391.2,415.6z"/>
	<path class="st4" d="M455.9,406.5c0-0.1,0-0.2,0-0.3c0-0.3,0-0.5,0-0.8v-14.7l0,0l-14.5,1c-4.3,0-8.4,2-11.1,5.3l-0.1,0.1l-0.1-0.1
		c-2.7-3.3-6.8-5.3-11.1-5.3l-14.5-1l0,0v14.7c0,0.3,0,0.5,0,0.8c0,0.1,0,0.2,0,0.3v0.2v0.1c0,0.9,0.2,1.8,0.4,2.7v0.1v0.4l0.2,0.6
		l0,0.2c2.5,7.6,10.7,11.8,18.3,9.3c1.2-0.4,2.4-1,3.4-1.6l3.3,5.4l0,0l0,0l3.3-5.4c6.7,4.4,15.7,2.5,20.1-4.2
		c0.7-1.1,1.3-2.2,1.6-3.4l0-0.2l0.2-0.6v-0.4v-0.1c0.2-0.9,0.3-1.8,0.4-2.7v-0.1v-0.2H455.9z"/>
	<polygon class="st3" points="427.2,416.1 430.1,420.9 433,416.1 430.1,412.6 	"/>
	<path class="st5" d="M454.3,406l-2.3,1.4l2,1.2l-2,1.2l1.5,0.9c-2.4,6.7-9.9,10.2-16.6,7.7c-2.8-1-5.2-3-6.8-5.6l0,0l-0.1-0.2l0,0
		c-3.5,6.2-11.4,8.4-17.6,4.9c-2.7-1.5-4.7-4-5.8-6.9l1.5-0.9l-2-1.2l2-1.2L406,406c0-0.1,0-0.2,0-0.3v-13.3l13,0.9
		c4.6,0,8.9,2.6,11.2,6.6c2.3-4.1,6.6-6.6,11.2-6.6l13-0.9v13.3C454.3,405.8,454.3,405.9,454.3,406z"/>
	<circle class="st4" cx="418.9" cy="406.3" r="8.3"/>
	<path class="st3" d="M422.5,403.8c-0.4,0.5-1.2,0.6-1.7,0.2c-0.5-0.4-0.6-1.1-0.2-1.7c-2.2-0.9-4.7,0.2-5.5,2.4s0.2,4.7,2.4,5.5
		s4.7-0.2,5.5-2.4C423.5,406.5,423.3,405,422.5,403.8z"/>
	<circle class="st4" cx="441.2" cy="406.3" r="8.3"/>
	<path class="st3" d="M444.8,403.8c-0.4,0.5-1.2,0.6-1.7,0.2c-0.5-0.4-0.6-1.1-0.2-1.7c-2.2-0.9-4.7,0.2-5.5,2.4s0.2,4.7,2.4,5.5
		s4.7-0.2,5.5-2.4C445.8,406.5,445.6,405,444.8,403.8z"/>
	<path class="st3" d="M468.2,407.4c0.4,2.2,2.4,3.7,4.6,3.6c1.6,0,3.2-0.7,4.2-2l2.7,2.2c-1.8,2.2-4.5,3.5-7.3,3.4
		c-4.6,0-8.4-3.8-8.4-8.4s3.8-8.4,8.4-8.4c5,0,7.9,3.6,7.9,8.7c0,0.3,0,0.7,0,0.9L468.2,407.4L468.2,407.4z M468.2,404.8h8
		c0-2-1.6-3.6-3.5-3.6c-0.1,0-0.3,0-0.4,0C470.2,401.2,468.5,402.8,468.2,404.8L468.2,404.8z"/>
	<path class="st3" d="M484,414.4h-4.5l5.9-8.3l-5.9-7.9h4.7l3.5,4.8l3.5-4.8h4.7l-5.9,7.9l5.9,8.3h-4.5l-3.8-4.8L484,414.4z"/>
	<path class="st3" d="M500.9,401.6v5.7c0,2.9,0.5,3.7,2.6,3.7c0.6,0,1.3-0.1,1.9-0.1v3.1c-1.2,0.4-2.5,0.6-3.8,0.6
		c-2.7,0-4.9-1.7-4.9-5.1v-7.9h-3.5v-3.4h3.5v-6.3h4.2v6.3h4.5v3.4L500.9,401.6L500.9,401.6z"/>
	<path class="st3" d="M518.5,394c0-1.3,1.1-2.4,2.4-2.5c1.3,0,2.4,1.1,2.4,2.4c0,0,0,0,0,0c0,1.3-1,2.4-2.3,2.4c0,0,0,0,0,0
		C519.6,396.4,518.5,395.3,518.5,394C518.5,394,518.5,394,518.5,394z M518.9,398.2h4.2v16.2h-4.2V398.2L518.9,398.2z"/>
	<path class="st3" d="M551.8,405.3v9h-4.2v-9c0-2.5-1.3-3.7-3.5-3.7c-1.2,0-2.4,0.4-3.2,1.3c0.2,0.8,0.2,1.7,0.2,2.5v9H537v-9
		c0-2.5-1.1-3.7-3.3-3.7c-1.3,0-2.5,0.4-3.5,1.3v11.5H526v-16.2h4.2v1c1.2-0.9,2.7-1.3,4.2-1.3c2.5,0,4.3,0.6,5.4,2.1
		c1.4-1.3,3.2-2,5.1-2.1C549.6,397.9,551.8,400.1,551.8,405.3z"/>
	<path class="st3" d="M554.2,394c0-1.3,1.1-2.4,2.4-2.5c1.3,0,2.4,1.1,2.4,2.4c0,0,0,0,0,0c0,1.3-1,2.4-2.3,2.4c0,0,0,0,0,0
		C555.2,396.4,554.2,395.3,554.2,394C554.2,394,554.2,394,554.2,394z M554.5,398.2h4.2v16.2h-4.2V398.2L554.5,398.2z"/>
	<path class="st3" d="M577.6,398.1v16.2h-4.2v-1.2c-1.4,0.9-3.1,1.4-4.8,1.4c-5.1,0-8.1-4.1-8.1-8.4s3-8.4,8.1-8.4
		c1.7,0,3.3,0.5,4.8,1.3v-1L577.6,398.1L577.6,398.1z M573.4,403c-1.1-0.9-2.5-1.4-4-1.4c-2.6-0.1-4.7,1.9-4.9,4.4s1.9,4.7,4.4,4.9
		c0.1,0,0.3,0,0.4,0c1.5,0,2.9-0.5,4-1.4V403z"/>
	<path class="st3" d="M595.8,405.3v9h-4.2v-9c0-2.5-1.2-3.7-3.5-3.7c-1.3,0-2.6,0.4-3.6,1.3v11.5h-4.2v-16.2h4.2v1
		c1.3-0.9,2.8-1.3,4.3-1.3C593.6,397.9,595.8,400.1,595.8,405.3z"/>
	<path class="st3" d="M516.8,397.9h-0.3c-2,0-3.9,0.9-5.1,2.6v-2.3h-4.2v16.2h4.2v-7.8c0-2.1,1.1-4.2,4.1-4.2c0.4,0,0.9,0,1.3,0.1
		L516.8,397.9L516.8,397.9z"/>
	<rect x="231.1" y="360.4" width="364" height="3"/>
</g>
</svg>
