<?xml version="1.0" standalone="no"?>
<!DOCTYPE svg PUBLIC "-//W3C//DTD SVG 20010904//EN"
 "http://www.w3.org/TR/2001/REC-SVG-20010904/DTD/svg10.dtd">
<svg version="1.0" xmlns="http://www.w3.org/2000/svg"
 width="560.000000pt" height="560.000000pt" viewBox="0 0 560.000000 560.000000"
 preserveAspectRatio="xMidYMid meet">
<metadata>
Created by potrace 1.11, written by Peter Selinger 2001-2013
</metadata>
<g transform="translate(0.000000,560.000000) scale(0.100000,-0.100000)"
fill="#000000" stroke="none">
<path d="M0 2800 l0 -2800 2800 0 2800 0 0 2800 0 2800 -2800 0 -2800 0 0
-2800z m3370 2739 c195 -24 384 -98 506 -198 160 -131 263 -347 294 -616 13
-121 13 -1454 0 -1526 -17 -89 -63 -174 -132 -243 -68 -67 -176 -129 -247
-141 -52 -9 -52 -21 0 -30 71 -12 179 -74 247 -141 70 -70 115 -155 133 -247
7 -39 9 -304 6 -805 -3 -728 -4 -749 -26 -846 -32 -143 -61 -210 -92 -214 -13
-1 -30 2 -37 6 -7 5 -37 88 -67 185 -91 295 -175 485 -295 667 -146 222 -264
339 -537 532 -18 13 -45 41 -60 63 -26 37 -28 48 -29 136 0 95 -1 98 -48 192
l-48 96 11 64 c25 145 6 285 -54 397 -81 150 -118 237 -141 332 -30 121 -54
177 -123 287 -53 83 -55 100 -13 101 24 0 73 31 127 80 34 31 67 51 90 56 44
8 49 16 46 72 -1 25 1 54 5 64 3 10 40 45 82 77 42 32 93 75 112 95 20 21 51
41 74 47 84 23 142 127 117 211 -7 24 -30 57 -55 82 -52 50 -71 86 -81 151
-10 71 -32 107 -134 222 -104 117 -124 133 -167 133 -21 0 -57 17 -106 49 -99
64 -173 91 -251 91 -101 0 -160 -35 -229 -134 -10 -13 -42 -36 -72 -49 -73
-34 -139 -96 -167 -160 -22 -48 -24 -63 -21 -196 3 -164 -2 -181 -50 -153 -25
15 -30 15 -38 2 -14 -21 -12 -49 5 -106 18 -61 35 -77 148 -143 137 -81 144
-109 48 -192 -66 -56 -124 -140 -158 -226 -25 -61 -27 -80 -27 -193 0 -142 14
-193 124 -470 100 -251 113 -300 113 -420 1 -99 -2 -111 -41 -215 -70 -187
-77 -270 -32 -372 26 -59 63 -99 156 -168 39 -29 105 -93 146 -141 76 -90 143
-156 187 -184 l23 -15 -61 -123 c-77 -152 -97 -229 -110 -419 -13 -175 -18
-195 -72 -284 -22 -37 -43 -86 -46 -109 l-6 -40 429 2 429 3 3 37 c5 59 -10
76 -60 72 -38 -4 -60 4 -183 68 -126 66 -140 76 -143 102 -5 40 93 233 163
321 135 171 162 235 152 365 -6 81 -52 270 -92 375 l-24 65 23 6 c35 8 98 -12
158 -52 339 -228 596 -608 768 -1134 26 -80 50 -157 54 -172 l6 -28 -97 -1
c-54 0 -118 -4 -143 -8 -31 -6 14 -9 143 -10 103 0 187 -5 187 -9 0 -15 -68
-121 -105 -165 -128 -152 -344 -255 -595 -286 -53 -7 -413 -11 -978 -11 -970
0 -934 -2 -960 55 -9 20 -12 647 -12 2696 0 2394 2 2673 16 2700 8 17 25 34
37 39 32 13 1793 12 1897 -1z"/>
</g>
</svg>
