<?xml version="1.0" standalone="no"?>
<!DOCTYPE svg PUBLIC "-//W3C//DTD SVG 20010904//EN"
 "http://www.w3.org/TR/2001/REC-SVG-20010904/DTD/svg10.dtd">
<svg version="1.0" xmlns="http://www.w3.org/2000/svg"
 width="560.000000pt" height="560.000000pt" viewBox="0 0 560.000000 560.000000"
 preserveAspectRatio="xMidYMid meet">
<metadata>
Created by potrace 1.11, written by Peter Selinger 2001-2013
</metadata>
<g transform="translate(0.000000,560.000000) scale(0.100000,-0.100000)"
fill="#000000" stroke="none">
<path d="M1205 5308 c-2 -7 -33 -108 -69 -224 l-66 -212 0 -273 1 -274 -66
-60 -65 -60 23 -137 c13 -76 21 -138 18 -138 -3 0 -46 9 -95 20 -50 11 -97 20
-106 20 -13 0 -20 -40 -44 -247 -16 -137 -35 -261 -42 -277 -18 -38 -18 -43 6
-51 29 -9 256 -313 243 -326 -7 -7 -55 -3 -154 15 -79 14 -156 26 -170 28 -26
3 -55 -26 -312 -315 -54 -61 -74 -77 -96 -77 -32 0 -61 -27 -61 -57 0 -23 30
-53 53 -53 9 0 17 -2 17 -5 0 -3 32 -121 71 -262 57 -205 69 -260 60 -275 -26
-42 6 -95 53 -86 21 4 57 -28 256 -227 174 -174 229 -235 224 -248 -3 -10 1
-28 10 -42 22 -34 68 -34 93 -1 17 24 38 28 433 84 228 33 416 59 417 58 1 -1
-18 -65 -42 -141 -24 -77 -43 -141 -41 -143 2 -1 51 48 110 109 58 62 108 110
110 108 2 -2 35 -89 74 -193 62 -167 69 -191 55 -201 -36 -26 -8 -95 38 -95
12 0 24 -17 37 -52 99 -262 93 -243 78 -273 -28 -54 24 -104 79 -75 23 12 55
4 368 -88 188 -56 352 -102 364 -102 12 0 144 27 293 61 250 56 273 60 289 45
10 -9 27 -16 38 -16 38 0 69 59 44 85 -6 6 25 106 80 258 49 137 89 253 89
257 0 5 -49 71 -110 147 -60 76 -106 141 -101 146 4 4 104 -8 221 -27 118 -20
217 -32 220 -27 3 4 103 76 223 160 193 136 216 155 205 169 -7 10 -39 48 -71
86 -32 37 -56 70 -54 72 9 10 213 74 233 74 25 0 27 5 45 98 6 35 18 69 25 76
7 7 111 65 231 129 l219 116 170 171 c93 94 170 175 172 180 5 13 -67 120 -82
120 -7 0 -217 -27 -467 -60 -355 -47 -502 -62 -674 -69 l-220 -9 -236 -61
c-129 -34 -246 -61 -260 -61 -14 0 -29 -4 -35 -9 -10 -11 -475 -131 -505 -131
-10 0 -19 -4 -19 -9 0 -8 -721 -433 -746 -439 -29 -8 -21 21 24 80 59 77 72
100 72 130 0 19 12 29 55 51 31 15 62 27 70 27 8 0 15 4 15 9 0 15 -21 25 -29
14 -3 -5 -32 -23 -64 -41 l-57 -32 -38 20 c-73 39 -74 41 -71 126 2 49 0 79
-7 81 -7 2 -9 -22 -6 -75 4 -76 4 -79 -22 -96 -18 -11 -43 -51 -71 -112 -61
-131 -69 -121 -62 70 10 221 15 359 22 562 l6 181 -125 524 -125 524 -91 190
c-65 135 -138 316 -252 625 -88 239 -164 443 -169 452 -8 15 -23 18 -80 18
-47 0 -71 -4 -74 -12z m131 -100 c-3 -50 -6 -107 -6 -127 0 -51 -12 -31 -55
92 -21 59 -40 105 -42 103 -3 -2 14 -55 36 -116 l41 -111 -27 -24 c-26 -22
-27 -25 -15 -58 11 -32 9 -41 -32 -136 -31 -73 -46 -98 -53 -89 -9 12 27 476
42 536 5 20 12 22 62 22 l56 0 -7 -92z m93 -310 c37 -175 63 -317 57 -315 -5
2 -36 82 -68 177 -44 133 -57 183 -52 208 5 24 2 38 -12 53 -19 21 -20 32 -7
164 4 39 9 61 11 50 2 -10 34 -162 71 -337z m-270 -133 c-17 -176 -34 -331
-40 -344 -8 -19 -12 -21 -24 -11 -12 10 -15 50 -15 222 l0 210 42 134 c33 107
44 132 54 122 9 -10 6 -82 -17 -333z m388 -10 l125 -340 -49 -42 c-26 -24 -50
-43 -53 -43 -3 0 -27 102 -53 228 -26 125 -63 298 -81 385 -19 87 -29 156 -24
155 6 -2 66 -156 135 -343z m-217 158 c1 -10 9 -119 19 -243 10 -124 18 -226
16 -228 -1 -1 -33 63 -70 143 -38 80 -70 143 -72 141 -3 -2 25 -66 61 -141
l65 -137 -26 -33 c-21 -26 -43 -37 -113 -58 -47 -15 -94 -29 -104 -33 -15 -6
-14 1 9 45 14 29 43 125 65 215 22 89 48 183 60 209 11 26 29 67 40 92 19 45
50 61 50 28z m120 -287 c54 -163 95 -296 92 -296 -23 2 -114 60 -137 88 -27
32 -28 40 -46 255 -20 250 -21 262 -14 255 3 -3 50 -139 105 -302z m285 -343
c32 -65 68 -142 82 -172 l24 -54 -131 123 c-72 67 -133 126 -135 131 -4 6 90
89 100 89 2 0 29 -53 60 -117z m-402 -54 c-22 -134 -34 -142 -110 -67 -30 29
-72 74 -94 100 l-40 47 108 34 108 33 22 -23 23 -24 -17 -100z m167 111 c33
-17 60 -32 60 -33 0 -2 36 -101 80 -221 44 -119 80 -220 80 -224 0 -3 -67 105
-150 241 -82 136 -150 252 -150 257 0 16 17 12 80 -20z m74 -273 c86 -142 156
-263 156 -268 0 -17 -18 -7 -139 76 -62 43 -117 87 -121 99 -11 26 -70 321
-70 350 0 12 4 16 9 11 5 -6 79 -126 165 -268z m-153 83 c20 -99 34 -180 31
-180 -3 0 -24 16 -48 35 -30 25 -41 40 -37 54 3 11 -4 28 -16 40 -20 20 -20
23 -6 103 22 117 24 128 33 128 4 0 24 -81 43 -180z m-204 -394 c-2 -5 -60 93
-130 218 l-127 227 33 29 c18 16 44 37 57 48 l24 20 73 -267 c40 -146 71 -270
70 -275z m40 327 c-9 -19 -6 -29 12 -54 l23 -31 -22 -132 c-15 -88 -27 -133
-35 -133 -7 0 -11 6 -8 13 3 9 -79 329 -133 519 -3 11 35 -20 84 -69 83 -82
89 -91 79 -113z m627 -165 c14 -61 24 -113 22 -115 -3 -3 -148 217 -295 447
-9 14 43 -30 115 -98 l131 -123 27 -111z m-240 249 c4 4 4 -1 0 -11 -5 -13 -4
-17 3 -13 10 6 268 -381 260 -389 -2 -2 -17 1 -33 8 -25 9 -44 38 -123 195
-52 101 -96 181 -98 179 -3 -2 36 -84 86 -182 49 -98 88 -180 85 -183 -3 -3
-13 0 -22 7 -9 7 -24 15 -32 18 -9 3 -44 84 -85 196 -80 220 -81 221 -62 190
7 -12 16 -19 21 -15z m-546 -247 c87 -153 108 -198 101 -212 -22 -42 -75 -18
-211 94 -51 43 -101 83 -112 91 -10 7 -17 20 -15 29 4 13 11 13 71 -1 62 -15
74 -22 170 -110 l103 -94 -101 104 -102 104 -12 80 c-6 44 -14 94 -17 110 -6
38 -9 43 125 -195z m334 30 c2 -18 -16 -51 -71 -123 -103 -135 -106 -136 -86
-32 7 39 18 102 24 140 10 57 16 73 34 81 30 13 95 -30 99 -66z m-587 -54 c49
-40 53 -45 40 -63 -8 -11 -39 -37 -69 -58 -31 -21 -54 -40 -52 -42 2 -3 32 16
66 41 54 38 90 50 90 27 0 -3 7 -46 15 -96 8 -49 11 -93 7 -97 -4 -3 -45 18
-91 48 -46 30 -85 53 -87 51 -3 -2 34 -28 81 -58 47 -30 85 -57 85 -61 0 -4
-47 -39 -105 -78 -58 -39 -105 -67 -105 -63 0 5 7 60 15 123 22 176 23 181 30
250 7 78 15 120 21 120 3 0 29 -20 59 -44z m752 -38 c56 -37 104 -72 107 -77
11 -18 -19 -26 -214 -57 -150 -23 -196 -27 -198 -18 -3 13 123 183 161 216 10
10 24 15 31 11 6 -4 57 -37 113 -75z m-581 -100 c41 -33 73 -65 71 -71 -4 -13
-116 -81 -122 -75 -5 5 -34 170 -35 196 0 20 8 15 86 -50z m864 -220 c47 -237
53 -286 43 -413 l-6 -80 -64 325 c-47 241 -61 329 -53 342 5 10 10 25 10 33 0
8 6 15 13 15 8 0 27 -72 57 -222z m42 193 c9 -7 171 -682 165 -687 -6 -6 -122
198 -119 209 2 6 -3 16 -11 22 -13 9 -107 424 -107 470 0 11 6 12 33 3 17 -6
35 -14 39 -17z m-217 -8 c5 -14 -10 -33 -62 -80 -37 -35 -72 -63 -77 -63 -20
0 -266 82 -266 89 0 4 87 21 193 38 105 17 195 31 198 32 4 1 10 -7 14 -16z
m11 -118 c-55 -188 -67 -225 -75 -225 -8 0 -67 188 -60 194 2 2 35 31 73 65
38 34 73 58 77 54 4 -4 -2 -44 -15 -88z m175 -558 c-13 -13 -214 241 -207 260
3 8 6 18 6 23 0 14 29 20 54 11 18 -7 36 -41 82 -150 32 -77 60 -138 62 -136
2 2 -24 71 -58 152 -69 162 -68 157 -61 373 l3 115 64 -320 c36 -184 60 -323
55 -328z m-676 586 l35 -36 -1 -241 c-1 -133 -4 -232 -6 -221 -18 73 -113 520
-113 532 0 25 45 7 85 -34z m540 -159 c-7 -84 -26 -124 -61 -124 -29 0 -26 32
17 182 l44 152 3 -65 c2 -35 1 -101 -3 -145z m-626 139 c9 -45 8 -60 -1 -70
-12 -11 -339 -95 -346 -89 -6 7 155 106 171 106 10 0 20 7 24 16 5 13 119 93
134 94 3 0 11 -26 18 -57z m306 -6 l130 -42 28 -89 c19 -56 25 -92 19 -98 -6
-6 -66 40 -166 128 -86 75 -156 138 -156 140 0 8 17 3 145 -39z m155 -249 c0
-6 -6 -8 -14 -5 -8 3 -33 11 -56 18 -37 11 -54 28 -133 130 -51 65 -93 116
-95 114 -2 -2 34 -52 80 -112 47 -59 88 -114 92 -120 7 -13 66 -336 62 -341
-6 -6 -245 571 -240 579 6 10 304 -249 304 -263z m-201 -42 c103 -245 120
-291 108 -303 -11 -12 -29 -10 -113 8 -54 12 -104 26 -111 31 -9 7 -13 84 -15
288 -2 154 0 276 3 272 3 -4 61 -137 128 -296z m-265 188 c8 -20 -75 -294 -89
-294 -22 1 -309 214 -295 219 22 7 353 89 366 90 7 1 15 -6 18 -15z m76 -221
c24 -112 41 -206 37 -209 -4 -4 -127 76 -184 120 -1 1 19 70 44 154 26 84 50
149 54 144 3 -4 25 -98 49 -209z m-267 -18 c53 -37 97 -75 97 -83 0 -8 -5 -32
-12 -53 -20 -69 -41 -56 -163 108 -61 80 -112 151 -114 157 -2 5 18 -6 45 -25
27 -19 93 -66 147 -104z m622 85 c14 -5 25 -16 25 -25 0 -8 9 -24 19 -34 19
-19 19 -21 -17 -140 -19 -67 -37 -120 -38 -118 -2 1 -14 68 -29 147 -14 80
-28 156 -31 169 -4 21 -2 23 20 17 14 -3 37 -11 51 -16z m197 -166 c68 -84 70
-87 27 -53 -24 20 -58 59 -75 87 l-30 51 1 -49 c1 -43 -4 -56 -48 -115 -27
-37 -47 -69 -44 -71 2 -2 25 27 51 65 27 38 56 71 66 74 12 3 41 -19 93 -72
104 -105 100 -111 -74 -111 -122 0 -131 1 -136 20 -3 11 -9 18 -13 15 -4 -2 8
51 28 118 19 67 39 125 45 128 21 14 41 -1 109 -87z m267 -54 c36 -60 67 -107
71 -105 3 2 6 -5 6 -16 0 -17 -8 -19 -66 -19 -58 1 -67 3 -83 26 -16 22 -18
37 -11 124 3 55 9 100 13 100 3 0 35 -50 70 -110z m-730 -313 c126 -196 233
-363 236 -370 11 -21 -69 68 -281 314 -153 178 -204 243 -204 263 0 14 -5 35
-12 45 -9 14 -8 29 2 65 7 26 16 45 21 44 4 -2 111 -164 238 -361z m-121 285
c39 -28 62 -51 62 -63 0 -12 7 -19 19 -19 25 0 357 -524 354 -560 -1 -14 3
-31 9 -37 13 -16 3 -43 -16 -43 -9 0 -20 9 -26 20 -6 11 -15 18 -20 15 -5 -3
-12 0 -16 6 -4 8 -3 9 4 5 7 -4 12 -5 12 -1 0 3 -85 137 -188 298 -104 160
-210 325 -236 365 -26 41 -41 70 -34 66 7 -5 41 -28 76 -52z m-443 -215 c43
-76 76 -139 74 -141 -7 -7 -363 125 -370 136 -5 7 29 52 83 110 l91 99 22 -33
c12 -18 57 -95 100 -171z m0 190 l70 -12 68 -174 c37 -95 66 -175 64 -177 -3
-3 -274 335 -291 364 -9 15 -2 14 89 -1z m152 -27 c35 -8 51 -17 58 -33 6 -12
20 -26 32 -32 13 -6 21 -16 19 -25 -3 -8 -8 -68 -12 -132 -4 -81 -10 -118 -18
-118 -7 0 -41 75 -77 166 -35 92 -65 171 -67 175 -5 12 7 11 65 -1z m511 -39
c46 -11 85 -21 86 -23 1 -1 7 -15 14 -30 6 -16 22 -30 37 -34 14 -3 25 -9 25
-13 0 -3 16 -98 35 -211 18 -113 32 -206 31 -208 -4 -3 -336 523 -336 532 0 9
18 7 108 -13z m-219 -405 c83 -198 148 -363 143 -368 -5 -5 -77 78 -160 184
-100 126 -148 196 -142 202 16 16 11 45 -11 67 -20 20 -20 28 -14 137 7 126
13 159 24 146 5 -5 76 -171 160 -368z m933 242 c-2 -73 -7 -139 -11 -146 -11
-20 -141 230 -134 257 5 19 12 21 77 21 l72 0 -4 -132z m-1286 -28 c84 -107
97 -129 96 -158 -3 -42 12 -62 49 -62 24 0 49 -27 199 -216 94 -118 173 -221
175 -227 10 -25 -11 -32 -80 -27 -38 3 -77 10 -86 15 -9 6 -88 135 -175 287
-86 153 -159 276 -161 274 -2 -2 66 -126 152 -276 85 -150 154 -274 152 -276
-3 -3 -366 202 -376 212 -8 7 60 341 71 352 6 6 4 15 -6 25 -14 14 -98 154
-128 212 -9 18 -9 18 4 5 9 -8 60 -71 114 -140z m1054 125 c23 -25 23 -26 7
-78 -8 -28 -23 -78 -32 -109 -12 -42 -21 -58 -34 -58 -10 0 -62 51 -121 120
-56 66 -105 120 -108 120 -6 0 9 -19 116 -141 50 -59 92 -114 92 -122 0 -8 8
-21 19 -28 23 -17 61 -129 50 -149 -4 -8 -10 -23 -13 -33 -4 -13 -14 -17 -33
-15 -25 3 -35 22 -135 241 -133 294 -136 277 43 277 121 0 126 -1 149 -25z
m-553 -293 c131 -152 240 -279 242 -284 4 -12 -168 76 -195 99 -11 10 -81 116
-154 235 -74 120 -136 216 -138 214 -2 -2 59 -104 135 -227 83 -135 137 -231
135 -243 -2 -10 1 -21 6 -25 10 -6 37 -230 31 -250 -3 -9 -186 412 -313 720
-13 31 -13 36 -1 36 8 0 122 -124 252 -275z m617 118 c8 -87 11 -149 5 -156
-5 -7 -4 -22 5 -40 8 -16 16 -58 18 -94 l5 -64 -46 51 c-60 67 -93 160 -80
227 9 48 57 214 67 231 9 14 10 3 26 -155z m84 20 c32 -63 57 -122 55 -131 -2
-9 -21 -21 -42 -28 -50 -15 -71 -14 -71 2 0 19 -19 225 -25 266 -7 52 13 26
83 -109z m-338 -138 c104 -229 105 -242 23 -217 -26 8 -52 20 -59 27 -10 11
-75 365 -74 408 1 13 2 13 9 0 5 -8 50 -106 101 -218z m-1059 142 c126 -45
168 -64 176 -80 7 -16 4 -55 -13 -145 -31 -161 -33 -169 -44 -169 -9 0 -310
442 -310 456 0 3 6 4 13 1 6 -2 87 -31 178 -63z m-52 -170 c84 -124 151 -227
149 -229 -2 -3 -95 48 -206 111 -114 65 -207 112 -213 108 -8 -4 -9 -3 -5 4 3
6 -2 16 -12 21 -11 6 -22 23 -25 38 -4 23 5 39 60 100 36 40 73 73 82 73 11 0
73 -83 170 -226z m4914 147 l26 -48 -92 -12 c-51 -6 -110 -14 -132 -17 -40 -6
-40 -6 38 47 42 28 76 54 73 56 -2 2 -39 -19 -82 -47 -53 -35 -81 -47 -88 -40
-16 16 -44 12 -68 -12 -19 -19 -54 -28 -206 -54 -100 -17 -185 -27 -188 -22
-3 4 -4 8 -2 8 2 0 144 40 316 89 172 50 320 87 329 84 9 -4 14 -2 11 3 -4 5
4 10 16 10 17 1 29 -10 49 -45z m-246 23 c-3 -3 -12 -4 -19 -1 -8 3 -5 6 6 6
11 1 17 -2 13 -5z m-44 -13 c23 -5 8 -11 -82 -37 l-110 -31 16 29 c16 26 21
28 88 29 50 1 63 3 45 9 -20 6 -21 8 -5 8 11 0 33 -3 48 -7z m-179 -23 c-27
-48 -27 -48 -228 -47 l-191 1 195 28 c236 34 233 33 224 18z m466 -51 c0 -11
-430 -288 -439 -283 -17 11 121 180 150 184 30 5 59 30 59 52 0 14 19 20 98
32 106 17 132 20 132 15z m-970 -17 c0 -4 -5 -33 -12 -64 l-11 -58 -96 7
c-146 11 -147 15 -26 64 58 24 104 46 101 48 -2 2 -54 -16 -115 -41 -60 -25
-116 -46 -123 -46 -7 0 -35 19 -63 43 l-49 42 74 6 c96 8 320 7 320 -1z m215
-55 c-121 -35 -221 -62 -223 -60 -2 2 2 30 9 64 l12 61 211 -1 211 0 -220 -64z
m-655 16 l-19 -39 -58 4 c-32 2 -78 4 -103 5 -43 0 -44 0 -15 10 17 5 38 7 47
5 10 -2 21 0 24 5 3 6 16 3 31 -6 14 -9 27 -14 30 -12 2 3 -6 11 -19 18 -22
12 -20 13 37 29 33 10 61 18 63 19 1 0 -7 -17 -18 -38z m118 -44 c9 -11 1 -12
-51 -9 -34 2 -64 6 -66 8 -3 2 3 20 12 40 l17 35 39 -30 c21 -17 43 -36 49
-44z m957 36 c11 -14 7 -25 -27 -70 -22 -29 -42 -53 -44 -53 -2 0 -4 29 -4 64
0 63 1 65 28 69 15 2 29 5 31 6 2 0 9 -7 16 -16z m-153 -23 c-57 -35 -154 -81
-159 -76 -3 2 -2 18 2 35 5 24 13 32 38 36 39 7 128 22 142 24 6 0 -5 -8 -23
-19z m68 -45 c0 -54 -3 -66 -20 -75 -18 -10 -330 -53 -336 -47 -2 2 346 186
354 187 1 0 2 -29 2 -65z m-4635 -153 c139 -162 147 -175 135 -196 -7 -13 -9
-32 -6 -42 9 -28 -108 -105 -146 -97 -15 3 -30 13 -32 22 -35 111 -136 489
-136 505 0 20 0 20 19 1 10 -11 85 -98 166 -193z m1664 136 c-1 -115 -7 -120
-58 -49 -23 34 -45 61 -47 61 -6 0 2 -13 44 -73 19 -26 36 -60 38 -75 13 -85
14 -126 7 -207 l-8 -90 -24 38 c-13 21 -25 36 -28 33 -3 -2 9 -25 26 -50 17
-24 31 -48 31 -53 -1 -12 -48 -68 -54 -62 -3 2 -7 52 -10 109 l-5 105 35 63
c20 35 34 66 31 68 -2 2 -20 -25 -39 -61 l-34 -66 -13 148 c-14 180 -10 207
33 221 17 5 41 10 54 11 21 1 22 -2 21 -71z m-1561 -73 c95 -54 177 -106 183
-116 5 -11 19 -19 31 -19 32 0 374 -197 393 -227 9 -13 19 -22 22 -19 4 3 40
-57 81 -135 69 -131 81 -166 50 -142 -145 113 -957 760 -968 771 -14 14 -13
14 10 1 14 -9 103 -60 198 -114z m3292 106 c5 -11 10 -21 10 -23 0 -3 -113
-53 -251 -113 -138 -60 -247 -111 -242 -112 5 -2 116 44 248 102 131 58 240
103 242 101 4 -4 -27 -86 -33 -86 -2 0 -114 -34 -251 -75 -136 -41 -249 -72
-252 -70 -2 3 1 5 8 5 7 0 9 4 6 10 -4 6 1 7 11 3 11 -4 15 -3 10 5 -3 6 2 15
11 21 10 6 14 11 9 11 -5 0 -41 -18 -81 -40 -70 -39 -74 -40 -107 -26 -24 10
-42 29 -59 60 -13 25 -21 47 -18 50 8 8 263 -27 270 -37 4 -5 95 39 203 98
108 59 195 110 192 112 -2 2 -43 -17 -90 -42 -66 -36 -84 -43 -79 -28 4 10 13
24 20 31 15 16 142 54 154 46 5 -3 17 0 26 5 25 15 31 14 43 -8z m193 2 c14
-4 10 -11 -25 -35 -53 -39 -96 -42 -123 -8 -55 68 -59 63 40 55 50 -3 98 -9
108 -12z m810 -20 c-3 -21 -7 -39 -8 -41 -4 -5 -245 22 -245 28 0 3 55 15 123
27 67 11 125 21 129 22 4 0 4 -16 1 -36z m-619 -39 c83 -31 153 -59 156 -61 6
-6 -259 6 -345 16 -35 3 -60 11 -60 18 0 10 81 81 94 82 3 1 73 -24 155 -55z
m-6 29 c11 -11 17 -11 28 -2 16 13 203 4 245 -12 15 -6 30 -23 37 -43 17 -46
17 -46 -28 -46 -22 0 -40 3 -40 6 0 3 9 19 21 36 12 16 19 31 16 34 -2 3 -14
-10 -26 -29 -12 -20 -32 -37 -46 -39 -13 -3 -23 -2 -20 1 2 4 -61 31 -141 61
-79 29 -144 54 -144 56 0 8 87 -12 98 -23z m1166 19 c3 -5 -39 -52 -92 -104
-92 -91 -107 -101 -280 -193 -174 -93 -229 -111 -201 -68 12 20 537 371 556
372 6 1 14 -3 17 -7z m-4371 -544 c170 -136 225 -184 165 -146 -13 8 -130 76
-260 152 -150 87 -238 144 -238 154 0 23 -30 52 -54 52 -16 0 -61 46 -159 160
-75 88 -137 162 -137 165 0 3 111 -83 248 -192 136 -108 331 -263 435 -345z
m2571 504 c3 -5 3 -18 0 -29 -5 -19 -11 -21 -62 -16 -88 7 -92 14 -22 33 80
22 78 22 84 12z m292 -46 c-9 -14 -21 -26 -26 -26 -13 0 -13 7 2 47 11 29 14
31 27 19 12 -13 12 -18 -3 -40z m809 39 c39 -4 83 -9 100 -12 l29 -5 -44 -23
c-58 -30 -117 -24 -178 17 -24 17 -46 28 -48 25 -3 -2 18 -19 46 -37 54 -35
55 -54 4 -48 -22 2 -33 12 -47 40 -23 47 -15 61 32 54 20 -3 68 -8 106 -11z
m-1301 -66 c12 -62 8 -80 -16 -75 -13 3 -66 10 -118 16 -52 7 -102 14 -110 17
-11 4 180 63 231 72 4 1 9 -13 13 -30z m158 12 c5 -4 -24 -24 -63 -45 -38 -21
-72 -36 -73 -35 -2 2 -7 25 -10 52 l-7 47 73 -6 c40 -4 76 -10 80 -13z m1032
-40 c29 -1 46 -5 40 -10 -21 -19 -355 -111 -380 -105 -31 8 -254 133 -254 143
0 3 123 -1 273 -11 149 -9 294 -17 321 -17z m466 25 c0 -8 -54 -63 -120 -121
-66 -59 -129 -122 -141 -141 -38 -62 -57 -66 -198 -35 -105 23 -125 30 -132
48 -7 19 4 32 88 98 65 51 100 72 107 65 5 -5 18 -10 28 -10 10 0 18 -1 19 -2
0 -2 9 -50 19 -108 9 -58 18 -94 19 -80 0 14 -6 63 -13 109 -12 75 -12 87 3
115 9 17 17 32 17 34 1 2 246 37 292 41 6 0 12 -5 12 -13z m-3140 -1 c0 -2 25
-102 56 -221 30 -119 54 -218 51 -220 -2 -2 -37 68 -76 157 -66 146 -72 163
-61 189 8 19 9 34 2 46 -7 12 -6 24 1 36 11 16 27 25 27 13z m90 -69 c0 -7 7
-83 16 -170 8 -87 14 -160 11 -162 -2 -2 -25 80 -51 184 -26 103 -50 196 -53
206 -4 16 3 13 36 -13 22 -18 41 -38 41 -45z m1864 49 c-10 -8 -15 -15 -9 -15
11 0 -204 -219 -358 -362 -72 -68 -104 -92 -98 -76 21 55 102 208 110 208 5 0
11 8 13 18 3 11 72 57 166 112 89 52 160 96 157 98 -2 2 -77 -39 -167 -91
l-162 -96 -116 5 c-206 8 -206 9 147 116 175 53 322 97 327 97 6 1 1 -6 -10
-14z m277 -82 c52 -29 79 -51 83 -67 7 -28 -86 -250 -107 -254 -16 -3 -152
370 -143 394 6 17 31 6 167 -73z m-2408 61 c26 -9 45 -19 43 -22 -10 -18 16
-52 45 -59 29 -8 37 -20 94 -145 74 -162 68 -168 -58 -57 -143 126 -177 162
-177 185 0 12 -7 27 -15 34 -16 13 -12 43 7 68 13 15 5 15 61 -4z m-219 -38
c55 -29 59 -34 61 -68 2 -33 -5 -43 -66 -104 -43 -42 -72 -65 -78 -59 -11 12
-34 252 -25 266 8 13 36 4 108 -35z m2396 37 c0 -18 -74 -201 -88 -218 -9 -12
-91 -63 -182 -114 -91 -52 -176 -100 -190 -108 -14 -9 78 89 205 216 202 203
255 250 255 224z m58 -55 c60 -163 114 -329 109 -334 -6 -7 -194 124 -219 153
-15 17 -13 26 24 126 23 61 46 107 53 107 8 0 22 -24 33 -52z m662 38 c0 -3
-41 -37 -92 -77 -73 -57 -99 -72 -122 -71 -35 3 -66 -23 -66 -54 0 -16 -27
-43 -102 -103 -57 -44 -104 -77 -106 -73 -5 15 97 241 118 262 28 28 370 135
370 116z m-1586 -56 c-15 -28 -32 -54 -38 -59 -11 -8 -299 -102 -302 -98 -4 4
342 205 354 206 9 1 4 -16 -14 -49z m71 20 c8 -16 15 -33 15 -38 0 -8 -72 -32
-95 -32 -3 0 6 23 20 50 14 28 30 50 35 50 5 0 16 -13 25 -30z m15 -80 c-11
-11 -20 -27 -20 -35 0 -16 -15 -25 -89 -54 l-51 -21 25 49 c22 44 30 51 82 69
66 22 81 20 53 -8z m-1417 -91 c48 -79 55 -116 20 -105 -10 3 -73 8 -141 12
-88 5 -125 10 -129 20 -7 20 123 138 161 145 17 4 33 7 36 8 3 0 27 -35 53
-80z m547 46 c0 -17 -4 -23 -14 -19 -9 3 -20 -5 -30 -23 -23 -42 -19 -18 4 27
23 45 40 52 40 15z m718 -19 c-12 -25 -30 -47 -42 -50 -12 -3 -73 -5 -136 -5
l-115 1 145 48 c80 26 151 48 157 49 9 1 6 -14 -9 -43z m-999 -265 c-3 -7 -36
11 -79 44 -78 57 -106 86 -144 145 -74 115 -66 112 79 -31 81 -81 146 -152
144 -158z m341 266 c3 0 16 -9 28 -22 l24 -22 -26 -5 c-14 -3 -23 -1 -20 3 3
5 3 9 0 9 -2 0 -11 3 -20 6 -11 4 -14 0 -11 -15 2 -12 0 -19 -5 -16 -5 3 -7
14 -5 25 2 11 0 22 -6 25 -5 4 -9 13 -9 21 0 12 4 13 23 2 12 -7 24 -12 27
-11z m1068 7 c80 -6 92 -9 92 -25 0 -15 -92 -225 -104 -237 -15 -14 -53 33
-100 126 -71 136 -72 159 -11 148 16 -3 72 -8 123 -12z m-1118 -44 c0 -8 -42
-22 -48 -15 -2 2 2 13 8 25 9 17 14 19 26 9 8 -6 14 -15 14 -19z m850 25 c0
-13 -231 -195 -248 -195 -11 0 -22 -4 -24 -10 -2 -8 -175 14 -185 24 -1 1 55
26 126 54 80 33 134 50 146 46 12 -5 23 0 34 14 19 25 151 84 151 67z m141
-129 c48 -92 55 -113 46 -128 -9 -15 -20 -18 -47 -14 -19 2 -111 15 -203 27
-92 12 -166 26 -165 30 2 5 56 53 122 107 112 93 120 98 155 93 34 -6 39 -12
92 -115z m-1261 -88 c0 -19 -22 -1 -115 93 l-100 102 107 -94 c60 -52 108 -97
108 -101z m400 183 c0 -18 -92 -133 -100 -125 -14 15 -23 74 -11 74 6 0 11
-16 11 -36 l0 -37 35 44 c36 46 42 59 25 59 -5 0 -10 -6 -10 -14 0 -7 -7 -19
-15 -26 -9 -8 -15 -8 -15 -2 0 6 -3 17 -6 26 -4 11 0 16 12 16 11 1 30 7 44
15 30 17 30 17 30 6z m2192 -22 c132 -28 144 -38 128 -112 -9 -48 -14 -56 -38
-60 -51 -11 -372 1 -388 13 -8 7 -14 30 -14 55 l0 43 167 -54 c92 -30 171 -53
176 -51 5 1 -68 27 -162 57 -94 30 -171 57 -171 60 1 3 17 17 37 32 28 21 39
25 50 17 7 -6 26 -9 42 -6 25 5 43 -5 136 -78 59 -47 109 -85 111 -85 12 0 -7
16 -106 95 -60 47 -110 88 -110 91 0 8 42 4 142 -17z m-3628 -148 c142 -83
260 -151 263 -151 2 0 1 6 -3 13 -4 6 -5 10 -1 7 3 -3 5 -9 6 -13 0 -5 8 -15
18 -22 10 -7 15 -17 11 -20 -4 -4 -179 41 -388 100 -278 79 -384 113 -391 126
-7 15 2 25 52 62 56 40 65 43 90 33 24 -8 32 -7 46 7 10 10 22 16 28 13 5 -2
126 -72 269 -155z m1231 139 c-6 -19 -5 -19 29 -5 20 9 36 13 36 10 0 -8 -44
-28 -67 -31 -19 -2 -21 0 -11 22 13 29 22 32 13 4z m1750 -45 c46 -32 91 -65
99 -74 34 -38 11 -43 -320 -72 -175 -15 -320 -26 -322 -24 -5 5 -3 6 213 129
142 81 187 103 213 101 22 -2 63 -23 117 -60z m-1218 -19 c4 -5 -4 -6 -18 -3
-13 4 -60 7 -104 7 l-80 0 55 34 54 34 44 -31 c24 -17 46 -36 49 -41z m182 70
c-2 -2 -39 -19 -81 -36 l-78 -33 -40 28 c-23 16 -43 32 -46 37 -3 4 52 8 122
8 70 0 125 -2 123 -4z m-644 -36 c3 -6 -1 -7 -9 -4 -18 7 -21 14 -7 14 6 0 13
-4 16 -10z m-924 -10 c10 -6 19 -17 19 -25 0 -8 9 -19 21 -25 15 -9 19 -18 15
-38 -3 -15 -10 -64 -17 -109 -6 -46 -15 -83 -19 -83 -9 0 -150 263 -150 280 0
13 105 13 131 0z m877 -25 c-12 -27 -13 -28 -43 -15 -18 7 -17 9 15 24 19 8
36 15 37 16 2 0 -3 -11 -9 -25z m-471 -12 c18 -8 37 -12 42 -8 6 3 44 -19 83
-51 40 -31 64 -54 53 -51 -81 25 -412 128 -420 132 -5 2 40 2 100 -2 64 -3
123 -12 142 -20z m528 -22 l0 -50 -22 21 c-24 22 -24 21 12 65 6 7 10 12 10
13 0 0 0 -22 0 -49z m1995 1 c0 -21 -5 -43 -12 -50 -14 -14 -98 -16 -98 -3 0
10 91 90 103 91 4 0 7 -17 7 -38z m-2537 -48 c119 -37 217 -70 217 -73 0 -4
-62 -3 -137 1 -153 9 -159 11 -261 90 -35 27 -65 48 -67 46 -2 -2 27 -28 65
-57 41 -31 70 -60 70 -71 0 -21 -194 -134 -216 -126 -17 6 -17 42 -1 151 12
77 13 81 47 97 19 10 42 16 50 14 8 -3 113 -35 233 -72z m762 10 c-7 -37 -18
-40 -100 -26 l-39 7 69 40 c75 44 82 42 70 -21z m205 61 c0 -9 -57 -34 -64
-28 -3 3 -14 0 -23 -9 -21 -17 -102 -53 -106 -47 -2 2 -2 23 1 47 l4 42 94 0
c52 0 94 -2 94 -5z m-624 -92 l-26 -38 0 34 c0 19 9 44 23 60 22 28 22 28 25
5 2 -13 -8 -40 -22 -61z m117 52 c8 -8 17 -12 19 -10 3 3 15 -7 29 -23 l24
-27 -27 24 c-27 24 -40 17 -16 -7 9 -9 6 -11 -10 -7 -27 5 -28 -2 -4 -29 17
-21 17 -21 -5 -2 -23 20 -33 10 -11 -12 9 -9 6 -11 -10 -7 -27 5 -28 -2 -4
-29 17 -21 17 -21 -5 -2 -27 23 -30 11 -5 -18 17 -21 17 -21 -4 -3 -19 16 -22
16 -28 2 -3 -9 -2 -14 3 -11 4 3 17 -4 27 -17 l19 -22 -22 19 c-22 18 -29 13
-24 -17 1 -5 -3 -6 -9 -2 -6 3 -7 11 -4 17 4 7 2 8 -4 4 -18 -11 -14 5 8 39
11 17 20 35 20 40 -1 6 -7 -2 -16 -17 -10 -19 -19 -25 -31 -21 -14 5 -13 8 6
15 12 4 19 12 16 18 -3 5 -1 10 5 10 6 0 8 5 5 10 -3 6 0 10 7 10 10 0 9 3 -2
11 -13 9 -13 10 0 6 8 -2 14 -13 12 -23 -2 -18 -2 -18 13 0 16 21 20 40 7 32
-5 -3 -9 1 -9 9 0 8 7 17 16 20 14 6 13 8 -3 21 -11 8 -15 14 -9 14 7 0 18 -7
26 -15z m107 1 c0 -3 -4 -8 -10 -11 -5 -3 -10 -1 -10 4 0 6 5 11 10 11 6 0 10
-2 10 -4z m459 -32 c47 -9 90 -20 95 -24 5 -5 21 -7 35 -5 14 3 103 -6 196
-19 l170 -24 -332 -1 -333 -1 17 35 c9 19 23 35 30 35 7 0 13 5 13 10 0 13 8
13 109 -6z m-1854 -108 c252 -72 401 -118 403 -127 8 -25 35 -49 55 -49 23 0
57 27 57 44 0 10 530 130 537 122 2 -1 -118 -46 -265 -99 -167 -60 -283 -97
-307 -97 -22 0 -114 7 -205 16 -154 16 -166 19 -186 42 -18 21 -26 24 -59 19
-35 -6 -51 2 -229 110 -176 106 -218 133 -205 133 2 0 184 -51 404 -114z
m1705 105 c0 -5 -8 -23 -17 -40 -18 -31 -19 -31 -98 -30 -57 0 -74 3 -60 10
51 23 161 68 168 69 4 0 7 -4 7 -9z m-1914 -129 c183 -111 201 -124 197 -146
-5 -23 19 -58 45 -67 13 -5 20 -111 7 -116 -6 -1 -114 101 -240 228 -127 128
-225 229 -220 227 6 -3 100 -60 211 -126z m1738 99 c14 -5 -10 -19 -95 -54
-62 -26 -114 -45 -116 -43 -11 11 27 60 63 81 40 23 110 31 148 16z m1843 -6
c12 -1 47 -18 78 -39 31 -21 59 -35 61 -33 3 2 -19 20 -48 38 l-53 34 140 3
c205 4 215 -3 75 -49 -99 -33 -128 -38 -206 -39 -72 0 -93 3 -97 15 -4 8 -2
17 3 20 6 3 15 16 21 28 l12 22 -24 -22 c-17 -15 -32 -20 -52 -16 -32 6 -39
15 -31 38 6 14 15 16 53 9 25 -4 56 -8 68 -9z m-238 1 c-2 -2 -50 -25 -106
-49 l-103 -46 0 39 c0 36 2 39 33 44 61 11 183 19 176 12z m73 -36 c25 0 26
-1 15 -30 -6 -17 -18 -32 -27 -35 -51 -15 -472 -106 -476 -103 -2 3 94 48 214
100 190 84 219 94 233 82 8 -8 27 -14 41 -14z m-292 -21 c0 -29 -4 -40 -12
-36 -7 2 -57 15 -110 27 -54 13 -95 26 -93 29 5 5 116 17 178 20 37 1 37 1 37
-40z m-1872 2 c6 -4 -105 -31 -249 -60 -143 -29 -262 -51 -264 -49 -7 7 183
108 204 108 11 0 23 5 26 10 7 11 260 3 283 -9z m1588 -38 c-10 -79 -13 -86
-40 -99 -20 -9 -37 -3 -134 55 -61 36 -112 69 -112 74 0 15 38 6 55 -13 25
-28 76 -24 90 7 8 18 19 23 65 26 30 2 61 4 69 5 10 2 12 -10 7 -55z m256 -15
c-11 -11 -213 -98 -227 -98 -27 0 -32 24 -22 96 l9 71 124 -31 c68 -17 120
-34 116 -38z m-1359 46 c26 -9 47 -19 47 -23 0 -8 -219 -25 -226 -18 -4 3 110
53 127 56 3 1 26 -6 52 -15z m69 4 c-8 -8 -20 -8 -44 -1 l-33 11 45 1 c33 1
41 -2 32 -11z m383 -9 c-154 -10 -286 -17 -292 -14 -7 2 -13 11 -13 20 0 13
36 15 293 14 l292 -2 -280 -18z m250 -53 c-33 -30 -70 -56 -83 -59 -29 -6
-458 36 -468 46 -4 3 -2 13 5 21 9 10 53 16 172 21 l160 7 47 -39 c70 -59 85
-62 22 -4 l-55 50 75 3 c41 2 100 5 130 6 l55 2 -60 -54z m-1180 -6 c-59 -60
-81 -68 -126 -44 l-33 17 99 37 c55 21 102 38 105 39 2 1 -18 -22 -45 -49z
m151 34 c-4 -9 1 -28 10 -42 l16 -25 -23 17 c-37 25 -47 19 -14 -10 29 -24 29
-24 3 -8 -32 19 -37 11 -10 -14 10 -10 12 -13 4 -7 -8 5 -28 9 -45 8 -26 0
-27 0 -7 4 23 5 24 6 5 14 -18 7 -18 8 5 9 23 1 23 2 5 10 l-20 9 20 1 20 1
-20 10 c-16 8 -15 8 8 4 19 -4 26 -2 22 5 -3 5 0 10 7 10 9 0 9 3 -2 10 -13 8
-12 10 4 10 13 0 16 -5 12 -16z m1243 -50 c97 -58 130 -85 104 -84 -41 2 -365
39 -368 42 -8 7 102 92 128 100 12 3 23 6 24 7 1 1 51 -29 112 -65z m1131 -4
c60 -72 36 -74 -116 -10 -68 29 -124 55 -124 56 0 2 45 4 99 4 l99 0 42 -50z
m-2474 28 c4 -6 3 -8 -4 -5 -12 8 -88 -107 -98 -150 l-7 -28 -9 30 c-11 43 -2
64 50 118 49 50 57 54 68 35z m474 2 c0 -5 -15 -10 -34 -10 -19 0 -43 -2 -53
-5 -10 -3 -4 1 12 9 35 17 75 20 75 6z m1650 -9 c0 -14 -161 -146 -188 -154
-28 -8 -362 32 -362 43 0 8 532 129 543 123 4 -2 7 -8 7 -12z m278 -68 l156
-67 -114 -23 c-63 -13 -125 -21 -138 -18 -17 4 -32 26 -57 82 -19 41 -35 82
-35 90 0 18 -14 22 188 -64z m-1661 -39 c241 -58 445 -112 454 -120 9 -8 23
-12 32 -8 9 3 106 -16 216 -42 179 -43 198 -49 181 -61 -17 -12 -69 -3 -422
77 -350 79 -404 94 -424 115 -24 26 -53 32 -71 14 -7 -7 -69 7 -214 51 -190
58 -247 80 -206 80 9 0 213 -48 454 -106z m-241 85 c3 -6 19 -9 34 -5 16 3 64
1 107 -4 66 -7 81 -12 101 -35 13 -15 22 -29 20 -31 -2 -1 -82 17 -178 41
-130 32 -164 43 -133 44 23 1 45 -4 49 -10z m1664 -21 c0 -32 -31 -362 -34
-366 -2 -1 -42 49 -88 111 -64 85 -84 118 -77 129 5 9 45 48 89 87 80 71 110
81 110 39z m106 -138 c4 -18 -11 -52 -52 -122 -32 -54 -59 -96 -61 -94 -5 5
27 369 34 379 6 11 72 -124 79 -163z m-2461 133 c19 -9 35 -21 35 -27 0 -6
-84 -49 -185 -95 -102 -47 -183 -86 -181 -88 2 -2 82 33 179 77 97 44 180 80
186 80 16 0 31 -35 31 -74 0 -29 -4 -37 -22 -41 -63 -13 -372 -53 -383 -48 -8
2 -22 0 -33 -6 -17 -9 -20 -6 -25 27 -12 73 -11 74 181 145 98 36 178 66 179
66 1 1 18 -7 38 -16z m500 7 l20 -9 -20 0 c-11 0 -27 4 -35 9 -13 9 -13 10 0
9 8 0 24 -4 35 -9z m-90 -97 c15 -54 30 -106 33 -116 4 -15 -1 -14 -47 7 -29
13 -55 26 -58 30 -8 7 27 176 36 176 4 0 20 -44 36 -97z m693 81 c45 -4 80 -9
77 -12 -2 -3 -46 -13 -97 -23 l-93 -17 -35 35 -35 35 50 -6 c28 -3 87 -9 133
-12z m-561 -9 l61 -7 4 -66 c2 -37 3 -68 3 -68 0 -1 -38 34 -85 78 -47 44 -76
77 -65 74 11 -2 48 -8 82 -11z m-265 -14 c10 -13 10 -14 -2 -3 -24 21 -34 13
-14 -10 10 -13 12 -17 4 -10 -20 17 -35 15 -20 -3 11 -13 10 -14 -4 -9 -11 4
-15 13 -10 28 6 19 5 20 -7 4 -10 -13 -18 -15 -29 -8 -12 8 -12 10 5 10 17 0
17 2 5 10 -11 7 -5 9 23 8 21 -1 42 -8 49 -17z m60 -54 c-9 -40 -21 -67 -29
-67 -7 0 -13 -6 -13 -13 0 -14 -40 -37 -62 -37 -7 0 0 12 14 28 14 15 43 58
63 95 21 37 39 67 40 65 2 -2 -4 -33 -13 -71z m-165 57 c-3 -3 -12 -4 -19 -1
-8 3 -5 6 6 6 11 1 17 -2 13 -5z m446 -348 c7 -46 -23 -182 -39 -179 -5 1 -45
119 -90 262 -68 218 -79 261 -65 263 22 5 186 -288 194 -346z m861 329 c82 -8
153 -15 157 -15 5 0 9 -4 9 -9 0 -15 -203 -80 -231 -74 -15 3 -55 31 -90 63
l-64 59 35 -5 c19 -2 102 -11 184 -19z m-730 -21 c67 -20 123 -38 125 -40 10
-9 -12 -17 -101 -40 -113 -29 -134 -30 -148 -5 -11 22 -14 121 -3 121 4 0 61
-16 127 -36z m481 25 c4 -6 13 -8 21 -5 8 3 38 -18 71 -50 47 -45 53 -55 33
-50 -14 3 -96 23 -184 43 l-158 38 78 16 c96 20 131 22 139 8z m-1068 -5 c-3
-3 -12 -4 -19 -1 -8 3 -5 6 6 6 11 1 17 -2 13 -5z m43 -14 c0 -5 -7 -7 -15 -4
-8 4 -15 8 -15 10 0 2 7 4 15 4 8 0 15 -4 15 -10z m535 -253 c38 -36 67 -68
64 -72 -4 -3 -38 -1 -75 6 -84 14 -91 21 -174 170 -35 63 -70 125 -78 139 -9
14 32 -21 89 -76 57 -56 135 -131 174 -167z m-588 247 c-3 -3 -12 -4 -19 -1
-8 3 -5 6 6 6 11 1 17 -2 13 -5z m98 -31 l28 -38 -33 30 c-34 31 -32 18 4 -25
17 -20 14 -19 -12 4 -34 32 -44 26 -14 -8 17 -21 17 -21 -4 -3 -29 24 -41 21
-18 -5 19 -22 19 -23 -1 -8 -11 8 -21 15 -23 16 -3 2 38 74 43 74 1 0 15 -17
30 -37z m-684 -34 c10 -10 22 -36 25 -58 7 -45 29 -38 -218 -71 -155 -21 -157
-21 -176 -2 -11 11 -25 21 -31 23 -6 2 -14 27 -17 54 -5 43 -3 53 15 69 12 11
21 24 21 30 0 8 52 6 181 -8 146 -15 186 -23 200 -37z m627 49 c-3 -7 -12 -14
-22 -14 -15 -2 -15 -2 0 3 14 4 14 7 3 14 -11 7 -10 9 4 9 11 0 17 -6 15 -12z
m-51 -4 c-3 -3 -12 -4 -19 -1 -8 3 -5 6 6 6 11 1 17 -2 13 -5z m134 -11 c13
-16 12 -17 -3 -4 -10 7 -18 15 -18 17 0 8 8 3 21 -13z m1674 -4 c83 -12 153
-27 157 -33 4 -6 14 -11 22 -11 12 0 176 -204 176 -218 0 -5 -529 269 -538
278 -9 9 30 6 183 -16z m-285 -4 c16 -19 49 -19 69 -1 15 13 46 -1 278 -122
234 -122 279 -152 228 -152 -5 0 -5 4 2 8 7 4 -167 51 -401 107 l-413 100 101
37 c117 42 120 43 136 23z m-1543 -1 c-3 -3 -12 -4 -19 -1 -8 3 -5 6 6 6 11 1
17 -2 13 -5z m2432 -123 c-101 -71 -186 -127 -187 -126 -8 7 103 185 115 185
6 0 16 6 20 14 7 12 164 52 217 55 10 1 -64 -57 -165 -128z m-2384 109 c-3 -5
6 -27 22 -47 17 -24 20 -32 8 -21 -11 9 -24 17 -30 18 -5 1 -8 9 -7 18 3 14 1
14 -12 3 -9 -8 -19 -11 -23 -7 -3 3 0 6 8 6 11 0 11 2 -1 10 -12 8 -12 10 5
10 17 0 17 2 5 10 -12 8 -10 10 8 10 13 0 20 -4 17 -10z m714 -148 c-34 -121
-46 -121 -158 -8 -59 59 -80 87 -70 90 8 3 59 16 114 29 l100 23 19 -24 c19
-23 19 -25 -5 -110z m418 61 c166 -37 301 -69 299 -70 -7 -8 -501 21 -504 29
-2 4 -9 8 -15 8 -13 0 -97 80 -97 92 0 4 3 8 8 8 4 1 143 -30 309 -67z m-287
11 c60 -54 55 -70 -39 -127 -44 -26 -84 -47 -89 -47 -8 0 32 183 41 185 1 0
11 5 22 12 11 6 21 12 22 12 2 1 21 -15 43 -35z m-563 -38 c2 -1 25 -76 52
-166 47 -156 49 -164 33 -187 -13 -18 -25 -22 -51 -21 l-35 3 -58 205 c-32
113 -58 208 -58 212 0 5 108 -37 117 -46z m-113 -167 c10 -116 16 -212 14
-215 -3 -2 -35 78 -73 179 -37 100 -70 187 -72 194 -5 14 62 52 93 53 19 0 21
-10 38 -211z m56 -39 l49 -175 -20 -17 c-15 -13 -26 -15 -38 -8 -14 7 -19 35
-30 162 -7 84 -14 171 -17 193 -6 58 0 40 56 -155z m995 160 c298 -16 345 -21
345 -36 0 -8 -10 -14 -22 -14 -13 0 -198 -16 -413 -35 -214 -19 -393 -31 -397
-27 -10 10 142 102 170 102 12 0 22 5 22 10 0 12 63 12 295 0z m650 -44 c72
-19 126 -35 120 -35 -25 -3 -241 33 -252 42 -14 10 -17 27 -5 27 4 0 66 -16
137 -34z m-250 -26 c-9 -15 -128 -75 -143 -72 -7 2 -19 -1 -25 -6 -8 -6 -83
-5 -207 4 -107 7 -220 13 -250 12 -30 0 56 -8 193 -18 157 -11 252 -22 262
-30 8 -7 22 -10 30 -6 8 3 95 -27 191 -67 97 -39 170 -73 163 -74 -8 -2 -108
15 -224 37 -115 22 -228 43 -250 45 -22 3 -134 24 -250 46 -187 35 -241 45
-267 48 -5 1 -8 5 -8 10 0 5 26 12 58 14 31 3 192 19 357 35 340 34 379 36
370 22z m31 -21 c3 -6 20 -9 36 -7 27 4 36 -4 117 -106 108 -136 105 -131 74
-133 -15 0 -21 2 -15 6 6 3 -73 41 -176 83 -102 42 -188 80 -189 85 -3 8 122
82 139 83 4 0 10 -5 14 -11z m381 5 c-3 -3 -12 -4 -19 -1 -8 3 -5 6 6 6 11 1
17 -2 13 -5z m-1464 -25 c85 -17 79 -39 -29 -118 -48 -34 -92 -60 -99 -57 -11
4 -9 21 7 83 28 112 27 111 121 92z m250 -54 c20 -4 37 -13 37 -19 0 -12 -109
-111 -114 -105 -2 2 -10 26 -20 53 -15 46 -15 51 1 68 10 12 25 17 38 14 11
-2 37 -8 58 -11z m-122 -31 c11 -7 30 -97 22 -104 -13 -12 -255 -22 -251 -11
1 6 39 37 83 70 68 52 84 60 110 55 17 -4 33 -8 36 -10z m312 -4 c31 -6 57
-15 57 -19 0 -4 -32 -33 -72 -65 -51 -40 -74 -53 -79 -44 -4 7 -10 44 -14 82
l-8 68 29 -5 c16 -4 55 -11 87 -17z m-118 -57 c4 -31 9 -62 12 -70 3 -8 -3
-13 -17 -13 -28 0 -102 20 -115 32 -10 9 82 108 101 108 7 0 15 -24 19 -57z
m378 11 l98 -17 -111 -65 c-61 -35 -109 -66 -107 -69 2 -2 50 24 106 57 118
70 135 71 144 7 4 -23 9 -56 13 -73 5 -26 2 -33 -21 -48 -25 -17 -30 -16 -128
9 -56 15 -110 32 -120 39 -18 14 -44 157 -31 177 3 6 18 9 33 6 14 -3 70 -13
124 -23z m-165 -66 c6 -40 7 -77 3 -81 -5 -5 -48 2 -97 15 l-88 24 70 57 c38
31 76 57 85 57 13 0 19 -16 27 -72z m549 -4 c123 -21 223 -41 223 -44 0 -3
-90 -30 -201 -61 l-201 -56 -23 21 c-17 16 -28 44 -38 99 -14 75 -13 91 7 84
6 -2 111 -21 233 -43z m-955 -31 c-11 -16 -31 -38 -44 -50 l-23 -22 -82 36
c-46 19 -83 39 -83 44 0 8 58 14 178 17 l73 2 -19 -27z m174 -11 c-3 -2 -53
-17 -113 -32 -59 -16 -101 -29 -93 -29 8 0 58 10 110 24 52 13 99 20 103 16
14 -14 -41 -111 -63 -111 -20 0 -136 46 -158 63 -10 8 -4 19 25 49 20 21 45
38 54 38 10 0 20 4 23 9 3 5 30 2 61 -7 30 -8 53 -17 51 -20z m-503 -8 c15
-20 27 -25 48 -22 24 4 40 -7 110 -78 46 -46 81 -85 78 -87 -31 -24 -109 -67
-121 -67 -14 0 -188 254 -188 273 0 19 54 5 73 -19z m-8 -106 c44 -67 81 -125
81 -130 1 -4 3 -11 4 -15 9 -29 -2 -65 -29 -104 -26 -37 -37 -45 -56 -42 -19
4 -31 28 -79 153 -55 144 -62 170 -50 170 3 0 48 -37 100 -81 52 -45 96 -80
98 -78 2 2 -40 41 -93 86 -76 65 -96 88 -96 107 1 24 21 56 34 56 3 0 42 -55
86 -122z m648 84 c38 -9 68 -22 68 -27 0 -9 -221 -88 -228 -81 -6 5 50 100 67
113 19 15 12 16 93 -5z m902 8 c4 -6 -31 -114 -77 -240 -73 -202 -85 -230
-104 -230 -16 0 -52 41 -142 160 -101 133 -120 163 -113 182 6 18 39 31 207
79 218 63 220 63 229 49z m-1351 -35 c10 -8 23 -12 29 -8 6 3 7 2 4 -4 -3 -5
115 -92 263 -194 235 -161 269 -188 273 -214 5 -29 -19 -152 -33 -168 -9 -10
-592 581 -585 593 9 14 27 12 49 -5z m799 -65 c4 0 7 -8 7 -17 0 -14 -32 -30
-131 -66 -72 -27 -132 -47 -134 -45 -4 4 22 165 29 177 4 6 48 -2 114 -19 59
-16 110 -30 115 -30z m-662 14 c46 -20 91 -45 100 -57 10 -12 23 -18 33 -14
20 8 206 -70 226 -95 9 -10 24 -17 35 -16 19 3 559 -221 551 -229 -3 -4 -433
53 -475 62 -19 5 -522 345 -555 376 -16 15 -3 11 85 -27z m405 28 c8 -5 8 -27
-1 -85 -7 -42 -14 -80 -17 -82 -3 -3 -55 16 -116 42 -61 26 -109 49 -106 52 5
5 210 78 224 80 3 0 10 -3 16 -7z m280 -103 c4 -7 22 -9 44 -6 l37 5 117 -154
c105 -138 128 -174 110 -174 -16 0 -573 244 -568 249 9 10 217 89 236 90 9 1
20 -4 24 -10z m-551 -235 c115 -119 210 -222 211 -229 1 -10 -5 -11 -25 -5
-20 7 -514 154 -593 176 -9 3 -19 18 -23 34 -5 22 1 40 27 79 18 28 41 53 51
57 12 4 102 -49 283 -166 146 -94 267 -170 269 -168 2 2 -117 82 -266 177
-148 96 -268 178 -267 182 3 9 108 78 119 79 3 0 99 -97 214 -216z m590 -85
c238 -31 262 -36 252 -45 -7 -7 -523 -124 -548 -124 -23 0 -24 -3 3 94 18 69
38 104 58 106 3 0 109 -14 235 -31z"/>
<path d="M1650 2427 c0 -8 243 -322 268 -347 31 -31 -3 16 -126 175 -138 177
-142 182 -142 172z"/>
<path d="M2157 2013 c-11 -11 -8 -20 7 -20 8 0 12 6 9 14 -6 15 -7 15 -16 6z"/>
</g>
</svg>
