<?xml version="1.0" encoding="utf-8"?>
<!-- Generator: Adobe Illustrator 22.0.0, SVG Export Plug-In . SVG Version: 6.00 Build 0)  -->
<svg version="1.1" id="Capa_1" xmlns="http://www.w3.org/2000/svg" xmlns:xlink="http://www.w3.org/1999/xlink" x="0px" y="0px"
	 viewBox="0 0 366.4 102.4" style="enable-background:new 0 0 366.4 102.4;" xml:space="preserve">
<style type="text/css">
	.st0{fill:#070606;}
	.st1{fill:#496BB0;}
	.st2{fill:#53BCD0;}
	.st3{fill:#100E0F;}
	.st4{fill:#165121;}
	.st5{fill:#328F27;}
</style>
<g>
	<g>
		<g>
			<g>
				<path class="st0" d="M289.8,84.3l0-38.2l7.8-1l1.2,6c2.6-4.1,6.3-6.2,11.2-6.2c1,0,1.9,0,2.5,0.1l-0.1,7.8c-1-0.1-1.9-0.2-3-0.2
					c-3.4,0-6,0.9-7.7,2.7c-1.7,1.8-2.5,4.4-2.5,7.6v21.2H289.8z"/>
				<path class="st1" d="M236.6,39.5V3.1c0,0-11.8,5.9-11.8,18.3S236.6,39.5,236.6,39.5"/>
				<path class="st2" d="M236.6,3.1c0,0,11.8,5.9,11.8,18.3c0,12.5-11.8,18-11.8,18V3.1z"/>
				<path class="st1" d="M264,56.6l16.2-9.2c0,0-5.6-3.7-11.1-0.6C263.5,50,264,56.6,264,56.6"/>
				<path class="st2" d="M280.2,47.4c0,0,0.4,6.7-5.2,9.9c-5.5,3.2-11-0.7-11-0.7L280.2,47.4z"/>
				<path class="st0" d="M280.9,46c-0.3-0.2-7.1-3.8-12.9-0.4c-4.6,2.7-5.5,8-5.7,10.2l-2.1,1.2c-1.1-1-2.5-1.7-4.1-1.7
					c-1.6,0-3,0.6-4.1,1.7l-9.8-5.6c0.1-0.5,0.2-0.9,0.2-1.4c0-2.7-1.8-5-4.3-5.7v-3.5c2.8-1.8,11.9-8.5,11.9-19
					c0-12.2-12.1-19.9-12.7-20.2L236.6,1l-0.9,0.5c-0.5,0.3-12.7,8-12.7,20.2c0,10.6,9,17.2,11.9,19v3.5c-2.5,0.7-4.3,3-4.3,5.7
					c0,0.5,0.1,1,0.2,1.4l-9.8,5.6c-1.1-1-2.5-1.7-4.1-1.7c-3.3,0-5.9,2.6-5.9,5.9c0,2.7,1.8,5,4.3,5.7v11.7c-2.5,0.7-4.3,3-4.3,5.7
					c0,3.3,2.6,5.9,5.9,5.9c1.7,0,3.3-0.7,4.4-1.9l9.5,5.5c-0.1,0.5-0.2,0.9-0.2,1.4c0,3.3,2.6,5.9,5.9,5.9c3.3,0,5.9-2.6,5.9-5.9
					c0-0.5-0.1-1-0.2-1.4l9.5-5.5c1.1,1.2,2.6,1.9,4.4,1.9c3.3,0,5.9-2.6,5.9-5.9c0-2.7-1.8-5-4.3-5.7V66.9c2.5-0.7,4.3-3,4.3-5.7
					c0-0.5-0.1-0.9-0.2-1.4l2.1-1.2c1.2,0.6,3.7,1.5,6.5,1.5c1.7,0,3.5-0.4,5.3-1.4c5.8-3.3,6.1-11,6.1-11.3l0-1L280.9,46z
					 M257.8,63.3c-0.5,0.4-1,0.6-1.6,0.6c-0.3,0-0.6-0.1-0.9-0.2c-0.3-0.1-0.5-0.2-0.7-0.4c-0.5-0.4-0.9-1-1-1.7c0-0.1,0-0.2,0-0.4
					c0-0.1,0-0.2,0-0.3c0.1-1,0.8-1.8,1.6-2.1c0.3-0.1,0.6-0.2,1-0.2c0.4,0,0.7,0.1,1,0.2c0.9,0.4,1.6,1.3,1.6,2.4
					c0,0.1,0,0.3,0,0.4C258.6,62.3,258.3,62.9,257.8,63.3 M258.8,84.3c0,1.5-1.2,2.6-2.6,2.6c-0.5,0-1-0.1-1.4-0.4
					c-0.8-0.5-1.3-1.3-1.3-2.2c0,0,0,0,0-0.1v0c0-0.3,0.1-0.6,0.2-0.8c0.2-0.5,0.5-0.9,0.8-1.2c0.3-0.3,0.7-0.5,1.2-0.5
					c0.1,0,0.3,0,0.5,0c0.6,0,1.2,0.2,1.6,0.6C258.4,82.7,258.8,83.4,258.8,84.3 M254.5,78.6c-0.8,0.2-1.5,0.6-2.2,1.2l-10-5.8v0
					c0.1-0.4,0.1-0.8,0.1-1.2c0-0.6-0.1-1.1-0.2-1.6l9.9-5.7c0.7,0.6,1.5,1.1,2.4,1.4V78.6z M236.6,97.7c-1.3,0-2.4-1-2.6-2.2
					c0-0.1,0-0.3,0-0.4c0-1.1,0.7-2,1.6-2.4c0.3-0.1,0.6-0.2,1-0.2c0.4,0,0.7,0.1,1,0.2c1,0.4,1.6,1.3,1.6,2.4c0,0.1,0,0.3,0,0.4
					C239,96.8,237.9,97.7,236.6,97.7 M230.8,74l-10,5.8c-0.6-0.5-1.4-0.9-2.2-1.2V66.9c0.9-0.3,1.8-0.8,2.5-1.4l9.8,5.7
					c-0.2,0.5-0.2,1.1-0.2,1.7C230.7,73.2,230.7,73.6,230.8,74L230.8,74z M219.6,84.3c0,0.9-0.5,1.8-1.3,2.2
					c-0.4,0.2-0.9,0.4-1.4,0.4c-1.5,0-2.6-1.2-2.6-2.6c0-0.8,0.4-1.6,1-2.1c0.5-0.4,1-0.6,1.6-0.6c0.2,0,0.3,0,0.5,0
					c0.4,0.1,0.8,0.3,1.2,0.5c0.4,0.3,0.7,0.7,0.8,1.2C219.6,83.6,219.6,83.9,219.6,84.3C219.6,84.2,219.6,84.2,219.6,84.3
					 M214.3,61.2c0-1.5,1.2-2.6,2.6-2.6c0.3,0,0.7,0.1,1,0.2c0.9,0.3,1.5,1.1,1.6,2.1c0,0.1,0,0.2,0,0.4c0,0.1,0,0.3,0,0.4
					c-0.1,0.7-0.5,1.3-1,1.7c-0.2,0.2-0.4,0.3-0.7,0.4c-0.3,0.1-0.6,0.2-1,0.2c-0.6,0-1.2-0.2-1.6-0.6
					C214.7,62.8,214.3,62,214.3,61.2 M234.9,47.8c0.5-0.3,1-0.6,1.6-0.6s1.2,0.2,1.6,0.6c0.5,0.4,0.9,1,1,1.7c0,0.1,0,0.3,0,0.4
					c0,0.8-0.4,1.6-1,2.1c-0.2,0.2-0.4,0.3-0.7,0.4c-0.3,0.1-0.6,0.2-1,0.2s-0.7-0.1-1-0.2c-0.2-0.1-0.5-0.2-0.7-0.4
					c-0.6-0.5-1-1.2-1-2.1c0-0.1,0-0.3,0-0.4C234,48.8,234.4,48.3,234.9,47.8 M239.2,72.9c0,0.8-0.4,1.5-1,2
					c-0.1,0.1-0.2,0.2-0.4,0.2c-0.4,0.2-0.8,0.3-1.3,0.3c-0.4,0-0.9-0.1-1.2-0.3c-0.1-0.1-0.3-0.2-0.4-0.3c-0.6-0.5-1-1.2-1-2
					c0,0,0-0.1,0-0.1c0-0.2,0-0.5,0.1-0.7c0.1-0.6,0.5-1,0.9-1.4c0.3-0.2,0.6-0.4,1-0.5c0.2-0.1,0.4-0.1,0.7-0.1
					c0.2,0,0.5,0,0.7,0.1c0.4,0.1,0.7,0.3,1,0.5c0.4,0.3,0.8,0.8,0.9,1.4c0.1,0.2,0.1,0.5,0.1,0.7C239.2,72.8,239.2,72.9,239.2,72.9
					L239.2,72.9z M250.4,59.8c-0.1,0.5-0.2,0.9-0.2,1.4c0,0.5,0.1,1,0.2,1.5l-9.9,5.7c-0.6-0.6-1.4-1-2.3-1.3V55.6
					c0.9-0.3,1.8-0.8,2.5-1.4L250.4,59.8z M226.3,21.7c0-8.7,7.6-14.9,10.2-16.8c2.6,1.9,10.2,8.1,10.2,16.8c0,7.3-5.4,12.5-8.6,15
					V23.1c0-0.9-0.7-1.6-1.6-1.6c-0.9,0-1.6,0.7-1.6,1.6v13.7C231.7,34.3,226.3,29,226.3,21.7 M232.5,54.2c0.7,0.7,1.5,1.2,2.5,1.4
					v11.6c-0.8,0.2-1.6,0.7-2.3,1.2l-10-5.7c0.1-0.5,0.2-0.9,0.2-1.4c0-0.5-0.1-1-0.2-1.4L232.5,54.2z M222.8,85.3
					c0.1-0.3,0.1-0.7,0.1-1c0-0.6-0.1-1.2-0.3-1.8l9.7-5.6c0.7,0.7,1.6,1.3,2.6,1.6v11c-0.9,0.3-1.8,0.8-2.5,1.4L222.8,85.3z
					 M240.6,90.9c-0.7-0.7-1.5-1.2-2.5-1.4v-11c1-0.3,1.9-0.9,2.6-1.6l9.7,5.6c-0.2,0.6-0.3,1.2-0.3,1.8c0,0.4,0,0.7,0.1,1
					L240.6,90.9z M274.1,56c-2.2,1.2-4.6,1-6.5,0.5l3.3-1.9c0.8-0.4,1.1-1.4,0.6-2.2c-0.5-0.8-1.4-1.1-2.2-0.6l-3.2,1.9
					c0.5-1.8,1.5-4.1,3.7-5.3c3.1-1.8,7-0.7,8.7,0C278.2,50.3,277.3,54.2,274.1,56"/>
				<path class="st0" d="M319.2,36.3c0-3.2,1.8-4.8,5.3-4.8c3.6,0,5.3,1.6,5.3,4.8c0,1.5-0.4,2.7-1.3,3.5c-0.9,0.8-2.2,1.3-4,1.3
					C321,41.2,319.2,39.5,319.2,36.3z M329.4,84.3h-9.8V45.6h9.8V84.3z"/>
				<path class="st0" d="M359.6,53h-8.5v31.3h-9.8V53h-5.4v-4.7l5.4-2.6V43c0-4.1,1-7.1,3-9c2-1.9,5.2-2.8,9.7-2.8
					c3.4,0,6.4,0.5,9,1.5l-2.5,7.2c-2-0.6-3.8-0.9-5.5-0.9c-1.4,0-2.4,0.4-3,1.2c-0.6,0.8-0.9,1.9-0.9,3.2v2.2h8.5V53z"/>
			</g>
		</g>
		<g>
			<g>
				<g>
					<g>
						<path class="st3" d="M79.6,83.4l0-37.7l7.7-1l1.2,5.9c2.5-4.1,6.2-6.1,11-6.1c1,0,1.8,0,2.5,0.1l-0.1,7.7
							c-0.9-0.1-1.9-0.2-2.9-0.2c-3.4,0-5.9,0.9-7.6,2.7c-1.7,1.8-2.5,4.3-2.5,7.5v20.9H79.6z"/>
						<path class="st3" d="M119.6,84.1c-5.7,0-10.2-1-13.7-2.9l0.9-6.9c1.5,0.8,3.5,1.6,5.9,2.3c2.4,0.7,4.6,1,6.5,1
							c2,0,3.6-0.4,4.8-1.1c1.1-0.8,1.7-1.9,1.7-3.4c0-1.3-0.5-2.4-1.6-3.2c-1.1-0.8-3.1-1.7-6.1-2.9c-1-0.4-1.7-0.6-2-0.7
							c-3.6-1.4-6.1-2.9-7.7-4.6c-1.6-1.7-2.4-4-2.4-6.9c0-3.5,1.3-6.2,3.8-8.1c2.5-1.9,6.1-2.8,10.6-2.8c4.9,0,9.2,0.9,13,2.8
							l-2.3,6.4c-3.7-1.7-7.2-2.6-10.5-2.6c-1.9,0-3.3,0.3-4.3,0.9c-1,0.6-1.6,1.6-1.6,2.8c0,1.2,0.5,2.1,1.5,2.8
							c1,0.7,3,1.5,5.9,2.6c0.1,0,0.4,0.1,0.9,0.3c0.5,0.2,0.9,0.3,1.2,0.5c3.5,1.3,6.1,2.8,7.8,4.6c1.7,1.8,2.5,4.1,2.5,7
							c0,3.9-1.3,6.9-3.9,9C128.1,83.1,124.4,84.1,119.6,84.1z"/>
						<polygon class="st3" points="160.3,61.4 176,44.8 165.1,44.8 149.4,61 149.4,32.2 140.2,33.9 140.2,83.4 149.4,83.4 
							149.4,83.4 149.4,73 154.4,67.6 165.9,83.4 177.1,83.4 						"/>
					</g>
					<g>
						<g>
							<g>
								<path class="st4" d="M27.1,39.3V3.4c0,0-11.6,5.8-11.6,18.1C15.5,33.8,27.1,39.3,27.1,39.3z"/>
								<path class="st5" d="M27.1,3.4c0,0,11.6,5.8,11.6,18.1c0,12.3-11.6,17.8-11.6,17.8V3.4z"/>
							</g>
							<g>
								<path class="st4" d="M54.2,56.2l15.9-9.1c0,0-5.5-3.7-11-0.6C53.7,49.6,54.2,56.2,54.2,56.2z"/>
								<path class="st5" d="M70.1,47.1c0,0,0.4,6.6-5.1,9.7s-10.8-0.7-10.8-0.7L70.1,47.1z"/>
							</g>
						</g>
						<path class="st3" d="M70.9,45.6c-0.3-0.2-7-3.7-12.7-0.4c-4.6,2.6-5.5,7.9-5.6,10.1l-2.1,1.2c-1-1-2.5-1.7-4.1-1.7
							c-1.6,0-3,0.6-4,1.6l-9.6-5.6c0.1-0.5,0.2-0.9,0.2-1.4c0-2.7-1.8-4.9-4.2-5.6v-3.4c2.8-1.8,11.7-8.3,11.7-18.8
							c0-12.1-12-19.6-12.5-19.9l-0.8-0.5l-0.8,0.5c-0.5,0.3-12.5,7.9-12.5,19.9c0,10.4,8.9,17,11.7,18.8V44
							c-2.4,0.7-4.2,2.9-4.2,5.6c0,0.5,0.1,0.9,0.2,1.4l-9.6,5.6c-1-1-2.5-1.6-4-1.6c-3.2,0-5.8,2.6-5.8,5.8c0,2.6,1.8,4.9,4.2,5.6
							v11.5C3.8,78.5,2,80.8,2,83.4c0,3.2,2.6,5.8,5.8,5.8c1.7,0,3.2-0.7,4.3-1.9l9.4,5.4c-0.1,0.4-0.2,0.9-0.2,1.4
							c0,3.2,2.6,5.8,5.8,5.8c3.2,0,5.8-2.6,5.8-5.8c0-0.5-0.1-0.9-0.2-1.4l9.4-5.4c1.1,1.2,2.6,1.9,4.3,1.9c3.2,0,5.8-2.6,5.8-5.8
							c0-2.6-1.8-4.9-4.2-5.6V66.3c2.4-0.7,4.2-2.9,4.2-5.6c0-0.5-0.1-0.9-0.2-1.4l2.1-1.2c1.2,0.6,3.6,1.5,6.4,1.5
							c1.7,0,3.5-0.4,5.2-1.4c5.7-3.3,6-10.9,6-11.2l0-1L70.9,45.6z M48,62.7c-0.4,0.4-1,0.6-1.6,0.6c-0.3,0-0.6-0.1-0.9-0.2
							c-0.3-0.1-0.5-0.2-0.7-0.4c-0.5-0.4-0.9-1-1-1.7c0-0.1,0-0.2,0-0.4c0-0.1,0-0.2,0-0.3c0.1-1,0.8-1.7,1.6-2.1
							c0.3-0.1,0.6-0.2,1-0.2c0.4,0,0.7,0.1,1,0.2c0.9,0.4,1.6,1.3,1.6,2.4c0,0.1,0,0.3,0,0.4C48.9,61.8,48.5,62.3,48,62.7z
							 M49,83.4c0,1.4-1.2,2.6-2.6,2.6c-0.5,0-1-0.1-1.4-0.4c-0.7-0.5-1.2-1.3-1.2-2.2c0,0,0,0,0-0.1v0c0-0.3,0.1-0.5,0.2-0.8
							c0.2-0.5,0.5-0.9,0.8-1.2c0.3-0.3,0.7-0.4,1.2-0.5c0.1,0,0.3,0,0.4,0c0.6,0,1.2,0.2,1.6,0.6C48.6,81.9,49,82.6,49,83.4z
							 M44.8,77.8c-0.8,0.2-1.5,0.6-2.1,1.1l-9.9-5.7v0c0.1-0.4,0.1-0.8,0.1-1.1c0-0.6-0.1-1.1-0.2-1.6l9.7-5.6
							c0.7,0.6,1.5,1.1,2.4,1.4V77.8z M27.1,96.7c-1.3,0-2.4-1-2.6-2.2c0-0.1,0-0.3,0-0.4c0-1.1,0.7-2,1.6-2.4
							c0.3-0.1,0.6-0.2,1-0.2c0.3,0,0.7,0.1,1,0.2c0.9,0.4,1.6,1.3,1.6,2.4c0,0.1,0,0.3,0,0.4C29.5,95.7,28.4,96.7,27.1,96.7z
							 M21.4,73.3L11.5,79c-0.6-0.5-1.3-0.9-2.1-1.1V66.3c0.9-0.3,1.7-0.8,2.4-1.4l9.7,5.6c-0.2,0.5-0.2,1.1-0.2,1.6
							C21.3,72.5,21.3,72.9,21.4,73.3L21.4,73.3z M10.4,83.4c0,0.9-0.5,1.8-1.2,2.2C8.8,85.9,8.3,86,7.8,86c-1.4,0-2.6-1.2-2.6-2.6
							c0-0.8,0.4-1.6,1-2c0.4-0.4,1-0.6,1.6-0.6c0.2,0,0.3,0,0.5,0c0.4,0.1,0.8,0.3,1.2,0.5c0.4,0.3,0.7,0.7,0.8,1.2
							C10.3,82.8,10.4,83.1,10.4,83.4C10.4,83.4,10.4,83.4,10.4,83.4z M5.2,60.7c0-1.4,1.2-2.6,2.6-2.6c0.3,0,0.7,0.1,1,0.2
							c0.8,0.3,1.5,1.1,1.6,2c0,0.1,0,0.2,0,0.4c0,0.1,0,0.3,0,0.4c-0.1,0.7-0.5,1.3-1,1.7C9.2,62.9,9,63,8.8,63.1
							c-0.3,0.1-0.6,0.2-1,0.2c-0.6,0-1.2-0.2-1.6-0.6C5.6,62.3,5.2,61.5,5.2,60.7z M25.5,47.5c0.4-0.3,1-0.6,1.6-0.6
							c0.6,0,1.2,0.2,1.6,0.6c0.5,0.4,0.9,1,1,1.7c0,0.1,0,0.3,0,0.4c0,0.8-0.4,1.6-1,2c-0.2,0.2-0.4,0.3-0.6,0.4
							c-0.3,0.1-0.6,0.2-1,0.2c-0.3,0-0.7-0.1-1-0.2c-0.2-0.1-0.5-0.2-0.6-0.4c-0.6-0.5-1-1.2-1-2c0-0.1,0-0.3,0-0.4
							C24.6,48.5,25,47.9,25.5,47.5z M29.7,72.2c0,0.8-0.4,1.5-1,1.9c-0.1,0.1-0.2,0.2-0.4,0.2c-0.4,0.2-0.8,0.3-1.2,0.3
							c-0.4,0-0.8-0.1-1.2-0.3c-0.1-0.1-0.3-0.2-0.4-0.3c-0.6-0.5-1-1.2-1-2c0,0,0-0.1,0-0.1c0-0.2,0-0.5,0.1-0.7
							c0.1-0.6,0.5-1,0.9-1.4c0.3-0.2,0.6-0.4,1-0.5c0.2-0.1,0.4-0.1,0.6-0.1c0.2,0,0.5,0,0.7,0.1c0.3,0.1,0.7,0.3,0.9,0.5
							c0.4,0.3,0.7,0.8,0.9,1.3c0.1,0.2,0.1,0.5,0.1,0.7C29.7,72.2,29.7,72.2,29.7,72.2L29.7,72.2z M40.8,59.3
							c-0.1,0.5-0.2,0.9-0.2,1.4c0,0.5,0.1,1,0.2,1.4L31,67.8c-0.6-0.6-1.4-1-2.3-1.2V55.1c0.9-0.3,1.7-0.7,2.4-1.4L40.8,59.3z
							 M17,21.8C17,13.2,24.5,7,27.1,5.2c2.6,1.9,10.1,8,10.1,16.6c0,7.2-5.3,12.3-8.5,14.8V23.1c0-0.9-0.7-1.6-1.6-1.6
							c-0.9,0-1.6,0.7-1.6,1.6v13.5C22.3,34.1,17,28.9,17,21.8z M23.1,53.7c0.7,0.6,1.5,1.1,2.4,1.4v11.4c-0.8,0.2-1.6,0.7-2.2,1.2
							l-9.8-5.7c0.1-0.5,0.2-0.9,0.2-1.4c0-0.5-0.1-1-0.2-1.4L23.1,53.7z M13.5,84.4c0.1-0.3,0.1-0.7,0.1-1c0-0.6-0.1-1.2-0.3-1.8
							l9.6-5.5c0.7,0.7,1.6,1.3,2.6,1.6v10.8c-0.9,0.3-1.8,0.8-2.4,1.4L13.5,84.4z M31.1,89.9c-0.7-0.7-1.5-1.1-2.4-1.4V77.7
							c1-0.3,1.9-0.8,2.6-1.6l9.6,5.5c-0.2,0.6-0.3,1.2-0.3,1.8c0,0.3,0,0.7,0.1,1L31.1,89.9z M64.1,55.5c-2.1,1.2-4.5,1-6.4,0.5
							l3.2-1.9c0.8-0.4,1-1.4,0.6-2.2c-0.4-0.8-1.4-1-2.2-0.6l-3.2,1.8c0.5-1.8,1.5-4,3.6-5.2c3.1-1.8,6.9-0.6,8.6,0
							C68.2,49.9,67.2,53.7,64.1,55.5z"/>
					</g>
				</g>
			</g>
		</g>
	</g>
</g>
</svg>
