<?xml version="1.0" encoding="utf-8"?>
<!-- Generator: Adobe Illustrator 22.0.0, SVG Export Plug-In . SVG Version: 6.00 Build 0)  -->
<svg version="1.0" id="Capa_1" xmlns="http://www.w3.org/2000/svg" xmlns:xlink="http://www.w3.org/1999/xlink" x="0px" y="0px"
	 viewBox="0 0 652.4 392.3" enable-background="new 0 0 652.4 392.3" xml:space="preserve">
<g>
	<g>
		<g>
			<g>
				<polygon fill="#00D17D" points="3,33.3 68.7,32.8 68.8,32.8 69,32.9 108.2,53.6 107.1,54.3 94.8,6 94.8,4.7 96,5.2 160.9,32.2 
					160.4,32.1 283.2,31.9 405.9,31.8 451.5,32 574.2,32.3 574.6,32.3 574.9,32.6 598.5,53.7 597.3,53.8 623.3,12 623.6,11.4 
					624.1,11.9 644.3,33 644,32.9 650.4,33.3 644,33.6 643.9,33.6 643.8,33.5 623.3,12.7 624.2,12.6 598.7,54.7 598.2,55.5 
					597.4,54.9 573.6,34 574.2,34.2 451.5,34.6 405.9,34.7 283.2,34.6 160.4,34.4 160.2,34.4 160,34.3 95.3,6.9 96.6,6 108.6,54.3 
					108.6,55.5 107.5,54.9 68.5,33.7 68.7,33.7 				"/>
				<path fill="#00D17D" d="M90.6,6c0-2.8,2.3-5,5-5s5,2.3,5,5c0,2.8-2.3,5.1-5,5.1S90.6,8.8,90.6,6"/>
				<path fill="#00D17D" d="M63.7,33.3c0-2.8,2.3-5,5-5c2.8,0,5,2.3,5,5c0,2.8-2.3,5.1-5,5.1C66,38.3,63.7,36.1,63.7,33.3"/>
				<path fill="#00D17D" d="M155.4,33.3c0-2.8,2.3-5,5-5c2.8,0,5,2.3,5,5c0,2.8-2.3,5.1-5,5.1C157.7,38.3,155.4,36.1,155.4,33.3"/>
				<path fill="#00D17D" d="M569.2,33.3c0-2.8,2.3-5,5-5c2.8,0,5,2.3,5,5c0,2.8-2.3,5.1-5,5.1C571.4,38.3,569.2,36.1,569.2,33.3"/>
				<path fill="#00D17D" d="M618.7,12.3c0-2.8,2.3-5,5-5c2.8,0,5,2.3,5,5c0,2.8-2.3,5-5,5C620.9,17.3,618.7,15.1,618.7,12.3"/>
				<path fill="#00D17D" d="M592.9,54.3c0-2.8,2.3-5,5-5c2.8,0,5,2.3,5,5c0,2.8-2.3,5-5,5C595.2,59.3,592.9,57.1,592.9,54.3"/>
			</g>
			<rect x="4.6" y="171.2" fill="#00D17D" width="416.2" height="92.3"/>
			<g>
				<path fill="#FFFFFF" d="M21,156.3c-1.3,0-2-0.6-2-1.9c0-0.4,0.1-0.8,0.3-1.3l21.3-58.5H45l21.3,58.5c0.2,0.5,0.3,0.9,0.3,1.3
					c0,1.3-0.7,1.9-2,1.9c-0.9,0-1.6-0.6-2.1-1.9l-6.8-18.9H29.9l-6.8,18.9C22.5,155.7,21.9,156.3,21,156.3z M31.4,131.5h22.7
					l-11.4-31.1L31.4,131.5z"/>
				<path fill="#FFFFFF" d="M91.1,151.8V97.5c0-2,0.6-2.9,1.8-2.9h16.7c6.5,0,11.4,1,14.7,3c3.3,2,4.9,5.7,4.9,11.2
					c0,5.3-1.7,9.1-5.2,11.3c3.1,0.9,5.4,2.6,6.9,5c1.5,2.4,2.3,5.9,2.3,10.4v2.7c0,6.6-1.6,11-4.8,13.2c-3.2,2.2-8.1,3.3-14.8,3.3
					H92.9C91.7,154.8,91.1,153.8,91.1,151.8z M109.6,118.9c5.7,0,9.7-0.7,12.1-2c2.4-1.3,3.5-4,3.5-8.1c0-4.2-1.2-6.9-3.5-8.2
					c-2.4-1.3-6.4-2-12.1-2H95.1v20.3H109.6z M95.1,150.8h18.5c3,0,5.3-0.1,7-0.3c1.7-0.2,3.2-0.8,4.7-1.6c1.5-0.9,2.5-2.1,3.1-3.8
					c0.6-1.7,0.9-4,0.9-6.8v-2.7c0-2.8-0.3-5.1-0.9-6.8c-0.6-1.7-1.6-3-3.1-3.8c-1.5-0.9-3-1.4-4.7-1.6c-1.7-0.2-4-0.3-7-0.3H95.1
					V150.8z"/>
				<path fill="#FFFFFF" d="M195.1,149.7c-3.9,4-9,6-15.1,6c-6.1,0-11.2-2-15.1-6c-3.9-4-5.9-9.4-5.9-16.4v-17.2
					c0-6.9,2-12.4,5.9-16.4c3.9-4,9-6,15.1-6c6.1,0,11.1,2,15.1,6c3.9,4,5.9,9.4,5.9,16.4v17.2C201,140.2,199,145.7,195.1,149.7z
					 M192.5,102.6c-3-3.2-7.2-4.9-12.5-4.9c-5.3,0-9.5,1.6-12.5,4.9c-3,3.2-4.5,7.7-4.5,13.5v17.2c0,5.7,1.5,10.2,4.5,13.5
					c3,3.2,7.2,4.9,12.5,4.9c5.3,0,9.5-1.6,12.5-4.9c3-3.2,4.5-7.7,4.5-13.5v-17.2C197,110.3,195.5,105.8,192.5,102.6z"/>
				<path fill="#FFFFFF" d="M223.8,95c0-0.4,0.1-0.8,0.4-1.1c0.3-0.3,0.6-0.5,0.9-0.6c0.3-0.1,0.5-0.1,0.7-0.1
					c0.8,0,1.5,0.6,2.1,1.9l19.7,54.1L267.2,95c0.5-1.3,1.2-1.9,2.1-1.9c0.2,0,0.4,0,0.7,0.1c0.3,0.1,0.6,0.3,0.9,0.6
					c0.3,0.3,0.4,0.7,0.4,1.1c0,0.4-0.1,0.9-0.3,1.4l-21.3,58.4h-4.4l-21.3-58.4C223.9,95.8,223.8,95.4,223.8,95z"/>
				<path fill="#FFFFFF" d="M299.8,122.9v27.9h35.3c1.8,0,2.7,0.7,2.7,2.2c0,1.2-0.9,1.8-2.7,1.8h-37.5c-1.2,0-1.8-1-1.8-2.9V97.5
					c0-2,0.6-2.9,1.8-2.9h37.5c1.8,0,2.7,0.7,2.7,2.2c0,1.2-0.9,1.8-2.7,1.8h-35.3v20.3h24.1c1.9,0,2.8,0.7,2.8,2.2
					c0,1.2-0.9,1.8-2.8,1.8H299.8z"/>
				<path fill="#FFFFFF" d="M400.1,156.3c-1.3,0-2-0.6-2-1.9c0-0.4,0.1-0.8,0.3-1.3l21.3-58.5h4.4l21.3,58.5
					c0.2,0.5,0.3,0.9,0.3,1.3c0,1.3-0.7,1.9-2,1.9c-0.9,0-1.6-0.6-2.1-1.9l-6.8-18.9H409l-6.8,18.9
					C401.6,155.7,400.9,156.3,400.1,156.3z M410.5,131.5h22.7l-11.4-31.1L410.5,131.5z"/>
				<path fill="#FFFFFF" d="M510.3,155.4c-0.8,0-1.3-0.2-1.5-0.7l-34.6-52.7v50.5c0,1.9-0.7,2.8-2,2.8c-1.3,0-2-0.9-2-2.8V96.9
					c0-2,0.6-2.9,1.8-2.9c0.9,0,1.8,0.5,2.5,1.6l33.8,51.3v-50c0-2,0.6-2.9,1.9-2.9c1.4,0,2.1,1,2.1,2.9v55.7
					C512.2,154.5,511.6,155.4,510.3,155.4z"/>
				<path fill="#FFFFFF" d="M584.5,111.2v27.1c0,6.6-1.6,11-4.8,13.2c-3.2,2.2-8.1,3.3-14.8,3.3h-20.6c-1.2,0-1.8-1-1.8-2.9V97.5
					c0-2,0.6-2.9,1.8-2.9H565c6.6,0,11.5,1.1,14.8,3.3C582.9,100.1,584.5,104.5,584.5,111.2z M580.6,138.2v-27.1
					c0-2.8-0.3-5.1-0.9-6.8c-0.6-1.7-1.6-3-3.1-3.8c-1.5-0.9-3-1.4-4.7-1.6c-1.7-0.2-4-0.3-7-0.3h-18.5v52.2H565c3,0,5.3-0.1,7-0.3
					c1.7-0.2,3.2-0.8,4.7-1.6c1.5-0.9,2.5-2.1,3.1-3.8C580.3,143.3,580.6,141.1,580.6,138.2z"/>
				<path fill="#FFFFFF" d="M30.2,249.8c-2.4,0-3.6-1.2-3.6-3.6v-57.5c0-2.4,1.2-3.6,3.6-3.6h25.3c5,0,8.8,1.3,11.5,3.9
					c2.6,2.6,4,6.4,4,11.3v2.6c0,4.6-1.5,8-4.4,10.3c5.3,2.7,7.9,7.9,7.9,15.6v3.2c0,5.8-1.5,10.2-4.6,13.2c-3,3-7.4,4.5-13.2,4.5
					H30.2z M33.7,211.3h23.2c2.6,0,4.3-0.7,5.4-2.2c1-1.5,1.6-3.5,1.6-6v-2.6c0-2.9-0.6-5-1.9-6.2c-1.3-1.2-3.4-1.8-6.4-1.8H33.7
					V211.3z M33.7,242.7h23c3.8,0,6.5-0.8,8.2-2.5c1.7-1.7,2.5-4.4,2.5-8.1v-3.2c0-3.7-0.8-6.4-2.4-8.1c-1.6-1.6-4.4-2.4-8.2-2.4
					h-23V242.7z"/>
				<path fill="#FFFFFF" d="M94.6,249.8c-2.4,0-3.6-1.2-3.6-3.6v-57.5c0-2.4,1.2-3.6,3.6-3.6h35.3c2.4,0,3.6,1.2,3.6,3.6
					c0,2.4-1.2,3.5-3.6,3.5H98.1v21.3h20.3c2.4,0,3.6,1.2,3.6,3.5c0,2.4-1.2,3.6-3.6,3.6H98.1v21.9h31.7c2.4,0,3.6,1.2,3.6,3.5
					c0,2.4-1.2,3.6-3.6,3.6H94.6z"/>
				<path fill="#FFFFFF" d="M167.4,249.8c-2.4,0-3.5-1.2-3.5-3.6v-20.3l-22-35c-1.2-2-0.8-3.7,1.1-5c2-1.2,3.7-0.9,4.9,1.1
					l19.5,31.2l20.3-31.2c0.6-0.9,1.3-1.5,2.2-1.7c0.8-0.2,1.7,0.1,2.7,0.7c2.1,1.3,2.4,2.9,1.1,4.8l-22.7,35v20.3
					C171,248.6,169.8,249.8,167.4,249.8z"/>
				<path fill="#FFFFFF" d="M226.2,249.8c-7.3,0-12.6-1.7-16.1-5.2c-3.4-3.4-5.2-8.8-5.2-16.1v-22.3c0-7.3,1.7-12.7,5.2-16.1
					c3.4-3.4,8.8-5.1,16-5h11.7c7.3,0,12.6,1.7,16,5.1c3.4,3.4,5.1,8.8,5.1,16.1v22.2c0,7.3-1.7,12.6-5.1,16.1
					c-3.4,3.4-8.8,5.2-16,5.2H226.2z M226.2,242.7h11.6c3.5,0,6.3-0.4,8.4-1.3c2.1-0.9,3.5-2.3,4.4-4.4c0.9-2.1,1.3-4.9,1.3-8.4
					v-22.2c0-3.5-0.4-6.3-1.3-8.4c-0.9-2-2.3-3.5-4.4-4.4c-2.1-0.9-4.8-1.3-8.4-1.3h-11.7c-3.5,0-6.3,0.4-8.3,1.2
					c-2,0.9-3.5,2.3-4.4,4.4c-0.9,2.1-1.3,4.9-1.3,8.4v22.3c0,3.6,0.4,6.4,1.3,8.4c0.9,2.1,2.3,3.5,4.4,4.4
					C219.8,242.3,222.6,242.7,226.2,242.7z"/>
				<path fill="#FFFFFF" d="M280.9,249.8c-2.4,0-3.6-1.2-3.6-3.6v-57.5c0-2.4,1.2-3.6,3.6-3.6c1.2,0,2.4,0.7,3.6,2.1l39.6,51h-1.7
					v-49.6c0-2.4,1.2-3.6,3.6-3.6c2.4,0,3.5,1.2,3.5,3.6v57.5c0,2.4-1.2,3.6-3.5,3.6c-1.3,0-2.5-0.7-3.6-2.1l-39.7-51h1.7v49.6
					C284.5,248.6,283.3,249.8,280.9,249.8z"/>
				<path fill="#FFFFFF" d="M353.5,249.8c-2.4,0-3.6-1.2-3.6-3.6v-57.5c0-2.4,1.2-3.6,3.6-3.6h23.4c8.3,0,14.4,1.9,18.3,5.8
					c3.9,3.9,5.8,10,5.8,18.3v16.4c0,8.3-1.9,14.4-5.8,18.3c-3.9,3.9-10,5.8-18.3,5.8H353.5z M357,242.7h19.8c4.2,0,7.5-0.5,10-1.6
					c2.5-1.1,4.3-2.8,5.3-5.3c1.1-2.5,1.6-5.8,1.6-10.1v-16.4c0-4.2-0.5-7.5-1.6-10c-1.1-2.5-2.8-4.3-5.3-5.4
					c-2.5-1.1-5.8-1.6-10-1.6H357V242.7z"/>
				<path fill="#FFFFFF" d="M55.2,283.1c1.8,0,2.6,0.7,2.6,2.1c0,1.3-0.9,1.9-2.6,1.9H40.6v54.3c0,1.7-0.7,2.6-2.1,2.6
					c-1.3,0-1.9-0.9-1.9-2.6v-54.3H22c-1.8,0-2.6-0.7-2.6-2c0-1.3,0.9-2,2.6-2H55.2z"/>
				<path fill="#FFFFFF" d="M86.8,341.1c0,1.9-0.7,2.8-2,2.8c-1.3,0-2-0.9-2-2.8v-55.7c0-2,0.6-2.9,1.8-2.9c1.5,0,2.2,1,2.2,2.9
					v23.5h34.1v-23.5c0-2,0.6-2.9,1.9-2.9c1.4,0,2.1,1,2.1,2.9v55.7c0,1.9-0.6,2.8-1.9,2.8c-1.4,0-2.1-0.9-2.1-2.8v-28.3H86.8V341.1
					z"/>
				<path fill="#FFFFFF" d="M159.1,311.4v27.9h35.3c1.8,0,2.7,0.7,2.7,2.2c0,1.2-0.9,1.8-2.7,1.8h-37.5c-1.2,0-1.8-1-1.8-2.9v-54.3
					c0-2,0.6-2.9,1.8-2.9h37.5c1.8,0,2.7,0.7,2.7,2.2c0,1.2-0.9,1.8-2.7,1.8h-35.3v20.3h24.1c1.9,0,2.8,0.7,2.8,2.2
					c0,1.2-0.9,1.8-2.8,1.8H159.1z"/>
				<path fill="#FFFFFF" d="M267.2,341.1c0,1.9-0.7,2.8-2,2.8c-1.3,0-2-0.9-2-2.8v-55.1c0-2,0.6-2.9,1.8-2.9h37.5
					c1.8,0,2.7,0.7,2.7,2.2c0,1.2-0.9,1.8-2.7,1.8h-35.3v20.3h24.1c1.9,0,2.8,0.7,2.8,2.2c0,1.2-0.9,1.8-2.8,1.8h-24.1V341.1z"/>
				<path fill="#FFFFFF" d="M367.8,285.1c0-1.8,0.7-2.6,2.1-2.6c1.3,0,1.9,0.9,1.9,2.6v36.7c0,6.9-2,12.4-5.9,16.4
					c-3.9,4-9,6-15.1,6c-6.1,0-11.2-2-15.1-6c-3.9-4-5.9-9.4-5.9-16.4v-36.7c0-1.8,0.7-2.6,2-2.6c1.3,0,2,0.9,2,2.6v36.7
					c0,5.7,1.5,10.2,4.5,13.5c3,3.2,7.2,4.9,12.5,4.9s9.5-1.6,12.5-4.9c3-3.2,4.5-7.7,4.5-13.5V285.1z"/>
				<path fill="#FFFFFF" d="M431.8,283.1c1.8,0,2.6,0.7,2.6,2.1c0,1.3-0.9,1.9-2.6,1.9h-14.6v54.3c0,1.7-0.7,2.6-2.1,2.6
					c-1.3,0-1.9-0.9-1.9-2.6v-54.3h-14.7c-1.8,0-2.6-0.7-2.6-2c0-1.3,0.9-2,2.6-2H431.8z"/>
				<path fill="#FFFFFF" d="M496.8,285.1c0-1.8,0.7-2.6,2.1-2.6c1.3,0,1.9,0.9,1.9,2.6v36.7c0,6.9-2,12.4-5.9,16.4
					c-3.9,4-9,6-15.1,6c-6.1,0-11.2-2-15.1-6c-3.9-4-5.9-9.4-5.9-16.4v-36.7c0-1.8,0.7-2.6,2-2.6c1.3,0,2,0.9,2,2.6v36.7
					c0,5.7,1.5,10.2,4.5,13.5c3,3.2,7.2,4.9,12.5,4.9s9.5-1.6,12.5-4.9c3-3.2,4.5-7.7,4.5-13.5V285.1z"/>
				<path fill="#FFFFFF" d="M534.4,341.4c0,1.7-0.7,2.6-2.1,2.6c-1.3,0-1.9-0.9-1.9-2.6v-55.4c0-2,0.6-2.9,1.8-2.9h16.7
					c6.5,0,11.4,1,14.7,3c3.3,2,4.9,5.7,4.9,11.2c0,4-1,7.1-3,9.5c-2,2.3-4.9,3.8-8.6,4.4c2.1,1.6,4.1,4.9,6.2,9.9
					c2,5,3.6,9.4,4.6,13.3c1,3.9,1.6,6.3,1.6,7c0,1.7-0.7,2.6-2.1,2.6c-0.6,0-1-0.3-1.4-0.8c-0.3-0.5-0.5-1.1-0.5-1.8
					c0-0.9-0.4-3.1-1.3-6.7c-0.9-3.6-2.4-7.9-4.5-12.8s-4.5-8.4-7.2-10.5h-17.8V341.4z M548.9,307.4c5.7,0,9.7-0.7,12.1-2
					c2.4-1.3,3.5-4,3.5-8.1c0-4.2-1.2-6.9-3.5-8.2c-2.4-1.3-6.4-2-12.1-2h-14.5v20.3H548.9z"/>
				<path fill="#FFFFFF" d="M600.8,311.4v27.9h35.3c1.8,0,2.7,0.7,2.7,2.2c0,1.2-0.9,1.8-2.7,1.8h-37.5c-1.2,0-1.8-1-1.8-2.9v-54.3
					c0-2,0.6-2.9,1.8-2.9h37.5c1.8,0,2.7,0.7,2.7,2.2c0,1.2-0.9,1.8-2.7,1.8h-35.3v20.3h24.1c1.9,0,2.8,0.7,2.8,2.2
					c0,1.2-0.9,1.8-2.8,1.8H600.8z"/>
			</g>
		</g>
		<path fill="#00D17D" d="M3,385.2c0,0,10.1-0.1,27.8-0.3c17.7-0.1,43-0.3,73.3-0.5c30.3-0.1,65.7-0.3,103.7-0.4
			c37.9-0.1,78.4-0.1,118.9-0.2c40.5,0.1,80.9,0.1,118.9,0.2c37.9,0.2,73.3,0.3,103.7,0.4c30.3,0.2,55.6,0.4,73.3,0.5
			c17.7,0.2,27.8,0.3,27.8,0.3s-10.1,0.1-27.8,0.3c-17.7,0.1-43,0.3-73.3,0.5c-30.3,0.1-65.7,0.3-103.7,0.4
			c-37.9,0.1-78.4,0.1-118.9,0.2c-40.5-0.1-80.9-0.1-118.9-0.2c-37.9-0.2-73.3-0.3-103.7-0.4c-30.3-0.2-55.6-0.4-73.3-0.5
			C13.1,385.3,3,385.2,3,385.2z"/>
	</g>
</g>
</svg>
