<?xml version="1.0" encoding="utf-8"?>
<!-- Generator: Adobe Illustrator 22.0.0, SVG Export Plug-In . SVG Version: 6.00 Build 0)  -->
<svg version="1.1" id="Capa_1" xmlns="http://www.w3.org/2000/svg" xmlns:xlink="http://www.w3.org/1999/xlink" x="0px" y="0px"
	 viewBox="0 0 500 415" style="enable-background:new 0 0 500 415;" xml:space="preserve">
<style type="text/css">
	.st0{fill:#1C2C35;stroke:#00D27D;stroke-width:0.4544;stroke-miterlimit:10;}
	.st1{fill:#00D27D;stroke:#00D27D;stroke-width:0.4221;stroke-miterlimit:10;}
	.st2{fill:none;stroke:#00D27D;stroke-width:0.4544;stroke-miterlimit:10;}
	.st3{fill:none;stroke:#00D27D;stroke-width:0.2111;stroke-miterlimit:10;}
	.st4{fill:#00D27D;}
	.st5{fill:none;stroke:#00D27D;stroke-width:0.4221;stroke-miterlimit:10;}
	.st6{fill:#00D27D;stroke:#1C2C35;stroke-width:0.4221;stroke-miterlimit:10;}
	.st7{fill:none;stroke:#00D27D;stroke-width:0.4251;stroke-miterlimit:10;}
	.st8{fill:none;stroke:#00D27D;stroke-width:0.3256;stroke-miterlimit:10;}
	.st9{clip-path:url(#SVGID_2_);}
	.st10{fill:none;stroke:#00D27D;stroke-width:0.4534;stroke-miterlimit:10;}
	.st11{fill:none;stroke:#00D27D;stroke-width:0.34;stroke-miterlimit:10;}
	.st12{fill:none;stroke:#00D27D;stroke-width:0.1854;stroke-miterlimit:10;}
	.st13{fill:none;stroke:#00D27D;stroke-width:0.139;stroke-miterlimit:10;}
	.st14{fill:none;stroke:#00D27D;stroke-width:0.1762;stroke-miterlimit:10;}
	.st15{fill:none;stroke:#00D27D;stroke-width:0.1477;stroke-miterlimit:10;}
	.st16{fill:none;stroke:#00D27D;stroke-width:0.1897;stroke-miterlimit:10;}
</style>
<g>
	<g>
		<g>
			<g>
				<polyline class="st0" points="270.1,301 281.4,313.6 290.5,326.1 318,348.5 335.1,376.3 307.7,358.6 285.8,329.3 276.8,321.9 
					255.8,300.5 259.4,300.7 260.8,295.9 264.8,297.4 				"/>
				<polygon class="st1" points="259.8,296.3 258.8,299.8 255.7,299.7 254.8,294.6 				"/>
				<polygon class="st2" points="264.8,307.8 271.5,304.7 272.2,314.2 				"/>
				<polygon class="st2" points="273.7,306.9 274.4,316.5 279.4,321.6 278.5,312.1 				"/>
				<polygon class="st2" points="282.1,324.6 285.2,327.1 288.9,326.6 280.9,314.9 				"/>
				<polygon class="st2" points="263.4,298.7 263.6,301.1 267.7,299.4 				"/>
				<polygon class="st2" points="261.8,297.7 266.9,297.1 269.8,299.5 270.5,302.7 266.4,304.6 262.1,301.3 				"/>
				<line class="st2" x1="265.8" y1="305.3" x2="261.5" y2="301.9"/>
				<line class="st2" x1="265.1" y1="305.9" x2="260.8" y2="302.5"/>
				<line class="st2" x1="264.5" y1="306.6" x2="260.2" y2="303.2"/>
				<polygon class="st2" points="286.9,328.7 291.5,328.4 317.1,349.6 322.2,357.8 318.6,359.7 317,362.7 309,357.6 				"/>
				<line class="st3" x1="309.6" y1="357" x2="288.5" y2="329.5"/>
				<line class="st3" x1="315.9" y1="361.1" x2="309.6" y2="357"/>
				<polygon class="st4" points="324.1,358.4 319.4,360.5 317.4,365 335.1,376.3 				"/>
				<g>
					<polygon class="st4" points="288.5,329.7 292.2,329.7 288.2,329.3 					"/>
					<polygon class="st4" points="289.7,331.2 293.5,331 289.7,330.8 					"/>
					<polygon class="st4" points="290.9,332.8 294.9,332.3 290.9,332.4 					"/>
					<polygon class="st4" points="292.1,334.2 296.2,333.6 292,333.9 					"/>
					<polygon class="st4" points="293.2,335.7 297.8,334.8 293,335.3 					"/>
					<polygon class="st4" points="294.3,337.1 299.4,336.1 294.2,336.8 					"/>
					<polygon class="st4" points="295.5,338.8 300.7,337.3 295.4,338.4 					"/>
					<polygon class="st4" points="296.7,340.3 302.2,338.4 296.6,339.9 					"/>
					<polygon class="st4" points="297.9,341.8 303.8,339.7 297.7,341.4 					"/>
					<polygon class="st4" points="299,343.3 305.2,341 298.9,342.9 					"/>
					<polygon class="st4" points="300.2,344.9 306.9,342.3 300,344.5 					"/>
					<polygon class="st4" points="301.4,346.4 308.1,343.2 301.2,346 					"/>
					<polygon class="st4" points="302.5,347.9 309.6,344.4 302.3,347.5 					"/>
					<polygon class="st4" points="303.7,349.4 311,345.7 303.5,349 					"/>
					<polygon class="st4" points="304.9,350.9 312.5,346.9 304.7,350.5 					"/>
					<polygon class="st4" points="306,352.4 314,348.1 305.8,352 					"/>
					<polygon class="st4" points="307.2,354 315.4,349.3 307,353.5 					"/>
					<polygon class="st4" points="308.4,355.5 316.8,350.7 308.1,355 					"/>
					<polygon class="st4" points="309.5,357 317.9,352.2 309.3,356.6 					"/>
					<polygon class="st4" points="311.2,358.1 318.9,353.9 310.8,357.7 					"/>
					<polygon class="st4" points="312.8,359.1 319.9,355.5 312.3,358.8 					"/>
					<polygon class="st4" points="314.4,360.2 321,357.1 313.9,359.8 					"/>
					<polygon class="st4" points="315.9,361.1 317.8,360 315.4,360.7 					"/>
				</g>
				<line class="st5" x1="254.8" y1="294.6" x2="240.8" y2="280.4"/>
				<path class="st4" d="M240.1,280.1c0.6,0.6,1.7,0.7,2.3,0c0.6-0.6,0.7-1.7,0-2.3c-0.6-0.6-1.7-0.7-2.3,0S239.5,279.4,240.1,280.1
					z"/>
				<line class="st5" x1="255.8" y1="294.8" x2="242.4" y2="280"/>
				<polygon class="st5" points="273.8,319.9 276.3,322.4 280.1,325.6 275.7,324.8 				"/>
				<path class="st6" d="M238.4,280.5c0.7,0.7,1.8,0.7,2.5,0c0.7-0.7,0.7-1.8,0-2.5c-0.7-0.7-1.8-0.7-2.5,0S237.8,279.8,238.4,280.5
					z"/>
			</g>
			<g>
				<g>
					<image style="overflow:visible;" width="73" height="73" xlink:href="D50BD36A.png"  transform="matrix(1 0 0 1 267 8)">
					</image>
				</g>
				<polygon class="st4" points="303.9,45 303.9,45 303.9,45 				"/>
				<path class="st4" d="M286.3,116.4c0,0,11.4-50.1,11.4-50.1l20.7,35.2l17.2,37.4l0,0.1l0,0.1l9.9,15.8l0,0l0,0.1l0,0l0,0.1
					l16.4,18.7l-20.6,28.3l-33.8-80.2c-0.1-0.1-0.2-0.2-0.3-0.3c-0.1-0.1-0.2-0.1-0.3,0l-34.1,33.9l0,0l0,0l0,0l0,0l0,0l1.1,67.8
					l0,0c0,0,0,0.1,0,0.1l0,0.1l15.7,99.7l-0.4-0.5c0.6,0.8,1.2,1.6,1.9,2.3l84.5,46.3l0,0l0,0l0.1,0l0,0l0.1,0l86,16.1l-39.1,23.6
					l-46.8-23c-0.1,0.2-0.1,0.3-0.2,0.5l47.2,23.2c0.1,0,0.2,0,0.2,0l40-24.1c0,0,0,0,0,0l0,0l0-0.1c0,0,0-0.1,0-0.1l3.3-42.1l0-0.1
					c0,0,0,0,0,0c0,0,0,0,0,0l0-0.1c0,0,0,0,0,0l0,0c0,0,0-0.1,0-0.1c0,0,0,0-0.1-0.1l-43.8-53.5l0,0l0,0c0,0,0,0,0-0.1c0,0,0,0,0,0
					l-0.1,0l0,0c0,0,0,0-0.1,0l-37.5-14.8l20.7-16.9c0,0,0,0,0,0s0,0,0,0l0,0l0,0c0,0,0-0.1,0-0.1c0,0,0,0,0,0c0,0,0,0,0,0
					c0,0,0-0.1,0-0.1s0,0,0,0c0,0,0-0.1,0-0.1L387,207.5c0,0-0.1-0.1-0.1-0.1c0,0,0,0,0,0c0,0,0,0,0,0c0,0,0,0,0,0l0,0c0,0,0,0,0,0
					c0,0-0.1,0-0.1,0c0,0,0,0,0,0c0,0,0,0-0.1,0L364,196.9l-1.2-22.7l0-0.1l0-0.1l0,0l0-0.1l0,0l0-0.1c0,0-16.6-19-16.6-19
					l-12.9-51.2c0,0,0-0.1,0-0.1L303.9,45l0-0.1l0-0.1l0,0l0,0l0,0l0,0l-17-11.9l0,0l-0.1,0c0,0,0,0,0,0l0,0l0,0l-0.1,0l0,0l0,0l0,0
					l0,0l0,0l0,0l0,0.1l-19.5,62.3l-14.6,24c0,0,0,0.1,0,0.1l-1.4,25.3l-3.7,64.9c0,0,0,0.1,0,0.1l30.5,93.6l-2.7,0.5
					c1.7,3.1,4,6.1,6.3,8.8l-33.4-102.7l3.7-64.8L286.3,116.4C286.3,116.5,286.3,116.4,286.3,116.4L286.3,116.4z M404.7,258.3
					l-25.7-25.7l-22.4-22l30-2.8L404.7,258.3z M421.8,291.7L369.4,333l-3.2-3.2l18.2-52.8L421.8,291.7z M362.5,338.3l-30.3-30.5
					l46-27.1l3.1,3.3L362.5,338.3z M386.7,372.9l-1.7-4l80.9-23.2l-3.2,41.4L386.7,372.9z M375.9,370.7l-12.9-31.7l59.5-46.9
					l43.3,52.8L375.9,370.7z M302.6,330.7l-0.5-3.7l60.4,12.2l12.8,31.4L302.6,330.7z M299.2,325.7l-1.8-3.9l34.3-13.8l30.2,30.4
					L299.2,325.7z M274.8,224.2l48.3,25.6l-32.7,73.2L274.8,224.2z M273.6,156.9l49.3,92.2l-48.2-25.6L273.6,156.9z M274,156.6
					l67,46.3L323.4,249L274,156.6z M340.8,202.1l-67-46.3l33.5-33.3L340.8,202.1z M355.8,210.6l22.9,22.4l26.1,26.1l-20.9,17.1
					l-52.4,30.9l-0.1,0l0,0l-34.9,14.1l-3-3.4l30.3-67.9l0-0.1l17.8-46.7L355.8,210.6z M362.2,175l1.2,21.9c0,0.1,0,0.2,0.1,0.3
					c0.1,0.1,0.1,0.2,0.2,0.2l14.5,6.6l1.1,3.8l-23.5,2.2l-13.8-7.2L362.2,175z M286.2,49.6l-0.5,66.3L251.4,144l1.4-24.2l14.6-24
					c0,0,0,0,0,0l15.2-48.5L286.2,49.6z M336.1,139l-23.9-69.5l3.2,0l17.1,34.1l10.4,41.2l-3.1,0.1L336.1,139z M286.5,94.2l0.4-60.6
					l16.4,11.5l20.9,60.7l-3.3-0.1l-2-4.3c0,0,0,0,0,0l-21.1-36c-0.1-0.1-0.2-0.2-0.3-0.3c-0.1,0-0.2,0-0.2,0c0,0,0,0.1-0.1,0.1
					l-7.1,31.2L286.5,94.2z"/>
				<path class="st7" d="M288.4,314.6l-10.9-11.3c0,0,7.9-7.9,8.4-8c0.6-0.1-18.7-25.4-18.7-25.4l12.5-10.2l-20.5-14.2l15.4-21.9
					l-27-13.7c0,0,15.5-16,15.8-17c0.4-1,0.2-43.7,0.2-43.7l-12.4-4"/>
				<path class="st8" d="M303.4,45.2"/>
				<polyline class="st7" points="273.8,155.8 263.7,149.1 285.7,115.9 307.3,122.5 				"/>
				<polyline class="st7" points="263.5,192.8 274.7,223.6 296.3,262.4 322.9,249.1 297.5,217.4 274.7,223.6 285.8,196.6 
					273.6,156.9 304.6,190.2 				"/>
				<polyline class="st7" points="289.8,323.3 293.6,275.4 283.4,278.8 				"/>
				<polyline class="st7" points="285.8,196.6 301.3,208.7 297.5,217.4 				"/>
				<polygon class="st7" points="301.3,208.7 304.6,190.2 341,202.9 321.4,215.3 				"/>
				<polyline class="st7" points="345.5,155 323.9,160.3 307.7,160.1 				"/>
				<line class="st7" x1="307.7" y1="160.1" x2="341" y2="202.9"/>
				<line class="st7" x1="307.3" y1="122.5" x2="318.9" y2="101.4"/>
				<polyline class="st7" points="267.4,95.8 285.7,115.9 273.6,156.9 307.7,160.1 307.3,122.5 345.5,155 341,202.9 301.3,208.7 
					274.7,223.6 				"/>
				<line class="st7" x1="252.8" y1="119.8" x2="285.7" y2="115.9"/>
				<polyline class="st7" points="286.9,33.7 297.4,65.1 303.4,45.2 				"/>
				<line class="st7" x1="307.3" y1="122.5" x2="297.4" y2="65.1"/>
				<polyline class="st7" points="322.9,249.1 325.9,294.4 304.9,289.2 293.6,275.4 296.3,262.4 				"/>
				<path class="st7" d="M373.7,260l-42.2,47.2l-38,10.7l32.4-23.5l29.4-33.5c0,0,0.5-50.4,0.5-51"/>
				<polyline class="st7" points="363.7,197.4 341,202.9 355.3,261 322.9,249.1 321.4,215.3 				"/>
				<line class="st7" x1="319.6" y1="322.2" x2="299.2" y2="325.7"/>
				<line class="st7" x1="339.6" y1="343.1" x2="300.5" y2="328.2"/>
				<polyline class="st7" points="331.5,307.2 357.6,309.3 361.8,338.3 386.9,348 375.3,370.6 339.6,343.1 361.8,338.3 319.6,322.2 
					331.5,307.2 325.9,294.4 				"/>
				<polyline class="st7" points="357.6,309.3 383.9,276.3 355.7,222.3 404.7,258.3 355.3,261 				"/>
				<polygon class="st7" points="386.9,348 421.8,291.7 465.8,345 				"/>
				<polyline class="st7" points="383.9,276.3 395.8,313 403.5,284.5 				"/>
				<polygon class="st7" points="445,320.2 408.7,312.8 423.3,346.6 				"/>
				<line class="st8" x1="438.9" y1="365.7" x2="375.3" y2="370.6"/>
				<path class="st8" d="M420.4,392.8l42.3-5.7c-0.7,0.5-23.8-21.4-23.8-21.4l26.9-20.7"/>
				<polyline class="st7" points="374.1,378.2 375.8,388.7 318.3,347 291.3,325.1 374.1,378.2 420.4,392.8 422.9,411.2 				"/>
				<line class="st7" x1="318.3" y1="347" x2="326.9" y2="347.9"/>
				<polygon class="st7" points="374,209 375.7,230.1 394.8,230.9 				"/>
				<path class="st4" d="M275.5,222.9c0.6,0.8,0.7,1.7,0.3,2c-0.5,0.4-1.3,0.1-1.9-0.7s-0.7-1.7-0.3-2
					C274,221.8,274.9,222.1,275.5,222.9z"/>
				<path class="st4" d="M286.5,115.2c0.6,0.8,0.7,1.7,0.3,2c-0.5,0.4-1.3,0.1-1.9-0.7c-0.6-0.8-0.7-1.7-0.3-2
					C285,114.1,285.9,114.5,286.5,115.2z"/>
			</g>
			<g>
				<defs>
					<path id="SVGID_1_" d="M306.9,42.9L306.9,42.9L306.9,42.9l0.1,0.2l29.3,58.6c0,0,0,0.1,0,0.1l12.9,51.2c0,0,16.6,18.9,16.6,19
						l0,0.1l0,0l0,0.1l0,0l0,0.1l0,0.1l1.2,22.7l22.7,10.2c0,0,0,0,0.1,0c0,0,0,0,0,0c0,0,0,0,0.1,0c0,0,0,0,0,0l0,0c0,0,0,0,0,0
						c0,0,0,0,0,0c0,0,0,0,0,0c0,0,0,0.1,0.1,0.1l19.9,57.6c-3.4,2.3,0,0,0,0L395,275.8l30.6,13.6c0,0,0,0,0.1,0l0,0l0.1,0
						c0,0,0,0,0,0c0,0,0,0,0,0.1l0,0l0,0l43.8,53.5c0,0,0,0,0.1,0.1c0,0,0,0.1,0,0.1l0,0c0,0,0,0,0,0l0,0.1c0,0,0,0,0,0c0,0,0,0,0,0
						l0,0.1l-3.3,42.1c0,0,0,0.1,0,0.1l0,0.1l0,0c0,0,0,0,0,0L426,405.5c-0.1,0,0.3,4.6,0.2,4.5l39.5-5.6
						c-0.5-0.5,13.4-13,23.4-38.3l0.8-23.2l-7.1-33.8c-2.6,1.1-33.8-66.6-35.5-69.7l-7.9,1.1l-20.3-63.2c0,0-21.9-25.5-21.9-25.5
						l-11.8-27.1l-2.7-32.5c0,0,3.9-43.7,3.9-43.7L358.6,0.9L289.4,31l0-0.1l0,0l0,0l0,0l0,0l0,0l0,0l0.1,0l0,0l0,0c0,0,0,0,0,0
						l0.1,0l0,0l17,11.9L306.9,42.9L306.9,42.9L306.9,42.9z"/>
				</defs>
				<clipPath id="SVGID_2_">
					<use xlink:href="#SVGID_1_"  style="overflow:visible;"/>
				</clipPath>
				<g class="st9">
					<polyline class="st10" points="337.7,112.2 333.2,151.6 298,150.8 					"/>
					<line class="st10" x1="333.2" y1="151.6" x2="362.6" y2="192"/>
					<polyline class="st10" points="362.6,192 327.9,188.4 298,150.8 					"/>
					<line class="st10" x1="337.6" y1="243.2" x2="327.9" y2="188.4"/>
					<path class="st10" d="M337.7,112.2c0.2-0.9,12-28,12-28l-18.3-19.9L337.7,112.2"/>
					<polyline class="st10" points="338.1,111.6 373.8,142.2 351.3,153.9 388.7,161.2 356.8,171.4 370.3,183.1 					"/>
					<polyline class="st10" points="343.6,31.6 335,53.4 327.7,21.3 					"/>
					<polyline class="st10" points="337.6,111.3 316.3,108.1 335.2,93.3 325.3,82 					"/>
					<polyline class="st10" points="275.7,141.9 297.2,150.7 290.6,129.5 325,123.5 316.3,108.1 330.9,117.7 					"/>
					<polyline class="st10" points="315.8,107.6 299.1,88.5 300.2,120.6 280.5,115.3 290.6,129.5 278.1,128.7 282,135.7 					"/>
					<path class="st10" d="M299.1,88.5c2.6-1.8,22.5-24.9,22.5-25.3c0-0.4-6.6-12.2-6.6-12.2l9.9-12.9"/>
					<path class="st10" d="M275.7,141.9l13.7,79.8l-4.8-76.2c0,0,11.5,14.3,11.5,15"/>
					<polyline class="st10" points="272.1,162.1 280.9,171.9 268.5,182.2 284.7,194.2 263.4,210.2 289.4,221.7 					"/>
					<polyline class="st10" points="263.4,210.2 290.9,246.2 275.2,266.4 279.6,218 					"/>
					<polyline class="st10" points="282.7,304.9 291.9,293.2 278.5,282.1 291.6,267.4 275.2,266.4 					"/>
					<polyline class="st10" points="290.1,221.7 308.7,204.4 298,150.8 					"/>
					<line class="st10" x1="337.6" y1="243.2" x2="308.7" y2="204.4"/>
					<polyline class="st10" points="337.6,243.2 307.7,268.1 290.1,221.7 					"/>
					<polyline class="st10" points="307.7,268.1 292,279.2 307.8,299.8 292.9,305.2 337.7,243.9 					"/>
					<polygon class="st10" points="365.8,251.5 362.6,192 377.3,198.6 					"/>
					<polyline class="st10" points="422.6,243.9 365.8,251.5 377.3,198.6 422.6,243.9 					"/>
					<polyline class="st10" points="422.6,243.9 297.6,318.5 365.8,251.5 344.8,231 364.2,221 354.1,212 					"/>
					<polyline class="st10" points="322.1,273.7 341.4,275.5 333.3,253.4 365.8,251.5 389.3,232 377.3,198.6 					"/>
					<polyline class="st10" points="387.3,184.5 377.3,198.6 370.3,183.1 387.3,184.5 					"/>
					<line class="st10" x1="422.6" y1="243.9" x2="389.3" y2="232"/>
					<line class="st10" x1="410.1" y1="193" x2="377.3" y2="198.6"/>
					<polyline class="st10" points="377.3,198.6 404.7,214.3 410.1,193 					"/>
					<line class="st10" x1="422.6" y1="243.9" x2="404.7" y2="214.3"/>
					<polyline class="st10" points="365.8,251.5 364.6,278.5 341.4,275.5 335.5,296.3 323,293.5 					"/>
					<polyline class="st10" points="338.9,303.2 333.5,329.8 313.3,316.3 302.5,326 					"/>
					<path class="st10" d="M391.6,270.2c-4.5,2.9-30.2,36.3-30.2,36.3l-22.6-3.3"/>
					<line class="st10" x1="367" y1="332.4" x2="361.5" y2="306.5"/>
					<path class="st4" d="M320.6,360.7c0.3,0.3,0.5,0.7,0.8,1l100.5,41.2c0.1,0,0.2,0,0.2,0l45.3-29.6l0,0l0-0.1l0-0.1l0-0.1l9-44.5
						l0-0.1c0,0,0,0,0-0.1c0,0,0-0.1,0-0.1l0,0c0,0,0,0,0,0c0,0,0,0,0,0c0,0,0,0,0,0l0,0l0-0.1l0,0l-39.2-51.2l-0.1-0.1l0,0l0,0l0,0
						l-0.1,0l-0.1,0l-37.7-11.4l24-20c0,0,0,0,0,0l0,0c0,0,0,0,0,0l0,0l0-0.1c0,0,0,0,0,0l0,0l0,0c0,0,0,0,0,0l0-0.1l-12.8-52.2
						c0,0,0-0.1,0-0.1c0,0,0-0.1,0-0.1c0,0,0,0,0,0c0,0,0,0,0-0.1c0,0,0,0-0.1,0l0,0c0,0,0,0,0,0c0,0,0,0-0.1,0l-22.6-8.3l1.7-23.6
						c0,0,0-0.1,0-0.1l0,0c0,0,0,0,0,0l0-0.1l0,0l0-0.1c0,0-15-18.1-15-18.1l-6.9-52.2c0,0,0-0.1,0-0.1l-23.2-58.2l0-0.1
						c0,0,0,0,0,0l-0.1-0.1l0,0l-0.1,0l0,0l-16.3-10.6c0,0-0.1,0-0.1,0l-0.1,0c0,0,0,0,0,0l0,0l0,0l0,0l0,0l0,0l0,0l0,0l0,0l0,0
						l0,0.1l-28.7,67.4l-18.5,26.7c0,0,0,0.1,0,0.1l-17.1,95c0,0,0,0.1,0,0.1l19.9,94.8l-2.9,0.8c1.3,3,3.6,5.6,5.5,8.6l-21.9-104.1
						l12.3-68.3l40.6-33.8c0,0,0,0,0,0c0,0,0-0.1,0-0.1c0,0,18.5-53.7,18.5-53.7L352.1,89l13.2,37.4l0,0.1l0,0.1l0,0.1l8.3,15.5
						l0,0.1l0,0l0,0.1l14.8,17.9l-25.4,31.9l-25.1-80.4c0-0.1-0.1-0.2-0.2-0.3c-0.1,0-0.2-0.1-0.3,0l-40.3,39.2l0,0l0,0l0,0.1l0,0
						l0,0l0,0l0,0.1l-7.7,71c0,0,0,0.1,0,0.1c0,0,0,0,0,0l0,0.1l3.5,102.6c0.5,0.6,0.8,1,1.3,1.8l82.8,39.3l0.1,0l0.1,0.1l0.1,0
						l0.1,0l88.6,7.5l-44.3,29L320.6,360.7z M324.9,38.1l-9.1,69.5l-39.8,33.2l4.6-25.5L299,88.6c0,0,0,0,0,0l22.3-52.5L324.9,38.1z
						 M343.6,31.6L357.7,93l-3.5,0.3l-1.5-4.3c0,0,0,0,0-0.1L335,53.4c-0.1-0.1-0.2-0.2-0.3-0.2c-0.1,0-0.2,0-0.2,0
						c0,0-0.1,0.1-0.1,0.1L323,86.7l-3.6-1.9l8.3-63.5L343.6,31.6z M369,132.1l-3.1-5.8l-16.1-70.2l3.4-0.4l13.5,33.9l5.6,42
						L369,132.1z M305.5,330.9l0-3.9l62.1,6.2l9.3,31.6L305.5,330.9z M339.6,303.6l52-33.4l2.9,3.1l-26.9,59L339.6,303.6z
						 M367,332.4l-64.4-6.4l-1.4-3.9l38-18.2L367,332.4z M290.1,222.3l47.6,21.6l-44.1,80.3L290.1,222.3z M297.7,152l39.9,91.2
						l-47.5-21.5L297.7,152z M362.7,192.7L338.1,243l-40-91.5L362.7,192.7z M362.6,192L298,150.8l39.7-38.6L362.6,192z M401.8,189.8
						l0.6,3.9l-25.1,4.9l-13.7-6l25-31.3l-1.6,22.8c0,0.1,0,0.2,0.1,0.3c0.1,0.1,0.1,0.2,0.2,0.2L401.8,189.8z M398.8,219.8
						L378,199.2l32.1-6.2l12.5,50.9L398.8,219.8z M398.3,265l-59.5,38.2l-38.6,18.5l-2.7-3.3l40.8-74.4l0-0.1l24.8-50.9l13.9,6.2
						l21.2,21l24.2,24.5L398.3,265z M436.2,277.1l-60.6,49l-3-3l26.1-57.3L436.2,277.1z M475.7,328.1l-98.1,36.8l-9.4-31.8
						l68.8-55.6L475.7,328.1z M388.7,365.9l-1.3-4l88.3-33.1l-8.8,43.7L388.7,365.9z"/>
					<polyline class="st11" points="398.3,265 401.8,288.2 436.2,277.1 431.2,316.1 388.1,343.2 367,332.4 354.3,342.9 305.5,327 
											"/>
					<line class="st11" x1="401.8" y1="288.2" x2="372.7" y2="323"/>
					<polyline class="st11" points="354.3,342.9 376.9,364.7 388.1,343.2 379.9,323.9 399.2,336.2 392,313.9 412.4,327.9 
						407.6,300.2 431.2,316.1 475.7,328.1 449.8,355.3 387.4,362 					"/>
					<polyline class="st11" points="293.5,326.2 318.2,347.5 373,373.9 409.9,382.8 466.1,373.2 449.8,355.3 					"/>
					<polyline class="st11" points="320.4,360.8 318.2,347.5 375.7,383.3 					"/>
					<polyline class="st11" points="376.9,364.7 373,373.9 375.7,383.3 409.9,382.8 421.8,402.2 					"/>
					<line class="st11" x1="318.2" y1="347.5" x2="331.1" y2="343.7"/>
					<line class="st11" x1="409.9" y1="382.8" x2="406.6" y2="367.4"/>
					<polyline class="st11" points="431.2,316.1 430.4,345 412.4,327.9 410.9,352.3 399.2,336.2 395.3,358.2 388.1,343.2 					"/>
					<path class="st4" d="M423.2,401c1.2,1.6,1.3,3.8,0.1,4.7c-1.2,1-3.2,0.5-4.4-1.2c-1.2-1.6-1.3-3.8-0.1-4.7
						C420,398.9,421.9,399.4,423.2,401z"/>
					<path class="st4" d="M376.9,382.3c1.2,1.6,1.3,3.8,0.1,4.7c-1.2,1-3.2,0.5-4.4-1.2c-1.2-1.6-1.3-3.8-0.1-4.7
						C373.7,380.1,375.6,380.6,376.9,382.3z"/>
					<path class="st4" d="M265.3,208.6c1.2,1.6,1.3,3.8,0.1,4.7c-1.2,1-3.2,0.5-4.4-1.2c-1.2-1.6-1.3-3.8-0.1-4.7
						C262.1,206.5,264.1,207,265.3,208.6z"/>
					<path class="st4" d="M282.4,113.7c1.2,1.6,1.3,3.8,0.1,4.7c-1.2,1-3.2,0.5-4.4-1.2c-1.2-1.6-1.3-3.8-0.1-4.7
						C279.2,111.5,281.2,112.1,282.4,113.7z"/>
					<path class="st4" d="M277,140c1.2,1.6,1.3,3.8,0.1,4.7c-1.2,1-3.2,0.5-4.4-1.2c-1.2-1.6-1.3-3.8-0.1-4.7
						C273.8,137.9,275.8,138.4,277,140z"/>
					<path class="st4" d="M300.2,149c1.2,1.6,1.3,3.8,0.1,4.7c-1.2,1-3.2,0.5-4.4-1.2c-1.2-1.6-1.3-3.8-0.1-4.7
						C297,146.8,298.9,147.4,300.2,149z"/>
					<path class="st4" d="M364.5,190.4c1.2,1.6,1.3,3.8,0.1,4.7c-1.2,1-3.2,0.5-4.4-1.2c-1.2-1.6-1.3-3.8-0.1-4.7
						C361.3,188.2,363.3,188.7,364.5,190.4z"/>
					<path class="st4" d="M315.7,285.2c1.2,1.6,1.3,3.8,0.1,4.7c-1.2,1-3.2,0.5-4.4-1.2c-1.2-1.6-1.3-3.8-0.1-4.7
						C312.5,283,314.5,283.6,315.7,285.2z"/>
					<path class="st4" d="M340,241.4c1.2,1.6,1.3,3.8,0.1,4.7c-1.2,1-3.2,0.5-4.4-1.2c-1.2-1.6-1.3-3.8-0.1-4.7
						C336.8,239.3,338.8,239.8,340,241.4z"/>
					<path class="st4" d="M391.4,230.2c1.2,1.6,1.3,3.8,0.1,4.7c-1.2,1-3.2,0.5-4.4-1.2c-1.2-1.6-1.3-3.8-0.1-4.7
						C388.2,228.1,390.2,228.6,391.4,230.2z"/>
					<path class="st4" d="M340.9,301.5c1.2,1.6,1.3,3.8,0.1,4.7c-1.2,1-3.2,0.5-4.4-1.2c-1.2-1.6-1.3-3.8-0.1-4.7
						C337.7,299.4,339.7,299.9,340.9,301.5z"/>
					<path class="st4" d="M369.6,330.7c1.2,1.6,1.3,3.8,0.1,4.7c-1.2,1-3.2,0.5-4.4-1.2c-1.2-1.6-1.3-3.8-0.1-4.7
						C366.3,328.6,368.3,329.1,369.6,330.7z"/>
					<path class="st4" d="M277.4,264.6c1.2,1.6,1.3,3.8,0.1,4.7c-1.2,1-3.2,0.5-4.4-1.2c-1.2-1.6-1.3-3.8-0.1-4.7
						C274.2,262.5,276.1,263,277.4,264.6z"/>
					<path class="st4" d="M292.3,219.9c1.2,1.6,1.3,3.8,0.1,4.7c-1.2,1-3.2,0.5-4.4-1.2c-1.2-1.6-1.3-3.8-0.1-4.7
						C289,217.7,291,218.2,292.3,219.9z"/>
					<path class="st4" d="M295.8,161.6c0.5,0.6,1.2,0.8,1.7,0.4c0.5-0.4,0.4-1.2,0-1.8c-0.5-0.6-1.2-0.8-1.7-0.4
						C295.3,160.1,295.3,161,295.8,161.6z"/>
					<path class="st4" d="M271.3,162.8c0.5,0.6,1.2,0.8,1.7,0.4c0.5-0.4,0.4-1.2,0-1.8c-0.5-0.6-1.2-0.8-1.7-0.4
						S270.8,162.2,271.3,162.8z"/>
					<path class="st4" d="M267.6,182.9c0.5,0.6,1.2,0.8,1.7,0.4c0.5-0.4,0.4-1.2,0-1.8c-0.5-0.6-1.2-0.8-1.7-0.4
						C267.1,181.5,267.2,182.3,267.6,182.9z"/>
					<path class="st4" d="M280,172.5c0.5,0.6,1.2,0.8,1.7,0.4c0.5-0.4,0.4-1.2,0-1.8s-1.2-0.8-1.7-0.4
						C279.6,171.1,279.6,171.9,280,172.5z"/>
					<path class="st4" d="M299.4,121.3c0.5,0.6,1.2,0.8,1.7,0.4c0.5-0.4,0.4-1.2,0-1.8c-0.5-0.6-1.2-0.8-1.7-0.4
						C298.9,119.8,298.9,120.6,299.4,121.3z"/>
					<path class="st4" d="M281.2,136.4c0.5,0.6,1.2,0.8,1.7,0.4c0.5-0.4,0.4-1.2,0-1.8c-0.5-0.6-1.2-0.8-1.7-0.4
						C280.7,135,280.7,135.8,281.2,136.4z"/>
					<path class="st4" d="M298.2,89.2c0.5,0.6,1.2,0.8,1.7,0.4c0.5-0.4,0.4-1.2,0-1.8c-0.5-0.6-1.2-0.8-1.7-0.4
						C297.8,87.8,297.8,88.6,298.2,89.2z"/>
					<path class="st4" d="M330.1,118.4c0.5,0.6,1.2,0.8,1.7,0.4c0.5-0.4,0.4-1.2,0-1.8c-0.5-0.6-1.2-0.8-1.7-0.4
						C329.6,117,329.7,117.8,330.1,118.4z"/>
					<path class="st4" d="M324.1,124.2c0.5,0.6,1.2,0.8,1.7,0.4c0.5-0.4,0.4-1.2,0-1.8c-0.5-0.6-1.2-0.8-1.7-0.4
						S323.7,123.6,324.1,124.2z"/>
					<path class="st4" d="M363.1,221.9c0.5,0.6,1.2,0.8,1.7,0.4c0.5-0.4,0.4-1.2,0-1.8c-0.5-0.6-1.2-0.8-1.7-0.4
						C362.6,220.5,362.6,221.3,363.1,221.9z"/>
					<path class="st4" d="M353.3,212.7c0.5,0.6,1.2,0.8,1.7,0.4c0.5-0.4,0.4-1.2,0-1.8c-0.5-0.6-1.2-0.8-1.7-0.4
						C352.8,211.3,352.8,212.1,353.3,212.7z"/>
					<path class="st4" d="M277.5,230.4c0.5,0.6,1.2,0.8,1.7,0.4c0.5-0.4,0.4-1.2,0-1.8s-1.2-0.8-1.7-0.4
						C277,229,277,229.8,277.5,230.4z"/>
					<path class="st4" d="M301.4,293.2c0.5,0.6,1.2,0.8,1.7,0.4c0.5-0.4,0.4-1.2,0-1.8c-0.5-0.6-1.2-0.8-1.7-0.4
						C300.9,291.8,300.9,292.6,301.4,293.2z"/>
					<path class="st4" d="M306.7,300.1c0.5,0.6,1.2,0.8,1.7,0.4c0.5-0.4,0.4-1.2,0-1.8c-0.5-0.6-1.2-0.8-1.7-0.4
						C306.2,298.7,306.2,299.5,306.7,300.1z"/>
					<path class="st4" d="M292.1,305.9c0.5,0.6,1.2,0.8,1.7,0.4c0.5-0.4,0.4-1.2,0-1.8s-1.2-0.8-1.7-0.4
						C291.6,304.5,291.7,305.3,292.1,305.9z"/>
					<g>
						<image style="overflow:visible;" width="80" height="80" xlink:href="D50BD36E.png"  transform="matrix(1 0 0 1 381 363)">
						</image>
					</g>
					<g>
						<image style="overflow:visible;" width="79" height="80" xlink:href="D50BD369.png"  transform="matrix(1 0 0 1 335 344)">
						</image>
					</g>
					<g>
						<image style="overflow:visible;" width="79" height="80" xlink:href="D50BD36B.png"  transform="matrix(1 0 0 1 224 170)">
						</image>
					</g>
					<g>
						<image style="overflow:visible;" width="79" height="79" xlink:href="D50BD368.png"  transform="matrix(1 0 0 1 241 76)">
						</image>
					</g>
					<g>
						<image style="overflow:visible;" width="79" height="80" xlink:href="D50BD376.png"  transform="matrix(1 0 0 1 235 102)">
						</image>
					</g>
					<g>
						<image style="overflow:visible;" width="80" height="80" xlink:href="D50BD379.png"  transform="matrix(1 0 0 1 258 111)">
						</image>
					</g>
					<g>
						<image style="overflow:visible;" width="79" height="80" xlink:href="D50BD37A.png"  transform="matrix(1 0 0 1 323 152)">
						</image>
					</g>
					<g>
						<image style="overflow:visible;" width="79" height="80" xlink:href="D50BD378.png"  transform="matrix(1 0 0 1 274 247)">
						</image>
					</g>
					<g>
						<image style="overflow:visible;" width="80" height="80" xlink:href="CAB58EAD.png"  transform="matrix(1 0 0 1 298 203)">
						</image>
					</g>
					<g>
						<image style="overflow:visible;" width="79" height="80" xlink:href="CAB58EA3.png"  transform="matrix(1 0 0 1 350 192)">
						</image>
					</g>
					<g>
						<image style="overflow:visible;" width="79" height="80" xlink:href="CAB58EA5.png"  transform="matrix(1 0 0 1 299 263)">
						</image>
					</g>
					<g>
						<image style="overflow:visible;" width="79" height="79" xlink:href="CAB58EA7.png"  transform="matrix(1 0 0 1 328 293)">
						</image>
					</g>
					<g>
						<image style="overflow:visible;" width="79" height="80" xlink:href="CAB58EA4.png"  transform="matrix(1 0 0 1 236 226)">
						</image>
					</g>
					<g>
						<image style="overflow:visible;" width="80" height="80" xlink:href="CAB58EBC.png"  transform="matrix(1 0 0 1 250 182)">
						</image>
					</g>
					<g>
						<image style="overflow:visible;" width="75" height="76" xlink:href="CAB58EBD.png"  transform="matrix(1 0 0 1 259 123)">
						</image>
					</g>
					<g>
						<image style="overflow:visible;" width="76" height="76" xlink:href="CAB58EBF.png"  transform="matrix(1 0 0 1 234 124)">
						</image>
					</g>
					<g>
						<image style="overflow:visible;" width="75" height="76" xlink:href="CAB58EBB.png"  transform="matrix(1 0 0 1 231 144)">
						</image>
					</g>
					<g>
						<image style="overflow:visible;" width="76" height="76" xlink:href="CAB58EA6.png"  transform="matrix(1 0 0 1 243 134)">
						</image>
					</g>
					<g>
						<image style="overflow:visible;" width="75" height="75" xlink:href="CAB58ED8.png"  transform="matrix(1 0 0 1 263 83)">
						</image>
					</g>
					<g>
						<image style="overflow:visible;" width="76" height="76" xlink:href="CAB58EDB.png"  transform="matrix(1 0 0 1 244 98)">
						</image>
					</g>
					<g>
						<image style="overflow:visible;" width="76" height="75" xlink:href="CAB58ED9.png"  transform="matrix(1 0 0 1 261 51)">
						</image>
					</g>
					<g>
						<image style="overflow:visible;" width="76" height="76" xlink:href="CAB58ED7.png"  transform="matrix(1 0 0 1 293 80)">
						</image>
					</g>
					<g>
						<image style="overflow:visible;" width="76" height="75" xlink:href="CAB58EC8.png"  transform="matrix(1 0 0 1 287 86)">
						</image>
					</g>
					<g>
						<image style="overflow:visible;" width="76" height="76" xlink:href="CAB58ECB.png"  transform="matrix(1 0 0 1 326 183)">
						</image>
					</g>
					<g>
						<image style="overflow:visible;" width="76" height="76" xlink:href="CAB58EC9.png"  transform="matrix(1 0 0 1 316 174)">
						</image>
					</g>
					<g>
						<image style="overflow:visible;" width="75" height="76" xlink:href="CAB58ECF.png"  transform="matrix(1 0 0 1 241 192)">
						</image>
					</g>
					<g>
						<image style="overflow:visible;" width="75" height="75" xlink:href="CAB58ECA.png"  transform="matrix(1 0 0 1 265 255)">
						</image>
					</g>
					<g>
						<image style="overflow:visible;" width="75" height="75" xlink:href="CAB58EF5.png"  transform="matrix(1 0 0 1 270 262)">
						</image>
					</g>
					<g>
						<image style="overflow:visible;" width="76" height="76" xlink:href="CAB58EEF.png"  transform="matrix(1 0 0 1 255 267)">
						</image>
					</g>
					<g>
						<image style="overflow:visible;" width="76" height="77" xlink:href="CAB58EED.png"  transform="matrix(1 0 0 1 383 364)">
						</image>
					</g>
					<g>
						<image style="overflow:visible;" width="77" height="77" xlink:href="CAB58ED3.png"  transform="matrix(1 0 0 1 336 346)">
						</image>
					</g>
					<g>
						<image style="overflow:visible;" width="76" height="77" xlink:href="CAB58ED5.png"  transform="matrix(1 0 0 1 225 172)">
						</image>
					</g>
					<g>
						<image style="overflow:visible;" width="77" height="77" xlink:href="CAB58ED6.png"  transform="matrix(1 0 0 1 242 77)">
						</image>
					</g>
					<g>
						<image style="overflow:visible;" width="77" height="77" xlink:href="CAB58ED2.png"  transform="matrix(1 0 0 1 236 103)">
						</image>
					</g>
					<g>
						<image style="overflow:visible;" width="76" height="77" xlink:href="CAB58ED1.png"  transform="matrix(1 0 0 1 260 112)">
						</image>
					</g>
					<g>
						<image style="overflow:visible;" width="77" height="77" xlink:href="CAB58EDD.png"  transform="matrix(1 0 0 1 324 154)">
						</image>
					</g>
					<g>
						<image style="overflow:visible;" width="77" height="76" xlink:href="CAB58EDF.png"  transform="matrix(1 0 0 1 275 249)">
						</image>
					</g>
					<g>
						<image style="overflow:visible;" width="76" height="77" xlink:href="CAB58ED0.png"  transform="matrix(1 0 0 1 300 205)">
						</image>
					</g>
					<g>
						<image style="overflow:visible;" width="76" height="77" xlink:href="CAB58F3E.png"  transform="matrix(1 0 0 1 351 194)">
						</image>
					</g>
					<g>
						<image style="overflow:visible;" width="77" height="77" xlink:href="CAB58F3D.png"  transform="matrix(1 0 0 1 300 265)">
						</image>
					</g>
					<g>
						<image style="overflow:visible;" width="77" height="77" xlink:href="CAB58F32.png"  transform="matrix(1 0 0 1 329 294)">
						</image>
					</g>
					<g>
						<image style="overflow:visible;" width="76" height="77" xlink:href="CAB58F35.png"  transform="matrix(1 0 0 1 237 228)">
						</image>
					</g>
					<g>
						<image style="overflow:visible;" width="76" height="77" xlink:href="CAB58F36.png"  transform="matrix(1 0 0 1 252 183)">
						</image>
					</g>
					<g>
						<image style="overflow:visible;" width="75" height="76" xlink:href="CAB58F34.png"  transform="matrix(1 0 0 1 259 123)">
						</image>
					</g>
					<g>
						<image style="overflow:visible;" width="76" height="76" xlink:href="CAB58F33.png"  transform="matrix(1 0 0 1 234 124)">
						</image>
					</g>
					<g>
						<image style="overflow:visible;" width="75" height="76" xlink:href="CAB58F2D.png"  transform="matrix(1 0 0 1 231 144)">
						</image>
					</g>
					<g>
						<image style="overflow:visible;" width="75" height="76" xlink:href="CAB58F2E.png"  transform="matrix(1 0 0 1 243 134)">
						</image>
					</g>
					<g>
						<image style="overflow:visible;" width="76" height="75" xlink:href="CAB58F2C.png"  transform="matrix(1 0 0 1 262 83)">
						</image>
					</g>
					<g>
						<image style="overflow:visible;" width="76" height="76" xlink:href="CAB58F09.png"  transform="matrix(1 0 0 1 244 98)">
						</image>
					</g>
					<g>
						<image style="overflow:visible;" width="76" height="75" xlink:href="CAB58F0F.png"  transform="matrix(1 0 0 1 261 51)">
						</image>
					</g>
					<g>
						<image style="overflow:visible;" width="76" height="76" xlink:href="CAB58F08.png"  transform="matrix(1 0 0 1 293 80)">
						</image>
					</g>
					<g>
						<image style="overflow:visible;" width="76" height="75" xlink:href="CAB58F0B.png"  transform="matrix(1 0 0 1 287 86)">
						</image>
					</g>
					<g>
						<image style="overflow:visible;" width="76" height="76" xlink:href="CAB58F07.png"  transform="matrix(1 0 0 1 326 183)">
						</image>
					</g>
					<g>
						<image style="overflow:visible;" width="76" height="76" xlink:href="CAB58F77.png"  transform="matrix(1 0 0 1 316 174)">
						</image>
					</g>
					<g>
						<image style="overflow:visible;" width="75" height="76" xlink:href="CAB58F79.png"  transform="matrix(1 0 0 1 241 192)">
						</image>
					</g>
					<g>
						<image style="overflow:visible;" width="76" height="75" xlink:href="CAB58F7B.png"  transform="matrix(1 0 0 1 264 255)">
						</image>
					</g>
					<g>
						<image style="overflow:visible;" width="75" height="75" xlink:href="CAB58F78.png"  transform="matrix(1 0 0 1 270 262)">
						</image>
					</g>
					<g>
						<image style="overflow:visible;" width="76" height="76" xlink:href="CAB58F7F.png"  transform="matrix(1 0 0 1 255 267)">
						</image>
					</g>
					<path class="st4" d="M364.5,252.6c0.7,1,1.9,1.3,2.6,0.7c0.7-0.6,0.7-1.8-0.1-2.8c-0.7-1-1.9-1.3-2.6-0.7
						C363.8,250.4,363.8,251.6,364.5,252.6z"/>
					<path class="st4" d="M340.1,276.6c0.7,1,1.9,1.3,2.6,0.7c0.7-0.6,0.7-1.8-0.1-2.8c-0.7-1-1.9-1.3-2.6-0.7
						C339.3,274.3,339.4,275.6,340.1,276.6z"/>
					<path class="st4" d="M289.6,247.3c0.7,1,1.9,1.3,2.6,0.7c0.7-0.6,0.7-1.8-0.1-2.8c-0.7-1-1.9-1.3-2.6-0.7
						C288.9,245,288.9,246.3,289.6,247.3z"/>
					<path class="st4" d="M353.1,344c0.7,1,1.9,1.3,2.6,0.7c0.7-0.6,0.7-1.8-0.1-2.8c-0.7-1-1.9-1.3-2.6-0.7
						C352.3,341.8,352.3,343,353.1,344z"/>
					<path class="st4" d="M312.4,317.1c0.6,0.7,1.4,1,2,0.5c0.5-0.4,0.5-1.4,0-2.1c-0.6-0.7-1.4-1-2-0.5
						C311.8,315.4,311.8,316.4,312.4,317.1z"/>
					<path class="st4" d="M316.9,348.6c0.7,1,1.9,1.3,2.6,0.7c0.7-0.6,0.7-1.8-0.1-2.8c-0.7-1-1.9-1.3-2.6-0.7
						C316.1,346.3,316.2,347.6,316.9,348.6z"/>
					<path class="st4" d="M290.8,280.2c0.7,1,1.9,1.3,2.6,0.7c0.7-0.6,0.7-1.8-0.1-2.8c-0.7-1-1.9-1.3-2.6-0.7
						S290,279.3,290.8,280.2z"/>
					<path class="st4" d="M306.4,269.2c0.7,1,1.9,1.3,2.6,0.7c0.7-0.6,0.7-1.8-0.1-2.8c-0.7-1-1.9-1.3-2.6-0.7
						C305.6,266.9,305.6,268.2,306.4,269.2z"/>
					<path class="st4" d="M307.4,205.5c0.7,1,1.9,1.3,2.6,0.7c0.7-0.6,0.7-1.8-0.1-2.8c-0.7-1-1.9-1.3-2.6-0.7
						C306.6,203.3,306.6,204.5,307.4,205.5z"/>
					<path class="st4" d="M331.9,152.7c0.7,1,1.9,1.3,2.6,0.7c0.7-0.6,0.7-1.8-0.1-2.8c-0.7-1-1.9-1.3-2.6-0.7
						C331.2,150.4,331.2,151.7,331.9,152.7z"/>
					<path class="st4" d="M289.4,130.6c0.7,1,1.9,1.3,2.6,0.7c0.7-0.6,0.7-1.8-0.1-2.8c-0.7-1-1.9-1.3-2.6-0.7
						C288.6,128.4,288.6,129.6,289.4,130.6z"/>
					<path class="st4" d="M326.6,189.5c0.7,1,1.9,1.3,2.6,0.7c0.7-0.6,0.7-1.8-0.1-2.8c-0.7-1-1.9-1.3-2.6-0.7
						C325.9,187.3,325.9,188.5,326.6,189.5z"/>
					<path class="st4" d="M343.5,232c0.7,1,1.9,1.3,2.6,0.7c0.7-0.6,0.7-1.8-0.1-2.8c-0.7-1-1.9-1.3-2.6-0.7
						C342.8,229.8,342.8,231.1,343.5,232z"/>
					<path class="st4" d="M278.3,219.1c0.7,1,1.9,1.3,2.6,0.7c0.7-0.6,0.7-1.8-0.1-2.8c-0.7-1-1.9-1.3-2.6-0.7
						C277.5,216.9,277.6,218.1,278.3,219.1z"/>
					<path class="st4" d="M386.8,344.2c0.7,1,1.9,1.3,2.6,0.7c0.7-0.6,0.7-1.8-0.1-2.8s-1.9-1.3-2.6-0.7
						C386,342,386,343.3,386.8,344.2z"/>
					<path class="st4" d="M371.1,374.2c0.7,1,1.9,1.3,2.6,0.7c0.7-0.6,0.7-1.8-0.1-2.8c-0.7-1-1.9-1.3-2.6-0.7
						C370.3,371.9,370.4,373.2,371.1,374.2z"/>
					<path class="st4" d="M283.4,195.2c0.7,1,1.9,1.3,2.6,0.7c0.7-0.6,0.7-1.8-0.1-2.8c-0.7-1-1.9-1.3-2.6-0.7
						C282.7,193,282.7,194.3,283.4,195.2z"/>
					<path class="st4" d="M340.1,276.6c0.7,1,1.9,1.3,2.6,0.7c0.7-0.6,0.7-1.8-0.1-2.8c-0.7-1-1.9-1.3-2.6-0.7
						C339.3,274.3,339.4,275.6,340.1,276.6z"/>
					<path class="st4" d="M391,314.7c0.6,0.7,1.4,1,2,0.5c0.5-0.4,0.5-1.4,0-2.1c-0.6-0.7-1.4-1-2-0.5
						C390.4,313,390.4,314,391,314.7z"/>
					<path class="st4" d="M379,324c0.6,0.7,1.4,1,2,0.5c0.5-0.4,0.5-1.4,0-2.1s-1.4-1-2-0.5C378.4,322.4,378.4,323.3,379,324z"/>
					<path class="st4" d="M429.5,345.8c0.6,0.7,1.4,1,2,0.5c0.5-0.4,0.5-1.4,0-2.1c-0.6-0.7-1.4-1-2-0.5
						C428.9,344.2,428.9,345.1,429.5,345.8z"/>
					<path class="st4" d="M410.5,353.2c0.6,0.7,1.4,1,2,0.5c0.5-0.4,0.5-1.4,0-2.1s-1.4-1-2-0.5C410,351.5,410,352.4,410.5,353.2z"
						/>
					<path class="st4" d="M394.3,359c0.6,0.7,1.4,1,2,0.5c0.5-0.4,0.5-1.4,0-2.1c-0.6-0.7-1.4-1-2-0.5
						C393.8,357.3,393.8,358.3,394.3,359z"/>
					<path class="st4" d="M321.5,274.6c0.5,0.6,1.2,0.8,1.7,0.4c0.5-0.4,0.4-1.2,0-1.8c-0.5-0.6-1.2-0.8-1.7-0.4
						C321,273.2,321,274,321.5,274.6z"/>
					<path class="st4" d="M332.4,254.1c0.5,0.6,1.2,0.8,1.7,0.4c0.5-0.4,0.4-1.2,0-1.8c-0.5-0.6-1.2-0.8-1.7-0.4
						C332,252.7,332,253.5,332.4,254.1z"/>
					<path class="st4" d="M363.7,279.2c0.5,0.6,1.2,0.8,1.7,0.4c0.5-0.4,0.4-1.2,0-1.8c-0.5-0.6-1.2-0.8-1.7-0.4
						C363.3,277.8,363.3,278.6,363.7,279.2z"/>
					<path class="st4" d="M334.6,296.9c0.5,0.6,1.2,0.8,1.7,0.4c0.5-0.4,0.4-1.2,0-1.8c-0.5-0.6-1.2-0.8-1.7-0.4
						C334.2,295.5,334.2,296.3,334.6,296.9z"/>
					<path class="st4" d="M322.2,294.2c0.5,0.6,1.2,0.8,1.7,0.4s0.4-1.2,0-1.8c-0.5-0.6-1.2-0.8-1.7-0.4S321.7,293.5,322.2,294.2z"
						/>
					<path class="st4" d="M291.1,293.9c0.5,0.6,1.2,0.8,1.7,0.4c0.5-0.4,0.4-1.2,0-1.8c-0.5-0.6-1.2-0.8-1.7-0.4
						C290.6,292.5,290.6,293.3,291.1,293.9z"/>
					<path class="st4" d="M277.8,282.1c0.5,0.6,1.2,0.8,1.7,0.4c0.5-0.4,0.4-1.2,0-1.8c-0.5-0.6-1.2-0.8-1.7-0.4
						C277.3,280.7,277.3,281.5,277.8,282.1z"/>
					<path class="st4" d="M290.8,268.1c0.5,0.6,1.2,0.8,1.7,0.4s0.4-1.2,0-1.8s-1.2-0.8-1.7-0.4
						C290.3,266.7,290.4,267.5,290.8,268.1z"/>
				</g>
			</g>
			<polyline class="st7" points="312.8,54.7 336.3,101.6 349.2,152.9 365.9,172.3 367.1,194.9 389.8,205.2 410.1,263.2 395,275.8 
				424.3,288.8 469.8,343.5 467.2,378.2 462.7,387.1 			"/>
		</g>
		<g>
			<image style="overflow:visible;" width="80" height="80" xlink:href="CAB58F5C.png"  transform="matrix(1 0 0 1 234 116)">
			</image>
		</g>
		<g>
			<image style="overflow:visible;" width="80" height="80" xlink:href="CAB58F5F.png"  transform="matrix(1 0 0 1 207 169)">
			</image>
		</g>
		<g>
			<image style="overflow:visible;" width="80" height="80" xlink:href="CAB58F5D.png"  transform="matrix(1 0 0 1 235 184)">
			</image>
		</g>
		<g>
			<image style="overflow:visible;" width="80" height="80" xlink:href="CAB58F23.png"  transform="matrix(1 0 0 1 235 184)">
			</image>
		</g>
		<g>
			<image style="overflow:visible;" width="80" height="80" xlink:href="CAB58F24.png"  transform="matrix(1 0 0 1 261 169)">
			</image>
		</g>
		<g>
			<image style="overflow:visible;" width="80" height="80" xlink:href="CAB58F27.png"  transform="matrix(1 0 0 1 301 163)">
			</image>
		</g>
		<g>
			<image style="overflow:visible;" width="80" height="80" xlink:href="CAB58F25.png"  transform="matrix(1 0 0 1 316 171)">
			</image>
		</g>
		<g>
			<image style="overflow:visible;" width="80" height="80" xlink:href="CAB58F22.png"  transform="matrix(1 0 0 1 317 220)">
			</image>
		</g>
		<g>
			<image style="overflow:visible;" width="80" height="80" xlink:href="CAB58F2F.png"  transform="matrix(1 0 0 1 284 209)">
			</image>
		</g>
		<g>
			<image style="overflow:visible;" width="80" height="80" xlink:href="CAB58F21.png"  transform="matrix(1 0 0 1 347 168)">
			</image>
		</g>
		<g>
			<image style="overflow:visible;" width="80" height="80" xlink:href="CAB58FC3.png"  transform="matrix(1 0 0 1 370 153)">
			</image>
		</g>
		<g>
			<image style="overflow:visible;" width="80" height="80" xlink:href="CAB58FC1.png"  transform="matrix(1 0 0 1 334 102)">
			</image>
		</g>
		<g>
			<image style="overflow:visible;" width="80" height="80" xlink:href="CAB58FCF.png"  transform="matrix(1 0 0 1 327 50)">
			</image>
		</g>
		<g>
			<image style="overflow:visible;" width="80" height="80" xlink:href="CAB58FC2.png"  transform="matrix(1 0 0 1 267 82)">
			</image>
		</g>
		<g>
			<image style="overflow:visible;" width="80" height="80" xlink:href="CAB58FC5.png"  transform="matrix(1 0 0 1 228 55)">
			</image>
		</g>
		<g>
			<image style="overflow:visible;" width="80" height="80" xlink:href="CAB58FC6.png"  transform="matrix(1 0 0 1 212 80)">
			</image>
		</g>
		<g>
			<image style="overflow:visible;" width="80" height="80" xlink:href="CAB58FC7.png"  transform="matrix(1 0 0 1 257 25)">
			</image>
		</g>
		<g>
			<image style="overflow:visible;" width="80" height="80" xlink:href="CAB58FDC.png"  transform="matrix(1 0 0 1 295 14)">
			</image>
		</g>
		<g>
			<image style="overflow:visible;" width="80" height="80" xlink:href="CAB58FDD.png"  transform="matrix(1 0 0 1 383 204)">
			</image>
		</g>
		<g>
			<image style="overflow:visible;" width="80" height="80" xlink:href="CAB58FDE.png"  transform="matrix(1 0 0 1 365 220)">
			</image>
		</g>
		<g>
			<image style="overflow:visible;" width="80" height="80" xlink:href="CAB58FFA.png"  transform="matrix(1 0 0 1 344 238)">
			</image>
		</g>
		<g>
			<image style="overflow:visible;" width="80" height="80" xlink:href="CAB58FF9.png"  transform="matrix(1 0 0 1 322 298)">
			</image>
		</g>
		<g>
			<image style="overflow:visible;" width="80" height="80" xlink:href="CAB58FFE.png"  transform="matrix(1 0 0 1 292 268)">
			</image>
		</g>
		<g>
			<image style="overflow:visible;" width="80" height="80" xlink:href="CAB58FF8.png"  transform="matrix(1 0 0 1 383 252)">
			</image>
		</g>
		<g>
			<image style="overflow:visible;" width="80" height="80" xlink:href="CAB58FFB.png"  transform="matrix(1 0 0 1 396 237)">
			</image>
		</g>
		<g>
			<image style="overflow:visible;" width="80" height="80" xlink:href="CAB58FF7.png"  transform="matrix(1 0 0 1 436 290)">
			</image>
		</g>
		<g>
			<image style="overflow:visible;" width="80" height="80" xlink:href="CAB58FE6.png"  transform="matrix(1 0 0 1 426 305)">
			</image>
		</g>
		<g>
			<image style="overflow:visible;" width="80" height="80" xlink:href="CAB58FE9.png"  transform="matrix(1 0 0 1 384 371)">
			</image>
		</g>
		<g>
			<image style="overflow:visible;" width="80" height="80" xlink:href="CAB58FEA.png"  transform="matrix(1 0 0 1 336 349)">
			</image>
		</g>
		<g>
			<image style="overflow:visible;" width="80" height="80" xlink:href="CAB58FE8.png"  transform="matrix(1 0 0 1 336 331)">
			</image>
		</g>
		<g>
			<image style="overflow:visible;" width="80" height="80" xlink:href="CAB58F95.png"  transform="matrix(1 0 0 1 347 309)">
			</image>
		</g>
		<g>
			<image style="overflow:visible;" width="77" height="76" xlink:href="CAB58F8B.png"  transform="matrix(1 0 0 1 336 341)">
			</image>
		</g>
		<g>
			<image style="overflow:visible;" width="76" height="76" xlink:href="CAB58F8D.png"  transform="matrix(1 0 0 1 383 356)">
			</image>
		</g>
		<g>
			<image style="overflow:visible;" width="77" height="77" xlink:href="CAB58F8F.png"  transform="matrix(1 0 0 1 401 328)">
			</image>
		</g>
		<g>
			<image style="overflow:visible;" width="77" height="76" xlink:href="CAB58F8C.png"  transform="matrix(1 0 0 1 385 309)">
			</image>
		</g>
		<g>
			<image style="overflow:visible;" width="76" height="77" xlink:href="CAB58FB4.png"  transform="matrix(1 0 0 1 407 282)">
			</image>
		</g>
		<g>
			<image style="overflow:visible;" width="76" height="76" xlink:href="CAB58FB5.png"  transform="matrix(1 0 0 1 371 276)">
			</image>
		</g>
		<g>
			<image style="overflow:visible;" width="76" height="76" xlink:href="CAB58FB7.png"  transform="matrix(1 0 0 1 358 275)">
			</image>
		</g>
		<g>
			<image style="overflow:visible;" width="77" height="76" xlink:href="CAB58FB3.png"  transform="matrix(1 0 0 1 319 272)">
			</image>
		</g>
		<g>
			<image style="overflow:visible;" width="77" height="77" xlink:href="CAB58FBB.png"  transform="matrix(1 0 0 1 282 284)">
			</image>
		</g>
		<g>
			<image style="overflow:visible;" width="76" height="76" xlink:href="4C3D9E37.png"  transform="matrix(1 0 0 1 288 257)">
			</image>
		</g>
		<g>
			<image style="overflow:visible;" width="77" height="76" xlink:href="4C3D9E31.png"  transform="matrix(1 0 0 1 255 238)">
			</image>
		</g>
		<g>
			<image style="overflow:visible;" width="76" height="76" xlink:href="4C3D9E33.png"  transform="matrix(1 0 0 1 259 225)">
			</image>
		</g>
		<g>
			<image style="overflow:visible;" width="76" height="76" xlink:href="4C3D9E3E.png"  transform="matrix(1 0 0 1 242 222)">
			</image>
		</g>
		<g>
			<image style="overflow:visible;" width="77" height="76" xlink:href="4C3D9E3F.png"  transform="matrix(1 0 0 1 221 208)">
			</image>
		</g>
		<g>
			<image style="overflow:visible;" width="76" height="76" xlink:href="4C3D9E32.png"  transform="matrix(1 0 0 1 259 180)">
			</image>
		</g>
		<g>
			<image style="overflow:visible;" width="76" height="77" xlink:href="4C3D9E35.png"  transform="matrix(1 0 0 1 284 178)">
			</image>
		</g>
		<g>
			<image style="overflow:visible;" width="77" height="76" xlink:href="4C3D9E36.png"  transform="matrix(1 0 0 1 267 153)">
			</image>
		</g>
		<g>
			<image style="overflow:visible;" width="77" height="76" xlink:href="4C3D9E34.png"  transform="matrix(1 0 0 1 248 159)">
			</image>
		</g>
		<g>
			<image style="overflow:visible;" width="76" height="77" xlink:href="4C3D9E2C.png"  transform="matrix(1 0 0 1 226 155)">
			</image>
		</g>
		<g>
			<image style="overflow:visible;" width="76" height="76" xlink:href="4C3D9E16.png"  transform="matrix(1 0 0 1 226 112)">
			</image>
		</g>
		<g>
			<image style="overflow:visible;" width="76" height="76" xlink:href="4C3D9E09.png"  transform="matrix(1 0 0 1 213 108)">
			</image>
		</g>
		<g>
			<image style="overflow:visible;" width="76" height="76" xlink:href="4C3D9E0A.png"  transform="matrix(1 0 0 1 248 78)">
			</image>
		</g>
		<g>
			<image style="overflow:visible;" width="77" height="76" xlink:href="4C3D9E08.png"  transform="matrix(1 0 0 1 297 56)">
			</image>
		</g>
		<g>
			<image style="overflow:visible;" width="76" height="76" xlink:href="4C3D9E0E.png"  transform="matrix(1 0 0 1 312 46)">
			</image>
		</g>
		<g>
			<image style="overflow:visible;" width="76" height="76" xlink:href="4C3D9E0B.png"  transform="matrix(1 0 0 1 266 8)">
			</image>
		</g>
		<g>
			<image style="overflow:visible;" width="76" height="76" xlink:href="4C3D9E06.png"  transform="matrix(1 0 0 1 306 -6)">
			</image>
		</g>
		<g>
			<image style="overflow:visible;" width="76" height="76" xlink:href="4C3D9E07.png"  transform="matrix(1 0 0 1 308 117)">
			</image>
		</g>
		<g>
			<image style="overflow:visible;" width="76" height="76" xlink:href="4C3D9EF6.png"  transform="matrix(1 0 0 1 270 123)">
			</image>
		</g>
		<g>
			<image style="overflow:visible;" width="76" height="76" xlink:href="4C3D9EF9.png"  transform="matrix(1 0 0 1 285 122)">
			</image>
		</g>
		<g>
			<image style="overflow:visible;" width="76" height="76" xlink:href="4C3D9EE5.png"  transform="matrix(1 0 0 1 367 177)">
			</image>
		</g>
		<g>
			<image style="overflow:visible;" width="76" height="76" xlink:href="4C3D9EE7.png"  transform="matrix(1 0 0 1 357 193)">
			</image>
		</g>
		<g>
			<image style="overflow:visible;" width="76" height="76" xlink:href="4C3D9EE4.png"  transform="matrix(1 0 0 1 337 223)">
			</image>
		</g>
		<g>
			<image style="overflow:visible;" width="76" height="77" xlink:href="4C3D9EDB.png"  transform="matrix(1 0 0 1 318 185)">
			</image>
		</g>
		<g>
			<image style="overflow:visible;" width="77" height="76" xlink:href="4C3D9EDD.png"  transform="matrix(1 0 0 1 332 145)">
			</image>
		</g>
	</g>
	<g>
		<g>
			<g>
				<path class="st4" d="M82.4,233c-0.3,0.4-0.8,0.5-1.2,0.2c-0.4-0.3-0.5-0.8-0.2-1.2c0.3-0.4,0.8-0.5,1.2-0.2
					C82.5,232.1,82.6,232.7,82.4,233z"/>
				<g>
					<image style="overflow:visible;" width="75" height="75" xlink:href="4C3D9EDF.png"  transform="matrix(1 0 0 1 44 195)">
					</image>
				</g>
				<g>
					<image style="overflow:visible;" width="74" height="74" xlink:href="4C3D9EDC.png"  transform="matrix(1 0 0 1 45 196)">
					</image>
				</g>
			</g>
		</g>
		<g>
			<polyline class="st12" points="43.4,135.1 45.1,146.8 52.5,152.1 			"/>
			<line class="st12" x1="45.1" y1="146.8" x2="39.1" y2="153.4"/>
			<polyline class="st12" points="39.1,153.4 46.9,157.8 52.5,152.1 			"/>
			<line class="st12" x1="45.7" y1="171.8" x2="46.9" y2="157.8"/>
			<path class="st12" d="M43.4,135.1c-0.1-0.3-3.2-10-3.2-10l3.7-2L43.4,135.1"/>
			<polyline class="st12" points="43.3,134.9 35.5,137.1 41,144.4 32.2,140 40.1,148.4 37.1,149.5 			"/>
			<polyline class="st12" points="40.6,111.9 42.9,119.5 44,112.2 			"/>
			<polyline class="st12" points="43.4,134.9 47.9,137.7 43.6,130.4 45.6,129.1 			"/>
			<polyline class="st12" points="56.8,153.1 52.7,152.2 53.6,147.6 46.3,140.4 47.9,137.7 45,137.8 			"/>
			<polyline class="st12" points="48.1,137.7 51.2,135.4 51.5,143.7 55.4,145.4 53.6,147.6 56.1,149.3 55.5,150.6 			"/>
			<path class="st12" d="M51.2,135.4c-0.6-0.9-5.2-10.6-5.2-10.7c0-0.1,1.2-2.1,1.2-2.1l-2.3-5.3"/>
			<path class="st12" d="M56.8,153.1l-1.3,19.2l-0.4-19.6c0,0-2.1,2.1-2,2.3"/>
			<polyline class="st12" points="57.9,158.9 56.4,160.2 59,164.7 56,165.6 60.4,172.7 55.5,172.3 			"/>
			<polyline class="st12" points="60.4,172.7 55.7,178.7 59.2,186.1 57.4,172.6 			"/>
			<polyline class="st12" points="58.4,195.6 56.4,191.4 58.8,189.9 55.9,184.4 59.2,186.1 			"/>
			<polyline class="st12" points="55.4,172.2 51.3,165 52.5,152.1 			"/>
			<line class="st12" x1="45.7" y1="171.8" x2="51.3" y2="165"/>
			<polyline class="st12" points="45.7,171.8 52.7,182.7 55.4,172.2 			"/>
			<polyline class="st12" points="52.7,182.7 56.1,187.6 53.2,191.4 56.4,194.6 45.7,172 			"/>
			<polygon class="st12" points="39.4,170.1 39.1,153.4 35.7,152.9 			"/>
			<polyline class="st12" points="24.9,159 39.4,170.1 35.7,152.9 24.9,159 			"/>
			<polyline class="st12" points="24.9,159 55.7,197.7 39.4,170.1 43.9,167.3 39.2,161.5 41.4,160.5 			"/>
			<polyline class="st12" points="49.7,182.4 45.5,180.4 46.9,175.3 39.4,170.1 33.3,160.8 35.7,152.9 			"/>
			<polyline class="st12" points="33,147 35.7,152.9 37.1,149.5 33,147 			"/>
			<line class="st12" x1="24.9" y1="159" x2="33.3" y2="160.8"/>
			<line class="st12" x1="27.3" y1="145.5" x2="35.7" y2="152.9"/>
			<polyline class="st12" points="35.7,152.9 29.1,152.9 27.3,145.5 			"/>
			<line class="st12" x1="24.9" y1="159" x2="29.1" y2="152.9"/>
			<polyline class="st12" points="39.4,170.1 40.2,178.2 45.5,180.4 47.2,187.1 49.8,187.9 			"/>
			<polyline class="st12" points="46.5,188.7 48.2,197 52.3,195.4 54.8,199.3 			"/>
			<path class="st12" d="M33.4,171.9c1.2,1.5,8,15,8,15l5.1,1.9"/>
			<line class="st12" x1="40.6" y1="193.8" x2="41.4" y2="186.8"/>
			<path class="st4" d="M27.9,209.1l-13.2-15l23.9,8.5l0,0l0,0l0,0l0,0l17.6-2.5c0.1-0.1,0.2-0.2,0.3-0.3l-1.1-27.4l0,0c0,0,0,0,0,0
				c0,0,0,0,0,0l-2.8-20.1l0,0l0,0l0,0l0,0l0,0l0,0l0,0l-9.3-17.2c0,0,0,0-0.1,0c0,0,0,0,0,0l-4.3,18.4l-6.7-13.6l3.3-2.5l0,0l0,0
				l0,0l1.7-2.9l0,0l0,0l0,0l2.4-8.1l3.3-6.3c0,0,5,17.9,5,17.9c0,0,0,0,0,0c0,0,0,0,0,0l8.9,15.4l3.6,19.5l-2.4,25.2
				c0.3-0.6,0.7-1.1,1.1-1.6l-0.7-0.7l2.1-22.9c0,0,0,0,0,0l-5-27.2c0,0,0,0,0,0l-4.2-10l-7.2-23.2l0,0l0,0l0,0l0,0l0,0l0,0l0,0l0,0
				l0,0l0,0c0,0,0,0,0,0l0,0c0,0,0,0,0,0l-3.4-0.4l0,0l0,0l0,0l0,0c0,0,0,0,0,0l0,0l-4.4,11.6c0,0,0,0,0,0l-0.7,13.6l-3.4,2.5l0,0
				l0,0l0,0c0,0,0,0,0,0l0,0c0,0,0,0,0,0l0.8,7.3l-5.6-1.6c0,0,0,0,0,0c0,0,0,0,0,0l0,0c0,0,0,0,0,0c0,0,0,0,0,0c0,0,0,0,0,0
				c0,0,0,0,0,0c0,0,0,0,0,0l-2.5,13.8l0,0c0,0,0,0,0,0l0,0l0,0l0,0l0,0l0,0l0,0l0,0c0,0,0,0,0,0l6.7,10l-9.9-2.4l0,0l0,0l0,0l0,0
				l0,0l0,0l-10.6,10.5l0,0l0,0l0,0c0,0,0,0,0,0c0,0,0,0,0,0v0l0,0c0,0,0,0,0,0c0,0,0,0,0,0l0,0l3.5,16.3l0,0l0,0l0,0l0,0l13.5,15.3
				c0,0,0,0,0.1,0l23.8-1.8c0-0.1,0.1-0.1,0.1-0.2L27.9,209.1z M45.6,117.4l5.6,18c0,0,0,0,0,0l4.2,10l1.4,7.4l-8.7-15.1l-3.2-20.4
				L45.6,117.4z M44,112.2l2.9,18.6l-0.7-0.1L43,119.6c0,0,0,0,0,0c0,0,0,0,0,0c0,0-0.1,0-0.1,0l-3.3,6.4c0,0,0,0,0,0l-0.3,0.9
				l-0.8-0.7l2.1-14.2L44,112.2z M35.7,134.3l0.6-10.9l2.6-6.8l0.8,0.8L37.1,134l-0.6,1.1L35.7,134.3z M38.8,202.4l1.7-8.4l13.7,5.2
				l0.1,1.1L38.8,202.4z M40.4,193.7l-7.7-21.3l0.7-0.5l13,16.8L40.4,193.7z M46.5,188.9l8.5,9.5l-0.2,0.9l-14.2-5.4L46.5,188.9z
				 M56.6,199.7L45.7,172l9.7,0.5L56.6,199.7z M55.4,172.2l-9.7-0.5l6.9-19.3L55.4,172.2z M52.5,152.3l-6.9,19.3l-6.5-18.1
				L52.5,152.3z M43.4,135.1l9.2,17l-13.4,1.3L43.4,135.1z M33,147C33,147,33,147,33,147C33,147,33,147,33,147l-0.7-7.1l6.6,13.4
				l-3.2-0.5l-6.4-5.7l0.1-1.1L33,147z M24.9,159l2.4-13.4l8.2,7.4l-4.8,2.7L24.9,159z M24.9,159.2l5.9-3.4l4.9-2.7l3.2,0.5
				l6.6,18.3l0,0l10.1,25.8l-0.5,0.6l-8.6-9.6l-14.9-19.4L24.9,159.2z M31.5,169.5l7.5,20.9l-0.7,0.5l-16.7-23.7L31.5,169.5z
				 M21.5,167.1l18.8,26.8l-1.7,8.5L11,177.5L21.5,167.1z M14.5,193.8l-3.5-16l25.1,22.6l-0.3,1.1L14.5,193.8z"/>
			<polyline class="st13" points="31.6,169.3 31.2,175.9 21.7,167.1 23.8,180.3 35.6,194.5 40.6,193.8 43.8,198.4 54.2,199.2 			"/>
			<line class="st13" x1="31.2" y1="175.9" x2="39.1" y2="190.3"/>
			<polyline class="st13" points="43.8,198.4 38.8,202.4 35.6,194.5 37.3,189.7 32.7,191 34.1,185.1 29.1,186.7 29.9,178.7 
				23.8,180.3 11,177.5 19.3,190.4 36.2,200.3 			"/>
			<polyline class="st13" points="56.3,200.2 51.9,203.7 39.9,205.6 30.8,204.2 14.7,194.1 19.3,190.4 			"/>
			<polyline class="st13" points="51.9,207.4 51.9,203.7 39.4,208.1 			"/>
			<polyline class="st13" points="38.8,202.4 39.9,205.6 39.4,208.1 30.8,204.2 27.9,209.1 			"/>
			<line class="st13" x1="51.9" y1="203.7" x2="49" y2="201.2"/>
			<line class="st13" x1="30.8" y1="204.2" x2="31.4" y2="199.8"/>
			<polyline class="st13" points="23.8,180.3 24.5,189.7 29.1,186.7 29.9,194.5 32.7,191 34.1,198.3 35.6,194.5 			"/>
		</g>
		<g>
			<g>
				<image style="overflow:visible;" width="73" height="73" xlink:href="4C3D9E24.png"  transform="matrix(1 0 0 1 112 148)">
				</image>
			</g>
			<path class="st4" d="M148.2,184.5L148.2,184.5L148.2,184.5l-1.6-3.1l0,0l0,0c0,0,0,0,0,0l0,0l0,0l0,0l0,0l0,0l0,0l0,0l0,0l0,0
				l0,0l-24.5,2l-10.9-0.1c0,0,0,0,0,0l-7.7,1.6l-19.5,4c0,0,0,0,0,0l-20.4,10.5l-0.7-0.4c-0.5,0.5-0.8,1-1.1,1.5l22.3-11.5
				l19.5-3.9l17.6,2.5c0,0,0,0,0,0l0,0c0,0,18.7-2.1,18.7-2.1l-4.7,5.4l-6.7,5.3l0,0l0,0l-2.1,2.7l0,0l0,0l0,0l0,0l-1.1,4l-15.3-1.2
				l15.7-10.9c0,0,0,0,0-0.1c0,0,0,0-0.1,0l-19.6-2.2l0,0l0,0l0,0l0,0l0,0l-19.8,4.9l0,0c0,0,0,0,0,0l0,0L60,202.4l0-0.1
				c-0.1,0.1-0.2,0.3-0.3,0.4l4,17.3l0,0l0,0l0,0l0,0l0,0l16.4,19.1l-18.6-6.8l-6.8-22.7l0.1-0.1c-0.1,0.1-0.2,0.2-0.2,0.3l6.8,22.6
				c0,0,0,0,0.1,0.1l19.1,7l0,0l0,0l0,0c0,0,0,0,0,0l16.5-2.7l0,0c0,0,0,0,0,0c0,0,0,0,0,0l0,0c0,0,0,0,0,0l0,0l0,0c0,0,0,0,0,0
				l6-13.8l0,0l0,0c0,0,0,0,0,0c0,0,0,0,0,0l0,0l0,0c0,0,0,0,0,0l-5.8-8.3l11.8,2.5c0,0,0,0,0,0h0l0,0l0,0l0,0l0,0c0,0,0,0,0,0l0,0
				l0,0c0,0,0,0,0,0l12-7.5c0,0,0,0,0,0c0,0,0,0,0,0c0,0,0,0,0,0c0,0,0,0,0,0l0,0c0,0,0,0,0,0c0,0,0,0,0,0c0,0,0,0,0,0c0,0,0,0,0,0
				l-3.5-4.7l7.1-1.9l0,0l0,0l0,0l0,0l0,0l0,0c0,0,1.1-4.1,1.1-4.1l12.6-5.8c0,0,0,0,0,0L148.2,184.5L148.2,184.5L148.2,184.5
				L148.2,184.5L148.2,184.5z M125,190.6l-15.6,10.8l-3.7-13L125,190.6z M105.6,188.6l3.7,13L90,202.2L105.6,188.6z M105.4,188.5
				l-15.5,13.6l-3.9-8.8L105.4,188.5z M85.7,193.4l3.9,8.8L60,202.4L85.7,193.4z M71.2,215.1l-10.1-11.1l0.8-0.5l11.8,4.4
				L71.2,215.1z M73.8,207.8l20.3,5.8l-0.2,0.8l-22.6,0.7L73.8,207.8z M60.3,204.8l1-0.3l9.7,10.8l-7.2,4.6L60.3,204.8z M80.6,239.4
				l-14.8-17.1l0.9-0.6l30.1,15.1L80.6,239.4z M97,236.6L64,220l7.2-4.7l31.7,7.6L97,236.6z M102.8,222.8L74.7,216l0.2-0.8l22.1-0.7
				L102.8,222.8z M97.2,214.3l-23.3-6.7l0,0l0,0l-12-4.4l0.4-0.7l27.6-0.2l0,0l19.5-0.7l1.6,2.8l-0.8,5.6l-1.1,6.8L97.2,214.3z
				 M109.3,216.8l1.1-6.7l0.7-5.5l9.9,4.9L109.3,216.8z M117.6,204.7C117.6,204.7,117.6,204.7,117.6,204.7
				C117.6,204.8,117.6,204.8,117.6,204.7l2.2,3.1l-1,0.5l-7.7-3.8l-1.6-2.8l15,1.2L117.6,204.7z M120.9,187.2l-17.3-2.4l7.4-1.5
				l10.9,0.1c0,0,0,0,0,0l19-1.5l0.4,0.6L120.9,187.2z M138.6,192.8l-10.1,4.6l-1-0.5l0.8-1l14.8-8.6l1,0.4L138.6,192.8z
				 M135.3,191.8l-1-0.5l0.8-0.6c0,0,0,0,0,0l4.8-5.5c0,0,0,0,0-0.1c0,0,0,0-0.1,0c0,0,0,0,0,0l-11.7,1.3l-0.4-0.6l18.7-4.3l1.6,3
				L135.3,191.8z"/>
			<path class="st13" d="M61.9,202l1.3-2.8c0,0,4,0.6,4.1,0.7c0.2,0.1,3.4-4.4,3.4-4.4l5.7,1l-0.4-3.8l9.8,0.6l-2.2-4.5
				c0,0,8.2,0.9,8.6,0.9c0.4,0,12.8-3,12.8-3l-1.9-1.8"/>
			<path class="st13" d="M147.9,184.4"/>
			<polyline class="st13" points="105.7,188.5 105.1,186.7 120.9,187.2 125,190.6 			"/>
			<polyline class="st13" points="92.3,189.7 85.9,193.3 79.4,199.1 89.8,202.1 93.2,196.1 85.9,193.3 96.6,192.9 105.4,188.5 
				103.3,195.1 			"/>
			<polyline class="st13" points="59.8,202.4 74.9,199.6 71.6,198.3 			"/>
			<polyline class="st13" points="96.6,192.9 96.8,196 93.2,196.1 			"/>
			<polygon class="st13" points="96.8,196 103.3,195.1 109.2,201.5 100,199.4 			"/>
			<polyline class="st13" points="126,198.7 117.9,195.8 113.4,193.4 			"/>
			<line class="st13" x1="113.4" y1="193.4" x2="109.2" y2="201.5"/>
			<line class="st13" x1="125" y1="190.6" x2="135.1" y2="190.7"/>
			<polyline class="st13" points="121.9,183.4 120.9,187.2 105.4,188.5 113.4,193.4 125,190.6 126,198.7 109.2,201.5 96.8,196 
				85.9,193.3 			"/>
			<line class="st13" x1="110.9" y1="183.3" x2="120.9" y2="187.2"/>
			<polyline class="st13" points="146.3,181.5 139.9,185.1 147.9,184.4 			"/>
			<line class="st13" x1="125" y1="190.6" x2="139.9" y2="185.1"/>
			<polyline class="st13" points="89.8,202.1 76.5,205.8 73.3,202.2 74.9,199.6 79.4,199.1 			"/>
			<path class="st13" d="M99.8,211.3l-25.9-3.6l-11.6-5.1l14.3,3.3l17.9,2.3c0,0,16.5-3.7,16.7-3.7"/>
			<polyline class="st13" points="117.6,204.8 109.2,201.5 94.4,208.2 89.8,202.1 100,199.4 			"/>
			<line class="st13" x1="66.5" y1="206.8" x2="61.1" y2="203.9"/>
			<line class="st13" x1="64.5" y1="211.6" x2="60.6" y2="204.3"/>
			<polyline class="st13" points="73.9,207.7 79.4,212.2 71.2,215.1 74.1,220.4 63.9,219.9 64.5,211.6 71.2,215.1 66.5,206.8 
				73.9,207.7 76.5,205.8 			"/>
			<polyline class="st13" points="79.4,212.2 97.2,214.3 107.1,205.3 109.3,216.8 94.4,208.2 			"/>
			<polygon class="st13" points="74.1,220.4 102.8,222.8 97,236.6 			"/>
			<polyline class="st13" points="97.2,214.3 88.1,219.4 100,218.6 			"/>
			<polygon class="st13" points="99.7,229.9 91.8,221.8 84.1,227.4 			"/>
			<line class="st13" x1="81.7" y1="232.3" x2="63.9" y2="219.9"/>
			<path class="st13" d="M67.3,230.5l13.3,8.9c-0.4-0.1,1.1-7.1,1.1-7.1l15.3,4.3"/>
			<polyline class="st13" points="61.1,220.3 58.1,221.3 58.1,208.2 59.7,203.2 61.1,220.3 67.3,230.5 61.6,232.4 			"/>
			<polyline class="st13" points="54.5,209.7 58.1,208.2 60.2,209.8 			"/>
			<polygon class="st13" points="116.8,207.4 110.3,209.3 115.8,212.8 			"/>
		</g>
		<g>
			<path class="st14" d="M60.8,197.4l-7,10.3c0,0-1.7-0.9-2.1-0.1"/>
			<path class="st14" d="M53.8,207.8c0,0,1.5,1.3,0.8,1.9"/>
			<path class="st4" d="M54.6,209.7c0.7-0.7-0.8-1.9-0.8-1.9l0,0c0,0-1.7-0.9-2.1-0.1l-2.9,7.4L54.6,209.7z"/>
			<polyline class="st14" points="58.9,196.6 60.8,197.5 62.3,198.9 			"/>
			<polygon class="st15" points="64.5,192.1 62.5,191.7 62.4,192.6 63.4,193.7 64.8,194.2 65.6,193.8 			"/>
			<polygon class="st16" points="61.9,192.5 63,193.8 60.8,194.4 			"/>
			<polygon class="st16" points="62.8,194.1 60.6,194.8 60,195.6 62.2,195 			"/>
			<polygon class="st16" points="59.8,196 59.4,196.5 60.7,197.1 61.9,195.4 			"/>
			<polygon class="st16" points="65.1,194.7 63.5,194.1 63.7,196.4 			"/>
			<polygon class="st16" points="63.2,194.5 63.4,196.7 62.9,197.6 62.7,195.3 			"/>
			<polygon class="st16" points="62.6,197.9 62.3,198.4 61.2,197.4 62.4,195.7 			"/>
			<line class="st16" x1="61" y1="197.2" x2="63.2" y2="194"/>
			<polygon class="st4" points="64.9,192.4 66,192.9 66,194 65.6,193.1 			"/>
			<polygon class="st4" points="64.1,191.8 63.2,190.9 62.1,191.3 63.1,191.4 			"/>
			<g>
				<path class="st4" d="M63.6,192.3l0.2,0l0,0.1L63.6,192.3 M62.7,191.9l1.1,0.7l0.3-0.4L62.7,191.9L62.7,191.9z"/>
			</g>
			<g>
				<path class="st4" d="M64.4,192.8l0.1,0.1L64.4,192.8L64.4,192.8 M64.4,192.4l-0.3,0.4l1.1,0.7L64.4,192.4L64.4,192.4z"/>
			</g>
			<g>
				<line class="st16" x1="65.8" y1="193" x2="69.5" y2="191.3"/>
			</g>
			<g>
				<line class="st16" x1="63.2" y1="191.1" x2="63.4" y2="187.1"/>
			</g>
			<path class="st4" d="M63.6,187.3c-0.1,0.1-0.3,0.1-0.4,0c-0.2-0.1-0.2-0.3-0.1-0.4c0.1-0.1,0.3-0.1,0.4,0
				C63.7,187,63.7,187.2,63.6,187.3z"/>
			<path class="st4" d="M69.8,191.5c-0.1,0.1-0.2,0.1-0.4,0c-0.2-0.1-0.2-0.3-0.2-0.4c0.1-0.1,0.2-0.1,0.4,0
				C69.8,191.2,69.9,191.4,69.8,191.5z"/>
			<polyline class="st14" points="51.7,207.7 49,214.8 56.7,207.6 63.1,197.7 65.8,194.7 66,194 65.6,193.1 64.5,192.1 64.5,192.1 
				63.1,191.5 62.2,191.4 61.6,191.8 59.8,195.5 52.9,205 49,214.8 			"/>
			<g>
				<polygon class="st4" points="58.9,197.1 60.3,197.7 58.7,197.2 				"/>
				<polygon class="st4" points="58.6,197.5 60,198.1 58.4,197.6 				"/>
				<polygon class="st4" points="58.3,197.9 59.8,198.5 58.2,198 				"/>
				<polygon class="st4" points="58,198.3 59.5,198.9 57.9,198.4 				"/>
				<polygon class="st4" points="57.7,198.7 59.2,199.3 57.6,198.9 				"/>
				<polygon class="st4" points="57.4,199.1 58.9,199.8 57.3,199.3 				"/>
				<polygon class="st4" points="57.1,199.6 58.6,200.2 57,199.7 				"/>
				<polygon class="st4" points="56.8,200 58.3,200.6 56.6,200.1 				"/>
				<polygon class="st4" points="56.5,200.4 58,201 56.3,200.6 				"/>
				<polygon class="st4" points="56.1,200.9 57.7,201.5 56,201 				"/>
				<polygon class="st4" points="55.8,201.3 57.4,201.9 55.7,201.5 				"/>
				<polygon class="st4" points="55.5,201.8 57.1,202.4 55.4,201.9 				"/>
				<polygon class="st4" points="55.2,202.2 56.8,202.8 55,202.4 				"/>
				<polygon class="st4" points="54.8,202.7 56.5,203.3 54.7,202.9 				"/>
				<polygon class="st4" points="54.5,203.2 56.1,203.8 54.4,203.4 				"/>
				<polygon class="st4" points="54.1,203.7 55.8,204.2 54,203.8 				"/>
				<polygon class="st4" points="53.8,204.2 55.5,204.7 53.7,204.3 				"/>
				<polygon class="st4" points="53.4,204.6 55.1,205.2 53.3,204.8 				"/>
				<polygon class="st4" points="53.1,205.1 54.8,205.7 53.1,205.3 				"/>
				<polygon class="st4" points="52.9,205.7 54.5,206.2 52.8,205.9 				"/>
				<polygon class="st4" points="52.6,206.2 54.1,206.7 52.5,206.4 				"/>
				<polygon class="st4" points="52.4,206.8 53.7,207.2 52.3,206.9 				"/>
			</g>
			<g>
				<polygon class="st4" points="61.9,199.2 60.8,198.1 61.9,199.3 				"/>
				<polygon class="st4" points="61.7,199.6 60.5,198.5 61.6,199.8 				"/>
				<polygon class="st4" points="61.4,200 60.2,198.9 61.3,200.2 				"/>
				<polygon class="st4" points="61.1,200.4 60,199.3 61,200.6 				"/>
				<polygon class="st4" points="60.8,200.9 59.7,199.7 60.7,201 				"/>
				<polygon class="st4" points="60.6,201.3 59.4,200.1 60.5,201.5 				"/>
				<polygon class="st4" points="60.3,201.7 59.1,200.5 60.2,201.9 				"/>
				<polygon class="st4" points="60,202.2 58.8,201 59.9,202.4 				"/>
				<polygon class="st4" points="59.7,202.6 58.5,201.4 59.6,202.8 				"/>
				<polygon class="st4" points="59.4,203.1 58.2,201.8 59.3,203.3 				"/>
				<polygon class="st4" points="59.1,203.6 57.9,202.3 59,203.7 				"/>
				<polygon class="st4" points="58.8,204 57.6,202.8 58.7,204.2 				"/>
				<polygon class="st4" points="58.5,204.5 57.3,203.2 58.4,204.7 				"/>
				<polygon class="st4" points="58.2,205 57,203.7 58,205.2 				"/>
				<polygon class="st4" points="57.8,205.5 56.7,204.1 57.7,205.7 				"/>
				<polygon class="st4" points="57.5,206 56.4,204.6 57.4,206.1 				"/>
				<polygon class="st4" points="57.2,206.5 56,205.1 57.1,206.6 				"/>
				<polygon class="st4" points="56.9,207 55.7,205.6 56.7,207.2 				"/>
				<polygon class="st4" points="56.5,207.5 55.4,206.1 56.4,207.6 				"/>
				<polygon class="st4" points="56.1,207.9 55,206.6 56,208 				"/>
				<polygon class="st4" points="55.7,208.3 54.7,207.1 55.5,208.5 				"/>
				<polygon class="st4" points="55.2,208.8 54.4,207.6 55.1,208.9 				"/>
			</g>
		</g>
		<g>
			<g>
				<path class="st4" d="M125.4,191.5c-0.3,0.4-0.8,0.5-1.2,0.2c-0.4-0.3-0.5-0.8-0.2-1.2c0.3-0.4,0.8-0.5,1.2-0.2
					C125.6,190.6,125.7,191.1,125.4,191.5z"/>
				<g>
					<image style="overflow:visible;" width="75" height="74" xlink:href="4C3D9E25.png"  transform="matrix(1 0 0 1 87 154)">
					</image>
				</g>
				<g>
					<image style="overflow:visible;" width="74" height="74" xlink:href="4C3D9E27.png"  transform="matrix(1 0 0 1 88 154)">
					</image>
				</g>
			</g>
		</g>
		<g>
			<g>
				<path class="st4" d="M97.7,196.7c-0.3,0.4-0.8,0.5-1.2,0.2c-0.4-0.3-0.5-0.8-0.2-1.2c0.3-0.4,0.8-0.5,1.2-0.2
					C97.8,195.8,97.9,196.3,97.7,196.7z"/>
				<g>
					<image style="overflow:visible;" width="74" height="75" xlink:href="4C3D9E40.png"  transform="matrix(1 0 0 1 60 159)">
					</image>
				</g>
				<g>
					<image style="overflow:visible;" width="74" height="74" xlink:href="4C3D9E47.png"  transform="matrix(1 0 0 1 60 159)">
					</image>
				</g>
			</g>
		</g>
		<g>
			<g>
				<path class="st4" d="M110,202.1c-0.3,0.4-0.8,0.5-1.2,0.2c-0.4-0.3-0.5-0.8-0.2-1.2c0.3-0.4,0.8-0.5,1.2-0.2
					C110.1,201.2,110.2,201.8,110,202.1z"/>
				<g>
					<image style="overflow:visible;" width="75" height="75" xlink:href="4C3D9E41.png"  transform="matrix(1 0 0 1 72 164)">
					</image>
				</g>
				<g>
					<image style="overflow:visible;" width="74" height="74" xlink:href="4C3D9E43.png"  transform="matrix(1 0 0 1 72 165)">
					</image>
				</g>
			</g>
		</g>
		<g>
			<g>
				<path class="st4" d="M90.5,202.8c-0.3,0.4-0.8,0.5-1.2,0.2c-0.4-0.3-0.5-0.8-0.2-1.2c0.3-0.4,0.8-0.5,1.2-0.2
					C90.7,201.9,90.8,202.4,90.5,202.8z"/>
				<g>
					<image style="overflow:visible;" width="74" height="75" xlink:href="4C3D9E4E.png"  transform="matrix(1 0 0 1 53 165)">
					</image>
				</g>
				<g>
					<image style="overflow:visible;" width="74" height="74" xlink:href="4C3D9E4F.png"  transform="matrix(1 0 0 1 53 165)">
					</image>
				</g>
			</g>
		</g>
		<g>
			<g>
				<path class="st4" d="M74.5,208.5c-0.3,0.4-0.8,0.5-1.2,0.2c-0.4-0.3-0.5-0.8-0.2-1.2c0.3-0.4,0.8-0.5,1.2-0.2
					C74.7,207.6,74.8,208.1,74.5,208.5z"/>
				<g>
					<image style="overflow:visible;" width="74" height="74" xlink:href="4C3D9E42.png"  transform="matrix(1 0 0 1 37 171)">
					</image>
				</g>
				<g>
					<image style="overflow:visible;" width="74" height="74" xlink:href="4C3D9E45.png"  transform="matrix(1 0 0 1 37 171)">
					</image>
				</g>
			</g>
		</g>
		<g>
			<g>
				<path class="st4" d="M86.6,194c-0.3,0.4-0.8,0.5-1.2,0.2c-0.4-0.3-0.5-0.8-0.2-1.2c0.3-0.4,0.8-0.5,1.2-0.2
					C86.8,193.1,86.9,193.7,86.6,194z"/>
				<g>
					<image style="overflow:visible;" width="74" height="75" xlink:href="4C3D9E46.png"  transform="matrix(1 0 0 1 49 156)">
					</image>
				</g>
				<g>
					<image style="overflow:visible;" width="74" height="74" xlink:href="4C3D9E44.png"  transform="matrix(1 0 0 1 49 157)">
					</image>
				</g>
			</g>
		</g>
		<g>
			<g>
				<path class="st4" d="M97.9,215.1c-0.3,0.4-0.8,0.5-1.2,0.2c-0.4-0.3-0.5-0.8-0.2-1.2c0.3-0.4,0.8-0.5,1.2-0.2
					C98,214.2,98.1,214.7,97.9,215.1z"/>
				<g>
					<image style="overflow:visible;" width="75" height="75" xlink:href="4C3D9E6B.png"  transform="matrix(1 0 0 1 60 177)">
					</image>
				</g>
				<g>
					<image style="overflow:visible;" width="74" height="74" xlink:href="4C3D9E65.png"  transform="matrix(1 0 0 1 60 178)">
					</image>
				</g>
			</g>
		</g>
		<g>
			<g>
				<path class="st4" d="M71.8,215.9c-0.3,0.4-0.8,0.5-1.2,0.2c-0.4-0.3-0.5-0.8-0.2-1.2c0.3-0.4,0.8-0.5,1.2-0.2
					C72,215,72.1,215.6,71.8,215.9z"/>
				<g>
					<image style="overflow:visible;" width="74" height="75" xlink:href="4C3D9E67.png"  transform="matrix(1 0 0 1 34 178)">
					</image>
				</g>
				<g>
					<image style="overflow:visible;" width="74" height="73" xlink:href="4C3D9E7A.png"  transform="matrix(1 0 0 1 34 179)">
					</image>
				</g>
			</g>
		</g>
		<g>
			<g>
				<path class="st4" d="M97.6,237.4c-0.3,0.4-0.8,0.5-1.2,0.2c-0.4-0.3-0.5-0.8-0.2-1.2c0.3-0.4,0.8-0.5,1.2-0.2
					C97.8,236.5,97.9,237,97.6,237.4z"/>
				<g>
					<image style="overflow:visible;" width="74" height="74" xlink:href="4C3D9E7B.png"  transform="matrix(1 0 0 1 60 200)">
					</image>
				</g>
				<g>
					<image style="overflow:visible;" width="74" height="74" xlink:href="4C3D9E7D.png"  transform="matrix(1 0 0 1 60 200)">
					</image>
				</g>
			</g>
		</g>
		<g>
			<g>
				<path class="st4" d="M64.5,220.6c-0.3,0.4-0.8,0.5-1.2,0.2c-0.4-0.3-0.5-0.8-0.2-1.2c0.3-0.4,0.8-0.5,1.2-0.2
					C64.6,219.7,64.7,220.2,64.5,220.6z"/>
				<g>
					<image style="overflow:visible;" width="75" height="74" xlink:href="4C3D9E7F.png"  transform="matrix(1 0 0 1 26 183)">
					</image>
				</g>
				<g>
					<image style="overflow:visible;" width="74" height="74" xlink:href="4C3D9E78.png"  transform="matrix(1 0 0 1 27 183)">
					</image>
				</g>
			</g>
		</g>
		<g>
			<g>
				<path class="st4" d="M46.4,172.6c-0.3,0.4-0.8,0.5-1.2,0.2c-0.4-0.3-0.5-0.8-0.2-1.2c0.3-0.4,0.8-0.5,1.2-0.2
					C46.6,171.7,46.7,172.2,46.4,172.6z"/>
				<g>
					<image style="overflow:visible;" width="75" height="74" xlink:href="4C3D9E79.png"  transform="matrix(1 0 0 1 8 135)">
					</image>
				</g>
				<g>
					<image style="overflow:visible;" width="74" height="74" xlink:href="4C3D9E66.png"  transform="matrix(1 0 0 1 9 135)">
					</image>
				</g>
			</g>
		</g>
		<g>
			<g>
				<path class="st4" d="M106.1,189.3c-0.3,0.4-0.8,0.5-1.2,0.2c-0.4-0.3-0.5-0.8-0.2-1.2c0.3-0.4,0.8-0.5,1.2-0.2
					C106.3,188.4,106.4,188.9,106.1,189.3z"/>
				<g>
					<image style="overflow:visible;" width="75" height="74" xlink:href="4C3D9F9A.png"  transform="matrix(1 0 0 1 68 152)">
					</image>
				</g>
				<g>
					<image style="overflow:visible;" width="74" height="74" xlink:href="4C3D9F95.png"  transform="matrix(1 0 0 1 68 152)">
					</image>
				</g>
			</g>
		</g>
		<g>
			<g>
				<path class="st4" d="M53,152.7c-0.3,0.4-0.8,0.5-1.2,0.2c-0.4-0.3-0.5-0.8-0.2-1.2c0.3-0.4,0.8-0.5,1.2-0.2
					C53.2,151.8,53.3,152.4,53,152.7z"/>
				<g>
					<image style="overflow:visible;" width="75" height="75" xlink:href="4C3D9F96.png"  transform="matrix(1 0 0 1 15 115)">
					</image>
				</g>
				<g>
					<image style="overflow:visible;" width="74" height="74" xlink:href="4C3D9F94.png"  transform="matrix(1 0 0 1 15 115)">
					</image>
				</g>
			</g>
		</g>
		<g>
			<g>
				<path class="st4" d="M43.8,135.8c-0.3,0.4-0.8,0.5-1.2,0.2c-0.4-0.3-0.5-0.8-0.2-1.2s0.8-0.5,1.2-0.2
					C44,134.9,44.1,135.4,43.8,135.8z"/>
				<g>
					<image style="overflow:visible;" width="74" height="75" xlink:href="4C3D9F8A.png"  transform="matrix(1 0 0 1 6 98)">
					</image>
				</g>
				<g>
					<image style="overflow:visible;" width="74" height="74" xlink:href="4C3D9F8D.png"  transform="matrix(1 0 0 1 6 98)">
					</image>
				</g>
			</g>
		</g>
		<g>
			<g>
				<path class="st4" d="M36.4,153.7c-0.3,0.4-0.8,0.5-1.2,0.2c-0.4-0.3-0.5-0.8-0.2-1.2c0.3-0.4,0.8-0.5,1.2-0.2
					C36.5,152.8,36.6,153.3,36.4,153.7z"/>
				<g>
					<image style="overflow:visible;" width="75" height="75" xlink:href="4C3D9F8E.png"  transform="matrix(1 0 0 1 -2 116)">
					</image>
				</g>
				<g>
					<image style="overflow:visible;" width="74" height="74" xlink:href="4C3D9F8C.png"  transform="matrix(1 0 0 1 -1 116)">
					</image>
				</g>
			</g>
		</g>
		<g>
			<g>
				<path class="st4" d="M39.8,154.1c-0.3,0.4-0.8,0.5-1.2,0.2c-0.4-0.3-0.5-0.8-0.2-1.2c0.3-0.4,0.8-0.5,1.2-0.2
					C40,153.2,40.1,153.7,39.8,154.1z"/>
				<g>
					<image style="overflow:visible;" width="74" height="75" xlink:href="4C3D9F8B.png"  transform="matrix(1 0 0 1 2 116)">
					</image>
				</g>
				<g>
					<image style="overflow:visible;" width="74" height="74" xlink:href="4C3D9FB5.png"  transform="matrix(1 0 0 1 2 117)">
					</image>
				</g>
			</g>
		</g>
		<g>
			<g>
				<path class="st4" d="M32.3,170.1c-0.3,0.4-0.8,0.5-1.2,0.2c-0.4-0.3-0.5-0.8-0.2-1.2c0.3-0.4,0.8-0.5,1.2-0.2
					C32.4,169.2,32.5,169.7,32.3,170.1z"/>
				<g>
					<image style="overflow:visible;" width="75" height="75" xlink:href="4C3D9F91.png"  transform="matrix(1 0 0 1 -6 132)">
					</image>
				</g>
				<g>
					<image style="overflow:visible;" width="74" height="74" xlink:href="4C3D9F93.png"  transform="matrix(1 0 0 1 -5 133)">
					</image>
				</g>
			</g>
		</g>
		<g>
			<g>
				<path class="st4" d="M41.1,194.5c-0.3,0.4-0.8,0.5-1.2,0.2c-0.4-0.3-0.5-0.8-0.2-1.2s0.8-0.5,1.2-0.2
					C41.2,193.6,41.3,194.1,41.1,194.5z"/>
				<g>
					<image style="overflow:visible;" width="75" height="74" xlink:href="4C3D9F90.png"  transform="matrix(1 0 0 1 3 157)">
					</image>
				</g>
				<g>
					<image style="overflow:visible;" width="74" height="74" xlink:href="4C3D9F97.png"  transform="matrix(1 0 0 1 3 157)">
					</image>
				</g>
			</g>
		</g>
		<g>
			<g>
				<path class="st4" d="M56.1,173.1c-0.3,0.4-0.8,0.5-1.2,0.2c-0.4-0.3-0.5-0.8-0.2-1.2c0.3-0.4,0.8-0.5,1.2-0.2
					C56.3,172.2,56.4,172.7,56.1,173.1z"/>
				<g>
					<image style="overflow:visible;" width="75" height="75" xlink:href="4C3D9F92.png"  transform="matrix(1 0 0 1 18 135)">
					</image>
				</g>
				<g>
					<image style="overflow:visible;" width="73" height="74" xlink:href="4C3D9F9E.png"  transform="matrix(1 0 0 1 19 136)">
					</image>
				</g>
			</g>
		</g>
		<g>
			<g>
				<path class="st4" d="M11.6,178.2c-0.3,0.4-0.8,0.5-1.2,0.2c-0.4-0.3-0.5-0.8-0.2-1.2c0.3-0.4,0.8-0.5,1.2-0.2
					C11.8,177.4,11.9,177.9,11.6,178.2z"/>
				<g>
					<image style="overflow:visible;" width="74" height="75" xlink:href="4C3D9F9F.png"  transform="matrix(1 0 0 1 -26 140)">
					</image>
				</g>
				<g>
					<image style="overflow:visible;" width="74" height="74" xlink:href="4C3D9F88.png"  transform="matrix(1 0 0 1 -26 141)">
					</image>
				</g>
			</g>
		</g>
		<g>
			<g>
				<path class="st4" d="M40.1,209c-0.3,0.4-0.8,0.5-1.2,0.2c-0.4-0.3-0.5-0.8-0.2-1.2c0.3-0.4,0.8-0.5,1.2-0.2
					C40.3,208.1,40.4,208.6,40.1,209z"/>
				<g>
					<image style="overflow:visible;" width="75" height="75" xlink:href="4C3D9F89.png"  transform="matrix(1 0 0 1 2 171)">
					</image>
				</g>
				<g>
					<image style="overflow:visible;" width="74" height="73" xlink:href="4C3D9F8F.png"  transform="matrix(1 0 0 1 2 172)">
					</image>
				</g>
			</g>
		</g>
		<g>
			<g>
				<path class="st4" d="M24.6,181.2c-0.3,0.4-0.8,0.5-1.2,0.2c-0.4-0.3-0.5-0.8-0.2-1.2c0.3-0.4,0.8-0.5,1.2-0.2
					C24.7,180.3,24.8,180.8,24.6,181.2z"/>
				<g>
					<image style="overflow:visible;" width="74" height="75" xlink:href="4C3D9FFC.png"  transform="matrix(1 0 0 1 -13 143)">
					</image>
				</g>
				<g>
					<image style="overflow:visible;" width="74" height="74" xlink:href="4C3D9FFB.png"  transform="matrix(1 0 0 1 -13 144)">
					</image>
				</g>
			</g>
		</g>
		<g>
			<g>
				<path class="st4" d="M39.3,203c-0.3,0.4-0.8,0.5-1.2,0.2c-0.4-0.3-0.5-0.8-0.2-1.2s0.8-0.5,1.2-0.2
					C39.5,202.1,39.6,202.6,39.3,203z"/>
				<g>
					<image style="overflow:visible;" width="75" height="75" xlink:href="4C3D9FF4.png"  transform="matrix(1 0 0 1 1 165)">
					</image>
				</g>
				<g>
					<image style="overflow:visible;" width="74" height="73" xlink:href="4C3D9FF7.png"  transform="matrix(1 0 0 1 2 166)">
					</image>
				</g>
			</g>
		</g>
		<g>
			<g>
				<path class="st4" d="M41.6,144.7c-0.3,0.4-0.8,0.5-1.2,0.2c-0.4-0.3-0.5-0.8-0.2-1.2c0.3-0.4,0.8-0.5,1.2-0.2
					C41.8,143.8,41.9,144.3,41.6,144.7z"/>
				<g>
					<image style="overflow:visible;" width="74" height="75" xlink:href="4C3D9FF5.png"  transform="matrix(1 0 0 1 4 107)">
					</image>
				</g>
				<g>
					<image style="overflow:visible;" width="74" height="74" xlink:href="4C3D9FEB.png"  transform="matrix(1 0 0 1 4 107)">
					</image>
				</g>
			</g>
		</g>
		<g>
			<g>
				<path class="st4" d="M118.4,196.3c-0.3,0.4-0.8,0.5-1.2,0.2c-0.4-0.3-0.5-0.8-0.2-1.2c0.3-0.4,0.8-0.5,1.2-0.2
					C118.5,195.4,118.6,195.9,118.4,196.3z"/>
				<g>
					<image style="overflow:visible;" width="75" height="74" xlink:href="4C3D9FEC.png"  transform="matrix(1 0 0 1 80 159)">
					</image>
				</g>
				<g>
					<image style="overflow:visible;" width="74" height="74" xlink:href="4C3D9FEF.png"  transform="matrix(1 0 0 1 81 159)">
					</image>
				</g>
			</g>
		</g>
		<g>
			<g>
				<path class="st4" d="M89.2,219.8c-0.3,0.4-0.8,0.5-1.2,0.2c-0.4-0.3-0.5-0.8-0.2-1.2s0.8-0.5,1.2-0.2
					C89.3,218.9,89.4,219.4,89.2,219.8z"/>
				<g>
					<image style="overflow:visible;" width="75" height="75" xlink:href="4C3D9FED.png"  transform="matrix(1 0 0 1 51 182)">
					</image>
				</g>
				<g>
					<image style="overflow:visible;" width="73" height="74" xlink:href="4C3D9FEA.png"  transform="matrix(1 0 0 1 52 182)">
					</image>
				</g>
			</g>
		</g>
		<g>
			<g>
				<path class="st4" d="M67.8,231c-0.3,0.4-0.8,0.5-1.2,0.2c-0.4-0.3-0.5-0.8-0.2-1.2s0.8-0.5,1.2-0.2
					C67.9,230.1,68,230.6,67.8,231z"/>
				<g>
					<image style="overflow:visible;" width="74" height="75" xlink:href="4C3D9FCF.png"  transform="matrix(1 0 0 1 30 193)">
					</image>
				</g>
				<g>
					<image style="overflow:visible;" width="74" height="73" xlink:href="4C3D9FC9.png"  transform="matrix(1 0 0 1 30 194)">
					</image>
				</g>
			</g>
		</g>
		<g>
			<g>
				<path class="st4" d="M74,202.9c-0.3,0.4-0.8,0.5-1.2,0.2c-0.4-0.3-0.5-0.8-0.2-1.2c0.3-0.4,0.8-0.5,1.2-0.2
					C74.2,202,74.3,202.6,74,202.9z"/>
				<g>
					<image style="overflow:visible;" width="75" height="75" xlink:href="4C3D9FCB.png"  transform="matrix(1 0 0 1 36 165)">
					</image>
				</g>
				<g>
					<image style="overflow:visible;" width="74" height="74" xlink:href="4C3D9FC6.png"  transform="matrix(1 0 0 1 36 165)">
					</image>
				</g>
			</g>
		</g>
		<g>
			<g>
				<path class="st4" d="M47,189.5c-0.3,0.4-0.8,0.5-1.2,0.2c-0.4-0.3-0.5-0.8-0.2-1.2c0.3-0.4,0.8-0.5,1.2-0.2
					C47.2,188.6,47.3,189.2,47,189.5z"/>
				<g>
					<image style="overflow:visible;" width="75" height="74" xlink:href="4C3D9FC7.png"  transform="matrix(1 0 0 1 9 152)">
					</image>
				</g>
				<g>
					<image style="overflow:visible;" width="74" height="74" xlink:href="4C3D9F39.png"  transform="matrix(1 0 0 1 9 152)">
					</image>
				</g>
			</g>
		</g>
		<g>
			<g>
				<path class="st4" d="M40.1,170.8c-0.3,0.4-0.8,0.5-1.2,0.2c-0.4-0.3-0.5-0.8-0.2-1.2s0.8-0.5,1.2-0.2
					C40.3,169.9,40.4,170.4,40.1,170.8z"/>
				<g>
					<image style="overflow:visible;" width="75" height="75" xlink:href="4C3D9F3B.png"  transform="matrix(1 0 0 1 2 133)">
					</image>
				</g>
				<g>
					<image style="overflow:visible;" width="74" height="74" xlink:href="4C3D9F3E.png"  transform="matrix(1 0 0 1 2 133)">
					</image>
				</g>
			</g>
		</g>
		<g>
			<g>
				<path class="st4" d="M54,192.3c-0.3,0.4-0.8,0.5-1.2,0.2c-0.4-0.3-0.5-0.8-0.2-1.2c0.3-0.4,0.8-0.5,1.2-0.2
					C54.2,191.4,54.3,191.9,54,192.3z"/>
				<g>
					<image style="overflow:visible;" width="75" height="75" xlink:href="4C3D9F3F.png"  transform="matrix(1 0 0 1 16 154)">
					</image>
				</g>
				<g>
					<image style="overflow:visible;" width="74" height="74" xlink:href="4C3D9F3A.png"  transform="matrix(1 0 0 1 16 155)">
					</image>
				</g>
			</g>
		</g>
		<g>
			<g>
				<path class="st4" d="M43.4,120.5c-0.3,0.4-0.8,0.5-1.2,0.2c-0.4-0.3-0.5-0.8-0.2-1.2s0.8-0.5,1.2-0.2
					C43.6,119.6,43.7,120.2,43.4,120.5z"/>
				<g>
					<image style="overflow:visible;" width="75" height="74" xlink:href="4C3D9F1E.png"  transform="matrix(1 0 0 1 5 83)">
					</image>
				</g>
				<g>
					<image style="overflow:visible;" width="74" height="74" xlink:href="4C3D9F61.png"  transform="matrix(1 0 0 1 6 83)">
					</image>
				</g>
			</g>
		</g>
		<g>
			<g>
				<path class="st4" d="M140,186.2c-0.3,0.4-0.8,0.5-1.2,0.2c-0.4-0.3-0.5-0.8-0.2-1.2c0.3-0.4,0.8-0.5,1.2-0.2
					C140.2,185.3,140.3,185.8,140,186.2z"/>
				<g>
					<image style="overflow:visible;" width="75" height="75" xlink:href="4C3D9F62.png"  transform="matrix(1 0 0 1 102 148)">
					</image>
				</g>
				<g>
					<image style="overflow:visible;" width="74" height="74" xlink:href="4C3D9F60.png"  transform="matrix(1 0 0 1 102 149)">
					</image>
				</g>
			</g>
		</g>
		<g>
			<g>
				<path class="st4" d="M107.4,206c-0.2,0.2-0.5,0.3-0.7,0.1c-0.2-0.2-0.3-0.5-0.1-0.7c0.2-0.2,0.5-0.3,0.7-0.1
					C107.5,205.5,107.5,205.8,107.4,206z"/>
			</g>
		</g>
		<g>
			<g>
				<path class="st4" d="M94.9,208.6c-0.2,0.2-0.5,0.3-0.7,0.1c-0.2-0.2-0.3-0.5-0.1-0.7c0.2-0.2,0.5-0.3,0.7-0.1
					C95,208.1,95.1,208.4,94.9,208.6z"/>
			</g>
		</g>
		<g>
			<g>
				<path class="st4" d="M93.6,196.6c-0.2,0.2-0.5,0.3-0.7,0.1c-0.2-0.2-0.3-0.5-0.1-0.7c0.2-0.2,0.5-0.3,0.7-0.1
					C93.7,196.1,93.8,196.4,93.6,196.6z"/>
			</g>
		</g>
		<g>
			<g>
				<path class="st4" d="M113.9,194c-0.2,0.2-0.5,0.3-0.7,0.1c-0.2-0.2-0.3-0.5-0.1-0.7s0.5-0.3,0.7-0.1
					C114,193.5,114.1,193.8,113.9,194z"/>
			</g>
		</g>
		<g>
			<g>
				<path class="st4" d="M110.8,209.7c-0.2,0.2-0.5,0.3-0.7,0.1c-0.2-0.2-0.3-0.5-0.1-0.7c0.2-0.2,0.5-0.3,0.7-0.1
					C110.9,209.1,110.9,209.4,110.8,209.7z"/>
			</g>
		</g>
		<g>
			<g>
				<path class="st4" d="M97,193.4c-0.2,0.2-0.5,0.3-0.7,0.1c-0.2-0.2-0.3-0.5-0.1-0.7c0.2-0.2,0.5-0.3,0.7-0.1
					C97.1,192.9,97.1,193.2,97,193.4z"/>
			</g>
		</g>
		<g>
			<g>
				<path class="st4" d="M92.5,190.1c-0.2,0.2-0.5,0.3-0.7,0.1c-0.2-0.2-0.3-0.5-0.1-0.7s0.5-0.3,0.7-0.1
					C92.6,189.5,92.6,189.8,92.5,190.1z"/>
			</g>
		</g>
		<g>
			<g>
				<path class="st4" d="M76.8,196.9c-0.2,0.2-0.5,0.3-0.7,0.1c-0.2-0.2-0.3-0.5-0.1-0.7c0.2-0.2,0.5-0.3,0.7-0.1
					C76.9,196.3,77,196.7,76.8,196.9z"/>
			</g>
		</g>
		<g>
			<g>
				<path class="st4" d="M92.2,222.3c-0.2,0.2-0.5,0.3-0.7,0.1c-0.2-0.2-0.3-0.5-0.1-0.7s0.5-0.3,0.7-0.1
					C92.3,221.8,92.4,222.1,92.2,222.3z"/>
			</g>
		</g>
		<g>
			<g>
				<path class="st4" d="M84.7,227.9c-0.2,0.2-0.5,0.3-0.7,0.1c-0.2-0.2-0.3-0.5-0.1-0.7c0.2-0.2,0.5-0.3,0.7-0.1
					C84.8,227.4,84.9,227.7,84.7,227.9z"/>
			</g>
		</g>
		<g>
			<g>
				<path class="st4" d="M100.1,230.3c-0.2,0.2-0.5,0.3-0.7,0.1c-0.2-0.2-0.3-0.5-0.1-0.7s0.5-0.3,0.7-0.1
					C100.2,229.7,100.3,230,100.1,230.3z"/>
			</g>
		</g>
		<g>
			<g>
				<path class="st4" d="M74.5,220.7c-0.2,0.2-0.5,0.3-0.7,0.1c-0.2-0.2-0.3-0.5-0.1-0.7s0.5-0.3,0.7-0.1
					C74.6,220.2,74.6,220.5,74.5,220.7z"/>
			</g>
		</g>
		<g>
			<g>
				<path class="st4" d="M67.1,207.4c-0.2,0.2-0.5,0.3-0.7,0.1c-0.2-0.2-0.3-0.5-0.1-0.7c0.2-0.2,0.5-0.3,0.7-0.1
					C67.2,206.9,67.3,207.2,67.1,207.4z"/>
			</g>
		</g>
		<g>
			<g>
				<path class="st4" d="M75.2,200c-0.2,0.2-0.5,0.3-0.7,0.1s-0.3-0.5-0.1-0.7s0.5-0.3,0.7-0.1C75.2,199.5,75.3,199.8,75.2,200z"/>
			</g>
		</g>
		<g>
			<g>
				<path class="st4" d="M76.8,206.3c-0.2,0.2-0.5,0.3-0.7,0.1c-0.2-0.2-0.3-0.5-0.1-0.7c0.2-0.2,0.5-0.3,0.7-0.1
					C76.9,205.8,76.9,206.1,76.8,206.3z"/>
			</g>
		</g>
		<g>
			<g>
				<path class="st4" d="M80.9,239.8c-0.2,0.2-0.5,0.3-0.7,0.1c-0.2-0.2-0.3-0.5-0.1-0.7c0.2-0.2,0.5-0.3,0.7-0.1
					C81,239.3,81,239.6,80.9,239.8z"/>
			</g>
		</g>
		<g>
			<g>
				<path class="st4" d="M82,232.7c-0.2,0.2-0.5,0.3-0.7,0.1c-0.2-0.2-0.3-0.5-0.1-0.7c0.2-0.2,0.5-0.3,0.7-0.1
					C82.1,232.2,82.2,232.5,82,232.7z"/>
			</g>
		</g>
		<g>
			<g>
				<path class="st4" d="M31.2,204.7c-0.2,0.2-0.5,0.3-0.7,0.1c-0.2-0.2-0.3-0.5-0.1-0.7c0.2-0.2,0.5-0.3,0.7-0.1
					C31.3,204.2,31.4,204.5,31.2,204.7z"/>
			</g>
		</g>
		<g>
			<g>
				<path class="st4" d="M29.5,187.2c-0.2,0.2-0.5,0.3-0.7,0.1c-0.2-0.2-0.3-0.5-0.1-0.7c0.2-0.2,0.5-0.3,0.7-0.1
					C29.6,186.7,29.7,187,29.5,187.2z"/>
			</g>
		</g>
		<g>
			<g>
				<path class="st4" d="M35.9,194.8c-0.2,0.2-0.5,0.3-0.7,0.1c-0.2-0.2-0.3-0.5-0.1-0.7c0.2-0.2,0.5-0.3,0.7-0.1
					C36,194.3,36,194.6,35.9,194.8z"/>
			</g>
		</g>
		<g>
			<g>
				<path class="st4" d="M33.1,191.6c-0.2,0.2-0.5,0.3-0.7,0.1c-0.2-0.2-0.3-0.5-0.1-0.7c0.2-0.2,0.5-0.3,0.7-0.1
					C33.1,191,33.2,191.3,33.1,191.6z"/>
			</g>
		</g>
		<g>
			<g>
				<path class="st4" d="M19.4,190.9c-0.2,0.2-0.5,0.3-0.7,0.1c-0.2-0.2-0.3-0.5-0.1-0.7c0.2-0.2,0.5-0.3,0.7-0.1
					C19.5,190.4,19.6,190.7,19.4,190.9z"/>
			</g>
		</g>
		<g>
			<g>
				<path class="st4" d="M30.4,195.1c-0.2,0.2-0.5,0.3-0.7,0.1c-0.2-0.2-0.3-0.5-0.1-0.7c0.2-0.2,0.5-0.3,0.7-0.1
					C30.5,194.5,30.5,194.9,30.4,195.1z"/>
			</g>
		</g>
		<g>
			<g>
				<path class="st4" d="M24.9,190.3c-0.2,0.2-0.5,0.3-0.7,0.1c-0.2-0.2-0.3-0.5-0.1-0.7s0.5-0.3,0.7-0.1
					C25,189.8,25,190.1,24.9,190.3z"/>
			</g>
		</g>
		<g>
			<g>
				<path class="st4" d="M34.4,185.7c-0.2,0.2-0.5,0.3-0.7,0.1c-0.2-0.2-0.3-0.5-0.1-0.7s0.5-0.3,0.7-0.1
					C34.5,185.2,34.6,185.5,34.4,185.7z"/>
			</g>
		</g>
		<g>
			<g>
				<path class="st4" d="M37.8,190.1c-0.2,0.2-0.5,0.3-0.7,0.1c-0.2-0.2-0.3-0.5-0.1-0.7c0.2-0.2,0.5-0.3,0.7-0.1
					C37.9,189.5,37.9,189.8,37.8,190.1z"/>
			</g>
		</g>
		<g>
			<g>
				<path class="st4" d="M30.1,179.2c-0.2,0.2-0.5,0.3-0.7,0.1c-0.2-0.2-0.3-0.5-0.1-0.7c0.2-0.2,0.5-0.3,0.7-0.1
					C30.2,178.7,30.3,179,30.1,179.2z"/>
			</g>
		</g>
		<g>
			<g>
				<path class="st4" d="M31.6,176.2c-0.2,0.2-0.5,0.3-0.7,0.1c-0.2-0.2-0.3-0.5-0.1-0.7c0.2-0.2,0.5-0.3,0.7-0.1
					C31.7,175.7,31.7,176,31.6,176.2z"/>
			</g>
		</g>
		<g>
			<g>
				<path class="st4" d="M22,167.6c-0.2,0.2-0.5,0.3-0.7,0.1c-0.2-0.2-0.3-0.5-0.1-0.7c0.2-0.2,0.5-0.3,0.7-0.1
					C22.1,167.1,22.2,167.4,22,167.6z"/>
			</g>
		</g>
		<g>
			<g>
				<path class="st4" d="M52.3,204.1c-0.2,0.2-0.5,0.3-0.7,0.1c-0.2-0.2-0.3-0.5-0.1-0.7c0.2-0.2,0.5-0.3,0.7-0.1
					C52.4,203.6,52.5,203.9,52.3,204.1z"/>
			</g>
		</g>
		<g>
			<g>
				<path class="st4" d="M45.7,180.8c-0.2,0.2-0.5,0.3-0.7,0.1c-0.2-0.2-0.3-0.5-0.1-0.7c0.2-0.2,0.5-0.3,0.7-0.1
					C45.8,180.3,45.9,180.6,45.7,180.8z"/>
			</g>
		</g>
		<g>
			<g>
				<path class="st4" d="M56.3,188.1c-0.2,0.2-0.5,0.3-0.7,0.1c-0.2-0.2-0.3-0.5-0.1-0.7c0.2-0.2,0.5-0.3,0.7-0.1
					C56.4,187.5,56.5,187.8,56.3,188.1z"/>
			</g>
		</g>
		<g>
			<g>
				<path class="st4" d="M53.1,182.8c-0.2,0.2-0.5,0.3-0.7,0.1c-0.2-0.2-0.3-0.5-0.1-0.7c0.2-0.2,0.5-0.3,0.7-0.1
					C53.2,182.2,53.3,182.5,53.1,182.8z"/>
			</g>
		</g>
		<g>
			<g>
				<path class="st4" d="M76.6,193.1c-0.2,0.2-0.5,0.3-0.7,0.1c-0.2-0.2-0.3-0.5-0.1-0.7c0.2-0.2,0.5-0.3,0.7-0.1
					C76.7,192.6,76.7,192.9,76.6,193.1z"/>
			</g>
		</g>
		<g>
			<g>
				<path class="st4" d="M117.1,207.9c-0.2,0.2-0.5,0.3-0.7,0.1c-0.2-0.2-0.3-0.5-0.1-0.7c0.2-0.2,0.5-0.3,0.7-0.1
					C117.1,207.3,117.2,207.6,117.1,207.9z"/>
			</g>
		</g>
		<g>
			<g>
				<path class="st4" d="M109.6,217.3c-0.2,0.2-0.5,0.3-0.7,0.1c-0.2-0.2-0.3-0.5-0.1-0.7s0.5-0.3,0.7-0.1
					C109.7,216.8,109.7,217.1,109.6,217.3z"/>
			</g>
		</g>
		<g>
			<g>
				<path class="st4" d="M80.1,199.4c-0.2,0.2-0.5,0.3-0.7,0.1c-0.2-0.2-0.3-0.5-0.1-0.7c0.2-0.2,0.5-0.3,0.7-0.1
					C80.2,198.9,80.3,199.2,80.1,199.4z"/>
			</g>
		</g>
		<g>
			<g>
				<path class="st4" d="M56,179.2c-0.2,0.2-0.5,0.3-0.7,0.1c-0.2-0.2-0.3-0.5-0.1-0.7c0.2-0.2,0.5-0.3,0.7-0.1
					C56.1,178.7,56.1,179,56,179.2z"/>
			</g>
		</g>
		<g>
			<g>
				<path class="st4" d="M60.7,173.1c-0.2,0.2-0.5,0.3-0.7,0.1c-0.2-0.2-0.3-0.5-0.1-0.7c0.2-0.2,0.5-0.3,0.7-0.1
					C60.8,172.6,60.9,172.9,60.7,173.1z"/>
			</g>
		</g>
		<g>
			<g>
				<path class="st4" d="M58.3,159.3c-0.2,0.2-0.5,0.3-0.7,0.1c-0.2-0.2-0.3-0.5-0.1-0.7c0.2-0.2,0.5-0.3,0.7-0.1
					C58.4,158.8,58.5,159.1,58.3,159.3z"/>
			</g>
		</g>
		<g>
			<g>
				<path class="st4" d="M51.6,165.5c-0.2,0.2-0.5,0.3-0.7,0.1c-0.2-0.2-0.3-0.5-0.1-0.7c0.2-0.2,0.5-0.3,0.7-0.1
					C51.7,165,51.7,165.3,51.6,165.5z"/>
			</g>
		</g>
		<g>
			<g>
				<path class="st4" d="M47.1,158.2c-0.2,0.2-0.5,0.3-0.7,0.1c-0.2-0.2-0.3-0.5-0.1-0.7c0.2-0.2,0.5-0.3,0.7-0.1
					C47.2,157.7,47.3,158,47.1,158.2z"/>
			</g>
		</g>
		<g>
			<g>
				<path class="st4" d="M45.4,147.2c-0.2,0.2-0.5,0.3-0.7,0.1c-0.2-0.2-0.3-0.5-0.1-0.7c0.2-0.2,0.5-0.3,0.7-0.1
					C45.5,146.7,45.5,147,45.4,147.2z"/>
			</g>
		</g>
		<g>
			<g>
				<path class="st4" d="M51.9,144.3c-0.2,0.2-0.5,0.3-0.7,0.1c-0.2-0.2-0.3-0.5-0.1-0.7c0.2-0.2,0.5-0.3,0.7-0.1
					C52,143.7,52,144,51.9,144.3z"/>
			</g>
		</g>
		<g>
			<g>
				<path class="st4" d="M36,137.6c-0.2,0.2-0.5,0.3-0.7,0.1c-0.2-0.2-0.3-0.5-0.1-0.7c0.2-0.2,0.5-0.3,0.7-0.1
					C36.1,137,36.1,137.3,36,137.6z"/>
			</g>
		</g>
		<g>
			<g>
				<path class="st4" d="M32.7,140.2c-0.2,0.2-0.5,0.3-0.7,0.1c-0.2-0.2-0.3-0.5-0.1-0.7c0.2-0.2,0.5-0.3,0.7-0.1
					C32.8,139.7,32.9,140,32.7,140.2z"/>
			</g>
		</g>
		<g>
			<g>
				<path class="st4" d="M71.1,195.9c-0.2,0.2-0.5,0.3-0.7,0.1c-0.2-0.2-0.3-0.5-0.1-0.7c0.2-0.2,0.5-0.3,0.7-0.1
					S71.3,195.7,71.1,195.9z"/>
			</g>
		</g>
		<g>
			<g>
				<path class="st4" d="M47.1,175.7c-0.2,0.2-0.5,0.3-0.7,0.1c-0.2-0.2-0.3-0.5-0.1-0.7c0.2-0.2,0.5-0.3,0.7-0.1
					C47.2,175.2,47.3,175.5,47.1,175.7z"/>
			</g>
		</g>
		<g>
			<g>
				<path class="st4" d="M25.4,159.5c-0.2,0.2-0.5,0.3-0.7,0.1c-0.2-0.2-0.3-0.5-0.1-0.7c0.2-0.2,0.5-0.3,0.7-0.1
					C25.5,159,25.6,159.3,25.4,159.5z"/>
			</g>
		</g>
		<g>
			<g>
				<path class="st4" d="M40.7,178.6c-0.2,0.2-0.5,0.3-0.7,0.1c-0.2-0.2-0.3-0.5-0.1-0.7c0.2-0.2,0.5-0.3,0.7-0.1
					C40.8,178.1,40.9,178.4,40.7,178.6z"/>
			</g>
		</g>
		<g>
			<g>
				<path class="st4" d="M41.9,187.4c-0.2,0.2-0.5,0.3-0.7,0.1c-0.2-0.2-0.3-0.5-0.1-0.7c0.2-0.2,0.5-0.3,0.7-0.1
					C41.9,186.8,42,187.1,41.9,187.4z"/>
			</g>
		</g>
		<g>
			<g>
				<path class="st4" d="M44.1,198.8c-0.2,0.2-0.5,0.3-0.7,0.1c-0.2-0.2-0.3-0.5-0.1-0.7c0.2-0.2,0.5-0.3,0.7-0.1
					C44.2,198.3,44.3,198.6,44.1,198.8z"/>
			</g>
		</g>
		<g>
			<g>
				<path class="st4" d="M48.7,197.1c-0.2,0.2-0.5,0.3-0.7,0.1c-0.2-0.2-0.3-0.5-0.1-0.7c0.2-0.2,0.5-0.3,0.7-0.1
					C48.8,196.5,48.9,196.9,48.7,197.1z"/>
			</g>
		</g>
		<g>
			<g>
				<path class="st4" d="M40.5,125.9c-0.2,0.2-0.5,0.3-0.7,0.1c-0.2-0.2-0.3-0.5-0.1-0.7c0.2-0.2,0.5-0.3,0.7-0.1
					C40.6,125.4,40.7,125.7,40.5,125.9z"/>
			</g>
		</g>
		<g>
			<g>
				<path class="st4" d="M79.6,212.6c-0.2,0.2-0.5,0.3-0.7,0.1c-0.2-0.2-0.3-0.5-0.1-0.7s0.5-0.3,0.7-0.1
					C79.7,212,79.8,212.3,79.6,212.6z"/>
			</g>
		</g>
		<g>
			<g>
				<path class="st4" d="M64.9,212.2c-0.2,0.2-0.5,0.3-0.7,0.1c-0.2-0.2-0.3-0.5-0.1-0.7c0.2-0.2,0.5-0.3,0.7-0.1
					C65,211.6,65.1,211.9,64.9,212.2z"/>
			</g>
		</g>
		<g>
			<g>
				<path class="st4" d="M58.4,208.7c-0.2,0.2-0.5,0.3-0.7,0.1c-0.2-0.2-0.3-0.5-0.1-0.7s0.5-0.3,0.7-0.1
					C58.5,208.2,58.5,208.5,58.4,208.7z"/>
			</g>
		</g>
		<g>
			<g>
				<path class="st4" d="M61.4,220.7c-0.2,0.2-0.5,0.3-0.7,0.1c-0.2-0.2-0.3-0.5-0.1-0.7c0.2-0.2,0.5-0.3,0.7-0.1
					C61.5,220.2,61.6,220.5,61.4,220.7z"/>
			</g>
		</g>
		<g>
			<g>
				<path class="st4" d="M33.8,161.2c-0.2,0.2-0.5,0.3-0.7,0.1c-0.2-0.2-0.3-0.5-0.1-0.7c0.2-0.2,0.5-0.3,0.7-0.1
					C33.9,160.7,33.9,161,33.8,161.2z"/>
			</g>
		</g>
		<g>
			<g>
				<path class="st4" d="M29.4,153.1c-0.2,0.2-0.5,0.3-0.7,0.1c-0.2-0.2-0.3-0.5-0.1-0.7c0.2-0.2,0.5-0.3,0.7-0.1
					C29.5,152.5,29.6,152.9,29.4,153.1z"/>
			</g>
		</g>
		<g>
			<g>
				<path class="st4" d="M37.6,149.9c-0.2,0.2-0.5,0.3-0.7,0.1c-0.2-0.2-0.3-0.5-0.1-0.7c0.2-0.2,0.5-0.3,0.7-0.1
					C37.7,149.4,37.8,149.7,37.6,149.9z"/>
			</g>
		</g>
		<g>
			<g>
				<path class="st4" d="M62.2,232.9c-0.3,0.4-0.8,0.5-1.2,0.2c-0.4-0.3-0.5-0.8-0.2-1.2c0.3-0.4,0.8-0.5,1.2-0.2
					C62.4,232,62.5,232.5,62.2,232.9z"/>
				<g>
					<image style="overflow:visible;" width="75" height="75" xlink:href="4C3D9F66.png"  transform="matrix(1 0 0 1 24 195)">
					</image>
				</g>
				<g>
					<image style="overflow:visible;" width="74" height="74" xlink:href="4C3D9F63.png"  transform="matrix(1 0 0 1 25 195)">
					</image>
				</g>
			</g>
		</g>
		<g>
			<g>
				<path class="st4" d="M28.8,209.7c-0.3,0.4-0.8,0.5-1.2,0.2c-0.4-0.3-0.5-0.8-0.2-1.2s0.8-0.5,1.2-0.2
					C28.9,208.8,29,209.3,28.8,209.7z"/>
				<g>
					<image style="overflow:visible;" width="74" height="75" xlink:href="4C3D9F6E.png"  transform="matrix(1 0 0 1 -9 172)">
					</image>
				</g>
				<g>
					<image style="overflow:visible;" width="74" height="74" xlink:href="4C3D9F6F.png"  transform="matrix(1 0 0 1 -9 172)">
					</image>
				</g>
			</g>
		</g>
	</g>
</g>
</svg>
