<?xml version="1.0" encoding="utf-8"?>
<!-- Generator: Adobe Illustrator 22.0.0, SVG Export Plug-In . SVG Version: 6.00 Build 0)  -->
<svg version="1.2" baseProfile="tiny" id="Capa_1" xmlns="http://www.w3.org/2000/svg" xmlns:xlink="http://www.w3.org/1999/xlink"
	 x="0px" y="0px" viewBox="0 0 404.7 57" xml:space="preserve">
<g>
	<g>
		<path fill="#00D27D" d="M1.9,2.8H14c5.8,0,9.9,3.4,9.9,8.3c0,3.3-2.2,6.1-5.5,7.1l6.1,9.6h-6.6l-4.9-8.8H7.8v8.8H1.9V2.8z
			 M7.8,7.3v7.6h5.3c2.8,0,4.9-1.5,4.9-3.8c0-2.5-2.1-3.9-4.9-3.9H7.8z"/>
		<path fill="#00D27D" d="M41.1,22.1l4.6,1c-1,3.1-4.6,5.4-8.9,5.4c-5.8,0-9.9-4-9.9-9.9c0-5.6,4.1-9.6,9.9-9.6
			c5.8,0,9.7,3.9,9.7,9.6c0,0.5,0,1.2-0.1,1.6l-14.1,0c0.5,2.5,2.2,4.2,4.6,4.2C38.9,24.5,40.5,23.5,41.1,22.1z M41.2,17.1
			c-0.3-2.3-2.1-4-4.5-4c-2.3,0-3.9,1.6-4.4,4H41.2z"/>
		<path fill="#00D27D" d="M48.9,21.8h4.5c0,1.8,1.7,3.1,4,3.1c1.9,0,3.3-0.9,3.3-2.1c0-3.6-11.6,0-11.6-7.6c0-3.5,3.3-6.1,7.7-6.1
			c4.8,0,8.3,2.6,8.3,6.2h-4.6c0-1.5-1.6-2.5-3.7-2.5c-1.7,0-3,0.8-3,2c0,3.4,11.9,0.6,11.9,7.4c0,3.7-3.5,6.4-8.5,6.4
			C52.4,28.6,48.9,25.8,48.9,21.8z"/>
		<path fill="#00D27D" d="M82.2,22.1l4.6,1c-1,3.1-4.6,5.4-8.9,5.4c-5.8,0-9.9-4-9.9-9.9c0-5.6,4.1-9.6,9.9-9.6
			c5.8,0,9.7,3.9,9.7,9.6c0,0.5,0,1.2-0.1,1.6l-14.1,0c0.5,2.5,2.2,4.2,4.6,4.2C79.9,24.5,81.5,23.5,82.2,22.1z M82.2,17.1
			c-0.3-2.3-2.1-4-4.5-4c-2.3,0-3.9,1.6-4.4,4H82.2z"/>
		<path fill="#00D27D" d="M104.6,9.8h5.3v18h-5.3v-2.5c-1.4,2-3.6,3.2-6.1,3.2c-5.1,0-8.6-4-8.6-9.7s3.6-9.7,8.6-9.7
			c2.6,0,4.7,1.2,6.1,3.2V9.8z M104.6,18.8c0-2.9-2-5.1-4.7-5.1c-2.7,0-4.7,2.1-4.7,5.1s2,5.1,4.7,5.1
			C102.6,23.9,104.6,21.8,104.6,18.8z"/>
		<path fill="#00D27D" d="M125.8,9.6v4.7c-1-0.4-2.2-0.7-3-0.7c-2.3,0-3.8,1.9-3.8,4.6v9.6h-5.3v-18h5.1v2.3c1.1-1.8,2.8-3,4.8-3
			C124.3,9.2,125.1,9.3,125.8,9.6z"/>
		<path fill="#00D27D" d="M141.4,16.9c-0.5-1.9-2.3-3.3-4.3-3.3c-2.6,0-4.6,2.2-4.6,5.3s2,5.3,4.6,5.3c2.1,0,3.8-1.4,4.3-3.3
			l4.9,0.6c-0.7,4.2-4.6,7.1-9.3,7.1c-5.7,0-9.8-4.1-9.8-9.7s4.1-9.7,9.8-9.7c4.7,0,8.7,3,9.2,7.1L141.4,16.9z"/>
		<path fill="#00D27D" d="M167.1,16.4v11.4h-5.3V17.5c0-2.2-1.3-3.7-3.4-3.7c-2,0-3.7,1.7-3.7,3.9v10.1h-5.3V1.7h5.3v10.1
			c1.2-1.8,3.3-2.7,5.5-2.7C164.3,9.1,167.1,12.1,167.1,16.4z"/>
		<path fill="#00D27D" d="M200,27.8l-2.3-2c-2.5,1.8-5.3,2.9-8.4,2.9c-5.3,0-9-2.9-9-7.5c0-3.8,2.3-5.7,5-7
			c-1.1-1.4-1.9-3.2-1.9-5.1c0-4.1,3.4-7.1,7.8-7.1c4.3,0,7.7,2.8,8.2,6.6l-4.7,0.8c-0.2-1.9-1.7-3.3-3.4-3.3c-1.7,0-3,1.2-3,3.1
			c0,1.4,0.7,2.8,2.3,4.2c0.9,0.8,6.2,5.7,7.2,6.5c0.9-1.2,1.6-2.6,2.1-4.2h4.9c-0.8,2.7-2.2,5-3.9,7c0.7,0.7,4.7,4.3,5.4,4.9H200z
			 M194.4,22.9c-0.8-0.8-5.3-4.8-6.1-5.6c-1.6,0.7-2.6,1.8-2.6,3.6c0,2,1.9,3.5,4.5,3.5C191.7,24.4,193.2,23.9,194.4,22.9z"/>
		<path fill="#00D27D" d="M225.8,27.8h-5.9v-25h5.9V27.8z"/>
		<path fill="#00D27D" d="M247.9,16.6v11.3h-5.3V17.5c0-2.2-1.3-3.7-3.3-3.7c-2.1,0-3.8,1.7-3.8,3.9v10.1h-5.3v-18h5.1v2.4
			c1.3-1.9,3.4-3.1,5.7-3.1C245.1,9.1,247.9,12.3,247.9,16.6z"/>
		<path fill="#00D27D" d="M269.1,16.6v11.3h-5.3V17.5c0-2.2-1.3-3.7-3.3-3.7s-3.8,1.7-3.8,3.9v10.1h-5.3v-18h5.1v2.4
			c1.3-1.9,3.4-3.1,5.7-3.1C266.3,9.1,269.1,12.3,269.1,16.6z"/>
		<path fill="#00D27D" d="M281.7,28.5c-5.9,0-10-4-10-9.7s4.1-9.7,10-9.7c5.9,0,10,4,10,9.7S287.7,28.5,281.7,28.5z M281.7,13.8
			c-2.7,0-4.7,2.1-4.7,5.1s2,5.1,4.7,5.1c2.8,0,4.7-2.1,4.7-5.1S284.5,13.8,281.7,13.8z"/>
		<path fill="#00D27D" d="M293.1,9.8h5.6l4.4,14l4.4-14h5.7l-6.3,18h-7.5L293.1,9.8z"/>
		<path fill="#00D27D" d="M329.4,9.8h5.3v18h-5.3v-2.5c-1.4,2-3.6,3.2-6.1,3.2c-5.1,0-8.6-4-8.6-9.7s3.6-9.7,8.6-9.7
			c2.6,0,4.7,1.2,6.1,3.2V9.8z M329.4,18.8c0-2.9-2-5.1-4.7-5.1c-2.7,0-4.7,2.1-4.7,5.1s2,5.1,4.7,5.1
			C327.4,23.9,329.4,21.8,329.4,18.8z"/>
		<path fill="#00D27D" d="M339.9,13.8h-2.5v-4h2.8l0.6-4.5h4.4v4.5h4.1v4h-4.1v7.6c0,1.5,0.9,2.5,2.4,2.5c0.5,0,1.3-0.1,1.9-0.2
			l0,4.2c-1.1,0.4-2.5,0.6-3.6,0.6c-3.6,0-5.9-2.7-5.9-6.5V13.8z"/>
		<path fill="#00D27D" d="M355.6,1.5c1.8,0,3.1,1.2,3.1,3c0,1.8-1.3,3-3.1,3c-1.8,0-3.1-1.2-3.1-3C352.5,2.7,353.8,1.5,355.6,1.5z
			 M358.2,27.8h-5.3v-18h5.3V27.8z"/>
		<path fill="#00D27D" d="M371.7,28.5c-5.9,0-10-4-10-9.7s4.1-9.7,10-9.7c5.9,0,10,4,10,9.7S377.6,28.5,371.7,28.5z M371.7,13.8
			c-2.7,0-4.7,2.1-4.7,5.1s2,5.1,4.7,5.1c2.8,0,4.7-2.1,4.7-5.1S374.4,13.8,371.7,13.8z"/>
		<path fill="#00D27D" d="M402.4,16.6v11.3h-5.3V17.5c0-2.2-1.3-3.7-3.3-3.7s-3.8,1.7-3.8,3.9v10.1h-5.3v-18h5.1v2.4
			c1.3-1.9,3.4-3.1,5.7-3.1C399.6,9.1,402.4,12.3,402.4,16.6z"/>
	</g>
	<g>
		<g>
			<path fill="#A5A7AA" d="M220.4,51.7v4.4H219V44h4.6c2.5,0,4.3,1.6,4.3,3.9c0,2.2-1.8,3.8-4.3,3.8H220.4z M220.4,45.3v5.1h3
				c1.8,0,3.1-1.1,3.1-2.5c0-1.5-1.3-2.6-3.1-2.6H220.4z"/>
			<path fill="#A5A7AA" d="M236.2,43.6c3.7,0,6.4,2.7,6.4,6.5c0,3.8-2.7,6.5-6.4,6.5c-3.7,0-6.4-2.7-6.4-6.5
				C229.8,46.3,232.5,43.6,236.2,43.6z M236.2,55.3c2.9,0,5-2.2,5-5.2c0-3-2.1-5.2-5-5.2c-2.9,0-5,2.2-5,5.2
				C231.2,53.1,233.3,55.3,236.2,55.3z"/>
			<path fill="#A5A7AA" d="M251.2,44h2l2.7,11.2L259,44h1.4l-3.4,12.1h-2.3l-2.6-10.6l-2.6,10.6h-2.3L243.9,44h1.5l3.1,11.2
				L251.2,44z"/>
			<path fill="#A5A7AA" d="M270.2,50.4h-6v4.4h6.9v1.3h-8.2V44h8.1v1.3h-6.7v4h6V50.4z"/>
			<path fill="#A5A7AA" d="M275.1,51.4v4.8h-1.4V44h5.2c2.5,0,4.3,1.5,4.3,3.7c0,1.7-1.2,3.1-2.9,3.4l3,5h-1.6l-2.8-4.8H275.1z
				 M275.1,45.3v4.8h3.7c1.7,0,3-1,3-2.4c0-1.5-1.2-2.5-3-2.5H275.1z"/>
			<path fill="#A5A7AA" d="M293.3,50.4h-6v4.4h6.9v1.3h-8.2V44h8.1v1.3h-6.7v4h6V50.4z"/>
			<path fill="#A5A7AA" d="M296.8,56.1V44h3.6c4.1,0,6.9,2.4,6.9,6.1c0,3.6-2.8,6.1-6.9,6.1H296.8z M300.4,45.3h-2.2v9.6h2.2
				c3.3,0,5.5-1.9,5.5-4.8C305.9,47.1,303.7,45.3,300.4,45.3z"/>
			<path fill="#A5A7AA" d="M315.1,56.1V44h5c2.1,0,3.7,1.4,3.7,3.3c0,1.2-0.8,2.3-1.9,2.6c1.3,0.3,2.2,1.5,2.2,2.9
				c0,2-1.7,3.4-4.1,3.4H315.1z M316.4,45.3v4h3.4c1.4,0,2.5-0.8,2.5-2c0-1.2-1-2-2.5-2H316.4z M316.4,50.5v4.3h3.4
				c1.7,0,2.9-0.9,2.9-2.2c0-1.3-1.2-2.2-2.9-2.2H316.4z"/>
			<path fill="#A5A7AA" d="M330.4,56.1H329v-4.5l-4.2-7.6h1.5l3.4,6.3l3.4-6.3h1.6l-4.2,7.6V56.1z"/>
		</g>
		<g>
			<path fill="#A5A7AA" d="M373.8,55.9h-1V43.8c0-0.4,0.3-0.7,0.6-0.7h0.3V55.9z"/>
			<path fill="#A5A7AA" d="M383.1,46.8h0.3c0.4,0,0.6,0.3,0.6,0.7v8.4h-1v-2c-0.7,1.4-2.1,2.3-3.8,2.3c-2.7,0-4.6-2.1-4.6-4.9
				c0-2.9,1.9-4.9,4.6-4.9c1.7,0,3.1,0.9,3.8,2.3V46.8z M383.1,51.4c0-2.3-1.6-4-3.7-4c-2.2,0-3.7,1.7-3.7,4c0,2.3,1.6,4,3.7,4
				C381.5,55.4,383.1,53.7,383.1,51.4z"/>
			<path fill="#A5A7AA" d="M386.6,43.2v5.6c0.7-1.4,2.1-2.3,3.8-2.3c2.7,0,4.6,2.1,4.6,4.9c0,2.8-1.9,4.9-4.6,4.9
				c-1.7,0-3.1-0.9-3.8-2.3v1.9h-1V43.8c0-0.4,0.3-0.7,0.6-0.7H386.6z M390.3,47.5c-2.2,0-3.7,1.7-3.7,3.9c0,2.3,1.6,3.9,3.7,3.9
				c2.1,0,3.7-1.6,3.7-3.9C394,49.1,392.4,47.5,390.3,47.5z"/>
			<path fill="#A5A7AA" d="M395.4,53h1c0,1.4,1.2,2.4,2.9,2.4c1.5,0,2.6-0.8,2.6-1.9c0-2.5-6.2-0.9-6.2-4.3c0-1.6,1.4-2.7,3.3-2.7
				c2.1,0,3.6,1.3,3.6,3.1l-1,0c0-1.2-1.1-2.1-2.7-2.1c-1.3,0-2.4,0.8-2.4,1.8c0,2.5,6.2,0.9,6.2,4.3c0,1.6-1.5,2.9-3.6,2.9
				C397,56.3,395.4,54.9,395.4,53z"/>
			<g>
				<path fill="#A5A7AA" d="M343.7,55.9h-2.9v-11c0-1,0.8-1.7,1.7-1.7h1.2V55.9z"/>
				<path fill="#A5A7AA" d="M365.2,53.7l2.8-9.3c0.2-0.7,0.9-1.2,1.6-1.2h1.8l-4,12.7h-4.5l-4-12.7h1.8c0.7,0,1.4,0.5,1.6,1.2
					L365.2,53.7z"/>
				<path fill="#A5A7AA" d="M352.1,42.8c-4.1,0-6.9,2.8-6.9,6.8c0,4,2.8,6.8,6.9,6.8c4.1,0,6.9-2.8,6.9-6.8
					C359,45.6,356.2,42.8,352.1,42.8z M352.1,53.8c-2.3,0-3.9-1.7-3.9-4.2c0-0.8,0.2-1.5,0.5-2.1l0,0c0,0,0,0,0,0c0,0,0,0,0,0
					c0,0,0-0.1,0.1-0.1c0,0,0,0,0-0.1c0,0,0-0.1,0.1-0.1c0.3-0.5,1.1-1.4,2.4-1.6l0.1,0c0,0,0,0,0.1,0c0.4,0,1.7-0.1,2.3,0.9
					c0,0,0,0,0,0c0,0,0.1,0.1,0.1,0.2c0,0,0,0.1,0,0.1c0.7,1.5,0,3.7-1,4.6c0,0,2.8-1.6,2.7-4.1c0.4,0.7,0.6,1.5,0.6,2.3
					C356.1,52.1,354.5,53.8,352.1,53.8z"/>
			</g>
		</g>
	</g>
</g>
</svg>
