<?xml version="1.0" encoding="utf-8"?>
<!-- Generator: Adobe Illustrator 22.0.0, SVG Export Plug-In . SVG Version: 6.00 Build 0)  -->
<svg version="1.1" baseProfile="tiny" id="Capa_1" xmlns="http://www.w3.org/2000/svg" xmlns:xlink="http://www.w3.org/1999/xlink"
	 x="0px" y="0px" viewBox="0 0 650 62" xml:space="preserve">
<g>
	<polygon fill="#00D17D" points="1.3,34.2 67.1,33.7 67.2,33.7 67.3,33.7 106.5,54.4 105.4,55.1 93.1,6.9 93.1,5.6 94.3,6 
		159.2,33.1 158.8,33 281.5,32.7 404.2,32.6 449.8,32.8 572.6,33.2 572.9,33.2 573.2,33.4 596.8,54.5 595.6,54.7 621.6,12.8 
		621.9,12.3 622.4,12.8 642.6,33.9 642.4,33.8 648.7,34.1 642.4,34.5 642.2,34.5 642.1,34.4 621.6,13.5 622.5,13.4 597,55.5 
		596.5,56.4 595.7,55.7 571.9,34.8 572.6,35.1 449.8,35.4 404.2,35.6 281.5,35.5 158.8,35.2 158.5,35.2 158.3,35.2 93.7,7.7 
		94.9,6.9 106.9,55.1 106.9,56.4 105.8,55.8 66.9,34.5 67.1,34.6 	"/>
	<path fill="#00D17D" d="M89,6.9c0-2.8,2.3-5,5-5s5,2.3,5,5c0,2.8-2.3,5-5,5S89,9.7,89,6.9"/>
	<path fill="#00D17D" d="M62,34.1c0-2.8,2.3-5,5-5c2.8,0,5,2.3,5,5c0,2.8-2.3,5-5,5C64.3,39.2,62,36.9,62,34.1"/>
	<path fill="#00D17D" d="M153.7,34.1c0-2.8,2.3-5,5-5c2.8,0,5,2.3,5,5c0,2.8-2.3,5-5,5C156,39.2,153.7,36.9,153.7,34.1"/>
	<path fill="#00D17D" d="M567.5,34.1c0-2.8,2.3-5,5-5c2.8,0,5,2.3,5,5c0,2.8-2.3,5-5,5C569.8,39.2,567.5,36.9,567.5,34.1"/>
	<path fill="#00D17D" d="M617,13.1c0-2.8,2.3-5,5-5c2.8,0,5,2.3,5,5c0,2.8-2.3,5.1-5,5.1C619.2,18.2,617,15.9,617,13.1"/>
	<path fill="#00D17D" d="M591.2,55.1c0-2.8,2.3-5,5-5c2.8,0,5,2.3,5,5c0,2.8-2.3,5-5,5C593.5,60.2,591.2,57.9,591.2,55.1"/>
</g>
</svg>
