<?xml version="1.0" encoding="utf-8"?>
<!-- Generator: Adobe Illustrator 22.0.0, SVG Export Plug-In . SVG Version: 6.00 Build 0)  -->
<svg version="1.1" baseProfile="tiny" id="Capa_1" xmlns="http://www.w3.org/2000/svg" xmlns:xlink="http://www.w3.org/1999/xlink"
	 x="0px" y="0px" viewBox="0 0 650 62" xml:space="preserve">
<g>
	<polygon fill="#00D17D" points="648.7,34.2 582.9,33.7 582.8,33.7 582.7,33.7 543.5,54.4 544.6,55.1 556.9,6.9 556.9,5.6 555.7,6 
		490.8,33.1 491.2,33 368.5,32.7 245.8,32.6 200.2,32.8 77.4,33.2 77.1,33.2 76.8,33.4 53.2,54.5 54.4,54.7 28.4,12.8 28.1,12.3 
		27.6,12.8 7.4,33.9 7.6,33.8 1.3,34.1 7.6,34.5 7.8,34.5 7.9,34.4 28.4,13.5 27.5,13.4 53,55.5 53.5,56.4 54.3,55.7 78.1,34.8 
		77.4,35.1 200.2,35.4 245.8,35.6 368.5,35.5 491.2,35.2 491.5,35.2 491.7,35.2 556.3,7.7 555.1,6.9 543.1,55.1 543.1,56.4 
		544.2,55.8 583.1,34.5 582.9,34.6 	"/>
	<path fill="#00D17D" d="M561,6.9c0-2.8-2.3-5-5-5s-5,2.3-5,5c0,2.8,2.3,5,5,5S561,9.7,561,6.9"/>
	<path fill="#00D17D" d="M588,34.1c0-2.8-2.3-5-5-5c-2.8,0-5,2.3-5,5c0,2.8,2.3,5,5,5C585.7,39.2,588,36.9,588,34.1"/>
	<path fill="#00D17D" d="M496.3,34.1c0-2.8-2.3-5-5-5c-2.8,0-5,2.3-5,5c0,2.8,2.3,5,5,5C494,39.2,496.3,36.9,496.3,34.1"/>
	<path fill="#00D17D" d="M82.5,34.1c0-2.8-2.3-5-5-5c-2.8,0-5,2.3-5,5c0,2.8,2.3,5,5,5C80.2,39.2,82.5,36.9,82.5,34.1"/>
	<path fill="#00D17D" d="M33,13.1c0-2.8-2.3-5-5-5c-2.8,0-5,2.3-5,5c0,2.8,2.3,5.1,5,5.1C30.8,18.2,33,15.9,33,13.1"/>
	<path fill="#00D17D" d="M58.8,55.1c0-2.8-2.3-5-5-5c-2.8,0-5,2.3-5,5c0,2.8,2.3,5,5,5C56.5,60.2,58.8,57.9,58.8,55.1"/>
</g>
</svg>
