<?xml version="1.0" encoding="utf-8"?>
<!-- Generator: Adobe Illustrator 22.0.0, SVG Export Plug-In . SVG Version: 6.00 Build 0)  -->
<svg version="1.0" id="Capa_1" xmlns="http://www.w3.org/2000/svg" xmlns:xlink="http://www.w3.org/1999/xlink" x="0px" y="0px"
	 viewBox="0 0 263.9 241.6" enable-background="new 0 0 263.9 241.6" xml:space="preserve">
<g>
	<g>
		<g>
			<g>
				<path fill="#FFFFFF" d="M131.9,57.7c-2.7,0-4.9,2.2-4.9,4.9c0,2.7,2.2,4.9,4.9,4.9c2.7,0,4.9-2.2,4.9-4.9
					C136.8,59.8,134.6,57.7,131.9,57.7L131.9,57.7z M131.9,57.7"/>
				<path fill="#FFFFFF" d="M212.5,57.7h-61.2c-2.7,0-4.9,2.2-4.9,4.9c0,2.7,2.2,4.9,4.9,4.9h61.2c2.7,0,4.9-2.2,4.9-4.9
					C217.4,59.8,215.2,57.7,212.5,57.7L212.5,57.7z M212.5,57.7"/>
				<path fill="#FFFFFF" d="M175.4,154.7c10.2-0.5,20.7-2.3,29.1-5.2c9.9,9.6,23.3,15,37.1,15c2,0,3.7-1.2,4.5-3
					c0.7-1.8,0.3-3.9-1.1-5.3c-7.3-7.3-10.2-17.9-7.8-27.8c12.2-13,18.9-29.5,18.9-46.4c0-42.2-42.2-72.8-85.4-72.8l0,0
					c-43.7,0-79.6,30.1-82.4,68.1l9.7,0c2.8-32.6,34.3-58.4,72.6-58.4c41.1,0,75.7,28.9,75.7,63.1c0,14.8-6.1,29.3-17.1,40.6l0,0
					c-0.6,0.6-1,1.3-1.2,2.1c-2.8,9.8-1.6,20.1,3,28.9c-8.3-2.1-15.9-6.5-21.8-12.9c-1.4-1.5-3.5-2-5.4-1.2
					c-7.6,3-18.4,5.1-28.6,5.6L175.4,154.7z"/>
				<path fill="#FFFFFF" d="M149.2,96.5h63.3c2.7,0,4.9-2.2,4.9-4.9c0-2.7-2.2-4.9-4.9-4.9h-78.2L149.2,96.5z"/>
			</g>
		</g>
		<path fill="#1C2C35" d="M51.3,145.1c2.7,0,4.9-2.2,4.9-4.9c0-2.7-2.2-4.9-4.9-4.9c-2.7,0-4.9,2.2-4.9,4.9
			C46.5,142.9,48.7,145.1,51.3,145.1L51.3,145.1z M51.3,145.1"/>
		<path fill="#1C2C35" d="M93.1,213c-11.5,0-24.5-2.2-33.3-5.7c-1.9-0.7-4-0.3-5.4,1.2c-5.9,6.4-13.5,10.9-21.8,12.9
			c4.6-8.8,5.7-19.1,3-28.9c-0.2-0.8-0.6-1.5-1.2-2.1c-11-11.3-17.1-25.8-17.1-40.6c0-34.2,34.7-63.1,75.7-63.1
			c38.8,0,72.8,27,72.8,63.1C165.9,184.7,133.2,213,93.1,213L93.1,213z M229.4,122.5 M175.4,144.9c-1.4-18.4-10.7-36.2-26.2-48.4
			c-3.5-2.8-11-7.7-14.9-9.7c-11.3-5.8-23.4-8.9-36.1-9.6l-9.7,0c-41.6,2.1-80.8,32.1-80.8,72.7c0,17,6.7,33.4,18.9,46.4
			c2.4,10-0.5,20.5-7.8,27.8c-1.4,1.4-1.8,3.5-1.1,5.3c0.8,1.8,2.5,3,4.5,3c13.8,0,27.2-5.4,37.1-15c9.7,3.3,22.3,5.3,33.8,5.3
			c43.7,0,79.6-30.1,82.3-68.1L175.4,144.9z"/>
		<path fill="#1C2C35" d="M131.9,135.3H70.8c-2.7,0-4.9,2.2-4.9,4.9s2.2,4.9,4.9,4.9h61.2c2.7,0,4.9-2.2,4.9-4.9
			S134.6,135.3,131.9,135.3L131.9,135.3z M131.9,135.3"/>
		<path fill="#1C2C35" d="M131.9,164.5H51.3c-2.7,0-4.9,2.2-4.9,4.9s2.2,4.9,4.9,4.9h80.6c2.7,0,4.9-2.2,4.9-4.9
			S134.6,164.5,131.9,164.5L131.9,164.5z M131.9,164.5"/>
	</g>
</g>
</svg>
